<?xml version="1.0" encoding="UTF-8" standalone="no"?>
<!DOCTYPE svg PUBLIC "-//W3C//DTD SVG 1.1//EN"
 "http://www.w3.org/Graphics/SVG/1.1/DTD/svg11.dtd">
<!-- Generated by graphviz version 2.38.0 (20140413.2041)
 -->
<!-- Title: g Pages: 1 -->
<svg width="1057pt" height="260pt"
 viewBox="0.00 0.00 1056.63 260.00" xmlns="http://www.w3.org/2000/svg" xmlns:xlink="http://www.w3.org/1999/xlink">
<g id="graph0" class="graph" transform="scale(1 1) rotate(0) translate(4 256)">
<title>g</title>
<polygon fill="white" stroke="none" points="-4,4 -4,-256 1052.63,-256 1052.63,4 -4,4"/>
<g id="clust1" class="cluster"><title>cluster_978676680</title>
<polygon fill="#ececec" stroke="black" points="8,-8 8,-244 1040.63,-244 1040.63,-8 8,-8"/>
<text text-anchor="middle" x="34" y="-228.8" font-family="Times,serif" font-size="14.00">tudelft</text>
</g>
<g id="clust2" class="cluster"><title>cluster_784480068</title>
<polygon fill="#d8d8d8" stroke="black" points="16,-16 16,-213 1032.63,-213 1032.63,-16 16,-16"/>
<text text-anchor="middle" x="47.5" y="-197.8" font-family="Times,serif" font-size="14.00">jpacman</text>
</g>
<g id="clust3" class="cluster"><title>cluster_1191563907</title>
<polygon fill="white" stroke="black" points="703.552,-107 703.552,-182 869.039,-182 869.039,-107 703.552,-107"/>
<text text-anchor="middle" x="749.552" y="-166.8" font-family="Times,serif" font-size="14.00">PlayerFactory</text>
</g>
<g id="clust4" class="cluster"><title>cluster_1625526575</title>
<polygon fill="white" stroke="black" points="718.501,-24 718.501,-99 1024.63,-99 1024.63,-24 718.501,-24"/>
<text text-anchor="middle" x="756.501" y="-83.8" font-family="Times,serif" font-size="14.00">MapParser</text>
</g>
<g id="clust5" class="cluster"><title>cluster_2027304222</title>
<polygon fill="white" stroke="black" points="24,-24 24,-99 635.457,-99 635.457,-24 24,-24"/>
<text text-anchor="middle" x="58" y="-83.8" font-family="Times,serif" font-size="14.00">Launcher</text>
</g>
<g id="clust6" class="cluster"><title>cluster_691989950</title>
<polygon fill="white" stroke="black" points="443.972,-107 443.972,-182 683.552,-182 683.552,-107 443.972,-107"/>
<text text-anchor="middle" x="489.472" y="-166.8" font-family="Times,serif" font-size="14.00">GameFactory</text>
</g>
<!-- PlayerFactory48535646XXXcreatePacMan0 -->
<g id="node1" class="node"><title>PlayerFactory48535646XXXcreatePacMan0</title>
<g id="a_node1"><a xlink:title="PlayerFactory

&#10; &#160;Creates a new player with the classic Pac&#45;Man sprites.&#10; &#10; &#160;@return A new player.&#10; ">
<ellipse fill="white" stroke="black" cx="786.296" cy="-133" rx="74.9875" ry="18"/>
<text text-anchor="middle" x="786.296" y="-129.3" font-family="Times,serif" font-size="14.00" fill="darkgreen">+ createPacMan()</text>
</a>
</g>
</g>
<!-- MapParser48535646XXXparseMap1361886154 -->
<g id="node2" class="node"><title>MapParser48535646XXXparseMap1361886154</title>
<g id="a_node2"><a xlink:title="MapParser

&#10; &#160;Parses the provided input stream as a character stream and passes it&#10; &#160;result to {@link #parseMap(List)}.&#10; &#10; &#160;@param source&#10; The input stream that will be read.&#10; &#160;@return The parsed level as represented by the text on the input stream.&#10; &#160;@throws IOException&#10; &#160;when the source could not be read.&#10; ">
<ellipse fill="white" stroke="black" cx="956.834" cy="-50" rx="59.5901" ry="18"/>
<text text-anchor="middle" x="956.834" y="-46.3" font-family="Times,serif" font-size="14.00" fill="darkgreen">+ parseMap()</text>
</a>
</g>
</g>
<!-- MapParser48535646XXXparseMap1808118735 -->
<g id="node3" class="node"><title>MapParser48535646XXXparseMap1808118735</title>
<g id="a_node3"><a xlink:title="MapParser

&#10; &#160;Parses the provided input stream as a character stream and passes it&#10; &#160;result to {@link #parseMap(List)}.&#10; &#10; &#160;@param mapName&#10; Name of a resource that will be read.&#10; &#160;@return The parsed level as represented by the text on the input stream.&#10; &#160;@throws IOException&#10; &#160;when the resource could not be read.&#10; ">
<ellipse fill="white" stroke="black" cx="786.296" cy="-50" rx="59.5901" ry="18"/>
<text text-anchor="middle" x="786.296" y="-46.3" font-family="Times,serif" font-size="14.00" fill="darkgreen">+ parseMap()</text>
</a>
</g>
</g>
<!-- MapParser48535646XXXparseMap1808118735&#45;&gt;MapParser48535646XXXparseMap1361886154 -->
<g id="edge7" class="edge"><title>MapParser48535646XXXparseMap1808118735&#45;&gt;MapParser48535646XXXparseMap1361886154</title>
<path fill="none" stroke="black" d="M846.242,-50C859.329,-50 873.313,-50 886.763,-50"/>
<polygon fill="black" stroke="black" points="886.921,-53.5001 896.921,-50 886.921,-46.5001 886.921,-53.5001"/>
</g>
<!-- Launcher674465652XXXlaunch0 -->
<g id="node4" class="node"><title>Launcher674465652XXXlaunch0</title>
<g id="a_node4"><a xlink:title="Launcher

&#10; &#160;Creates and starts a JPac&#45;Man game.&#10; ">
<ellipse fill="white" stroke="black" cx="200.588" cy="-50" rx="48.1917" ry="18"/>
<text text-anchor="middle" x="200.588" y="-46.3" font-family="Times,serif" font-size="14.00" fill="darkgreen">+ launch()</text>
</a>
</g>
</g>
<!-- Launcher674465652XXXmakeGame0 -->
<g id="node6" class="node"><title>Launcher674465652XXXmakeGame0</title>
<g id="a_node6"><a xlink:title="Launcher

&#10; &#160;Creates a new game using the level from {@link #makeLevel()}.&#10; &#10; &#160;@return a new Game.&#10; ">
<ellipse fill="white" stroke="black" stroke-width="4" cx="350.328" cy="-50" rx="65.7887" ry="18"/>
<text text-anchor="middle" x="350.328" y="-46.3" font-family="Times,serif" font-size="14.00" fill="darkgreen">+ makeGame()</text>
</a>
</g>
</g>
<!-- Launcher674465652XXXlaunch0&#45;&gt;Launcher674465652XXXmakeGame0 -->
<g id="edge2" class="edge"><title>Launcher674465652XXXlaunch0&#45;&gt;Launcher674465652XXXmakeGame0</title>
<path fill="none" stroke="black" d="M248.74,-50C256.934,-50 265.635,-50 274.357,-50"/>
<polygon fill="black" stroke="black" points="274.575,-53.5001 284.575,-50 274.575,-46.5001 274.575,-53.5001"/>
</g>
<!-- Launcher674465652XXXmain1859653459 -->
<g id="node5" class="node"><title>Launcher674465652XXXmain1859653459</title>
<g id="a_node5"><a xlink:title="Launcher

&#10; &#160;Main execution method for the Launcher.&#10; &#10; &#160;@param args&#10; The command line arguments &#45; which are ignored.&#10; &#160;@throws IOException&#10; &#160;When a resource could not be read.&#10; ">
<ellipse fill="white" stroke="black" cx="74.2463" cy="-50" rx="42.4939" ry="18"/>
<text text-anchor="middle" x="74.2463" y="-46.3" font-family="Times,serif" font-size="14.00" fill="darkgreen">+ main()</text>
</a>
</g>
</g>
<!-- Launcher674465652XXXmain1859653459&#45;&gt;Launcher674465652XXXlaunch0 -->
<g id="edge3" class="edge"><title>Launcher674465652XXXmain1859653459&#45;&gt;Launcher674465652XXXlaunch0</title>
<path fill="none" stroke="black" d="M116.65,-50C124.876,-50 133.65,-50 142.297,-50"/>
<polygon fill="black" stroke="black" points="142.35,-53.5001 152.35,-50 142.35,-46.5001 142.35,-53.5001"/>
</g>
<!-- Launcher674465652XXXmakeLevel0 -->
<g id="node7" class="node"><title>Launcher674465652XXXmakeLevel0</title>
<g id="a_node7"><a xlink:title="Launcher

&#10; &#160;Creates a new level. By default this method will use the map parser to&#10; &#160;parse the default board stored in the \&lt;code\&gt;board.txt\&lt;/code\&gt; resource.&#10; &#10; &#160;@return A new level.&#10; ">
<ellipse fill="white" stroke="black" cx="563.762" cy="-50" rx="63.8893" ry="18"/>
<text text-anchor="middle" x="563.762" y="-46.3" font-family="Times,serif" font-size="14.00" fill="darkgreen">+ makeLevel()</text>
</a>
</g>
</g>
<!-- Launcher674465652XXXmakeGame0&#45;&gt;Launcher674465652XXXmakeLevel0 -->
<g id="edge5" class="edge"><title>Launcher674465652XXXmakeGame0&#45;&gt;Launcher674465652XXXmakeLevel0</title>
<path fill="none" stroke="black" d="M416.202,-50C439.464,-50 465.843,-50 489.747,-50"/>
<polygon fill="black" stroke="black" points="489.824,-53.5001 499.824,-50 489.824,-46.5001 489.824,-53.5001"/>
</g>
<!-- GameFactory555908076XXXcreateSinglePlayerGame73313124 -->
<g id="node8" class="node"><title>GameFactory555908076XXXcreateSinglePlayerGame73313124</title>
<g id="a_node8"><a xlink:title="GameFactory

&#10; &#160;Creates a game for a single level with one player.&#10; &#10; &#160;@param level&#10; The level to create a game for.&#10; &#160;@return A new single player game.&#10; ">
<ellipse fill="white" stroke="black" cx="563.762" cy="-133" rx="111.581" ry="18"/>
<text text-anchor="middle" x="563.762" y="-129.3" font-family="Times,serif" font-size="14.00" fill="darkgreen">+ createSinglePlayerGame()</text>
</a>
</g>
</g>
<!-- Launcher674465652XXXmakeGame0&#45;&gt;GameFactory555908076XXXcreateSinglePlayerGame73313124 -->
<g id="edge4" class="edge"><title>Launcher674465652XXXmakeGame0&#45;&gt;GameFactory555908076XXXcreateSinglePlayerGame73313124</title>
<path fill="none" stroke="black" d="M379.628,-66.1897C406.873,-81.7761 443.972,-103 443.972,-103 443.972,-103 466.959,-108.805 492.709,-115.308"/>
<polygon fill="black" stroke="black" points="492.119,-118.769 502.671,-117.824 493.833,-111.982 492.119,-118.769"/>
</g>
<!-- Launcher674465652XXXmakeLevel0&#45;&gt;MapParser48535646XXXparseMap1808118735 -->
<g id="edge6" class="edge"><title>Launcher674465652XXXmakeLevel0&#45;&gt;MapParser48535646XXXparseMap1808118735</title>
<path fill="none" stroke="black" d="M627.663,-50C655.33,-50 687.908,-50 716.244,-50"/>
<polygon fill="black" stroke="black" points="716.475,-53.5001 726.475,-50 716.475,-46.5001 716.475,-53.5001"/>
</g>
<!-- GameFactory555908076XXXcreateSinglePlayerGame73313124&#45;&gt;PlayerFactory48535646XXXcreatePacMan0 -->
<g id="edge1" class="edge"><title>GameFactory555908076XXXcreateSinglePlayerGame73313124&#45;&gt;PlayerFactory48535646XXXcreatePacMan0</title>
<path fill="none" stroke="black" d="M675.675,-133C684.292,-133 692.904,-133 701.299,-133"/>
<polygon fill="black" stroke="black" points="701.419,-136.5 711.419,-133 701.419,-129.5 701.419,-136.5"/>
</g>
</g>
</svg>
