<?xml version="1.0" encoding="UTF-8" standalone="no"?><svg xmlns="http://www.w3.org/2000/svg" xmlns:xlink="http://www.w3.org/1999/xlink" contentScriptType="application/ecmascript" contentStyleType="text/css" height="495px" preserveAspectRatio="none" style="width:927px;height:495px;background:#FFFFFF;" version="1.1" viewBox="0 0 927 495" width="927px" zoomAndPan="magnify"><defs><filter height="300%" id="f1jmuah5ztza55" width="300%" x="-1" y="-1"><feGaussianBlur result="blurOut" stdDeviation="2.0"/><feColorMatrix in="blurOut" result="blurOut2" type="matrix" values="0 0 0 0 0 0 0 0 0 0 0 0 0 0 0 0 0 0 .4 0"/><feOffset dx="4.0" dy="4.0" in="blurOut2" result="blurOut3"/><feBlend in="SourceGraphic" in2="blurOut3" mode="normal"/></filter></defs><g><!--MD5=[9563755d011c5cec7ec66dc53565a59e]
class Board--><rect codeLine="3" fill="#FEFECE" filter="url(#f1jmuah5ztza55)" height="137.6328" id="Board" style="stroke:#A80036;stroke-width:1.5;" width="334" x="55.4577" y="7"/><ellipse cx="200.2077" cy="23" fill="#ADD1B2" rx="11" ry="11" style="stroke:#A80036;stroke-width:1.0;"/><path d="M202.5515,18.6719 C201.614,18.2344 201.0202,18.0938 200.1452,18.0938 C197.5202,18.0938 195.5202,20.1719 195.5202,22.8906 L195.5202,24.0156 C195.5202,26.5938 197.6296,28.4844 200.5202,28.4844 C201.739,28.4844 202.8952,28.1875 203.6452,27.6406 C204.2234,27.2344 204.5515,26.7813 204.5515,26.3906 C204.5515,25.9375 204.1609,25.5469 203.6921,25.5469 C203.4734,25.5469 203.2702,25.625 203.0827,25.8125 C202.6296,26.2969 202.6296,26.2969 202.4421,26.3906 C202.0202,26.6563 201.3327,26.7813 200.5671,26.7813 C198.5202,26.7813 197.2234,25.6875 197.2234,23.9844 L197.2234,22.8906 C197.2234,21.1094 198.4734,19.7969 200.2077,19.7969 C200.7859,19.7969 201.3952,19.9531 201.864,20.2031 C202.3484,20.4844 202.5202,20.7031 202.614,21.1094 C202.6765,21.5156 202.7077,21.6406 202.8484,21.7656 C202.989,21.9063 203.2234,22.0156 203.4421,22.0156 C203.7077,22.0156 203.9734,21.875 204.1452,21.6563 C204.2546,21.5 204.2859,21.3125 204.2859,20.8906 L204.2859,19.4688 C204.2859,19.0313 204.2702,18.9063 204.1765,18.75 C204.0202,18.4844 203.739,18.3438 203.4421,18.3438 C203.1452,18.3438 202.9421,18.4375 202.7234,18.75 L202.5515,18.6719 Z " fill="#000000"/><text fill="#000000" font-family="sans-serif" font-size="12" lengthAdjust="spacing" textLength="36" x="220.7077" y="27.1543">Board</text><line style="stroke:#A80036;stroke-width:1.5;" x1="56.4577" x2="388.4577" y1="39" y2="39"/><rect fill="none" height="6" style="stroke:#C82930;stroke-width:1.0;" width="6" x="63.4577" y="47"/><text fill="#000000" font-family="sans-serif" font-size="11" lengthAdjust="spacing" textLength="224" x="75.4577" y="53.2104">List&lt;BoardObservers&gt; boardObservers</text><rect fill="none" height="6" style="stroke:#C82930;stroke-width:1.0;" width="6" x="63.4577" y="59.8047"/><text fill="#000000" font-family="sans-serif" font-size="11" lengthAdjust="spacing" textLength="64" x="75.4577" y="66.0151">Store store</text><line style="stroke:#A80036;stroke-width:1.5;" x1="56.4577" x2="388.4577" y1="72.6094" y2="72.6094"/><ellipse cx="66.4577" cy="83.6094" fill="#84BE84" rx="3" ry="3" style="stroke:#038048;stroke-width:1.0;"/><text fill="#000000" font-family="sans-serif" font-size="11" lengthAdjust="spacing" textLength="183" x="75.4577" y="86.8198">void executeMove(Move move)</text><ellipse cx="66.4577" cy="96.4141" fill="#84BE84" rx="3" ry="3" style="stroke:#038048;stroke-width:1.0;"/><text fill="#000000" font-family="sans-serif" font-size="11" lengthAdjust="spacing" textLength="307" x="75.4577" y="99.6245">Optional&lt;Piece&gt; getPieceAt(BoardCoordinates piece)</text><ellipse cx="66.4577" cy="109.2188" fill="#84BE84" rx="3" ry="3" style="stroke:#038048;stroke-width:1.0;"/><text fill="#000000" font-family="sans-serif" font-size="11" lengthAdjust="spacing" textLength="308" x="75.4577" y="112.4292">void registerObserver(BoardObserver boardObserver)</text><rect fill="#F24D5C" height="6" style="stroke:#C82930;stroke-width:1.0;" width="6" x="63.4577" y="119.0234"/><text fill="#000000" font-family="sans-serif" font-size="11" lengthAdjust="spacing" textLength="171" x="75.4577" y="125.2339">createCommand(Move move)</text><rect fill="#F24D5C" height="6" style="stroke:#C82930;stroke-width:1.0;" width="6" x="63.4577" y="131.8281"/><text fill="#000000" font-family="sans-serif" font-size="11" lengthAdjust="spacing" textLength="168" x="75.4577" y="138.0386">isConvertToKing(Move move)</text><!--MD5=[b4d3d50c0abf08df45181fececb9f04d]
class Store--><rect codeLine="13" fill="#FEFECE" filter="url(#f1jmuah5ztza55)" height="86.4141" id="Store" style="stroke:#A80036;stroke-width:1.5;" width="425" x="100.9577" y="395"/><ellipse cx="292.7077" cy="411" fill="#ADD1B2" rx="11" ry="11" style="stroke:#A80036;stroke-width:1.0;"/><path d="M295.0515,406.6719 C294.114,406.2344 293.5202,406.0938 292.6452,406.0938 C290.0202,406.0938 288.0202,408.1719 288.0202,410.8906 L288.0202,412.0156 C288.0202,414.5938 290.1296,416.4844 293.0202,416.4844 C294.239,416.4844 295.3952,416.1875 296.1452,415.6406 C296.7234,415.2344 297.0515,414.7813 297.0515,414.3906 C297.0515,413.9375 296.6609,413.5469 296.1921,413.5469 C295.9734,413.5469 295.7702,413.625 295.5827,413.8125 C295.1296,414.2969 295.1296,414.2969 294.9421,414.3906 C294.5202,414.6563 293.8327,414.7813 293.0671,414.7813 C291.0202,414.7813 289.7234,413.6875 289.7234,411.9844 L289.7234,410.8906 C289.7234,409.1094 290.9734,407.7969 292.7077,407.7969 C293.2859,407.7969 293.8952,407.9531 294.364,408.2031 C294.8484,408.4844 295.0202,408.7031 295.114,409.1094 C295.1765,409.5156 295.2077,409.6406 295.3484,409.7656 C295.489,409.9063 295.7234,410.0156 295.9421,410.0156 C296.2077,410.0156 296.4734,409.875 296.6452,409.6563 C296.7546,409.5 296.7859,409.3125 296.7859,408.8906 L296.7859,407.4688 C296.7859,407.0313 296.7702,406.9063 296.6765,406.75 C296.5202,406.4844 296.239,406.3438 295.9421,406.3438 C295.6452,406.3438 295.4421,406.4375 295.2234,406.75 L295.0515,406.6719 Z " fill="#000000"/><text fill="#000000" font-family="sans-serif" font-size="12" lengthAdjust="spacing" textLength="33" x="313.2077" y="415.1543">Store</text><line style="stroke:#A80036;stroke-width:1.5;" x1="101.9577" x2="524.9577" y1="427" y2="427"/><rect fill="none" height="6" style="stroke:#C82930;stroke-width:1.0;" width="6" x="108.9577" y="435"/><text fill="#000000" font-family="sans-serif" font-size="11" lengthAdjust="spacing" textLength="399" x="120.9577" y="441.2104">Map&lt;BoardCoordinates, Map&lt;BoardCoordinates, Piece&gt;&gt; boardMatrix</text><line style="stroke:#A80036;stroke-width:1.5;" x1="101.9577" x2="524.9577" y1="447.8047" y2="447.8047"/><polygon fill="#4177AF" points="111.9577,454.8047,107.9577,460.8047,115.9577,460.8047" style="stroke:#1963A0;stroke-width:1.0;"/><text fill="#000000" font-family="sans-serif" font-size="11" lengthAdjust="spacing" textLength="317" x="120.9577" y="462.0151">void removePiece(BoardCoordinates boardCoordinates)</text><polygon fill="#4177AF" points="111.9577,467.6094,107.9577,473.6094,115.9577,473.6094" style="stroke:#1963A0;stroke-width:1.0;"/><text fill="#000000" font-family="sans-serif" font-size="11" lengthAdjust="spacing" textLength="367" x="120.9577" y="474.8198">void addPiece(BoardCoordinates boardCoordinates, Piece piece)</text><!--MD5=[521817ab83e81da341a3f4b5e91bae41]
class Command--><rect codeLine="19" fill="#FEFECE" filter="url(#f1jmuah5ztza55)" height="60.8047" id="Command" style="stroke:#A80036;stroke-width:1.5;" width="110" x="473.4577" y="45.5"/><ellipse cx="495.6577" cy="61.5" fill="#B4A7E5" rx="11" ry="11" style="stroke:#A80036;stroke-width:1.0;"/><path d="M496.6109,58.2813 L498.3296,58.2813 C498.7202,58.2813 498.9077,58.25 499.0327,58.1719 C499.2984,58.0156 499.439,57.7344 499.439,57.4375 C499.439,57.1719 499.3296,56.9063 499.0952,56.7344 C498.9234,56.625 498.7827,56.5938 498.3296,56.5938 L493.189,56.5938 C492.7515,56.5938 492.6265,56.6094 492.4702,56.7031 C492.2202,56.8594 492.064,57.1563 492.064,57.4375 C492.064,57.7188 492.2046,57.9688 492.4234,58.1406 C492.5796,58.25 492.7671,58.2813 493.189,58.2813 L494.9077,58.2813 L494.9077,64.7969 L493.189,64.7969 C492.7515,64.7969 492.6265,64.8125 492.4702,64.9219 C492.2202,65.0781 492.064,65.3594 492.064,65.6563 C492.064,65.9063 492.2046,66.1719 492.4234,66.3281 C492.5796,66.4531 492.7827,66.5 493.189,66.5 L498.3296,66.5 C499.0796,66.5 499.439,66.2188 499.439,65.6563 C499.439,65.375 499.3296,65.125 499.0952,64.9531 C498.9234,64.8281 498.7827,64.7969 498.3296,64.7969 L496.6109,64.7969 L496.6109,58.2813 Z " fill="#000000"/><text fill="#000000" font-family="sans-serif" font-size="12" font-style="italic" lengthAdjust="spacing" textLength="62" x="511.2577" y="65.6543">Command</text><line style="stroke:#A80036;stroke-width:1.5;" x1="474.4577" x2="582.4577" y1="77.5" y2="77.5"/><line style="stroke:#A80036;stroke-width:1.5;" x1="474.4577" x2="582.4577" y1="85.5" y2="85.5"/><polygon fill="#4177AF" points="484.4577,92.5,480.4577,98.5,488.4577,98.5" style="stroke:#1963A0;stroke-width:1.0;"/><text fill="#000000" font-family="sans-serif" font-size="11" lengthAdjust="spacing" textLength="84" x="493.4577" y="99.7104">void execute()</text><!--MD5=[43153638fdbad73b1090f58c5e12c2a7]
class JumpGambleLostMove--><rect codeLine="23" fill="#FEFECE" filter="url(#f1jmuah5ztza55)" height="86.4141" id="JumpGambleLostMove" style="stroke:#A80036;stroke-width:1.5;" width="244" x="331.4577" y="235"/><ellipse cx="382.2077" cy="251" fill="#ADD1B2" rx="11" ry="11" style="stroke:#A80036;stroke-width:1.0;"/><path d="M384.5515,246.6719 C383.614,246.2344 383.0202,246.0938 382.1452,246.0938 C379.5202,246.0938 377.5202,248.1719 377.5202,250.8906 L377.5202,252.0156 C377.5202,254.5938 379.6296,256.4844 382.5202,256.4844 C383.739,256.4844 384.8952,256.1875 385.6452,255.6406 C386.2234,255.2344 386.5515,254.7813 386.5515,254.3906 C386.5515,253.9375 386.1609,253.5469 385.6921,253.5469 C385.4734,253.5469 385.2702,253.625 385.0827,253.8125 C384.6296,254.2969 384.6296,254.2969 384.4421,254.3906 C384.0202,254.6563 383.3327,254.7813 382.5671,254.7813 C380.5202,254.7813 379.2234,253.6875 379.2234,251.9844 L379.2234,250.8906 C379.2234,249.1094 380.4734,247.7969 382.2077,247.7969 C382.7859,247.7969 383.3952,247.9531 383.864,248.2031 C384.3484,248.4844 384.5202,248.7031 384.614,249.1094 C384.6765,249.5156 384.7077,249.6406 384.8484,249.7656 C384.989,249.9063 385.2234,250.0156 385.4421,250.0156 C385.7077,250.0156 385.9734,249.875 386.1452,249.6563 C386.2546,249.5 386.2859,249.3125 386.2859,248.8906 L386.2859,247.4688 C386.2859,247.0313 386.2702,246.9063 386.1765,246.75 C386.0202,246.4844 385.739,246.3438 385.4421,246.3438 C385.1452,246.3438 384.9421,246.4375 384.7234,246.75 L384.5515,246.6719 Z " fill="#000000"/><text fill="#000000" font-family="sans-serif" font-size="12" lengthAdjust="spacing" textLength="134" x="402.7077" y="255.1543">JumpGambleLostMove</text><line style="stroke:#A80036;stroke-width:1.5;" x1="332.4577" x2="574.4577" y1="267" y2="267"/><rect fill="none" height="6" style="stroke:#C82930;stroke-width:1.0;" width="6" x="339.4577" y="275"/><text fill="#000000" font-family="sans-serif" font-size="11" lengthAdjust="spacing" textLength="64" x="351.4577" y="281.2104">Store store</text><rect fill="none" height="6" style="stroke:#C82930;stroke-width:1.0;" width="6" x="339.4577" y="287.8047"/><text fill="#000000" font-family="sans-serif" font-size="11" lengthAdjust="spacing" textLength="218" x="351.4577" y="294.0151">Tuple&lt;BoardCoordinates, Piece&gt; start</text><line style="stroke:#A80036;stroke-width:1.5;" x1="332.4577" x2="574.4577" y1="300.6094" y2="300.6094"/><ellipse cx="342.4577" cy="311.6094" fill="#84BE84" rx="3" ry="3" style="stroke:#038048;stroke-width:1.0;"/><text fill="#000000" font-family="sans-serif" font-size="11" lengthAdjust="spacing" textLength="84" x="351.4577" y="314.8198">void execute()</text><!--MD5=[cc1f3e8e2f22c253e0d0d838a13f31db]
class SimpleMove--><rect codeLine="29" fill="#FEFECE" filter="url(#f1jmuah5ztza55)" height="99.2188" id="SimpleMove" style="stroke:#A80036;stroke-width:1.5;" width="244" x="52.4577" y="228.5"/><ellipse cx="133.2077" cy="244.5" fill="#ADD1B2" rx="11" ry="11" style="stroke:#A80036;stroke-width:1.0;"/><path d="M135.5515,240.1719 C134.614,239.7344 134.0202,239.5938 133.1452,239.5938 C130.5202,239.5938 128.5202,241.6719 128.5202,244.3906 L128.5202,245.5156 C128.5202,248.0938 130.6296,249.9844 133.5202,249.9844 C134.739,249.9844 135.8952,249.6875 136.6452,249.1406 C137.2234,248.7344 137.5515,248.2813 137.5515,247.8906 C137.5515,247.4375 137.1609,247.0469 136.6921,247.0469 C136.4734,247.0469 136.2702,247.125 136.0827,247.3125 C135.6296,247.7969 135.6296,247.7969 135.4421,247.8906 C135.0202,248.1563 134.3327,248.2813 133.5671,248.2813 C131.5202,248.2813 130.2234,247.1875 130.2234,245.4844 L130.2234,244.3906 C130.2234,242.6094 131.4734,241.2969 133.2077,241.2969 C133.7859,241.2969 134.3952,241.4531 134.864,241.7031 C135.3484,241.9844 135.5202,242.2031 135.614,242.6094 C135.6765,243.0156 135.7077,243.1406 135.8484,243.2656 C135.989,243.4063 136.2234,243.5156 136.4421,243.5156 C136.7077,243.5156 136.9734,243.375 137.1452,243.1563 C137.2546,243 137.2859,242.8125 137.2859,242.3906 L137.2859,240.9688 C137.2859,240.5313 137.2702,240.4063 137.1765,240.25 C137.0202,239.9844 136.739,239.8438 136.4421,239.8438 C136.1452,239.8438 135.9421,239.9375 135.7234,240.25 L135.5515,240.1719 Z " fill="#000000"/><text fill="#000000" font-family="sans-serif" font-size="12" lengthAdjust="spacing" textLength="74" x="153.7077" y="248.6543">SimpleMove</text><line style="stroke:#A80036;stroke-width:1.5;" x1="53.4577" x2="295.4577" y1="260.5" y2="260.5"/><rect fill="none" height="6" style="stroke:#C82930;stroke-width:1.0;" width="6" x="60.4577" y="268.5"/><text fill="#000000" font-family="sans-serif" font-size="11" lengthAdjust="spacing" textLength="64" x="72.4577" y="274.7104">Store store</text><rect fill="none" height="6" style="stroke:#C82930;stroke-width:1.0;" width="6" x="60.4577" y="281.3047"/><text fill="#000000" font-family="sans-serif" font-size="11" lengthAdjust="spacing" textLength="218" x="72.4577" y="287.5151">Tuple&lt;BoardCoordinates, Piece&gt; start</text><rect fill="none" height="6" style="stroke:#C82930;stroke-width:1.0;" width="6" x="60.4577" y="294.1094"/><text fill="#000000" font-family="sans-serif" font-size="11" lengthAdjust="spacing" textLength="215" x="72.4577" y="300.3198">Tuple&lt;BoardCoordinates, Piece&gt; end</text><line style="stroke:#A80036;stroke-width:1.5;" x1="53.4577" x2="295.4577" y1="306.9141" y2="306.9141"/><ellipse cx="63.4577" cy="317.9141" fill="#84BE84" rx="3" ry="3" style="stroke:#038048;stroke-width:1.0;"/><text fill="#000000" font-family="sans-serif" font-size="11" lengthAdjust="spacing" textLength="84" x="72.4577" y="321.1245">void execute()</text><!--MD5=[7ed8f2b6a7bad0d1204654751a914d93]
class JumpMove--><rect codeLine="36" fill="#FEFECE" filter="url(#f1jmuah5ztza55)" height="112.0234" id="JumpMove" style="stroke:#A80036;stroke-width:1.5;" width="303" x="610.9577" y="222"/><ellipse cx="726.7077" cy="238" fill="#ADD1B2" rx="11" ry="11" style="stroke:#A80036;stroke-width:1.0;"/><path d="M729.0515,233.6719 C728.114,233.2344 727.5202,233.0938 726.6452,233.0938 C724.0202,233.0938 722.0202,235.1719 722.0202,237.8906 L722.0202,239.0156 C722.0202,241.5938 724.1296,243.4844 727.0202,243.4844 C728.239,243.4844 729.3952,243.1875 730.1452,242.6406 C730.7234,242.2344 731.0515,241.7813 731.0515,241.3906 C731.0515,240.9375 730.6609,240.5469 730.1921,240.5469 C729.9734,240.5469 729.7702,240.625 729.5827,240.8125 C729.1296,241.2969 729.1296,241.2969 728.9421,241.3906 C728.5202,241.6563 727.8327,241.7813 727.0671,241.7813 C725.0202,241.7813 723.7234,240.6875 723.7234,238.9844 L723.7234,237.8906 C723.7234,236.1094 724.9734,234.7969 726.7077,234.7969 C727.2859,234.7969 727.8952,234.9531 728.364,235.2031 C728.8484,235.4844 729.0202,235.7031 729.114,236.1094 C729.1765,236.5156 729.2077,236.6406 729.3484,236.7656 C729.489,236.9063 729.7234,237.0156 729.9421,237.0156 C730.2077,237.0156 730.4734,236.875 730.6452,236.6563 C730.7546,236.5 730.7859,236.3125 730.7859,235.8906 L730.7859,234.4688 C730.7859,234.0313 730.7702,233.9063 730.6765,233.75 C730.5202,233.4844 730.239,233.3438 729.9421,233.3438 C729.6452,233.3438 729.4421,233.4375 729.2234,233.75 L729.0515,233.6719 Z " fill="#000000"/><text fill="#000000" font-family="sans-serif" font-size="12" lengthAdjust="spacing" textLength="63" x="747.2077" y="242.1543">JumpMove</text><line style="stroke:#A80036;stroke-width:1.5;" x1="611.9577" x2="912.9577" y1="254" y2="254"/><rect fill="none" height="6" style="stroke:#C82930;stroke-width:1.0;" width="6" x="618.9577" y="262"/><text fill="#000000" font-family="sans-serif" font-size="11" lengthAdjust="spacing" textLength="64" x="630.9577" y="268.2104">Store store</text><rect fill="none" height="6" style="stroke:#C82930;stroke-width:1.0;" width="6" x="618.9577" y="274.8047"/><text fill="#000000" font-family="sans-serif" font-size="11" lengthAdjust="spacing" textLength="218" x="630.9577" y="281.0151">Tuple&lt;BoardCoordinates, Piece&gt; start</text><rect fill="none" height="6" style="stroke:#C82930;stroke-width:1.0;" width="6" x="618.9577" y="287.6094"/><text fill="#000000" font-family="sans-serif" font-size="11" lengthAdjust="spacing" textLength="277" x="630.9577" y="293.8198">Tuple&lt;BoardCoordinates, Piece&gt; pieceBetween</text><rect fill="none" height="6" style="stroke:#C82930;stroke-width:1.0;" width="6" x="618.9577" y="300.4141"/><text fill="#000000" font-family="sans-serif" font-size="11" lengthAdjust="spacing" textLength="215" x="630.9577" y="306.6245">Tuple&lt;BoardCoordinates, Piece&gt; end</text><line style="stroke:#A80036;stroke-width:1.5;" x1="611.9577" x2="912.9577" y1="313.2188" y2="313.2188"/><ellipse cx="621.9577" cy="324.2188" fill="#84BE84" rx="3" ry="3" style="stroke:#038048;stroke-width:1.0;"/><text fill="#000000" font-family="sans-serif" font-size="11" lengthAdjust="spacing" textLength="84" x="630.9577" y="327.4292">void execute()</text><!--MD5=[263b80f1caedece67119a2b698dc5c09]
reverse link Command to JumpGambleLostMove--><path codeLine="44" d="M523.0287,126.743 C519.7347,147.414 514.5447,171.35 506.4577,192 C500.6867,206.736 492.3217,221.736 483.9357,234.95 " fill="none" id="Command-backto-JumpGambleLostMove" style="stroke:#A80036;stroke-width:1.0;stroke-dasharray:7.0,7.0;"/><polygon fill="none" points="516.1327,125.507,525.8157,106.659,529.9997,127.431,516.1327,125.507" style="stroke:#A80036;stroke-width:1.0;"/><!--MD5=[c3a0ef7ccfc54b5e2b533eb0fdeb91f7]
reverse link Command to SimpleMove--><path codeLine="45" d="M470.7987,118.434 C437.7847,141.361 395.1477,169.65 355.4577,192 C333.0727,204.605 308.5057,217.025 284.8877,228.314 " fill="none" id="Command-backto-SimpleMove" style="stroke:#A80036;stroke-width:1.0;stroke-dasharray:7.0,7.0;"/><polygon fill="none" points="467.1997,112.409,487.5937,106.658,475.2367,123.872,467.1997,112.409" style="stroke:#A80036;stroke-width:1.0;"/><!--MD5=[edc9ea819b37122a6131046c792836d2]
reverse link Command to JumpMove--><path codeLine="46" d="M578.5437,119.808 C613.3497,149.557 660.0577,189.479 697.6927,221.646 " fill="none" id="Command-backto-JumpMove" style="stroke:#A80036;stroke-width:1.0;stroke-dasharray:7.0,7.0;"/><polygon fill="none" points="573.6407,124.826,562.9847,106.511,582.7367,114.184,573.6407,124.826" style="stroke:#A80036;stroke-width:1.0;"/><!--MD5=[46b196d7c47ef3a136da590502e6fadf]
link Board to JumpGambleLostMove--><path codeLine="48" d="M276.0787,145.042 C290.3277,161.271 306.2797,177.944 322.4577,192 C338.7777,206.179 357.6407,219.772 375.8797,231.768 " fill="none" id="Board-to-JumpGambleLostMove" style="stroke:#A80036;stroke-width:1.0;stroke-dasharray:7.0,7.0;"/><polygon fill="#A80036" points="380.5017,234.783,375.1493,226.5155,376.314,232.0512,370.7784,233.2159,380.5017,234.783" style="stroke:#A80036;stroke-width:1.0;"/><text fill="#000000" font-family="sans-serif" font-size="13" lengthAdjust="spacing" textLength="68" x="323.4577" y="188.0669">instantiate</text><!--MD5=[656ce3dee4c13c968d68b369a54273ee]
link Board to SimpleMove--><path codeLine="49" d="M181.7857,145.239 C177.5427,154.951 173.8957,165.033 171.4577,175 C167.6947,190.384 166.9247,207.461 167.5177,223.174 " fill="none" id="Board-to-SimpleMove" style="stroke:#A80036;stroke-width:1.0;stroke-dasharray:7.0,7.0;"/><polygon fill="#A80036" points="167.7687,228.445,171.3374,219.2654,167.5316,223.4506,163.3464,219.6448,167.7687,228.445" style="stroke:#A80036;stroke-width:1.0;"/><text fill="#000000" font-family="sans-serif" font-size="13" lengthAdjust="spacing" textLength="68" x="172.4577" y="188.0669">instantiate</text><!--MD5=[a70e36536dd44f0828e9e74c61ecc93f]
link Board to JumpMove--><path codeLine="50" d="M389.6187,138.912 C459.6457,164.847 540.5227,194.802 609.0157,220.17 " fill="none" id="Board-to-JumpMove" style="stroke:#A80036;stroke-width:1.0;stroke-dasharray:7.0,7.0;"/><polygon fill="#A80036" points="613.9257,221.988,606.8754,215.111,609.237,220.2513,604.0967,222.613,613.9257,221.988" style="stroke:#A80036;stroke-width:1.0;"/><text fill="#000000" font-family="sans-serif" font-size="13" lengthAdjust="spacing" textLength="68" x="526.4577" y="188.0669">instantiate</text><!--MD5=[3c0bb976202c07dfa4b9329ec32b1658]
link Board to Store--><path codeLine="51" d="M100.1469,145.246 C73.7167,166.204 49.2783,191.852 34.4577,222 C12.497,266.672 6,293.159 34.4577,334 C51.9675,359.129 76.3424,378.143 103.461,392.5261 " fill="none" id="Board-to-Store" style="stroke:#A80036;stroke-width:1.0;stroke-dasharray:7.0,7.0;"/><polygon fill="#A80036" points="108.1943,394.9761,102.0405,387.2865,103.754,392.6776,98.3629,394.391,108.1943,394.9761" style="stroke:#A80036;stroke-width:1.0;"/><!--MD5=[c4f8035a55a352cbd3c0dfc6c648ed87]
link JumpGambleLostMove to Store--><path codeLine="52" d="M415.9407,321.341 C396.8757,342.857 373.6797,369.035 354.1807,391.0406 " fill="none" id="JumpGambleLostMove-to-Store" style="stroke:#A80036;stroke-width:1.0;stroke-dasharray:7.0,7.0;"/><polygon fill="#A80036" points="350.8357,394.8162,359.798,390.7323,354.1514,391.0737,353.81,385.4272,350.8357,394.8162" style="stroke:#A80036;stroke-width:1.0;"/><!--MD5=[61b9eb6a479b841942d866d8405ac43e]
link SimpleMove to Store--><path codeLine="53" d="M217.2967,327.694 C235.0197,347.841 255.4697,371.086 272.9427,390.947 " fill="none" id="SimpleMove-to-Store" style="stroke:#A80036;stroke-width:1.0;stroke-dasharray:7.0,7.0;"/><polygon fill="#A80036" points="276.3957,394.8721,273.4527,385.4733,273.0925,391.1186,267.4471,390.7585,276.3957,394.8721" style="stroke:#A80036;stroke-width:1.0;"/><!--MD5=[cc1dc030bfdcd140fab149ab28105d18]
link JumpMove to Store--><path codeLine="54" d="M610.7597,332.381 C554.4337,352.202 491.2517,374.436 437.6647,393.2924 " fill="none" id="JumpMove-to-Store" style="stroke:#A80036;stroke-width:1.0;stroke-dasharray:7.0,7.0;"/><polygon fill="#A80036" points="432.8397,394.9904,442.6572,395.7756,437.5562,393.3305,440.0013,388.2294,432.8397,394.9904" style="stroke:#A80036;stroke-width:1.0;"/><!--MD5=[117ca69ea8c4f1e9cf5a15737eb4fe96]
@startuml
'https://plantuml.com/class-diagram

class Board {
    - List<BoardObservers> boardObservers
    - Store store
    + void executeMove(Move move)
    + Optional<Piece> getPieceAt(BoardCoordinates piece)
    + void registerObserver(BoardObserver boardObserver)
    - createCommand(Move move)
    - isConvertToKing(Move move)
}

class Store {
    - Map<BoardCoordinates, Map<BoardCoordinates, Piece>> boardMatrix
    ~ void removePiece(BoardCoordinates boardCoordinates)
    ~ void addPiece(BoardCoordinates boardCoordinates, Piece piece)
}

interface Command {
    ~ void execute()
}

class JumpGambleLostMove {
    - Store store
    - Tuple<BoardCoordinates, Piece> start
    + void execute()
}

class SimpleMove {
    - Store store
    - Tuple<BoardCoordinates, Piece> start
    - Tuple<BoardCoordinates, Piece> end
    + void execute()
}

class JumpMove {
    - Store store
    - Tuple<BoardCoordinates, Piece> start
    - Tuple<BoardCoordinates, Piece> pieceBetween
    - Tuple<BoardCoordinates, Piece> end
    + void execute()
}

Command <|.. JumpGambleLostMove
Command <|.. SimpleMove
Command <|.. JumpMove

Board ..> JumpGambleLostMove: instantiate
Board ..> SimpleMove: instantiate
Board ..> JumpMove: instantiate
Board ..> Store
JumpGambleLostMove ..> Store
SimpleMove ..> Store
JumpMove ..> Store
@enduml

@startuml

class Board {
    - List<BoardObservers> boardObservers
    - Store store
    + void executeMove(Move move)
    + Optional<Piece> getPieceAt(BoardCoordinates piece)
    + void registerObserver(BoardObserver boardObserver)
    - createCommand(Move move)
    - isConvertToKing(Move move)
}

class Store {
    - Map<BoardCoordinates, Map<BoardCoordinates, Piece>> boardMatrix
    ~ void removePiece(BoardCoordinates boardCoordinates)
    ~ void addPiece(BoardCoordinates boardCoordinates, Piece piece)
}

interface Command {
    ~ void execute()
}

class JumpGambleLostMove {
    - Store store
    - Tuple<BoardCoordinates, Piece> start
    + void execute()
}

class SimpleMove {
    - Store store
    - Tuple<BoardCoordinates, Piece> start
    - Tuple<BoardCoordinates, Piece> end
    + void execute()
}

class JumpMove {
    - Store store
    - Tuple<BoardCoordinates, Piece> start
    - Tuple<BoardCoordinates, Piece> pieceBetween
    - Tuple<BoardCoordinates, Piece> end
    + void execute()
}

Command <|.. JumpGambleLostMove
Command <|.. SimpleMove
Command <|.. JumpMove

Board ..> JumpGambleLostMove: instantiate
Board ..> SimpleMove: instantiate
Board ..> JumpMove: instantiate
Board ..> Store
JumpGambleLostMove ..> Store
SimpleMove ..> Store
JumpMove ..> Store
@enduml

PlantUML version 1.2021.15beta8(Unknown compile time)
(GPL source distribution)
Java Runtime: Java(TM) SE Runtime Environment
JVM: Java HotSpot(TM) 64-Bit Server VM
Default Encoding: UTF-8
Language: en
Country: US
--></g></svg>