<?xml version="1.0" encoding="UTF-8" standalone="no"?><svg xmlns="http://www.w3.org/2000/svg" xmlns:xlink="http://www.w3.org/1999/xlink" contentScriptType="application/ecmascript" contentStyleType="text/css" height="644px" preserveAspectRatio="none" style="width:949px;height:644px;background:#FFFFFF;" version="1.1" viewBox="0 0 949 644" width="949px" zoomAndPan="magnify"><defs><filter height="300%" id="fh7co7r41a33j" width="300%" x="-1" y="-1"><feGaussianBlur result="blurOut" stdDeviation="2.0"/><feColorMatrix in="blurOut" result="blurOut2" type="matrix" values="0 0 0 0 0 0 0 0 0 0 0 0 0 0 0 0 0 0 .4 0"/><feOffset dx="4.0" dy="4.0" in="blurOut2" result="blurOut3"/><feBlend in="SourceGraphic" in2="blurOut3" mode="normal"/></filter></defs><g><!--MD5=[dc7db8dc82465e8cd9b1676529801240]
cluster dom--><polygon fill="#FFFFFF" filter="url(#fh7co7r41a33j)" points="16,341,57,341,64,363.2969,539,363.2969,539,637,16,637,16,341" style="stroke:#000000;stroke-width:1.5;"/><line style="stroke:#000000;stroke-width:1.5;" x1="16" x2="64" y1="363.2969" y2="363.2969"/><text fill="#000000" font-family="sans-serif" font-size="14" font-weight="bold" lengthAdjust="spacing" textLength="35" x="20" y="355.9951">dom</text><!--MD5=[3e81cc6ee7da4fa8b6adc12b329096f6]
cluster util--><polygon fill="#FFFFFF" filter="url(#fh7co7r41a33j)" points="563,353.5,597,353.5,604,375.7969,932,375.7969,932,478.5,563,478.5,563,353.5" style="stroke:#000000;stroke-width:1.5;"/><line style="stroke:#000000;stroke-width:1.5;" x1="563" x2="604" y1="375.7969" y2="375.7969"/><text fill="#000000" font-family="sans-serif" font-size="14" font-weight="bold" lengthAdjust="spacing" textLength="28" x="567" y="368.4951">util</text><!--MD5=[158cd0f462a050c9f572ff3fadd1d3bb]
class JumpGambleResult--><rect codeLine="4" fill="#FEFECE" filter="url(#fh7co7r41a33j)" height="86.4141" id="JumpGambleResult" style="stroke:#A80036;stroke-width:1.5;" width="144" x="83" y="535"/><ellipse cx="98" cy="551" fill="#EB937F" rx="11" ry="11" style="stroke:#A80036;stroke-width:1.0;"/><path d="M96.7969,551.875 L98.25,551.875 L98.25,551.9844 C98.25,552.3906 98.2813,552.5469 98.3594,552.7031 C98.5156,552.9531 98.7969,553.1094 99.0938,553.1094 C99.3438,553.1094 99.6094,552.9688 99.7656,552.75 C99.8906,552.5938 99.9219,552.4375 99.9219,551.9844 L99.9219,550.0625 C99.9219,549.9063 99.9219,549.8594 99.9063,549.7031 C99.8438,549.2344 99.5313,548.9219 99.0781,548.9219 C98.8281,548.9219 98.5625,549.0625 98.3906,549.2813 C98.2813,549.4531 98.25,549.6094 98.25,550.0625 L98.25,550.1875 L96.7969,550.1875 L96.7969,547.7813 L100.7813,547.7813 L100.7813,548.6406 C100.7813,549.0469 100.8125,549.2188 100.8906,549.375 C101.0625,549.625 101.3438,549.7813 101.625,549.7813 C101.8906,549.7813 102.1563,549.6406 102.3281,549.4219 C102.4375,549.25 102.4688,549.1094 102.4688,548.6406 L102.4688,546.0938 L94.8438,546.0938 C94.4063,546.0938 94.2813,546.1094 94.125,546.2031 C93.875,546.3594 93.7188,546.6563 93.7188,546.9375 C93.7188,547.2188 93.8594,547.4688 94.0781,547.6406 C94.2344,547.75 94.4219,547.7813 94.8438,547.7813 L95.0938,547.7813 L95.0938,554.2969 L94.8438,554.2969 C94.4375,554.2969 94.2813,554.3125 94.125,554.4219 C93.875,554.5938 93.7188,554.8594 93.7188,555.1563 C93.7188,555.4219 93.8594,555.6719 94.0781,555.8281 C94.2188,555.9531 94.4531,556 94.8438,556 L102.8438,556 L102.8438,553.4219 C102.8438,552.9844 102.8125,552.8438 102.7344,552.6875 C102.5625,552.4375 102.2813,552.2813 102,552.2813 C101.7344,552.2813 101.4688,552.3906 101.2969,552.6406 C101.1875,552.7969 101.1563,552.9375 101.1563,553.4219 L101.1563,554.2969 L96.7969,554.2969 L96.7969,551.875 Z " fill="#000000"/><text fill="#000000" font-family="sans-serif" font-size="12" lengthAdjust="spacing" textLength="112" x="112" y="555.1543">JumpGambleResult</text><line style="stroke:#A80036;stroke-width:1.5;" x1="84" x2="226" y1="567" y2="567"/><text fill="#000000" font-family="sans-serif" font-size="11" lengthAdjust="spacing" textLength="70" x="89" y="581.2104">NO_GAMBLE</text><text fill="#000000" font-family="sans-serif" font-size="11" lengthAdjust="spacing" textLength="28" x="89" y="594.0151">WON</text><text fill="#000000" font-family="sans-serif" font-size="11" lengthAdjust="spacing" textLength="30" x="89" y="606.8198">LOST</text><line style="stroke:#A80036;stroke-width:1.5;" x1="84" x2="226" y1="613.4141" y2="613.4141"/><!--MD5=[9563755d011c5cec7ec66dc53565a59e]
class Board--><rect codeLine="10" fill="#FEFECE" filter="url(#fh7co7r41a33j)" height="60.8047" id="Board" style="stroke:#A80036;stroke-width:1.5;" width="209" x="313.5" y="395"/><ellipse cx="395.75" cy="411" fill="#ADD1B2" rx="11" ry="11" style="stroke:#A80036;stroke-width:1.0;"/><path d="M398.0938,406.6719 C397.1563,406.2344 396.5625,406.0938 395.6875,406.0938 C393.0625,406.0938 391.0625,408.1719 391.0625,410.8906 L391.0625,412.0156 C391.0625,414.5938 393.1719,416.4844 396.0625,416.4844 C397.2813,416.4844 398.4375,416.1875 399.1875,415.6406 C399.7656,415.2344 400.0938,414.7813 400.0938,414.3906 C400.0938,413.9375 399.7031,413.5469 399.2344,413.5469 C399.0156,413.5469 398.8125,413.625 398.625,413.8125 C398.1719,414.2969 398.1719,414.2969 397.9844,414.3906 C397.5625,414.6563 396.875,414.7813 396.1094,414.7813 C394.0625,414.7813 392.7656,413.6875 392.7656,411.9844 L392.7656,410.8906 C392.7656,409.1094 394.0156,407.7969 395.75,407.7969 C396.3281,407.7969 396.9375,407.9531 397.4063,408.2031 C397.8906,408.4844 398.0625,408.7031 398.1563,409.1094 C398.2188,409.5156 398.25,409.6406 398.3906,409.7656 C398.5313,409.9063 398.7656,410.0156 398.9844,410.0156 C399.25,410.0156 399.5156,409.875 399.6875,409.6563 C399.7969,409.5 399.8281,409.3125 399.8281,408.8906 L399.8281,407.4688 C399.8281,407.0313 399.8125,406.9063 399.7188,406.75 C399.5625,406.4844 399.2813,406.3438 398.9844,406.3438 C398.6875,406.3438 398.4844,406.4375 398.2656,406.75 L398.0938,406.6719 Z " fill="#000000"/><text fill="#000000" font-family="sans-serif" font-size="12" lengthAdjust="spacing" textLength="36" x="416.25" y="415.1543">Board</text><line style="stroke:#A80036;stroke-width:1.5;" x1="314.5" x2="521.5" y1="427" y2="427"/><line style="stroke:#A80036;stroke-width:1.5;" x1="314.5" x2="521.5" y1="435" y2="435"/><ellipse cx="324.5" cy="446" fill="#84BE84" rx="3" ry="3" style="stroke:#038048;stroke-width:1.0;"/><text fill="#000000" font-family="sans-serif" font-size="11" lengthAdjust="spacing" textLength="183" x="333.5" y="449.2104">void executeMove(Move move)</text><!--MD5=[1981719fa3982d92ef7fd3f06d73b3e7]
class Move--><rect codeLine="14" fill="#FEFECE" filter="url(#fh7co7r41a33j)" height="99.2188" id="Move" style="stroke:#A80036;stroke-width:1.5;" width="246" x="32" y="376"/><ellipse cx="134.25" cy="392" fill="#ADD1B2" rx="11" ry="11" style="stroke:#A80036;stroke-width:1.0;"/><path d="M136.5938,387.6719 C135.6563,387.2344 135.0625,387.0938 134.1875,387.0938 C131.5625,387.0938 129.5625,389.1719 129.5625,391.8906 L129.5625,393.0156 C129.5625,395.5938 131.6719,397.4844 134.5625,397.4844 C135.7813,397.4844 136.9375,397.1875 137.6875,396.6406 C138.2656,396.2344 138.5938,395.7813 138.5938,395.3906 C138.5938,394.9375 138.2031,394.5469 137.7344,394.5469 C137.5156,394.5469 137.3125,394.625 137.125,394.8125 C136.6719,395.2969 136.6719,395.2969 136.4844,395.3906 C136.0625,395.6563 135.375,395.7813 134.6094,395.7813 C132.5625,395.7813 131.2656,394.6875 131.2656,392.9844 L131.2656,391.8906 C131.2656,390.1094 132.5156,388.7969 134.25,388.7969 C134.8281,388.7969 135.4375,388.9531 135.9063,389.2031 C136.3906,389.4844 136.5625,389.7031 136.6563,390.1094 C136.7188,390.5156 136.75,390.6406 136.8906,390.7656 C137.0313,390.9063 137.2656,391.0156 137.4844,391.0156 C137.75,391.0156 138.0156,390.875 138.1875,390.6563 C138.2969,390.5 138.3281,390.3125 138.3281,389.8906 L138.3281,388.4688 C138.3281,388.0313 138.3125,387.9063 138.2188,387.75 C138.0625,387.4844 137.7813,387.3438 137.4844,387.3438 C137.1875,387.3438 136.9844,387.4375 136.7656,387.75 L136.5938,387.6719 Z " fill="#000000"/><text fill="#000000" font-family="sans-serif" font-size="12" lengthAdjust="spacing" textLength="33" x="154.75" y="396.1543">Move</text><line style="stroke:#A80036;stroke-width:1.5;" x1="33" x2="277" y1="408" y2="408"/><rect fill="none" height="6" style="stroke:#C82930;stroke-width:1.0;" width="6" x="40" y="416"/><text fill="#000000" font-family="sans-serif" font-size="11" lengthAdjust="spacing" textLength="75" x="52" y="422.2104">Player player</text><rect fill="none" height="6" style="stroke:#C82930;stroke-width:1.0;" width="6" x="40" y="428.8047"/><text fill="#000000" font-family="sans-serif" font-size="11" lengthAdjust="spacing" textLength="130" x="52" y="435.0151">BoardCoordinates start</text><rect fill="none" height="6" style="stroke:#C82930;stroke-width:1.0;" width="6" x="40" y="441.6094"/><text fill="#000000" font-family="sans-serif" font-size="11" lengthAdjust="spacing" textLength="127" x="52" y="447.8198">BoardCoordinates end</text><rect fill="none" height="6" style="stroke:#C82930;stroke-width:1.0;" width="6" x="40" y="454.4141"/><text fill="#000000" font-family="sans-serif" font-size="11" lengthAdjust="spacing" textLength="220" x="52" y="460.6245">JumpGambleResult jumpGambleResult</text><line style="stroke:#A80036;stroke-width:1.5;" x1="33" x2="277" y1="467.2188" y2="467.2188"/><!--MD5=[3c11145a61fc1e4bd56c0d40f02be7c2]
class CoinTosser--><rect codeLine="23" fill="#FEFECE" filter="url(#fh7co7r41a33j)" height="73.6094" id="CoinTosser" style="stroke:#A80036;stroke-width:1.5;" width="162" x="754" y="388.5"/><ellipse cx="796.9" cy="404.5" fill="#ADD1B2" rx="11" ry="11" style="stroke:#A80036;stroke-width:1.0;"/><path d="M799.2438,400.1719 C798.3063,399.7344 797.7125,399.5938 796.8375,399.5938 C794.2125,399.5938 792.2125,401.6719 792.2125,404.3906 L792.2125,405.5156 C792.2125,408.0938 794.3219,409.9844 797.2125,409.9844 C798.4313,409.9844 799.5875,409.6875 800.3375,409.1406 C800.9156,408.7344 801.2438,408.2813 801.2438,407.8906 C801.2438,407.4375 800.8531,407.0469 800.3844,407.0469 C800.1656,407.0469 799.9625,407.125 799.775,407.3125 C799.3219,407.7969 799.3219,407.7969 799.1344,407.8906 C798.7125,408.1563 798.025,408.2813 797.2594,408.2813 C795.2125,408.2813 793.9156,407.1875 793.9156,405.4844 L793.9156,404.3906 C793.9156,402.6094 795.1656,401.2969 796.9,401.2969 C797.4781,401.2969 798.0875,401.4531 798.5563,401.7031 C799.0406,401.9844 799.2125,402.2031 799.3063,402.6094 C799.3688,403.0156 799.4,403.1406 799.5406,403.2656 C799.6813,403.4063 799.9156,403.5156 800.1344,403.5156 C800.4,403.5156 800.6656,403.375 800.8375,403.1563 C800.9469,403 800.9781,402.8125 800.9781,402.3906 L800.9781,400.9688 C800.9781,400.5313 800.9625,400.4063 800.8688,400.25 C800.7125,399.9844 800.4313,399.8438 800.1344,399.8438 C799.8375,399.8438 799.6344,399.9375 799.4156,400.25 L799.2438,400.1719 Z " fill="#000000"/><text fill="#000000" font-family="sans-serif" font-size="12" lengthAdjust="spacing" textLength="68" x="817.1" y="408.6543">CoinTosser</text><line style="stroke:#A80036;stroke-width:1.5;" x1="755" x2="915" y1="420.5" y2="420.5"/><rect fill="none" height="6" style="stroke:#C82930;stroke-width:1.0;" width="6" x="762" y="428.5"/><text fill="#000000" font-family="sans-serif" font-size="11" lengthAdjust="spacing" textLength="93" x="774" y="434.7104">Random random</text><line style="stroke:#A80036;stroke-width:1.5;" x1="755" x2="915" y1="441.3047" y2="441.3047"/><ellipse cx="765" cy="452.3047" fill="#84BE84" rx="3" ry="3" style="stroke:#038048;stroke-width:1.0;"/><text fill="#000000" font-family="sans-serif" font-size="11" lengthAdjust="spacing" textLength="136" x="774" y="455.5151">CoinTosser.Result toss()</text><!--MD5=[782c068e1574b7495ad55acfe4886e55]
class CoinTosser.Result--><rect codeLine="28" fill="#FEFECE" filter="url(#fh7co7r41a33j)" height="73.6094" id="CoinTosser.Result" style="stroke:#A80036;stroke-width:1.5;" width="139" x="579.5" y="388.5"/><ellipse cx="594.5" cy="404.5" fill="#EB937F" rx="11" ry="11" style="stroke:#A80036;stroke-width:1.0;"/><path d="M593.2969,405.375 L594.75,405.375 L594.75,405.4844 C594.75,405.8906 594.7813,406.0469 594.8594,406.2031 C595.0156,406.4531 595.2969,406.6094 595.5938,406.6094 C595.8438,406.6094 596.1094,406.4688 596.2656,406.25 C596.3906,406.0938 596.4219,405.9375 596.4219,405.4844 L596.4219,403.5625 C596.4219,403.4063 596.4219,403.3594 596.4063,403.2031 C596.3438,402.7344 596.0313,402.4219 595.5781,402.4219 C595.3281,402.4219 595.0625,402.5625 594.8906,402.7813 C594.7813,402.9531 594.75,403.1094 594.75,403.5625 L594.75,403.6875 L593.2969,403.6875 L593.2969,401.2813 L597.2813,401.2813 L597.2813,402.1406 C597.2813,402.5469 597.3125,402.7188 597.3906,402.875 C597.5625,403.125 597.8438,403.2813 598.125,403.2813 C598.3906,403.2813 598.6563,403.1406 598.8281,402.9219 C598.9375,402.75 598.9688,402.6094 598.9688,402.1406 L598.9688,399.5938 L591.3438,399.5938 C590.9063,399.5938 590.7813,399.6094 590.625,399.7031 C590.375,399.8594 590.2188,400.1563 590.2188,400.4375 C590.2188,400.7188 590.3594,400.9688 590.5781,401.1406 C590.7344,401.25 590.9219,401.2813 591.3438,401.2813 L591.5938,401.2813 L591.5938,407.7969 L591.3438,407.7969 C590.9375,407.7969 590.7813,407.8125 590.625,407.9219 C590.375,408.0938 590.2188,408.3594 590.2188,408.6563 C590.2188,408.9219 590.3594,409.1719 590.5781,409.3281 C590.7188,409.4531 590.9531,409.5 591.3438,409.5 L599.3438,409.5 L599.3438,406.9219 C599.3438,406.4844 599.3125,406.3438 599.2344,406.1875 C599.0625,405.9375 598.7813,405.7813 598.5,405.7813 C598.2344,405.7813 597.9688,405.8906 597.7969,406.1406 C597.6875,406.2969 597.6563,406.4375 597.6563,406.9219 L597.6563,407.7969 L593.2969,407.7969 L593.2969,405.375 Z " fill="#000000"/><text fill="#000000" font-family="sans-serif" font-size="12" lengthAdjust="spacing" textLength="107" x="608.5" y="408.6543">CoinTosser.Result</text><line style="stroke:#A80036;stroke-width:1.5;" x1="580.5" x2="717.5" y1="420.5" y2="420.5"/><text fill="#000000" font-family="sans-serif" font-size="11" lengthAdjust="spacing" textLength="40" x="585.5" y="434.7104">HEADS</text><text fill="#000000" font-family="sans-serif" font-size="11" lengthAdjust="spacing" textLength="32" x="585.5" y="447.5151">TAILS</text><line style="stroke:#A80036;stroke-width:1.5;" x1="580.5" x2="717.5" y1="454.1094" y2="454.1094"/><!--MD5=[936dea0052bad558b606201b8291b774]
class MoveExecutor--><rect codeLine="34" fill="#FEFECE" filter="url(#fh7co7r41a33j)" height="99.2188" id="MoveExecutor" style="stroke:#A80036;stroke-width:1.5;" width="216" x="471" y="217"/><ellipse cx="531.75" cy="233" fill="#ADD1B2" rx="11" ry="11" style="stroke:#A80036;stroke-width:1.0;"/><path d="M534.0938,228.6719 C533.1563,228.2344 532.5625,228.0938 531.6875,228.0938 C529.0625,228.0938 527.0625,230.1719 527.0625,232.8906 L527.0625,234.0156 C527.0625,236.5938 529.1719,238.4844 532.0625,238.4844 C533.2813,238.4844 534.4375,238.1875 535.1875,237.6406 C535.7656,237.2344 536.0938,236.7813 536.0938,236.3906 C536.0938,235.9375 535.7031,235.5469 535.2344,235.5469 C535.0156,235.5469 534.8125,235.625 534.625,235.8125 C534.1719,236.2969 534.1719,236.2969 533.9844,236.3906 C533.5625,236.6563 532.875,236.7813 532.1094,236.7813 C530.0625,236.7813 528.7656,235.6875 528.7656,233.9844 L528.7656,232.8906 C528.7656,231.1094 530.0156,229.7969 531.75,229.7969 C532.3281,229.7969 532.9375,229.9531 533.4063,230.2031 C533.8906,230.4844 534.0625,230.7031 534.1563,231.1094 C534.2188,231.5156 534.25,231.6406 534.3906,231.7656 C534.5313,231.9063 534.7656,232.0156 534.9844,232.0156 C535.25,232.0156 535.5156,231.875 535.6875,231.6563 C535.7969,231.5 535.8281,231.3125 535.8281,230.8906 L535.8281,229.4688 C535.8281,229.0313 535.8125,228.9063 535.7188,228.75 C535.5625,228.4844 535.2813,228.3438 534.9844,228.3438 C534.6875,228.3438 534.4844,228.4375 534.2656,228.75 L534.0938,228.6719 Z " fill="#000000"/><text fill="#000000" font-family="sans-serif" font-size="12" lengthAdjust="spacing" textLength="86" x="552.25" y="237.1543">MoveExecutor</text><line style="stroke:#A80036;stroke-width:1.5;" x1="472" x2="686" y1="249" y2="249"/><rect fill="none" height="6" style="stroke:#C82930;stroke-width:1.0;" width="6" x="479" y="257"/><text fill="#000000" font-family="sans-serif" font-size="11" lengthAdjust="spacing" textLength="69" x="491" y="263.2104">Board board</text><rect fill="none" height="6" style="stroke:#C82930;stroke-width:1.0;" width="6" x="479" y="269.8047"/><text fill="#000000" font-family="sans-serif" font-size="11" lengthAdjust="spacing" textLength="128" x="491" y="276.0151">CoinTosser coinTosser</text><rect fill="none" height="6" style="stroke:#C82930;stroke-width:1.0;" width="6" x="479" y="282.6094"/><text fill="#000000" font-family="sans-serif" font-size="11" lengthAdjust="spacing" textLength="97" x="491" y="288.8198">Console console;</text><line style="stroke:#A80036;stroke-width:1.5;" x1="472" x2="686" y1="295.4141" y2="295.4141"/><ellipse cx="482" cy="306.4141" fill="#84BE84" rx="3" ry="3" style="stroke:#038048;stroke-width:1.0;"/><text fill="#000000" font-family="sans-serif" font-size="11" lengthAdjust="spacing" textLength="190" x="491" y="309.6245">Move executeMove(Move move)</text><!--MD5=[69cd7bb0186966cdb12d6f14492428f2]
class GameLogic--><rect codeLine="41" fill="#FEFECE" filter="url(#fh7co7r41a33j)" height="150.4375" id="GameLogic" style="stroke:#A80036;stroke-width:1.5;" width="361" x="317.5" y="7"/><ellipse cx="460.25" cy="23" fill="#ADD1B2" rx="11" ry="11" style="stroke:#A80036;stroke-width:1.0;"/><path d="M462.5938,18.6719 C461.6563,18.2344 461.0625,18.0938 460.1875,18.0938 C457.5625,18.0938 455.5625,20.1719 455.5625,22.8906 L455.5625,24.0156 C455.5625,26.5938 457.6719,28.4844 460.5625,28.4844 C461.7813,28.4844 462.9375,28.1875 463.6875,27.6406 C464.2656,27.2344 464.5938,26.7813 464.5938,26.3906 C464.5938,25.9375 464.2031,25.5469 463.7344,25.5469 C463.5156,25.5469 463.3125,25.625 463.125,25.8125 C462.6719,26.2969 462.6719,26.2969 462.4844,26.3906 C462.0625,26.6563 461.375,26.7813 460.6094,26.7813 C458.5625,26.7813 457.2656,25.6875 457.2656,23.9844 L457.2656,22.8906 C457.2656,21.1094 458.5156,19.7969 460.25,19.7969 C460.8281,19.7969 461.4375,19.9531 461.9063,20.2031 C462.3906,20.4844 462.5625,20.7031 462.6563,21.1094 C462.7188,21.5156 462.75,21.6406 462.8906,21.7656 C463.0313,21.9063 463.2656,22.0156 463.4844,22.0156 C463.75,22.0156 464.0156,21.875 464.1875,21.6563 C464.2969,21.5 464.3281,21.3125 464.3281,20.8906 L464.3281,19.4688 C464.3281,19.0313 464.3125,18.9063 464.2188,18.75 C464.0625,18.4844 463.7813,18.3438 463.4844,18.3438 C463.1875,18.3438 462.9844,18.4375 462.7656,18.75 L462.5938,18.6719 Z " fill="#000000"/><text fill="#000000" font-family="sans-serif" font-size="12" lengthAdjust="spacing" textLength="67" x="480.75" y="27.1543">GameLogic</text><line style="stroke:#A80036;stroke-width:1.5;" x1="318.5" x2="677.5" y1="39" y2="39"/><rect fill="none" height="6" style="stroke:#C82930;stroke-width:1.0;" width="6" x="325.5" y="47"/><text fill="#000000" font-family="sans-serif" font-size="11" lengthAdjust="spacing" textLength="94" x="337.5" y="53.2104">Console console</text><rect fill="none" height="6" style="stroke:#C82930;stroke-width:1.0;" width="6" x="325.5" y="59.8047"/><text fill="#000000" font-family="sans-serif" font-size="11" lengthAdjust="spacing" textLength="69" x="337.5" y="66.0151">Board board</text><rect fill="none" height="6" style="stroke:#C82930;stroke-width:1.0;" width="6" x="325.5" y="72.6094"/><text fill="#000000" font-family="sans-serif" font-size="11" lengthAdjust="spacing" textLength="141" x="337.5" y="78.8198">BoardPrinter boardPrinter</text><rect fill="none" height="6" style="stroke:#C82930;stroke-width:1.0;" width="6" x="325.5" y="85.4141"/><text fill="#000000" font-family="sans-serif" font-size="11" lengthAdjust="spacing" textLength="211" x="337.5" y="91.6245">List&lt;MoveValidator&gt; moveValidators</text><rect fill="none" height="6" style="stroke:#C82930;stroke-width:1.0;" width="6" x="325.5" y="98.2188"/><text fill="#000000" font-family="sans-serif" font-size="11" lengthAdjust="spacing" textLength="168" x="337.5" y="104.4292">MoveExecutor moveExecutor</text><rect fill="none" height="6" style="stroke:#C82930;stroke-width:1.0;" width="6" x="325.5" y="111.0234"/><text fill="#000000" font-family="sans-serif" font-size="11" lengthAdjust="spacing" textLength="335" x="337.5" y="117.2339">NoOtherMoveToJumpPossible noOtherMoveToJumpPossible</text><rect fill="none" height="6" style="stroke:#C82930;stroke-width:1.0;" width="6" x="325.5" y="123.8281"/><text fill="#000000" font-family="sans-serif" font-size="11" lengthAdjust="spacing" textLength="150" x="337.5" y="130.0386">WinCondition winCondition</text><line style="stroke:#A80036;stroke-width:1.5;" x1="318.5" x2="677.5" y1="136.6328" y2="136.6328"/><ellipse cx="328.5" cy="147.6328" fill="#84BE84" rx="3" ry="3" style="stroke:#038048;stroke-width:1.0;"/><text fill="#000000" font-family="sans-serif" font-size="11" lengthAdjust="spacing" textLength="54" x="337.5" y="150.8433">void run()</text><!--MD5=[c0eb98f33f8b57ea5427aa98fe57597c]
link GameLogic to Board--><path codeLine="52" d="M470.79,157.158 C464.344,176.464 457.922,197.361 453,217 C437.969,276.982 427.514,348.356 422.154,389.836 " fill="none" id="GameLogic-to-Board" style="stroke:#A80036;stroke-width:1.0;stroke-dasharray:7.0,7.0;"/><polygon fill="#A80036" points="421.495,394.991,426.6046,386.5713,422.1294,390.0314,418.6693,385.5562,421.495,394.991" style="stroke:#A80036;stroke-width:1.0;"/><text fill="#000000" font-family="sans-serif" font-size="13" lengthAdjust="spacing" textLength="8" x="413.3845" y="383.7793">1</text><!--MD5=[6ac6e6326b9526ae9d73de8d1456dcc9]
link GameLogic to MoveExecutor--><path codeLine="53" d="M530.946,157.23 C539.113,175.631 547.705,194.99 555.329,212.168 " fill="none" id="GameLogic-to-MoveExecutor" style="stroke:#A80036;stroke-width:1.0;stroke-dasharray:7.0,7.0;"/><polygon fill="#A80036" points="557.453,216.953,557.4576,207.1041,555.4244,212.383,550.1456,210.3499,557.453,216.953" style="stroke:#A80036;stroke-width:1.0;"/><text fill="#000000" font-family="sans-serif" font-size="13" lengthAdjust="spacing" textLength="8" x="545.8605" y="205.9916">1</text><!--MD5=[2666b664b657a82c24f44f779177f170]
link MoveExecutor to CoinTosser--><path codeLine="54" d="M687.116,306.676 C703.989,314.455 720.839,323.268 736,333 C758.339,347.339 780.317,366.934 797.868,384.312 " fill="none" id="MoveExecutor-to-CoinTosser" style="stroke:#A80036;stroke-width:1.0;stroke-dasharray:7.0,7.0;"/><polygon fill="#A80036" points="801.773,388.213,798.2338,379.022,798.236,384.6789,792.5792,384.6812,801.773,388.213" style="stroke:#A80036;stroke-width:1.0;"/><text fill="#000000" font-family="sans-serif" font-size="13" lengthAdjust="spacing" textLength="8" x="787.1419" y="377.3488">1</text><!--MD5=[3b674ddebd6640bbcda675f9f11b86d1]
link MoveExecutor to Board--><path codeLine="55" d="M528.941,316.315 C503.985,340.652 474.451,369.452 452.132,391.216 " fill="none" id="MoveExecutor-to-Board" style="stroke:#A80036;stroke-width:1.0;stroke-dasharray:7.0,7.0;"/><polygon fill="#A80036" points="448.333,394.921,457.5689,391.5009,451.9125,391.43,451.9834,385.7736,448.333,394.921" style="stroke:#A80036;stroke-width:1.0;"/><text fill="#000000" font-family="sans-serif" font-size="13" lengthAdjust="spacing" textLength="8" x="445.7642" y="384.1679">1</text><!--MD5=[3014f84a0ddcf1c159eab2a4710c8ddb]
reverse link Move to JumpGambleResult--><path codeLine="56" d="M155,488.766 C155,504.321 155,520.639 155,534.952 " fill="none" id="Move-backto-JumpGambleResult" style="stroke:#A80036;stroke-width:1.0;"/><polygon fill="#A80036" points="155,475.363,151,481.363,155,487.363,159,481.363,155,475.363" style="stroke:#A80036;stroke-width:1.0;"/><text fill="#000000" font-family="sans-serif" font-size="13" lengthAdjust="spacing" textLength="8" x="146.3625" y="523.9404">1</text><!--MD5=[9c09d8ff17e93118f417ee94b6527ef1]
@startuml
'https://plantuml.com/class-diagram

package dom {
    enum JumpGambleResult {
      NO_GAMBLE
      WON
      LOST
    }

    class Board {
        + void executeMove(Move move)
    }

    class Move {
        - Player player
        - BoardCoordinates start
        - BoardCoordinates end
        - JumpGambleResult jumpGambleResult
    }
}

package util {
    class CoinTosser {
        - Random random
        + CoinTosser.Result toss()
    }

    enum CoinTosser.Result {
        HEADS
        TAILS
    }
}

class MoveExecutor {
    - Board board
    - CoinTosser coinTosser
    - Console console;
    + Move executeMove(Move move)
}

class GameLogic {
    - Console console
    - Board board
    - BoardPrinter boardPrinter
    - List<MoveValidator> moveValidators
    - MoveExecutor moveExecutor
    - NoOtherMoveToJumpPossible noOtherMoveToJumpPossible
    - WinCondition winCondition
    + void run()
}

GameLogic ..> "1" Board
GameLogic ..> "1" MoveExecutor
MoveExecutor ..> "1" CoinTosser
MoveExecutor ..> "1" Board
Move *- - "1" JumpGambleResult
@enduml

@startuml

package dom {
    enum JumpGambleResult {
      NO_GAMBLE
      WON
      LOST
    }

    class Board {
        + void executeMove(Move move)
    }

    class Move {
        - Player player
        - BoardCoordinates start
        - BoardCoordinates end
        - JumpGambleResult jumpGambleResult
    }
}

package util {
    class CoinTosser {
        - Random random
        + CoinTosser.Result toss()
    }

    enum CoinTosser.Result {
        HEADS
        TAILS
    }
}

class MoveExecutor {
    - Board board
    - CoinTosser coinTosser
    - Console console;
    + Move executeMove(Move move)
}

class GameLogic {
    - Console console
    - Board board
    - BoardPrinter boardPrinter
    - List<MoveValidator> moveValidators
    - MoveExecutor moveExecutor
    - NoOtherMoveToJumpPossible noOtherMoveToJumpPossible
    - WinCondition winCondition
    + void run()
}

GameLogic ..> "1" Board
GameLogic ..> "1" MoveExecutor
MoveExecutor ..> "1" CoinTosser
MoveExecutor ..> "1" Board
Move *- - "1" JumpGambleResult
@enduml

PlantUML version 1.2021.13beta8(Unknown compile time)
(GPL source distribution)
Java Runtime: Java(TM) SE Runtime Environment
JVM: Java HotSpot(TM) 64-Bit Server VM
Default Encoding: UTF-8
Language: en
Country: US
--></g></svg>