<?xml version="1.0" encoding="UTF-8" standalone="no"?><svg xmlns="http://www.w3.org/2000/svg" xmlns:xlink="http://www.w3.org/1999/xlink" contentScriptType="application/ecmascript" contentStyleType="text/css" height="993px" preserveAspectRatio="none" style="width:2600px;height:993px;background:#FFFFFF;" version="1.1" viewBox="0 0 2600 993" width="2600px" zoomAndPan="magnify"><defs><filter height="300%" id="f1rrnrtbgmza9v" width="300%" x="-1" y="-1"><feGaussianBlur result="blurOut" stdDeviation="2.0"/><feColorMatrix in="blurOut" result="blurOut2" type="matrix" values="0 0 0 0 0 0 0 0 0 0 0 0 0 0 0 0 0 0 .4 0"/><feOffset dx="4.0" dy="4.0" in="blurOut2" result="blurOut3"/><feBlend in="SourceGraphic" in2="blurOut3" mode="normal"/></filter></defs><g><!--MD5=[eea9f93686e1116bfd44f78a34ffd084]
cluster Main Classes--><rect fill="#FFFFFF" filter="url(#f1rrnrtbgmza9v)" height="543" style="stroke:#000000;stroke-width:1.5;" width="793" x="1083" y="7"/><text fill="#000000" font-family="sans-serif" font-size="14" font-weight="bold" lengthAdjust="spacing" textLength="105" x="1427" y="21.9951">Main Classes</text><!--MD5=[5190a5b48825747bb8971cef3dd054c9]
cluster gamelogic--><rect fill="#FFFFFF" filter="url(#f1rrnrtbgmza9v)" height="263" style="stroke:#000000;stroke-width:1.5;" width="729" x="1115" y="58"/><text fill="#000000" font-family="sans-serif" font-size="14" font-weight="bold" lengthAdjust="spacing" textLength="89" x="1435" y="72.9951">GameLogic</text><!--MD5=[2161f5497b2023022bf885f5bcef16d4]
cluster moveexecutor--><rect fill="#006400" filter="url(#f1rrnrtbgmza9v)" height="157" style="stroke:#000000;stroke-width:1.5;" width="565" x="1115" y="361"/><text fill="#000000" font-family="sans-serif" font-size="14" font-weight="bold" lengthAdjust="spacing" textLength="113" x="1341" y="375.9951">MoveExecutor</text><!--MD5=[6505c65a501cb037bb938f7a0a861fcf]
cluster Data classes--><rect fill="#FFFFFF" filter="url(#f1rrnrtbgmza9v)" height="407" style="stroke:#000000;stroke-width:1.5;" width="1192" x="7" y="574"/><text fill="#000000" font-family="sans-serif" font-size="14" font-weight="bold" lengthAdjust="spacing" textLength="104" x="551" y="588.9951">Data classes</text><!--MD5=[2f74336157ef17ab5547a5f506e0d64b]
cluster board--><rect fill="#FFFFFF" filter="url(#f1rrnrtbgmza9v)" height="172" style="stroke:#000000;stroke-width:1.5;" width="579" x="588" y="625"/><text fill="#000000" font-family="sans-serif" font-size="14" font-weight="bold" lengthAdjust="spacing" textLength="48" x="853.5" y="639.9951">Board</text><!--MD5=[0b500c664c088fe959a03579850083bc]
cluster move--><rect fill="#FFFFFF" filter="url(#f1rrnrtbgmza9v)" height="157" style="stroke:#000000;stroke-width:1.5;" width="509" x="39" y="632.5"/><text fill="#000000" font-family="sans-serif" font-size="14" font-weight="bold" lengthAdjust="spacing" textLength="42" x="272.5" y="647.4951">Move</text><!--MD5=[9ab1b8bcd07c028fce7bdaa6b5613d07]
cluster jumpGambleResult--><rect fill="#006400" filter="url(#f1rrnrtbgmza9v)" height="111" style="stroke:#000000;stroke-width:1.5;" width="685" x="39" y="838"/><text fill="#000000" font-family="sans-serif" font-size="14" font-weight="bold" lengthAdjust="spacing" textLength="153" x="305" y="852.9951">JumpGambleResult</text><!--MD5=[7525ed7760f3a6a6e8b6fd023494b1f3]
cluster Helper classes--><rect fill="#FFFFFF" filter="url(#f1rrnrtbgmza9v)" height="209" style="stroke:#000000;stroke-width:1.5;" width="880" x="1223" y="597"/><text fill="#000000" font-family="sans-serif" font-size="14" font-weight="bold" lengthAdjust="spacing" textLength="116" x="1605" y="611.9951">Helper classes</text><!--MD5=[4b7a55d430ce43d42ce9ebad9e6b4010]
cluster console--><rect fill="#FFFFFF" filter="url(#f1rrnrtbgmza9v)" height="126" style="stroke:#000000;stroke-width:1.5;" width="357" x="1714" y="648"/><text fill="#000000" font-family="sans-serif" font-size="14" font-weight="bold" lengthAdjust="spacing" textLength="63" x="1861" y="662.9951">Console</text><!--MD5=[bd71efdc5e217d8ceffe72fd28a6a524]
cluster cointosser--><rect fill="#006400" filter="url(#f1rrnrtbgmza9v)" height="111" style="stroke:#000000;stroke-width:1.5;" width="419" x="1255" y="655.5"/><text fill="#000000" font-family="sans-serif" font-size="14" font-weight="bold" lengthAdjust="spacing" textLength="90" x="1419.5" y="670.4951">CoinTosser</text><!--MD5=[f7217341b3bb6bbf768c7f0e049f8d09]
cluster Legend--><rect fill="#FFFFFF" filter="url(#f1rrnrtbgmza9v)" height="177" style="stroke:#000000;stroke-width:1.5;" width="688" x="1900" y="91.5"/><text fill="#000000" font-family="sans-serif" font-size="14" font-weight="bold" lengthAdjust="spacing" textLength="57" x="2215.5" y="106.4951">Legend</text><!--MD5=[9470eed241b1e09ff02e5569c2c38db1]
cluster Existing class--><rect fill="#FFFFFF" filter="url(#f1rrnrtbgmza9v)" height="110" style="stroke:#000000;stroke-width:1.5;" width="320" x="2244" y="134.5"/><text fill="#000000" font-family="sans-serif" font-size="14" font-weight="bold" lengthAdjust="spacing" textLength="112" x="2348" y="149.4951">Existing class</text><!--MD5=[17c43db0b59e310b173d4a03f4787c6d]
cluster New class--><rect fill="#006400" filter="url(#f1rrnrtbgmza9v)" height="95" style="stroke:#000000;stroke-width:1.5;" width="296" x="1924" y="142"/><text fill="#000000" font-family="sans-serif" font-size="14" font-weight="bold" lengthAdjust="spacing" textLength="80" x="2032" y="156.9951">New class</text><path d="M1158.5,101 L1158.5,296.5938 L1819.5,296.5938 L1819.5,111 L1809.5,101 L1158.5,101 " fill="#FBFB77" filter="url(#f1rrnrtbgmza9v)" style="stroke:#A80036;stroke-width:1.0;"/><path d="M1809.5,101 L1809.5,111 L1819.5,111 L1809.5,101 " fill="#FBFB77" style="stroke:#A80036;stroke-width:1.0;"/><text fill="#000000" font-family="sans-serif" font-size="13" font-weight="bold" lengthAdjust="spacing" textLength="117" x="1169.5" y="120.0669">Responsibilities</text><text fill="#000000" font-family="sans-serif" font-size="13" font-weight="bold" lengthAdjust="spacing" textLength="105" x="1579.5" y="120.0669">Collaborators</text><text fill="#000000" font-family="sans-serif" font-size="13" lengthAdjust="spacing" textLength="164" x="1168.5" y="135.1997">knows which players play</text><text fill="#000000" font-family="sans-serif" font-size="13" lengthAdjust="spacing" textLength="37" x="1578.5" y="135.1997">Board</text><text fill="#000000" font-family="sans-serif" font-size="13" lengthAdjust="spacing" textLength="154" x="1168.5" y="150.3325">print welcome message</text><text fill="#000000" font-family="sans-serif" font-size="13" lengthAdjust="spacing" textLength="70" x="1578.5" y="150.3325">List&lt;Rule&gt;</text><text fill="#000000" font-family="sans-serif" font-size="13" lengthAdjust="spacing" textLength="168" x="1168.5" y="165.4653">Print instructions to player</text><text fill="#000000" font-family="sans-serif" font-size="13" lengthAdjust="spacing" textLength="126" x="1578.5" y="165.4653">List&lt;WinCondition&gt;</text><text fill="#000000" font-family="sans-serif" font-size="13" lengthAdjust="spacing" textLength="402" x="1168.5" y="180.5981">decide which player should move (attention, double Jump rule)</text><text fill="#000000" font-family="sans-serif" font-size="13" lengthAdjust="spacing" textLength="79" x="1578.5" y="180.5981">BoardPrinter</text><text fill="#000000" font-family="sans-serif" font-size="13" lengthAdjust="spacing" textLength="132" x="1168.5" y="195.731">check win conditions</text><text fill="#000000" font-family="sans-serif" font-size="13" lengthAdjust="spacing" textLength="118" x="1168.5" y="210.8638">print win message</text><text fill="#000000" font-family="sans-serif" font-size="13" lengthAdjust="spacing" textLength="268" x="1168.5" y="225.9966">check that input move has correct format</text><text fill="#000000" font-family="sans-serif" font-size="13" lengthAdjust="spacing" textLength="138" x="1168.5" y="241.1294">check if move is valid</text><text fill="#000000" font-family="sans-serif" font-size="13" lengthAdjust="spacing" textLength="141" x="1168.5" y="256.2622">get move from player</text><text fill="#000000" font-family="sans-serif" font-size="13" lengthAdjust="spacing" textLength="127" x="1168.5" y="271.395">print error message</text><text fill="#000000" font-family="sans-serif" font-size="13" lengthAdjust="spacing" textLength="0" x="1168.5" y="286.5278"/><text fill="#006400" font-family="sans-serif" font-size="13" lengthAdjust="spacing" textLength="365" x="1172.5" y="286.5278">if JumpGambleResult is won, same player can play again</text><text fill="#000000" font-family="sans-serif" font-size="13" lengthAdjust="spacing" textLength="222" x="1578.5" y="286.5278">JumpGambleResult, MoveExecutor</text><line style="stroke:#000000;stroke-width:1.0;" x1="1164.5" x2="1804.5" y1="108" y2="108"/><line style="stroke:#000000;stroke-width:1.0;" x1="1164.5" x2="1804.5" y1="123.1328" y2="123.1328"/><line style="stroke:#000000;stroke-width:1.0;" x1="1164.5" x2="1804.5" y1="138.2656" y2="138.2656"/><line style="stroke:#000000;stroke-width:1.0;" x1="1164.5" x2="1804.5" y1="153.3984" y2="153.3984"/><line style="stroke:#000000;stroke-width:1.0;" x1="1164.5" x2="1804.5" y1="168.5313" y2="168.5313"/><line style="stroke:#000000;stroke-width:1.0;" x1="1164.5" x2="1804.5" y1="183.6641" y2="183.6641"/><line style="stroke:#000000;stroke-width:1.0;" x1="1164.5" x2="1804.5" y1="198.7969" y2="198.7969"/><line style="stroke:#000000;stroke-width:1.0;" x1="1164.5" x2="1804.5" y1="213.9297" y2="213.9297"/><line style="stroke:#000000;stroke-width:1.0;" x1="1164.5" x2="1804.5" y1="229.0625" y2="229.0625"/><line style="stroke:#000000;stroke-width:1.0;" x1="1164.5" x2="1804.5" y1="244.1953" y2="244.1953"/><line style="stroke:#000000;stroke-width:1.0;" x1="1164.5" x2="1804.5" y1="259.3281" y2="259.3281"/><line style="stroke:#000000;stroke-width:1.0;" x1="1164.5" x2="1804.5" y1="274.4609" y2="274.4609"/><line style="stroke:#000000;stroke-width:1.0;" x1="1164.5" x2="1804.5" y1="289.5938" y2="289.5938"/><line style="stroke:#000000;stroke-width:1.0;" x1="1164.5" x2="1164.5" y1="108" y2="289.5938"/><line style="stroke:#000000;stroke-width:1.0;" x1="1574.5" x2="1574.5" y1="108" y2="289.5938"/><line style="stroke:#000000;stroke-width:1.0;" x1="1804.5" x2="1804.5" y1="108" y2="289.5938"/><path d="M1158,404 L1158,493.6641 L1656,493.6641 L1656,414 L1646,404 L1158,404 " fill="#FBFB77" filter="url(#f1rrnrtbgmza9v)" style="stroke:#A80036;stroke-width:1.0;"/><path d="M1646,404 L1646,414 L1656,414 L1646,404 " fill="#FBFB77" style="stroke:#A80036;stroke-width:1.0;"/><text fill="#000000" font-family="sans-serif" font-size="13" font-weight="bold" lengthAdjust="spacing" textLength="117" x="1169" y="423.0669">Responsibilities</text><text fill="#000000" font-family="sans-serif" font-size="13" font-weight="bold" lengthAdjust="spacing" textLength="105" x="1428" y="423.0669">Collaborators</text><text fill="#000000" font-family="sans-serif" font-size="13" lengthAdjust="spacing" textLength="214" x="1168" y="438.1997">execute normal move with board</text><text fill="#000000" font-family="sans-serif" font-size="13" lengthAdjust="spacing" textLength="79" x="1427" y="438.1997">Board, Move</text><text fill="#000000" font-family="sans-serif" font-size="13" lengthAdjust="spacing" textLength="190" x="1168" y="453.3325">ask if player wants to gamble</text><text fill="#000000" font-family="sans-serif" font-size="13" lengthAdjust="spacing" textLength="51" x="1427" y="453.3325">Console</text><text fill="#000000" font-family="sans-serif" font-size="13" lengthAdjust="spacing" textLength="57" x="1168" y="468.4653">toss coin</text><text fill="#000000" font-family="sans-serif" font-size="13" lengthAdjust="spacing" textLength="71" x="1427" y="468.4653">CoinTosser</text><text fill="#000000" font-family="sans-serif" font-size="13" lengthAdjust="spacing" textLength="251" x="1168" y="483.5981">execute move with JumpGambleResult</text><text fill="#000000" font-family="sans-serif" font-size="13" lengthAdjust="spacing" textLength="210" x="1427" y="483.5981">Board, Move, JumpGambleResult</text><line style="stroke:#000000;stroke-width:1.0;" x1="1164" x2="1641" y1="411" y2="411"/><line style="stroke:#000000;stroke-width:1.0;" x1="1164" x2="1641" y1="426.1328" y2="426.1328"/><line style="stroke:#000000;stroke-width:1.0;" x1="1164" x2="1641" y1="441.2656" y2="441.2656"/><line style="stroke:#000000;stroke-width:1.0;" x1="1164" x2="1641" y1="456.3984" y2="456.3984"/><line style="stroke:#000000;stroke-width:1.0;" x1="1164" x2="1641" y1="471.5313" y2="471.5313"/><line style="stroke:#000000;stroke-width:1.0;" x1="1164" x2="1641" y1="486.6641" y2="486.6641"/><line style="stroke:#000000;stroke-width:1.0;" x1="1164" x2="1164" y1="411" y2="486.6641"/><line style="stroke:#000000;stroke-width:1.0;" x1="1423" x2="1423" y1="411" y2="486.6641"/><line style="stroke:#000000;stroke-width:1.0;" x1="1641" x2="1641" y1="411" y2="486.6641"/><path d="M631,668 L631,772.7969 L1143,772.7969 L1143,678 L1133,668 L631,668 " fill="#FBFB77" filter="url(#f1rrnrtbgmza9v)" style="stroke:#A80036;stroke-width:1.0;"/><path d="M1133,668 L1133,678 L1143,678 L1133,668 " fill="#FBFB77" style="stroke:#A80036;stroke-width:1.0;"/><text fill="#000000" font-family="sans-serif" font-size="13" font-weight="bold" lengthAdjust="spacing" textLength="117" x="642" y="687.0669">Responsibilities</text><text fill="#000000" font-family="sans-serif" font-size="13" font-weight="bold" lengthAdjust="spacing" textLength="105" x="1002" y="687.0669">Collaborators</text><text fill="#000000" font-family="sans-serif" font-size="13" lengthAdjust="spacing" textLength="101" x="641" y="702.1997">create init state</text><text fill="#000000" font-family="sans-serif" font-size="13" lengthAdjust="spacing" textLength="75" x="641" y="717.3325">move piece</text><text fill="#000000" font-family="sans-serif" font-size="13" lengthAdjust="spacing" textLength="352" x="641" y="732.4653">decide if piece was captured and maybe remove piece</text><text fill="#000000" font-family="sans-serif" font-size="13" lengthAdjust="spacing" textLength="172" x="641" y="747.5981">Decide if transform to King</text><text fill="#000000" font-family="sans-serif" font-size="13" lengthAdjust="spacing" textLength="0" x="641" y="762.731"/><text fill="#006400" font-family="sans-serif" font-size="13" lengthAdjust="spacing" textLength="250" x="645" y="762.731">also execute jumpgambleresult moves</text><text fill="#000000" font-family="sans-serif" font-size="13" lengthAdjust="spacing" textLength="123" x="1001" y="762.731">JumpGambleResult</text><line style="stroke:#000000;stroke-width:1.0;" x1="637" x2="1128" y1="675" y2="675"/><line style="stroke:#000000;stroke-width:1.0;" x1="637" x2="1128" y1="690.1328" y2="690.1328"/><line style="stroke:#000000;stroke-width:1.0;" x1="637" x2="1128" y1="705.2656" y2="705.2656"/><line style="stroke:#000000;stroke-width:1.0;" x1="637" x2="1128" y1="720.3984" y2="720.3984"/><line style="stroke:#000000;stroke-width:1.0;" x1="637" x2="1128" y1="735.5313" y2="735.5313"/><line style="stroke:#000000;stroke-width:1.0;" x1="637" x2="1128" y1="750.6641" y2="750.6641"/><line style="stroke:#000000;stroke-width:1.0;" x1="637" x2="1128" y1="765.7969" y2="765.7969"/><line style="stroke:#000000;stroke-width:1.0;" x1="637" x2="637" y1="675" y2="765.7969"/><line style="stroke:#000000;stroke-width:1.0;" x1="997" x2="997" y1="675" y2="765.7969"/><line style="stroke:#000000;stroke-width:1.0;" x1="1128" x2="1128" y1="675" y2="765.7969"/><path d="M82,675.5 L82,765.1641 L524,765.1641 L524,685.5 L514,675.5 L82,675.5 " fill="#FBFB77" filter="url(#f1rrnrtbgmza9v)" style="stroke:#A80036;stroke-width:1.0;"/><path d="M514,675.5 L514,685.5 L524,685.5 L514,675.5 " fill="#FBFB77" style="stroke:#A80036;stroke-width:1.0;"/><text fill="#000000" font-family="sans-serif" font-size="13" font-weight="bold" lengthAdjust="spacing" textLength="40" x="93" y="694.5669">Move</text><text fill="#000000" font-family="sans-serif" font-size="13" font-weight="bold" lengthAdjust="spacing" textLength="0" x="399" y="694.5669"/><text fill="#000000" font-family="sans-serif" font-size="13" font-weight="bold" lengthAdjust="spacing" textLength="117" x="93" y="709.6997">Responsibilities</text><text fill="#000000" font-family="sans-serif" font-size="13" font-weight="bold" lengthAdjust="spacing" textLength="105" x="399" y="709.6997">Collaborators</text><text fill="#000000" font-family="sans-serif" font-size="13" lengthAdjust="spacing" textLength="298" x="92" y="724.8325">hold move parameters (From field A to field B)</text><text fill="#000000" font-family="sans-serif" font-size="13" lengthAdjust="spacing" textLength="240" x="92" y="739.9653">decide if move is a jump move or not</text><text fill="#000000" font-family="sans-serif" font-size="13" lengthAdjust="spacing" textLength="0" x="92" y="755.0981"/><text fill="#006400" font-family="sans-serif" font-size="13" lengthAdjust="spacing" textLength="144" x="96" y="755.0981">hold the gamble result</text><line style="stroke:#000000;stroke-width:1.0;" x1="88" x2="509" y1="682.5" y2="682.5"/><line style="stroke:#000000;stroke-width:1.0;" x1="88" x2="509" y1="697.6328" y2="697.6328"/><line style="stroke:#000000;stroke-width:1.0;" x1="88" x2="509" y1="712.7656" y2="712.7656"/><line style="stroke:#000000;stroke-width:1.0;" x1="88" x2="509" y1="727.8984" y2="727.8984"/><line style="stroke:#000000;stroke-width:1.0;" x1="88" x2="509" y1="743.0313" y2="743.0313"/><line style="stroke:#000000;stroke-width:1.0;" x1="88" x2="509" y1="758.1641" y2="758.1641"/><line style="stroke:#000000;stroke-width:1.0;" x1="88" x2="88" y1="682.5" y2="758.1641"/><line style="stroke:#000000;stroke-width:1.0;" x1="394" x2="394" y1="682.5" y2="758.1641"/><line style="stroke:#000000;stroke-width:1.0;" x1="509" x2="509" y1="682.5" y2="758.1641"/><path d="M82,881 L82,925.2656 L700,925.2656 L700,891 L690,881 L82,881 " fill="#FBFB77" filter="url(#f1rrnrtbgmza9v)" style="stroke:#A80036;stroke-width:1.0;"/><path d="M690,881 L690,891 L700,891 L690,881 " fill="#FBFB77" style="stroke:#A80036;stroke-width:1.0;"/><text fill="#000000" font-family="sans-serif" font-size="13" font-weight="bold" lengthAdjust="spacing" textLength="117" x="93" y="900.0669">Responsibilities</text><text fill="#000000" font-family="sans-serif" font-size="13" font-weight="bold" lengthAdjust="spacing" textLength="105" x="575" y="900.0669">Collaborators</text><text fill="#000000" font-family="sans-serif" font-size="13" lengthAdjust="spacing" textLength="474" x="92" y="915.1997">represent the result of the gamble, possible are: NO_GAMBLE, WON, LOST</text><line style="stroke:#000000;stroke-width:1.0;" x1="88" x2="685" y1="888" y2="888"/><line style="stroke:#000000;stroke-width:1.0;" x1="88" x2="685" y1="903.1328" y2="903.1328"/><line style="stroke:#000000;stroke-width:1.0;" x1="88" x2="685" y1="918.2656" y2="918.2656"/><line style="stroke:#000000;stroke-width:1.0;" x1="88" x2="88" y1="888" y2="918.2656"/><line style="stroke:#000000;stroke-width:1.0;" x1="570" x2="570" y1="888" y2="918.2656"/><line style="stroke:#000000;stroke-width:1.0;" x1="685" x2="685" y1="888" y2="918.2656"/><path d="M1757.5,691 L1757.5,750.3984 L2046.5,750.3984 L2046.5,701 L2036.5,691 L1757.5,691 " fill="#FBFB77" filter="url(#f1rrnrtbgmza9v)" style="stroke:#A80036;stroke-width:1.0;"/><path d="M2036.5,691 L2036.5,701 L2046.5,701 L2036.5,691 " fill="#FBFB77" style="stroke:#A80036;stroke-width:1.0;"/><text fill="#000000" font-family="sans-serif" font-size="13" font-weight="bold" lengthAdjust="spacing" textLength="117" x="1768.5" y="710.0669">Responsibilities</text><text fill="#000000" font-family="sans-serif" font-size="13" font-weight="bold" lengthAdjust="spacing" textLength="105" x="1921.5" y="710.0669">Collaborators</text><text fill="#000000" font-family="sans-serif" font-size="13" lengthAdjust="spacing" textLength="145" x="1767.5" y="725.1997">get input from console</text><text fill="#000000" font-family="sans-serif" font-size="13" lengthAdjust="spacing" textLength="75" x="1767.5" y="740.3325">print output</text><line style="stroke:#000000;stroke-width:1.0;" x1="1763.5" x2="2031.5" y1="698" y2="698"/><line style="stroke:#000000;stroke-width:1.0;" x1="1763.5" x2="2031.5" y1="713.1328" y2="713.1328"/><line style="stroke:#000000;stroke-width:1.0;" x1="1763.5" x2="2031.5" y1="728.2656" y2="728.2656"/><line style="stroke:#000000;stroke-width:1.0;" x1="1763.5" x2="2031.5" y1="743.3984" y2="743.3984"/><line style="stroke:#000000;stroke-width:1.0;" x1="1763.5" x2="1763.5" y1="698" y2="743.3984"/><line style="stroke:#000000;stroke-width:1.0;" x1="1916.5" x2="1916.5" y1="698" y2="743.3984"/><line style="stroke:#000000;stroke-width:1.0;" x1="2031.5" x2="2031.5" y1="698" y2="743.3984"/><path d="M1298,698.5 L1298,742.7656 L1650,742.7656 L1650,708.5 L1640,698.5 L1298,698.5 " fill="#FBFB77" filter="url(#f1rrnrtbgmza9v)" style="stroke:#A80036;stroke-width:1.0;"/><path d="M1640,698.5 L1640,708.5 L1650,708.5 L1640,698.5 " fill="#FBFB77" style="stroke:#A80036;stroke-width:1.0;"/><text fill="#000000" font-family="sans-serif" font-size="13" font-weight="bold" lengthAdjust="spacing" textLength="117" x="1309" y="717.5669">Responsibilities</text><text fill="#000000" font-family="sans-serif" font-size="13" font-weight="bold" lengthAdjust="spacing" textLength="105" x="1525" y="717.5669">Collaborators</text><text fill="#000000" font-family="sans-serif" font-size="13" lengthAdjust="spacing" textLength="208" x="1308" y="732.6997">return HEADS or TAILS randomly</text><line style="stroke:#000000;stroke-width:1.0;" x1="1304" x2="1635" y1="705.5" y2="705.5"/><line style="stroke:#000000;stroke-width:1.0;" x1="1304" x2="1635" y1="720.6328" y2="720.6328"/><line style="stroke:#000000;stroke-width:1.0;" x1="1304" x2="1635" y1="735.7656" y2="735.7656"/><line style="stroke:#000000;stroke-width:1.0;" x1="1304" x2="1304" y1="705.5" y2="735.7656"/><line style="stroke:#000000;stroke-width:1.0;" x1="1520" x2="1520" y1="705.5" y2="735.7656"/><line style="stroke:#000000;stroke-width:1.0;" x1="1635" x2="1635" y1="705.5" y2="735.7656"/><path d="M2260.5,169.5 L2260.5,228.8984 L2547.5,228.8984 L2547.5,179.5 L2537.5,169.5 L2260.5,169.5 " fill="#FBFB77" filter="url(#f1rrnrtbgmza9v)" style="stroke:#A80036;stroke-width:1.0;"/><path d="M2537.5,169.5 L2537.5,179.5 L2547.5,179.5 L2537.5,169.5 " fill="#FBFB77" style="stroke:#A80036;stroke-width:1.0;"/><text fill="#000000" font-family="sans-serif" font-size="13" font-weight="bold" lengthAdjust="spacing" textLength="117" x="2271.5" y="188.5669">Responsibilities</text><text fill="#000000" font-family="sans-serif" font-size="13" font-weight="bold" lengthAdjust="spacing" textLength="105" x="2422.5" y="188.5669">Collaborators</text><text fill="#000000" font-family="sans-serif" font-size="13" lengthAdjust="spacing" textLength="143" x="2270.5" y="203.6997">existing responsability</text><text fill="#000000" font-family="sans-serif" font-size="13" lengthAdjust="spacing" textLength="0" x="2274.5" y="218.8325"/><text fill="#006400" font-family="sans-serif" font-size="13" lengthAdjust="spacing" textLength="120" x="2274.5" y="218.8325">new responsability</text><line style="stroke:#000000;stroke-width:1.0;" x1="2266.5" x2="2532.5" y1="176.5" y2="176.5"/><line style="stroke:#000000;stroke-width:1.0;" x1="2266.5" x2="2532.5" y1="191.6328" y2="191.6328"/><line style="stroke:#000000;stroke-width:1.0;" x1="2266.5" x2="2532.5" y1="206.7656" y2="206.7656"/><line style="stroke:#000000;stroke-width:1.0;" x1="2266.5" x2="2532.5" y1="221.8984" y2="221.8984"/><line style="stroke:#000000;stroke-width:1.0;" x1="2266.5" x2="2266.5" y1="176.5" y2="221.8984"/><line style="stroke:#000000;stroke-width:1.0;" x1="2417.5" x2="2417.5" y1="176.5" y2="221.8984"/><line style="stroke:#000000;stroke-width:1.0;" x1="2532.5" x2="2532.5" y1="176.5" y2="221.8984"/><path d="M1940.5,177 L1940.5,221.2656 L2203.5,221.2656 L2203.5,187 L2193.5,177 L1940.5,177 " fill="#FBFB77" filter="url(#f1rrnrtbgmza9v)" style="stroke:#A80036;stroke-width:1.0;"/><path d="M2193.5,177 L2193.5,187 L2203.5,187 L2193.5,177 " fill="#FBFB77" style="stroke:#A80036;stroke-width:1.0;"/><text fill="#000000" font-family="sans-serif" font-size="13" font-weight="bold" lengthAdjust="spacing" textLength="117" x="1951.5" y="196.0669">Responsibilities</text><text fill="#000000" font-family="sans-serif" font-size="13" font-weight="bold" lengthAdjust="spacing" textLength="105" x="2078.5" y="196.0669">Collaborators</text><text fill="#000000" font-family="sans-serif" font-size="13" lengthAdjust="spacing" textLength="89" x="1950.5" y="211.1997">responsability</text><line style="stroke:#000000;stroke-width:1.0;" x1="1946.5" x2="2188.5" y1="184" y2="184"/><line style="stroke:#000000;stroke-width:1.0;" x1="1946.5" x2="2188.5" y1="199.1328" y2="199.1328"/><line style="stroke:#000000;stroke-width:1.0;" x1="1946.5" x2="2188.5" y1="214.2656" y2="214.2656"/><line style="stroke:#000000;stroke-width:1.0;" x1="1946.5" x2="1946.5" y1="184" y2="214.2656"/><line style="stroke:#000000;stroke-width:1.0;" x1="2073.5" x2="2073.5" y1="184" y2="214.2656"/><line style="stroke:#000000;stroke-width:1.0;" x1="2188.5" x2="2188.5" y1="184" y2="214.2656"/><!--MD5=[cb86fc7ba0cdde84113cf1053ae3d755]
link gamelogic to console--><path d="M1129.1828,321.5156 C1129.302,321.7126 1129.4221,321.909 1129.5431,322.1048 C1130.0271,322.8881 1130.5259,323.662 1131.0398,324.4262 C1132.0676,325.9545 1133.1558,327.4435 1134.3073,328.8887 C1136.6104,331.7792 1139.1669,334.4948 1142,337 C1164.06,356.507 1649.99,325.437 1672,345 C1703.135,372.6705 1715.6825,465.0545 1720.4225,551.1341 C1721.6075,572.654 1722.3045,593.7799 1722.682,613.4021 C1722.8708,623.2132 1722.9796,632.6484 1723.0297,641.569 C1723.0359,642.684 1723.0413,643.7911 1723.0457,644.8898 C1723.048,645.4391 1723.05,645.9864 1723.0518,646.5316 " fill="none" id="gamelogic-to-console" style="stroke:#A80036;stroke-width:1.0;"/><polygon fill="#A80036" points="1723.0518,646.5316,1727.0221,637.5185,1723.0353,641.5316,1719.0222,637.5448,1723.0518,646.5316" style="stroke:#A80036;stroke-width:1.0;"/><!--MD5=[d7d8d0d26745a9a6692d55574572b480]
link gamelogic to moveexecutor--><path d="M1123,321.1506 C1123,322.104 1123,323.0577 1123,324.0114 C1123,331.6408 1123,339.2701 1123,346.7838 C1123,350.5407 1123,354.2687 1123,357.9533 C1123,358.8745 1123,359.793 1123,360.7085 " fill="none" id="gamelogic-to-moveexecutor" style="stroke:#A80036;stroke-width:1.0;"/><polygon fill="#A80036" points="1123,360.7085,1127,351.7085,1123,355.7085,1119,351.7085,1123,360.7085" style="stroke:#A80036;stroke-width:1.0;"/><!--MD5=[46d100ab9eb7fe8004473acbffaa9d39]
link moveexecutor to console--><path d="M1121.0774,518.5378 C1121.151,518.9054 1121.2266,519.2727 1121.304,519.6395 C1121.9238,522.5738 1122.6671,525.4798 1123.5511,528.3291 C1127.0869,539.7266 1132.8725,550.2188 1142,558 C1164.16,576.888 1642.27,549.128 1666,566 C1680.565,576.3565 1691.3525,590.9119 1699.3397,606.9724 C1703.3333,615.0027 1706.6268,623.4092 1709.3424,631.8552 C1710.7002,636.0783 1711.9135,640.3112 1712.9976,644.5119 C1713.2686,645.5621 1713.5316,646.6102 1713.7867,647.6557 C1713.8504,647.9171 1713.9137,648.1783 1713.9765,648.4393 " fill="none" id="moveexecutor-to-console" style="stroke:#A80036;stroke-width:1.0;"/><polygon fill="#A80036" points="1713.9765,648.4393,1715.7603,638.7533,1712.8069,643.578,1707.9822,640.6247,1713.9765,648.4393" style="stroke:#A80036;stroke-width:1.0;"/><!--MD5=[a6279a2c5baff5c1fc7c6cdd829badbe]
link moveexecutor to board--><path d="M1114.8568,450.6129 C1114.6052,450.6325 1114.3481,450.6527 1114.0856,450.6733 C1113.0354,450.7558 1111.8979,450.846 1110.6759,450.9441 C1108.2319,451.1403 1105.45,451.3678 1102.3537,451.6276 C1089.9683,452.6667 1072.5509,454.2207 1051.5956,456.3388 C1009.685,460.575 953.6225,467.0674 895.36,476.2094 C778.835,494.4933 653.51,523.375 615,566 C603.659,578.5528 596.7492,594.2235 592.7764,610.7174 C591.7833,614.8409 590.9736,619.0158 590.3242,623.2063 C590.2431,623.7301 590.1644,624.2542 590.0882,624.7784 " fill="none" id="moveexecutor-to-board" style="stroke:#A80036;stroke-width:1.0;"/><polygon fill="#A80036" points="590.0882,624.7784,595.3414,616.4475,590.8075,619.8304,587.4246,615.2965,590.0882,624.7784" style="stroke:#A80036;stroke-width:1.0;"/><!--MD5=[9da2f4a60a7d3bcf5b6e30f2f9a2380c]
link moveexecutor to cointosser--><path d="M1124.9652,518.1601 C1125.0046,518.3449 1125.0444,518.5297 1125.0846,518.7145 C1125.2452,519.4536 1125.4118,520.1924 1125.5845,520.9306 C1125.9301,522.4068 1126.3004,523.8803 1126.6969,525.3481 C1129.8688,537.0906 1134.7175,548.4705 1142,558 C1147.07,564.635 1152.65,560.572 1159,566 C1189.825,592.3635 1215.5,629.9605 1233.6275,661.3465 C1242.6913,677.0395 1249.8681,691.1797 1254.8584,701.5867 " fill="none" id="moveexecutor-to-cointosser" style="stroke:#A80036;stroke-width:1.0;"/><polygon fill="#A80036" points="1254.8584,701.5867,1254.5738,691.7419,1252.6965,697.0782,1247.3603,695.201,1254.8584,701.5867" style="stroke:#A80036;stroke-width:1.0;"/><!--MD5=[217d73fac239debfc53d1e80ef29cf3c]
link moveexecutor to move--><path d="M1114.6389,450.2974 C1114.2479,450.3116 1113.8436,450.3263 1113.4263,450.3416 C1112.5916,450.372 1111.7047,450.4046 1110.7662,450.4392 C1103.2586,450.7159 1092.4578,451.125 1078.8129,451.6705 C1051.523,452.7617 1012.8569,454.3986 966.4081,456.6139 C873.5104,461.0445 749.4819,467.7887 623.0708,477.1074 C370.2485,495.7448 107.896,524.68 66,566 C41.9105,589.7585 36.9313,627.3148 38.0865,659.3313 C38.2309,663.3333 38.4711,667.2488 38.7818,671.04 C38.8207,671.5139 38.8606,671.9858 38.9016,672.4558 C38.9221,672.6908 38.9429,672.9252 38.9639,673.1592 " fill="none" id="moveexecutor-to-move" style="stroke:#A80036;stroke-width:1.0;"/><polygon fill="#A80036" points="38.9639,673.1592,42.1425,663.8374,38.5165,668.1792,34.1746,664.5532,38.9639,673.1592" style="stroke:#A80036;stroke-width:1.0;"/><!--MD5=[963cf9656085b80ccddfd07c6cf59f27]
link move to jumpGambleResult--><path d="M47,790.4423 C47,790.7753 47,791.1087 47,791.4425 C47,792.7777 47,794.1192 47,795.4656 C47,800.8515 47,806.3174 47,811.7832 C47,817.2489 47,822.7145 47,828.0997 C47,830.7923 47,833.4648 47,836.1072 C47,836.4375 47,836.7674 47,837.0967 C47,837.2614 47,837.4259 47,837.5904 " fill="none" id="move-to-jumpGambleResult" style="stroke:#A80036;stroke-width:1.0;"/><polygon fill="#A80036" points="47,837.5904,51,828.5904,47,832.5904,43,828.5904,47,837.5904" style="stroke:#A80036;stroke-width:1.0;"/><!--MD5=[4f94e2b7d0827f8a82260928da48038b]
@startuml
rectangle "Main Classes" {
    rectangle "GameLogic" as gamelogic {
        note as gamelogicnote
          |= Responsibilities |= Collaborators |
          | knows which players play | Board |
          | print welcome message | List<Rule> |
          | Print instructions to player | List<WinCondition> |
          | decide which player should move (attention, double Jump rule) | BoardPrinter |
          | check win conditions ||
          | print win message ||
          | check that input move has correct format ||
          | check if move is valid ||
          | get move from player ||
          | print error message ||
          | <color: #006400> if JumpGambleResult is won, same player can play again | JumpGambleResult, MoveExecutor |
        endnote
    }

    rectangle "MoveExecutor" as moveexecutor #006400 {
       note as moveexecutornote
         |= Responsibilities |= Collaborators |
         | execute normal move with board | Board, Move |
         | ask if player wants to gamble | Console |
         | toss coin | CoinTosser |
         | execute move with JumpGambleResult | Board, Move, JumpGambleResult |
       endnote
    }
}

rectangle "Data classes" {
    rectangle "Board" as board {
        note as boardnote
          |= Responsibilities |= Collaborators |
          | create init state ||
          | move piece ||
          | decide if piece was captured and maybe remove piece ||
          | Decide if transform to King ||
          | <color: #006400> also execute jumpgambleresult moves | JumpGambleResult |
        endnote
    }

    rectangle Move as move {
      note as Move
        |= Move |= |
        |= Responsibilities |= Collaborators |
        | hold move parameters (From field A to field B) ||
        | decide if move is a jump move or not ||
        | <color: #006400> hold the gamble result ||
      endnote
    }

    rectangle JumpGambleResult as jumpGambleResult #006400 {
        note as jumpGambleResultNote
            |= Responsibilities |= Collaborators |
            | represent the result of the gamble, possible are: NO_GAMBLE, WON, LOST ||
        endnote
    }
}

rectangle "Helper classes" {
    rectangle "Console" as console {
        note as consolenote
          |= Responsibilities |= Collaborators |
          | get input from console ||
          | print output ||
        endnote
    }

    rectangle "CoinTosser" as cointosser #006400 {
        note as cointossernote
          |= Responsibilities |= Collaborators |
          | return HEADS or TAILS randomly ||
        endnote
    }
}

gamelogic - -> console
gamelogic - -> moveexecutor
moveexecutor - -> console
moveexecutor - -> board
moveexecutor - -> cointosser
moveexecutor - -> move
move - -> jumpGambleResult

rectangle "Legend" {
    rectangle "Existing class" {
        note as existingclass
          |= Responsibilities |= Collaborators |
          | existing responsability ||
          |  <color: #006400>new responsability ||
        endnote
    }

    rectangle "New class" #006400 {
        note as newclass
          |= Responsibilities |= Collaborators |
          | responsability ||
        endnote
    }
}
@enduml

PlantUML version 1.2021.13beta8(Unknown compile time)
(GPL source distribution)
Java Runtime: Java(TM) SE Runtime Environment
JVM: Java HotSpot(TM) 64-Bit Server VM
Default Encoding: UTF-8
Language: en
Country: US
--></g></svg>