<?xml version="1.0" encoding="UTF-8" standalone="no"?><svg xmlns="http://www.w3.org/2000/svg" xmlns:xlink="http://www.w3.org/1999/xlink" contentScriptType="application/ecmascript" contentStyleType="text/css" height="878px" preserveAspectRatio="none" style="width:1196px;height:878px;background:#FFFFFF;" version="1.1" viewBox="0 0 1196 878" width="1196px" zoomAndPan="magnify"><defs><filter height="300%" id="fw506d8eopbi" width="300%" x="-1" y="-1"><feGaussianBlur result="blurOut" stdDeviation="2.0"/><feColorMatrix in="blurOut" result="blurOut2" type="matrix" values="0 0 0 0 0 0 0 0 0 0 0 0 0 0 0 0 0 0 .4 0"/><feOffset dx="4.0" dy="4.0" in="blurOut2" result="blurOut3"/><feBlend in="SourceGraphic" in2="blurOut3" mode="normal"/></filter></defs><g><rect fill="#FFFFFF" filter="url(#fw506d8eopbi)" height="775.4531" style="stroke:#A80036;stroke-width:1.0;" width="10" x="64" y="50.2969"/><rect fill="#FFFFFF" filter="url(#fw506d8eopbi)" height="775.4531" style="stroke:#A80036;stroke-width:1.0;" width="10" x="181" y="50.2969"/><rect fill="#FFFFFF" filter="url(#fw506d8eopbi)" height="775.4531" style="stroke:#A80036;stroke-width:1.0;" width="10" x="322" y="50.2969"/><rect fill="#FFFFFF" filter="url(#fw506d8eopbi)" height="775.4531" style="stroke:#A80036;stroke-width:1.0;" width="10" x="468" y="50.2969"/><rect fill="#FFFFFF" filter="url(#fw506d8eopbi)" height="775.4531" style="stroke:#A80036;stroke-width:1.0;" width="10" x="797" y="50.2969"/><rect fill="#FFFFFF" filter="url(#fw506d8eopbi)" height="775.4531" style="stroke:#A80036;stroke-width:1.0;" width="10" x="916" y="50.2969"/><rect fill="#FFFFFF" filter="url(#fw506d8eopbi)" height="775.4531" style="stroke:#A80036;stroke-width:1.0;" width="10" x="1044" y="50.2969"/><rect fill="#FFFFFF" filter="url(#fw506d8eopbi)" height="626.7891" style="stroke:#A80036;stroke-width:1.0;" width="10" x="1139.5" y="182.9609"/><rect fill="#FFFFFF" filter="url(#fw506d8eopbi)" height="760.4531" style="stroke:#000000;stroke-width:2.0;" width="1172.5" x="10" y="57.2969"/><rect fill="#FFFFFF" filter="url(#fw506d8eopbi)" height="59.2656" style="stroke:#000000;stroke-width:2.0;" width="399" x="403" y="372.7578"/><line style="stroke:#A80036;stroke-width:1.0;stroke-dasharray:5.0,5.0;" x1="69" x2="69" y1="40.2969" y2="834.75"/><line style="stroke:#A80036;stroke-width:1.0;stroke-dasharray:5.0,5.0;" x1="186" x2="186" y1="40.2969" y2="834.75"/><line style="stroke:#A80036;stroke-width:1.0;stroke-dasharray:5.0,5.0;" x1="327" x2="327" y1="40.2969" y2="834.75"/><line style="stroke:#A80036;stroke-width:1.0;stroke-dasharray:5.0,5.0;" x1="473" x2="473" y1="40.2969" y2="834.75"/><line style="stroke:#A80036;stroke-width:1.0;stroke-dasharray:5.0,5.0;" x1="801.5" x2="801.5" y1="40.2969" y2="834.75"/><line style="stroke:#A80036;stroke-width:1.0;stroke-dasharray:5.0,5.0;" x1="920.5" x2="920.5" y1="40.2969" y2="834.75"/><line style="stroke:#A80036;stroke-width:1.0;stroke-dasharray:5.0,5.0;" x1="1048.5" x2="1048.5" y1="40.2969" y2="834.75"/><line style="stroke:#A80036;stroke-width:1.0;stroke-dasharray:5.0,5.0;" x1="1144.5" x2="1144.5" y1="40.2969" y2="834.75"/><rect fill="#FEFECE" filter="url(#fw506d8eopbi)" height="30.2969" style="stroke:#A80036;stroke-width:1.5;" width="94" x="20" y="5"/><text fill="#000000" font-family="sans-serif" font-size="14" lengthAdjust="spacing" textLength="80" x="27" y="24.9951">GameLogic</text><rect fill="#FEFECE" filter="url(#fw506d8eopbi)" height="30.2969" style="stroke:#A80036;stroke-width:1.5;" width="94" x="20" y="833.75"/><text fill="#000000" font-family="sans-serif" font-size="14" lengthAdjust="spacing" textLength="80" x="27" y="853.7451">GameLogic</text><rect fill="#FEFECE" filter="url(#fw506d8eopbi)" height="30.2969" style="stroke:#A80036;stroke-width:1.5;" width="106" x="131" y="5"/><text fill="#000000" font-family="sans-serif" font-size="14" lengthAdjust="spacing" textLength="92" x="138" y="24.9951">BoardPrinter</text><rect fill="#FEFECE" filter="url(#fw506d8eopbi)" height="30.2969" style="stroke:#A80036;stroke-width:1.5;" width="106" x="131" y="833.75"/><text fill="#000000" font-family="sans-serif" font-size="14" lengthAdjust="spacing" textLength="92" x="138" y="853.7451">BoardPrinter</text><rect fill="#FEFECE" filter="url(#fw506d8eopbi)" height="30.2969" style="stroke:#A80036;stroke-width:1.5;" width="56" x="297" y="5"/><text fill="#000000" font-family="sans-serif" font-size="14" lengthAdjust="spacing" textLength="42" x="304" y="24.9951">Board</text><rect fill="#FEFECE" filter="url(#fw506d8eopbi)" height="30.2969" style="stroke:#A80036;stroke-width:1.5;" width="56" x="297" y="833.75"/><text fill="#000000" font-family="sans-serif" font-size="14" lengthAdjust="spacing" textLength="42" x="304" y="853.7451">Board</text><rect fill="#FEFECE" filter="url(#fw506d8eopbi)" height="30.2969" style="stroke:#A80036;stroke-width:1.5;" width="116" x="413" y="5"/><text fill="#000000" font-family="sans-serif" font-size="14" lengthAdjust="spacing" textLength="102" x="420" y="24.9951">MoveExecutor</text><rect fill="#FEFECE" filter="url(#fw506d8eopbi)" height="30.2969" style="stroke:#A80036;stroke-width:1.5;" width="116" x="413" y="833.75"/><text fill="#000000" font-family="sans-serif" font-size="14" lengthAdjust="spacing" textLength="102" x="420" y="853.7451">MoveExecutor</text><rect fill="#FEFECE" filter="url(#fw506d8eopbi)" height="30.2969" style="stroke:#A80036;stroke-width:1.5;" width="93" x="753.5" y="5"/><text fill="#000000" font-family="sans-serif" font-size="14" lengthAdjust="spacing" textLength="79" x="760.5" y="24.9951">CoinTosser</text><rect fill="#FEFECE" filter="url(#fw506d8eopbi)" height="30.2969" style="stroke:#A80036;stroke-width:1.5;" width="93" x="753.5" y="833.75"/><text fill="#000000" font-family="sans-serif" font-size="14" lengthAdjust="spacing" textLength="79" x="760.5" y="853.7451">CoinTosser</text><rect fill="#FEFECE" filter="url(#fw506d8eopbi)" height="30.2969" style="stroke:#A80036;stroke-width:1.5;" width="117" x="860.5" y="5"/><text fill="#000000" font-family="sans-serif" font-size="14" lengthAdjust="spacing" textLength="103" x="867.5" y="24.9951">MoveValidator</text><rect fill="#FEFECE" filter="url(#fw506d8eopbi)" height="30.2969" style="stroke:#A80036;stroke-width:1.5;" width="117" x="860.5" y="833.75"/><text fill="#000000" font-family="sans-serif" font-size="14" lengthAdjust="spacing" textLength="103" x="867.5" y="853.7451">MoveValidator</text><rect fill="#FEFECE" filter="url(#fw506d8eopbi)" height="30.2969" style="stroke:#A80036;stroke-width:1.5;" width="111" x="991.5" y="5"/><text fill="#000000" font-family="sans-serif" font-size="14" lengthAdjust="spacing" textLength="97" x="998.5" y="24.9951">WinCondition</text><rect fill="#FEFECE" filter="url(#fw506d8eopbi)" height="30.2969" style="stroke:#A80036;stroke-width:1.5;" width="111" x="991.5" y="833.75"/><text fill="#000000" font-family="sans-serif" font-size="14" lengthAdjust="spacing" textLength="97" x="998.5" y="853.7451">WinCondition</text><rect fill="#FEFECE" filter="url(#fw506d8eopbi)" height="30.2969" style="stroke:#A80036;stroke-width:1.5;" width="52" x="1116.5" y="5"/><text fill="#000000" font-family="sans-serif" font-size="14" lengthAdjust="spacing" textLength="38" x="1123.5" y="24.9951">Move</text><rect fill="#FEFECE" filter="url(#fw506d8eopbi)" height="30.2969" style="stroke:#A80036;stroke-width:1.5;" width="52" x="1116.5" y="833.75"/><text fill="#000000" font-family="sans-serif" font-size="14" lengthAdjust="spacing" textLength="38" x="1123.5" y="853.7451">Move</text><rect fill="#FFFFFF" filter="url(#fw506d8eopbi)" height="775.4531" style="stroke:#A80036;stroke-width:1.0;" width="10" x="64" y="50.2969"/><rect fill="#FFFFFF" filter="url(#fw506d8eopbi)" height="775.4531" style="stroke:#A80036;stroke-width:1.0;" width="10" x="181" y="50.2969"/><rect fill="#FFFFFF" filter="url(#fw506d8eopbi)" height="775.4531" style="stroke:#A80036;stroke-width:1.0;" width="10" x="322" y="50.2969"/><rect fill="#FFFFFF" filter="url(#fw506d8eopbi)" height="775.4531" style="stroke:#A80036;stroke-width:1.0;" width="10" x="468" y="50.2969"/><rect fill="#FFFFFF" filter="url(#fw506d8eopbi)" height="775.4531" style="stroke:#A80036;stroke-width:1.0;" width="10" x="797" y="50.2969"/><rect fill="#FFFFFF" filter="url(#fw506d8eopbi)" height="775.4531" style="stroke:#A80036;stroke-width:1.0;" width="10" x="916" y="50.2969"/><rect fill="#FFFFFF" filter="url(#fw506d8eopbi)" height="775.4531" style="stroke:#A80036;stroke-width:1.0;" width="10" x="1044" y="50.2969"/><rect fill="#FFFFFF" filter="url(#fw506d8eopbi)" height="626.7891" style="stroke:#A80036;stroke-width:1.0;" width="10" x="1139.5" y="182.9609"/><path d="M10,57.2969 L88,57.2969 L88,64.2969 L78,74.2969 L10,74.2969 L10,57.2969 " fill="#EEEEEE" style="stroke:#000000;stroke-width:1.0;"/><rect fill="none" height="760.4531" style="stroke:#000000;stroke-width:2.0;" width="1172.5" x="10" y="57.2969"/><text fill="#000000" font-family="sans-serif" font-size="13" font-weight="bold" lengthAdjust="spacing" textLength="33" x="25" y="70.3638">loop</text><text fill="#000000" font-family="sans-serif" font-size="11" font-weight="bold" lengthAdjust="spacing" textLength="169" x="103" y="69.5073">[while there is no winner]</text><polygon fill="#A80036" points="169,91.5625,179,95.5625,169,99.5625,173,95.5625" style="stroke:#A80036;stroke-width:1.0;"/><line style="stroke:#A80036;stroke-width:1.0;" x1="74" x2="175" y1="95.5625" y2="95.5625"/><text fill="#000000" font-family="sans-serif" font-size="13" font-weight="bold" lengthAdjust="spacing" textLength="9" x="81" y="90.4966">1</text><text fill="#000000" font-family="sans-serif" font-size="13" lengthAdjust="spacing" textLength="70" x="94" y="90.4966">Print Board</text><polygon fill="#A80036" points="310,120.6953,320,124.6953,310,128.6953,314,124.6953" style="stroke:#A80036;stroke-width:1.0;"/><line style="stroke:#A80036;stroke-width:1.0;" x1="191" x2="316" y1="124.6953" y2="124.6953"/><text fill="#000000" font-family="sans-serif" font-size="13" font-weight="bold" lengthAdjust="spacing" textLength="9" x="198" y="119.6294">2</text><text fill="#000000" font-family="sans-serif" font-size="13" lengthAdjust="spacing" textLength="71" x="211" y="119.6294">GetPieceAt</text><polygon fill="#A80036" points="202,149.8281,192,153.8281,202,157.8281,198,153.8281" style="stroke:#A80036;stroke-width:1.0;"/><line style="stroke:#A80036;stroke-width:1.0;" x1="196" x2="321" y1="153.8281" y2="153.8281"/><text fill="#000000" font-family="sans-serif" font-size="13" font-weight="bold" lengthAdjust="spacing" textLength="8" x="208" y="148.7622">3</text><text fill="#000000" font-family="sans-serif" font-size="13" lengthAdjust="spacing" textLength="81" x="220" y="148.7622">Return piece</text><polygon fill="#A80036" points="1127.5,178.9609,1137.5,182.9609,1127.5,186.9609,1131.5,182.9609" style="stroke:#A80036;stroke-width:1.0;"/><line style="stroke:#A80036;stroke-width:1.0;" x1="74" x2="1133.5" y1="182.9609" y2="182.9609"/><text fill="#000000" font-family="sans-serif" font-size="13" font-weight="bold" lengthAdjust="spacing" textLength="9" x="81" y="177.895">4</text><text fill="#000000" font-family="sans-serif" font-size="13" lengthAdjust="spacing" textLength="72" x="94" y="177.895">Parse Input</text><polygon fill="#A80036" points="85,208.0938,75,212.0938,85,216.0938,81,212.0938" style="stroke:#A80036;stroke-width:1.0;"/><line style="stroke:#A80036;stroke-width:1.0;" x1="79" x2="1138.5" y1="212.0938" y2="212.0938"/><text fill="#000000" font-family="sans-serif" font-size="13" font-weight="bold" lengthAdjust="spacing" textLength="9" x="91" y="207.0278">5</text><text fill="#000000" font-family="sans-serif" font-size="13" lengthAdjust="spacing" textLength="196" x="104" y="207.0278">Either valid move or exception</text><polygon fill="#A80036" points="310,237.2266,320,241.2266,310,245.2266,314,241.2266" style="stroke:#A80036;stroke-width:1.0;"/><line style="stroke:#A80036;stroke-width:1.0;" x1="74" x2="316" y1="241.2266" y2="241.2266"/><text fill="#000000" font-family="sans-serif" font-size="13" font-weight="bold" lengthAdjust="spacing" textLength="9" x="81" y="236.1606">6</text><text fill="#000000" font-family="sans-serif" font-size="13" lengthAdjust="spacing" textLength="191" x="94" y="236.1606">Get piece at start coordinates</text><polygon fill="#A80036" points="85,266.3594,75,270.3594,85,274.3594,81,270.3594" style="stroke:#A80036;stroke-width:1.0;"/><line style="stroke:#A80036;stroke-width:1.0;" x1="79" x2="321" y1="270.3594" y2="270.3594"/><text fill="#000000" font-family="sans-serif" font-size="13" font-weight="bold" lengthAdjust="spacing" textLength="9" x="91" y="265.2935">7</text><text fill="#000000" font-family="sans-serif" font-size="13" lengthAdjust="spacing" textLength="202" x="104" y="265.2935">Either is empty or returns piece</text><polygon fill="#A80036" points="904,295.4922,914,299.4922,904,303.4922,908,299.4922" style="stroke:#A80036;stroke-width:1.0;"/><line style="stroke:#A80036;stroke-width:1.0;" x1="74" x2="910" y1="299.4922" y2="299.4922"/><text fill="#000000" font-family="sans-serif" font-size="13" font-weight="bold" lengthAdjust="spacing" textLength="9" x="81" y="294.4263">8</text><text fill="#000000" font-family="sans-serif" font-size="13" lengthAdjust="spacing" textLength="140" x="94" y="294.4263">Check if move is valid</text><polygon fill="#A80036" points="85,324.625,75,328.625,85,332.625,81,328.625" style="stroke:#A80036;stroke-width:1.0;"/><line style="stroke:#A80036;stroke-width:1.0;" x1="79" x2="915" y1="328.625" y2="328.625"/><text fill="#000000" font-family="sans-serif" font-size="13" font-weight="bold" lengthAdjust="spacing" textLength="9" x="91" y="323.5591">9</text><text fill="#000000" font-family="sans-serif" font-size="13" lengthAdjust="spacing" textLength="149" x="104" y="323.5591">Move is valid / not valid</text><polygon fill="#A80036" points="456,353.7578,466,357.7578,456,361.7578,460,357.7578" style="stroke:#A80036;stroke-width:1.0;"/><line style="stroke:#A80036;stroke-width:1.0;" x1="74" x2="462" y1="357.7578" y2="357.7578"/><text fill="#000000" font-family="sans-serif" font-size="13" font-weight="bold" lengthAdjust="spacing" textLength="19" x="81" y="352.6919">10</text><text fill="#000000" font-family="sans-serif" font-size="13" lengthAdjust="spacing" textLength="93" x="104" y="352.6919">Execute move</text><path d="M403,372.7578 L481,372.7578 L481,379.7578 L471,389.7578 L403,389.7578 L403,372.7578 " fill="#EEEEEE" style="stroke:#000000;stroke-width:1.0;"/><rect fill="none" height="59.2656" style="stroke:#000000;stroke-width:2.0;" width="399" x="403" y="372.7578"/><text fill="#000000" font-family="sans-serif" font-size="13" font-weight="bold" lengthAdjust="spacing" textLength="33" x="418" y="385.8247">loop</text><text fill="#000000" font-family="sans-serif" font-size="11" font-weight="bold" lengthAdjust="spacing" textLength="256" x="496" y="384.9683">[while the answer to gamble is invalid]</text><line style="stroke:#A80036;stroke-width:1.0;" x1="478" x2="520" y1="411.0234" y2="411.0234"/><line style="stroke:#A80036;stroke-width:1.0;" x1="520" x2="520" y1="411.0234" y2="424.0234"/><line style="stroke:#A80036;stroke-width:1.0;" x1="479" x2="520" y1="424.0234" y2="424.0234"/><polygon fill="#A80036" points="489,420.0234,479,424.0234,489,428.0234,485,424.0234" style="stroke:#A80036;stroke-width:1.0;"/><text fill="#000000" font-family="sans-serif" font-size="13" font-weight="bold" lengthAdjust="spacing" textLength="18" x="485" y="405.9575">11</text><text fill="#000000" font-family="sans-serif" font-size="13" lengthAdjust="spacing" textLength="283" x="507" y="405.9575">If jump move, ask if player wants to gamble</text><polygon fill="#A80036" points="785,456.1563,795,460.1563,785,464.1563,789,460.1563" style="stroke:#A80036;stroke-width:1.0;"/><line style="stroke:#A80036;stroke-width:1.0;" x1="478" x2="791" y1="460.1563" y2="460.1563"/><text fill="#000000" font-family="sans-serif" font-size="13" font-weight="bold" lengthAdjust="spacing" textLength="18" x="485" y="455.0903">12</text><text fill="#000000" font-family="sans-serif" font-size="13" lengthAdjust="spacing" textLength="125" x="507" y="455.0903">If gamble, toss coin</text><polygon fill="#A80036" points="489,485.2891,479,489.2891,489,493.2891,485,489.2891" style="stroke:#A80036;stroke-width:1.0;"/><line style="stroke:#A80036;stroke-width:1.0;" x1="483" x2="796" y1="489.2891" y2="489.2891"/><text fill="#000000" font-family="sans-serif" font-size="13" font-weight="bold" lengthAdjust="spacing" textLength="17" x="495" y="484.2231">13</text><text fill="#000000" font-family="sans-serif" font-size="13" lengthAdjust="spacing" textLength="109" x="516" y="484.2231">return coin result</text><polygon fill="#A80036" points="1127.5,514.4219,1137.5,518.4219,1127.5,522.4219,1131.5,518.4219" style="stroke:#A80036;stroke-width:1.0;"/><line style="stroke:#A80036;stroke-width:1.0;" x1="478" x2="1133.5" y1="518.4219" y2="518.4219"/><text fill="#000000" font-family="sans-serif" font-size="13" font-weight="bold" lengthAdjust="spacing" textLength="18" x="485" y="513.356">14</text><text fill="#000000" font-family="sans-serif" font-size="13" lengthAdjust="spacing" textLength="116" x="507" y="513.356">add gamble result</text><polygon fill="#A80036" points="489,543.5547,479,547.5547,489,551.5547,485,547.5547" style="stroke:#A80036;stroke-width:1.0;"/><line style="stroke:#A80036;stroke-width:1.0;" x1="483" x2="1138.5" y1="547.5547" y2="547.5547"/><text fill="#000000" font-family="sans-serif" font-size="13" font-weight="bold" lengthAdjust="spacing" textLength="18" x="495" y="542.4888">15</text><text fill="#000000" font-family="sans-serif" font-size="13" lengthAdjust="spacing" textLength="247" x="517" y="542.4888">return move with added gamble result</text><polygon fill="#A80036" points="343,572.6875,333,576.6875,343,580.6875,339,576.6875" style="stroke:#A80036;stroke-width:1.0;"/><line style="stroke:#A80036;stroke-width:1.0;" x1="337" x2="467" y1="576.6875" y2="576.6875"/><text fill="#000000" font-family="sans-serif" font-size="13" font-weight="bold" lengthAdjust="spacing" textLength="18" x="349" y="571.6216">16</text><text fill="#000000" font-family="sans-serif" font-size="13" lengthAdjust="spacing" textLength="90" x="371" y="571.6216">execute Move</text><polygon fill="#A80036" points="456,601.8203,466,605.8203,456,609.8203,460,605.8203" style="stroke:#A80036;stroke-width:1.0;"/><line style="stroke:#A80036;stroke-width:1.0;" x1="332" x2="462" y1="605.8203" y2="605.8203"/><text fill="#000000" font-family="sans-serif" font-size="13" font-weight="bold" lengthAdjust="spacing" textLength="18" x="339" y="600.7544">17</text><text fill="#000000" font-family="sans-serif" font-size="13" lengthAdjust="spacing" textLength="0" x="365" y="600.7544"/><polygon fill="#A80036" points="85,630.9531,75,634.9531,85,638.9531,81,634.9531" style="stroke:#A80036;stroke-width:1.0;"/><line style="stroke:#A80036;stroke-width:1.0;" x1="79" x2="467" y1="634.9531" y2="634.9531"/><text fill="#000000" font-family="sans-serif" font-size="13" font-weight="bold" lengthAdjust="spacing" textLength="18" x="91" y="629.8872">18</text><text fill="#000000" font-family="sans-serif" font-size="13" lengthAdjust="spacing" textLength="200" x="113" y="629.8872">return Move with gamble result</text><polygon fill="#A80036" points="1032,660.0859,1042,664.0859,1032,668.0859,1036,664.0859" style="stroke:#A80036;stroke-width:1.0;"/><line style="stroke:#A80036;stroke-width:1.0;" x1="74" x2="1038" y1="664.0859" y2="664.0859"/><text fill="#000000" font-family="sans-serif" font-size="13" font-weight="bold" lengthAdjust="spacing" textLength="18" x="81" y="659.02">19</text><text fill="#000000" font-family="sans-serif" font-size="13" lengthAdjust="spacing" textLength="181" x="103" y="659.02">Has the current player won?</text><polygon fill="#A80036" points="85,689.2188,75,693.2188,85,697.2188,81,693.2188" style="stroke:#A80036;stroke-width:1.0;"/><line style="stroke:#A80036;stroke-width:1.0;" x1="79" x2="1043" y1="693.2188" y2="693.2188"/><text fill="#000000" font-family="sans-serif" font-size="13" font-weight="bold" lengthAdjust="spacing" textLength="19" x="91" y="688.1528">20</text><text fill="#000000" font-family="sans-serif" font-size="13" lengthAdjust="spacing" textLength="162" x="114" y="688.1528">Player has won / not won</text><polygon fill="#A80036" points="310,718.3516,320,722.3516,310,726.3516,314,722.3516" style="stroke:#A80036;stroke-width:1.0;"/><line style="stroke:#A80036;stroke-width:1.0;" x1="74" x2="316" y1="722.3516" y2="722.3516"/><text fill="#000000" font-family="sans-serif" font-size="13" font-weight="bold" lengthAdjust="spacing" textLength="18" x="81" y="717.2856">21</text><text fill="#000000" font-family="sans-serif" font-size="13" lengthAdjust="spacing" textLength="185" x="103" y="717.2856">Get piece at end coordinates</text><polygon fill="#A80036" points="85,747.4844,75,751.4844,85,755.4844,81,751.4844" style="stroke:#A80036;stroke-width:1.0;"/><line style="stroke:#A80036;stroke-width:1.0;" x1="79" x2="321" y1="751.4844" y2="751.4844"/><text fill="#000000" font-family="sans-serif" font-size="13" font-weight="bold" lengthAdjust="spacing" textLength="18" x="91" y="746.4185">22</text><text fill="#000000" font-family="sans-serif" font-size="13" lengthAdjust="spacing" textLength="202" x="113" y="746.4185">Either is empty or returns piece</text><polygon fill="#A80036" points="904,776.6172,914,780.6172,904,784.6172,908,780.6172" style="stroke:#A80036;stroke-width:1.0;"/><line style="stroke:#A80036;stroke-width:1.0;" x1="74" x2="910" y1="780.6172" y2="780.6172"/><text fill="#000000" font-family="sans-serif" font-size="13" font-weight="bold" lengthAdjust="spacing" textLength="17" x="81" y="775.5513">23</text><text fill="#000000" font-family="sans-serif" font-size="13" lengthAdjust="spacing" textLength="256" x="102" y="775.5513">Check if no other jump move is possible</text><polygon fill="#A80036" points="85,805.75,75,809.75,85,813.75,81,809.75" style="stroke:#A80036;stroke-width:1.0;"/><line style="stroke:#A80036;stroke-width:1.0;" x1="79" x2="915" y1="809.75" y2="809.75"/><text fill="#000000" font-family="sans-serif" font-size="13" font-weight="bold" lengthAdjust="spacing" textLength="18" x="91" y="804.6841">24</text><text fill="#000000" font-family="sans-serif" font-size="13" lengthAdjust="spacing" textLength="287" x="113" y="804.6841">Another jump move is possible / not possible</text><!--MD5=[71a93e67bf4bec08a1f5c276b967885d]
@startuml
autonumber
activate GameLogic
activate BoardPrinter
activate Board
activate MoveExecutor
activate CoinTosser
activate MoveValidator
activate WinCondition
loop while there is no winner
    GameLogic -> BoardPrinter: Print Board
    BoardPrinter -> Board: GetPieceAt
    Board -> BoardPrinter: Return piece
    GameLogic -> Move: Parse Input
    activate Move
    GameLogic <- Move: Either valid move or exception
    GameLogic -> Board: Get piece at start coordinates
    Board -> GameLogic: Either is empty or returns piece
    GameLogic -> MoveValidator: Check if move is valid
    MoveValidator -> GameLogic: Move is valid / not valid
    GameLogic -> MoveExecutor: Execute move
    loop while the answer to gamble is invalid
        MoveExecutor -> MoveExecutor: If jump move, ask if player wants to gamble
    end
    MoveExecutor -> CoinTosser: If gamble, toss coin
    CoinTosser -> MoveExecutor: return coin result
    MoveExecutor -> Move: add gamble result
    Move -> MoveExecutor: return move with added gamble result
    MoveExecutor -> Board: execute Move
    Board -> MoveExecutor
    MoveExecutor -> GameLogic: return Move with gamble result
    GameLogic -> WinCondition: Has the current player won?
    WinCondition -> GameLogic: Player has won / not won
    GameLogic -> Board: Get piece at end coordinates
    Board -> GameLogic: Either is empty or returns piece
    GameLogic -> MoveValidator: Check if no other jump move is possible
    MoveValidator -> GameLogic: Another jump move is possible / not possible
    deactivate Move
end
@enduml

PlantUML version 1.2021.14beta2(Unknown compile time)
(GPL source distribution)
Java Runtime: Java(TM) SE Runtime Environment
JVM: Java HotSpot(TM) 64-Bit Server VM
Default Encoding: UTF-8
Language: en
Country: US
--></g></svg>