<?xml version="1.0" encoding="UTF-8" standalone="no"?><svg xmlns="http://www.w3.org/2000/svg" xmlns:xlink="http://www.w3.org/1999/xlink" contentScriptType="application/ecmascript" contentStyleType="text/css" height="361px" preserveAspectRatio="none" style="width:475px;height:361px;background:#FFFFFF;" version="1.1" viewBox="0 0 475 361" width="475px" zoomAndPan="magnify"><defs><filter height="300%" id="flxptaz6wx8ax" width="300%" x="-1" y="-1"><feGaussianBlur result="blurOut" stdDeviation="2.0"/><feColorMatrix in="blurOut" result="blurOut2" type="matrix" values="0 0 0 0 0 0 0 0 0 0 0 0 0 0 0 0 0 0 .4 0"/><feOffset dx="4.0" dy="4.0" in="blurOut2" result="blurOut3"/><feBlend in="SourceGraphic" in2="blurOut3" mode="normal"/></filter></defs><g><!--MD5=[6748c691658d1e0d32429d89432f1ad6]
class BoardObserver--><rect codeLine="3" fill="#FEFECE" filter="url(#flxptaz6wx8ax)" height="60.8047" id="BoardObserver" style="stroke:#A80036;stroke-width:1.5;" width="186" x="218.5" y="153"/><ellipse cx="262.75" cy="169" fill="#B4A7E5" rx="11" ry="11" style="stroke:#A80036;stroke-width:1.0;"/><path d="M263.7031,165.7813 L265.4219,165.7813 C265.8125,165.7813 266,165.75 266.125,165.6719 C266.3906,165.5156 266.5313,165.2344 266.5313,164.9375 C266.5313,164.6719 266.4219,164.4063 266.1875,164.2344 C266.0156,164.125 265.875,164.0938 265.4219,164.0938 L260.2813,164.0938 C259.8438,164.0938 259.7188,164.1094 259.5625,164.2031 C259.3125,164.3594 259.1563,164.6563 259.1563,164.9375 C259.1563,165.2188 259.2969,165.4688 259.5156,165.6406 C259.6719,165.75 259.8594,165.7813 260.2813,165.7813 L262,165.7813 L262,172.2969 L260.2813,172.2969 C259.8438,172.2969 259.7188,172.3125 259.5625,172.4219 C259.3125,172.5781 259.1563,172.8594 259.1563,173.1563 C259.1563,173.4063 259.2969,173.6719 259.5156,173.8281 C259.6719,173.9531 259.875,174 260.2813,174 L265.4219,174 C266.1719,174 266.5313,173.7188 266.5313,173.1563 C266.5313,172.875 266.4219,172.625 266.1875,172.4531 C266.0156,172.3281 265.875,172.2969 265.4219,172.2969 L263.7031,172.2969 L263.7031,165.7813 Z " fill="#000000"/><text fill="#000000" font-family="sans-serif" font-size="12" font-style="italic" lengthAdjust="spacing" textLength="89" x="283.25" y="173.1543">BoardObserver</text><line style="stroke:#A80036;stroke-width:1.5;" x1="219.5" x2="403.5" y1="185" y2="185"/><line style="stroke:#A80036;stroke-width:1.5;" x1="219.5" x2="403.5" y1="193" y2="193"/><ellipse cx="229.5" cy="204" fill="#84BE84" rx="3" ry="3" style="stroke:#038048;stroke-width:1.0;"/><text fill="#000000" font-family="sans-serif" font-size="11" lengthAdjust="spacing" textLength="160" x="238.5" y="207.2104">boardChanged(Board board)</text><!--MD5=[1d0df562199047efd40c25b2fc3f4426]
class PrintBoardObserver--><rect codeLine="7" fill="#FEFECE" filter="url(#flxptaz6wx8ax)" height="73.6094" id="PrintBoardObserver" style="stroke:#A80036;stroke-width:1.5;" width="186" x="218.5" y="274"/><ellipse cx="249.25" cy="290" fill="#ADD1B2" rx="11" ry="11" style="stroke:#A80036;stroke-width:1.0;"/><path d="M251.5938,285.6719 C250.6563,285.2344 250.0625,285.0938 249.1875,285.0938 C246.5625,285.0938 244.5625,287.1719 244.5625,289.8906 L244.5625,291.0156 C244.5625,293.5938 246.6719,295.4844 249.5625,295.4844 C250.7813,295.4844 251.9375,295.1875 252.6875,294.6406 C253.2656,294.2344 253.5938,293.7813 253.5938,293.3906 C253.5938,292.9375 253.2031,292.5469 252.7344,292.5469 C252.5156,292.5469 252.3125,292.625 252.125,292.8125 C251.6719,293.2969 251.6719,293.2969 251.4844,293.3906 C251.0625,293.6563 250.375,293.7813 249.6094,293.7813 C247.5625,293.7813 246.2656,292.6875 246.2656,290.9844 L246.2656,289.8906 C246.2656,288.1094 247.5156,286.7969 249.25,286.7969 C249.8281,286.7969 250.4375,286.9531 250.9063,287.2031 C251.3906,287.4844 251.5625,287.7031 251.6563,288.1094 C251.7188,288.5156 251.75,288.6406 251.8906,288.7656 C252.0313,288.9063 252.2656,289.0156 252.4844,289.0156 C252.75,289.0156 253.0156,288.875 253.1875,288.6563 C253.2969,288.5 253.3281,288.3125 253.3281,287.8906 L253.3281,286.4688 C253.3281,286.0313 253.3125,285.9063 253.2188,285.75 C253.0625,285.4844 252.7813,285.3438 252.4844,285.3438 C252.1875,285.3438 251.9844,285.4375 251.7656,285.75 L251.5938,285.6719 Z " fill="#000000"/><text fill="#000000" font-family="sans-serif" font-size="12" lengthAdjust="spacing" textLength="119" x="266.75" y="294.1543">PrintBoardObserver</text><line style="stroke:#A80036;stroke-width:1.5;" x1="219.5" x2="403.5" y1="306" y2="306"/><rect fill="none" height="6" style="stroke:#C82930;stroke-width:1.0;" width="6" x="226.5" y="314"/><text fill="#000000" font-family="sans-serif" font-size="11" lengthAdjust="spacing" textLength="141" x="238.5" y="320.2104">BoardPrinter boardPrinter</text><line style="stroke:#A80036;stroke-width:1.5;" x1="219.5" x2="403.5" y1="326.8047" y2="326.8047"/><ellipse cx="229.5" cy="337.8047" fill="#84BE84" rx="3" ry="3" style="stroke:#038048;stroke-width:1.0;"/><text fill="#000000" font-family="sans-serif" font-size="11" lengthAdjust="spacing" textLength="160" x="238.5" y="341.0151">boardChanged(Board board)</text><path d="M6,298.5 L6,323.6328 A0,0 0 0 0 6,323.6328 L183,323.6328 A0,0 0 0 0 183,323.6328 L183,316.5 L218.446,311 L183,308.5 L183,308.5 L173,298.5 L6,298.5 A0,0 0 0 0 6,298.5 " fill="#FBFB77" filter="url(#flxptaz6wx8ax)" style="stroke:#A80036;stroke-width:1.0;"/><path d="M173,298.5 L173,308.5 L183,308.5 L173,298.5 " fill="#FBFB77" style="stroke:#A80036;stroke-width:1.0;"/><text fill="#000000" font-family="sans-serif" font-size="13" lengthAdjust="spacing" textLength="156" x="12" y="315.5669">Implemented as lambda</text><!--MD5=[9563755d011c5cec7ec66dc53565a59e]
class Board--><rect codeLine="14" fill="#FEFECE" filter="url(#flxptaz6wx8ax)" height="86.4141" id="Board" style="stroke:#A80036;stroke-width:1.5;" width="300" x="161.5" y="7"/><ellipse cx="289.25" cy="23" fill="#ADD1B2" rx="11" ry="11" style="stroke:#A80036;stroke-width:1.0;"/><path d="M291.5938,18.6719 C290.6563,18.2344 290.0625,18.0938 289.1875,18.0938 C286.5625,18.0938 284.5625,20.1719 284.5625,22.8906 L284.5625,24.0156 C284.5625,26.5938 286.6719,28.4844 289.5625,28.4844 C290.7813,28.4844 291.9375,28.1875 292.6875,27.6406 C293.2656,27.2344 293.5938,26.7813 293.5938,26.3906 C293.5938,25.9375 293.2031,25.5469 292.7344,25.5469 C292.5156,25.5469 292.3125,25.625 292.125,25.8125 C291.6719,26.2969 291.6719,26.2969 291.4844,26.3906 C291.0625,26.6563 290.375,26.7813 289.6094,26.7813 C287.5625,26.7813 286.2656,25.6875 286.2656,23.9844 L286.2656,22.8906 C286.2656,21.1094 287.5156,19.7969 289.25,19.7969 C289.8281,19.7969 290.4375,19.9531 290.9063,20.2031 C291.3906,20.4844 291.5625,20.7031 291.6563,21.1094 C291.7188,21.5156 291.75,21.6406 291.8906,21.7656 C292.0313,21.9063 292.2656,22.0156 292.4844,22.0156 C292.75,22.0156 293.0156,21.875 293.1875,21.6563 C293.2969,21.5 293.3281,21.3125 293.3281,20.8906 L293.3281,19.4688 C293.3281,19.0313 293.3125,18.9063 293.2188,18.75 C293.0625,18.4844 292.7813,18.3438 292.4844,18.3438 C292.1875,18.3438 291.9844,18.4375 291.7656,18.75 L291.5938,18.6719 Z " fill="#000000"/><text fill="#000000" font-family="sans-serif" font-size="12" lengthAdjust="spacing" textLength="36" x="309.75" y="27.1543">Board</text><line style="stroke:#A80036;stroke-width:1.5;" x1="162.5" x2="460.5" y1="39" y2="39"/><ellipse cx="172.5" cy="50" rx="3" ry="3" style="stroke:#038048;stroke-width:1.0;fill:none;"/><text fill="#000000" font-family="sans-serif" font-size="11" lengthAdjust="spacing" textLength="184" x="181.5" y="53.2104">List&lt;BoardObserver&gt; observers</text><line style="stroke:#A80036;stroke-width:1.5;" x1="162.5" x2="460.5" y1="59.8047" y2="59.8047"/><ellipse cx="172.5" cy="70.8047" fill="#84BE84" rx="3" ry="3" style="stroke:#038048;stroke-width:1.0;"/><text fill="#000000" font-family="sans-serif" font-size="11" lengthAdjust="spacing" textLength="183" x="181.5" y="74.0151">void executeMove(Move move)</text><ellipse cx="172.5" cy="83.6094" fill="#84BE84" rx="3" ry="3" style="stroke:#038048;stroke-width:1.0;"/><text fill="#000000" font-family="sans-serif" font-size="11" lengthAdjust="spacing" textLength="274" x="181.5" y="86.8198">void registerObserver(BoardObserver observer)</text><!--MD5=[2b4fd3bb95f07972fd6d997be7f07a6c]
link Board to BoardObserver--><path codeLine="20" d="M311.5,105.331 C311.5,105.331 311.5,128.916 311.5,139.478 " fill="none" id="Board-BoardObserver" style="stroke:#A80036;stroke-width:1.0;stroke-dasharray:7.0,7.0;"/><polygon fill="#A80036" points="311.5,152.74,315.5,143.74,311.5,147.74,307.5,143.74,311.5,152.74" style="stroke:#A80036;stroke-width:1.0;"/><line style="stroke:#A80036;stroke-width:1.0;" x1="311.5" x2="311.5" y1="147.74" y2="139.74"/><polygon fill="#A80036" points="311.5,93.331,307.5,99.331,311.5,105.331,315.5,99.331,311.5,93.331" style="stroke:#A80036;stroke-width:1.0;"/><text fill="#000000" font-family="sans-serif" font-size="13" lengthAdjust="spacing" textLength="7" x="303.7781" y="141.9496">*</text><!--MD5=[5358a4cfc223ede8179730471d52b8e8]
reverse link BoardObserver to PrintBoardObserver--><path codeLine="21" d="M311.5,234.505 C311.5,247.621 311.5,261.5128 311.5,273.7555 " fill="none" id="BoardObserver-backto-PrintBoardObserver" style="stroke:#A80036;stroke-width:1.0;stroke-dasharray:7.0,7.0;"/><polygon fill="none" points="304.5,234.242,311.5,214.242,318.5,234.242,304.5,234.242" style="stroke:#A80036;stroke-width:1.0;"/><!--MD5=[36db81f7f3361a01866fda4ed8b23d93]
@startuml
'https://plantuml.com/class-diagram

interface BoardObserver {
    + boardChanged(Board board)
}

class PrintBoardObserver {
    - BoardPrinter boardPrinter
    + boardChanged(Board board)
}

note left: Implemented as lambda

class Board {
    + List<BoardObserver> observers
    + void executeMove(Move move)
    + void registerObserver(BoardObserver observer)
}

Board *..> "*" BoardObserver
BoardObserver <|.. PrintBoardObserver
@enduml

@startuml

interface BoardObserver {
    + boardChanged(Board board)
}

class PrintBoardObserver {
    - BoardPrinter boardPrinter
    + boardChanged(Board board)
}

note left: Implemented as lambda

class Board {
    + List<BoardObserver> observers
    + void executeMove(Move move)
    + void registerObserver(BoardObserver observer)
}

Board *..> "*" BoardObserver
BoardObserver <|.. PrintBoardObserver
@enduml

PlantUML version 1.2021.13beta8(Unknown compile time)
(GPL source distribution)
Java Runtime: Java(TM) SE Runtime Environment
JVM: Java HotSpot(TM) 64-Bit Server VM
Default Encoding: UTF-8
Language: en
Country: US
--></g></svg>