<?xml version="1.0" encoding="UTF-8" standalone="no"?><svg xmlns="http://www.w3.org/2000/svg" xmlns:xlink="http://www.w3.org/1999/xlink" contentScriptType="application/ecmascript" contentStyleType="text/css" height="1793px" preserveAspectRatio="none" style="width:676px;height:1793px;background:#FFFFFF;" version="1.1" viewBox="0 0 676 1793" width="676px" zoomAndPan="magnify"><defs><filter height="300%" id="f1hbm7eqg6a4bh" width="300%" x="-1" y="-1"><feGaussianBlur result="blurOut" stdDeviation="2.0"/><feColorMatrix in="blurOut" result="blurOut2" type="matrix" values="0 0 0 0 0 0 0 0 0 0 0 0 0 0 0 0 0 0 .4 0"/><feOffset dx="4.0" dy="4.0" in="blurOut2" result="blurOut3"/><feBlend in="SourceGraphic" in2="blurOut3" mode="normal"/></filter></defs><g><ellipse cx="252.5" cy="20" fill="#000000" filter="url(#f1hbm7eqg6a4bh)" rx="10" ry="10" style="stroke:none;stroke-width:1.0;"/><rect fill="#FEFECE" filter="url(#f1hbm7eqg6a4bh)" height="33.9688" rx="12.5" ry="12.5" style="stroke:#A80036;stroke-width:1.5;" width="119" x="193" y="50"/><text fill="#000000" font-family="sans-serif" font-size="12" lengthAdjust="spacing" textLength="99" x="203" y="71.1387">set saldo to 100</text><rect fill="#FEFECE" filter="url(#f1hbm7eqg6a4bh)" height="33.9688" rx="12.5" ry="12.5" style="stroke:#A80036;stroke-width:1.5;" width="261" x="122" y="103.9688"/><text fill="#000000" font-family="sans-serif" font-size="12" lengthAdjust="spacing" textLength="241" x="132" y="125.1074">initialize pack with 6 decks (a 52 cards)</text><rect fill="#FEFECE" filter="url(#f1hbm7eqg6a4bh)" height="33.9688" rx="12.5" ry="12.5" style="stroke:#A80036;stroke-width:1.5;" width="126" x="189.5" y="201.9375"/><text fill="#000000" font-family="sans-serif" font-size="12" lengthAdjust="spacing" textLength="106" x="199.5" y="223.0762">print player saldo</text><rect fill="#FEFECE" filter="url(#f1hbm7eqg6a4bh)" height="33.9688" rx="12.5" ry="12.5" style="stroke:#A80036;stroke-width:1.5;" width="112" x="196.5" y="304.3086"/><text fill="#000000" font-family="sans-serif" font-size="12" lengthAdjust="spacing" textLength="92" x="206.5" y="325.4473">print final saldo</text><ellipse cx="252.5" cy="377.793" fill="#FFFFFF" filter="url(#f1hbm7eqg6a4bh)" rx="11" ry="11" style="stroke:#000000;stroke-width:1.0;"/><ellipse cx="252.5" cy="377.793" fill="#000000" rx="6" ry="6" style="stroke:#7F7F7F;stroke-width:1.0;"/><polygon fill="#FEFECE" filter="url(#f1hbm7eqg6a4bh)" points="194.5,255.9063,310.5,255.9063,322.5,267.9063,310.5,279.9063,194.5,279.9063,182.5,267.9063,194.5,255.9063" style="stroke:#A80036;stroke-width:1.5;"/><text fill="#000000" font-family="sans-serif" font-size="11" lengthAdjust="spacing" textLength="14" x="256.5" y="290.1167">no</text><text fill="#000000" font-family="sans-serif" font-size="11" lengthAdjust="spacing" textLength="116" x="194.5" y="271.7144">player wants to stay</text><text fill="#000000" font-family="sans-serif" font-size="11" lengthAdjust="spacing" textLength="21" x="322.5" y="265.312">yes</text><rect fill="#FEFECE" filter="url(#f1hbm7eqg6a4bh)" height="33.9688" rx="12.5" ry="12.5" style="stroke:#A80036;stroke-width:1.5;" width="128" x="188.5" y="474.793"/><text fill="#000000" font-family="sans-serif" font-size="12" lengthAdjust="spacing" textLength="108" x="198.5" y="495.9316">ask player for bet</text><polygon fill="#FEFECE" filter="url(#f1hbm7eqg6a4bh)" points="160.5,430.793,344.5,430.793,356.5,442.793,344.5,454.793,160.5,454.793,148.5,442.793,160.5,430.793" style="stroke:#A80036;stroke-width:1.5;"/><text fill="#000000" font-family="sans-serif" font-size="11" lengthAdjust="spacing" textLength="184" x="160.5" y="446.6011">0 &lt; currentBetAmount &lt;= saldo</text><rect fill="#FEFECE" filter="url(#f1hbm7eqg6a4bh)" height="33.9688" rx="12.5" ry="12.5" style="stroke:#A80036;stroke-width:1.5;" width="274" x="115.5" y="599.1641"/><text fill="#000000" font-family="sans-serif" font-size="12" lengthAdjust="spacing" textLength="254" x="125.5" y="620.3027">reinitialize pack with 6 decks (a 52 cards)</text><polygon fill="#FEFECE" filter="url(#f1hbm7eqg6a4bh)" points="188,550.7617,317,550.7617,329,562.7617,317,574.7617,188,574.7617,176,562.7617,188,550.7617" style="stroke:#A80036;stroke-width:1.5;"/><text fill="#000000" font-family="sans-serif" font-size="11" lengthAdjust="spacing" textLength="21" x="256.5" y="584.9722">yes</text><text fill="#000000" font-family="sans-serif" font-size="11" lengthAdjust="spacing" textLength="129" x="188" y="566.5698">remaining cards &lt; 100</text><polygon fill="#FEFECE" filter="url(#f1hbm7eqg6a4bh)" points="252.5,653.1328,264.5,665.1328,252.5,677.1328,240.5,665.1328,252.5,653.1328" style="stroke:#A80036;stroke-width:1.5;"/><rect fill="#FEFECE" filter="url(#f1hbm7eqg6a4bh)" height="33.9688" rx="12.5" ry="12.5" style="stroke:#A80036;stroke-width:1.5;" width="223" x="141" y="697.1328"/><text fill="#000000" font-family="sans-serif" font-size="12" lengthAdjust="spacing" textLength="203" x="151" y="718.2715">deal 2 cards to player and dealer</text><path d="M317.5,755.5195 L317.5,764.0859 L297.5,768.0859 L317.5,772.0859 L317.5,780.6523 A0,0 0 0 0 317.5,780.6523 L638.5,780.6523 A0,0 0 0 0 638.5,780.6523 L638.5,765.5195 L628.5,755.5195 L317.5,755.5195 A0,0 0 0 0 317.5,755.5195 " fill="#FBFB77" filter="url(#f1hbm7eqg6a4bh)" style="stroke:#A80036;stroke-width:1.0;"/><path d="M628.5,755.5195 L628.5,765.5195 L638.5,765.5195 L628.5,755.5195 " fill="#FBFB77" style="stroke:#A80036;stroke-width:1.0;"/><text fill="#000000" font-family="sans-serif" font-size="13" lengthAdjust="spacing" textLength="300" x="323.5" y="772.5864">show both cards of player and 1 card of dealer</text><rect fill="#FEFECE" filter="url(#f1hbm7eqg6a4bh)" height="33.9688" rx="12.5" ry="12.5" style="stroke:#A80036;stroke-width:1.5;" width="90" x="207.5" y="751.1016"/><text fill="#000000" font-family="sans-serif" font-size="12" lengthAdjust="spacing" textLength="70" x="217.5" y="772.2402">show cards</text><rect fill="#FEFECE" filter="url(#f1hbm7eqg6a4bh)" height="33.9688" rx="12.5" ry="12.5" style="stroke:#A80036;stroke-width:1.5;" width="135" x="185" y="860.7808"/><text fill="#000000" font-family="sans-serif" font-size="12" lengthAdjust="spacing" textLength="115" x="195" y="881.9194">deal card to player</text><polygon fill="#FEFECE" filter="url(#f1hbm7eqg6a4bh)" points="203.5,922.2339,301.5,922.2339,313.5,934.2339,301.5,946.2339,203.5,946.2339,191.5,934.2339,203.5,922.2339" style="stroke:#A80036;stroke-width:1.5;"/><text fill="#000000" font-family="sans-serif" font-size="11" lengthAdjust="spacing" textLength="21" x="256.5" y="956.4443">yes</text><text fill="#000000" font-family="sans-serif" font-size="11" lengthAdjust="spacing" textLength="98" x="203.5" y="938.042">player is busted?</text><text fill="#000000" font-family="sans-serif" font-size="11" lengthAdjust="spacing" textLength="14" x="313.5" y="931.6396">no</text><polygon fill="#FEFECE" filter="url(#f1hbm7eqg6a4bh)" points="182.5,805.0703,322.5,805.0703,334.5,817.0703,322.5,829.0703,182.5,829.0703,170.5,817.0703,182.5,805.0703" style="stroke:#A80036;stroke-width:1.5;"/><text fill="#000000" font-family="sans-serif" font-size="11" lengthAdjust="spacing" textLength="21" x="256.5" y="839.2808">yes</text><text fill="#000000" font-family="sans-serif" font-size="11" lengthAdjust="spacing" textLength="140" x="182.5" y="820.8784">while player wants to hit</text><text fill="#000000" font-family="sans-serif" font-size="11" lengthAdjust="spacing" textLength="14" x="156.5" y="814.4761">no</text><rect fill="#FEFECE" filter="url(#f1hbm7eqg6a4bh)" height="33.9688" rx="12.5" ry="12.5" style="stroke:#A80036;stroke-width:1.5;" width="172" x="166.5" y="1089.0386"/><text fill="#000000" font-family="sans-serif" font-size="12" lengthAdjust="spacing" textLength="152" x="176.5" y="1110.1772">turn second card of bank</text><rect fill="#FEFECE" filter="url(#f1hbm7eqg6a4bh)" height="33.9688" rx="12.5" ry="12.5" style="stroke:#A80036;stroke-width:1.5;" width="136" x="184.5" y="1198.7178"/><text fill="#000000" font-family="sans-serif" font-size="12" lengthAdjust="spacing" textLength="116" x="194.5" y="1219.8564">deal card to dealer</text><polygon fill="#FEFECE" filter="url(#f1hbm7eqg6a4bh)" points="206,1260.1709,299,1260.1709,311,1272.1709,299,1284.1709,206,1284.1709,194,1272.1709,206,1260.1709" style="stroke:#A80036;stroke-width:1.5;"/><text fill="#000000" font-family="sans-serif" font-size="11" lengthAdjust="spacing" textLength="21" x="256.5" y="1294.3813">yes</text><text fill="#000000" font-family="sans-serif" font-size="11" lengthAdjust="spacing" textLength="93" x="206" y="1275.979">dealer is busted</text><text fill="#000000" font-family="sans-serif" font-size="11" lengthAdjust="spacing" textLength="14" x="311" y="1269.5767">no</text><polygon fill="#FEFECE" filter="url(#f1hbm7eqg6a4bh)" points="202,1143.0073,303,1143.0073,315,1155.0073,303,1167.0073,202,1167.0073,190,1155.0073,202,1143.0073" style="stroke:#A80036;stroke-width:1.5;"/><text fill="#000000" font-family="sans-serif" font-size="11" lengthAdjust="spacing" textLength="21" x="256.5" y="1177.2178">yes</text><text fill="#000000" font-family="sans-serif" font-size="11" lengthAdjust="spacing" textLength="101" x="202" y="1158.8154">dealerScore &lt; 17</text><text fill="#000000" font-family="sans-serif" font-size="11" lengthAdjust="spacing" textLength="14" x="176" y="1152.4131">no</text><polygon fill="#FEFECE" filter="url(#f1hbm7eqg6a4bh)" points="203.5,1040.6362,301.5,1040.6362,313.5,1052.6362,301.5,1064.6362,203.5,1064.6362,191.5,1052.6362,203.5,1040.6362" style="stroke:#A80036;stroke-width:1.5;"/><text fill="#000000" font-family="sans-serif" font-size="11" lengthAdjust="spacing" textLength="14" x="256.5" y="1074.8467">no</text><text fill="#000000" font-family="sans-serif" font-size="11" lengthAdjust="spacing" textLength="98" x="203.5" y="1056.4443">player is busted?</text><text fill="#000000" font-family="sans-serif" font-size="11" lengthAdjust="spacing" textLength="21" x="313.5" y="1050.042">yes</text><polygon fill="#FEFECE" filter="url(#f1hbm7eqg6a4bh)" points="252.5,1376.5732,264.5,1388.5732,252.5,1400.5732,240.5,1388.5732,252.5,1376.5732" style="stroke:#A80036;stroke-width:1.5;"/><polygon fill="#FEFECE" filter="url(#f1hbm7eqg6a4bh)" points="233.5,1420.5732,271.5,1420.5732,283.5,1432.5732,271.5,1444.5732,233.5,1444.5732,221.5,1432.5732,233.5,1420.5732" style="stroke:#A80036;stroke-width:1.5;"/><text fill="#000000" font-family="sans-serif" font-size="11" lengthAdjust="spacing" textLength="38" x="233.5" y="1436.3813">result?</text><rect fill="#FEFECE" filter="url(#f1hbm7eqg6a4bh)" height="33.9688" rx="12.5" ry="12.5" style="stroke:#A80036;stroke-width:1.5;" width="152" x="11" y="1480.1826"/><text fill="#000000" font-family="sans-serif" font-size="12" lengthAdjust="spacing" textLength="132" x="21" y="1501.3213">increase saldo by bet</text><rect fill="#FEFECE" filter="url(#f1hbm7eqg6a4bh)" height="33.9688" rx="12.5" ry="12.5" style="stroke:#A80036;stroke-width:1.5;" width="158" x="183" y="1480.1826"/><text fill="#000000" font-family="sans-serif" font-size="12" lengthAdjust="spacing" textLength="138" x="193" y="1501.3213">decrease saldo by bet</text><rect fill="#FEFECE" filter="url(#f1hbm7eqg6a4bh)" height="33.9688" rx="12.5" ry="12.5" style="stroke:#A80036;stroke-width:1.5;" width="133" x="361" y="1480.1826"/><text fill="#000000" font-family="sans-serif" font-size="12" lengthAdjust="spacing" textLength="113" x="371" y="1501.3213">leave saldo as it is</text><polygon fill="#FEFECE" filter="url(#f1hbm7eqg6a4bh)" points="252.5,1534.1514,252.5,1534.1514,264.5,1546.1514,252.5,1558.1514,252.5,1558.1514,240.5,1546.1514,252.5,1534.1514" style="stroke:#A80036;stroke-width:1.5;"/><rect fill="#FEFECE" filter="url(#f1hbm7eqg6a4bh)" height="33.9688" rx="12.5" ry="12.5" style="stroke:#A80036;stroke-width:1.5;" width="192" x="156.5" y="1626.5537"/><text fill="#000000" font-family="sans-serif" font-size="12" lengthAdjust="spacing" textLength="172" x="166.5" y="1647.6924">print you lost all your money</text><ellipse cx="252.5" cy="1700.0381" fill="#FFFFFF" filter="url(#f1hbm7eqg6a4bh)" rx="11" ry="11" style="stroke:#000000;stroke-width:1.0;"/><ellipse cx="252.5" cy="1700.0381" fill="#000000" rx="6" ry="6" style="stroke:#7F7F7F;stroke-width:1.0;"/><polygon fill="#FEFECE" filter="url(#f1hbm7eqg6a4bh)" points="202,1578.1514,303,1578.1514,315,1590.1514,303,1602.1514,202,1602.1514,190,1590.1514,202,1578.1514" style="stroke:#A80036;stroke-width:1.5;"/><text fill="#000000" font-family="sans-serif" font-size="11" lengthAdjust="spacing" textLength="21" x="256.5" y="1612.3618">yes</text><text fill="#000000" font-family="sans-serif" font-size="11" lengthAdjust="spacing" textLength="101" x="202" y="1593.9595">playerSaldo == 0</text><polygon fill="#FEFECE" filter="url(#f1hbm7eqg6a4bh)" points="252.5,157.9375,264.5,169.9375,252.5,181.9375,240.5,169.9375,252.5,157.9375" style="stroke:#A80036;stroke-width:1.5;"/><line style="stroke:#A80036;stroke-width:1.5;" x1="252.5" x2="252.5" y1="30" y2="50"/><polygon fill="#A80036" points="248.5,40,252.5,50,256.5,40,252.5,44" style="stroke:#A80036;stroke-width:1.0;"/><line style="stroke:#A80036;stroke-width:1.5;" x1="252.5" x2="252.5" y1="83.9688" y2="103.9688"/><polygon fill="#A80036" points="248.5,93.9688,252.5,103.9688,256.5,93.9688,252.5,97.9688" style="stroke:#A80036;stroke-width:1.0;"/><line style="stroke:#A80036;stroke-width:1.5;" x1="252.5" x2="252.5" y1="338.2773" y2="366.793"/><polygon fill="#A80036" points="248.5,356.793,252.5,366.793,256.5,356.793,252.5,360.793" style="stroke:#A80036;stroke-width:1.0;"/><line style="stroke:#A80036;stroke-width:1.5;" x1="252.5" x2="252.5" y1="279.9063" y2="304.3086"/><polygon fill="#A80036" points="248.5,294.3086,252.5,304.3086,256.5,294.3086,252.5,298.3086" style="stroke:#A80036;stroke-width:1.0;"/><line style="stroke:#A80036;stroke-width:1.5;" x1="322.5" x2="334.5" y1="267.9063" y2="267.9063"/><polygon fill="#A80036" points="330.5,336.793,334.5,346.793,338.5,336.793,334.5,340.793" style="stroke:#A80036;stroke-width:1.5;"/><line style="stroke:#A80036;stroke-width:1.5;" x1="334.5" x2="334.5" y1="267.9063" y2="410.793"/><line style="stroke:#A80036;stroke-width:1.5;" x1="334.5" x2="252.5" y1="410.793" y2="410.793"/><line style="stroke:#A80036;stroke-width:1.5;" x1="252.5" x2="252.5" y1="410.793" y2="430.793"/><polygon fill="#A80036" points="248.5,420.793,252.5,430.793,256.5,420.793,252.5,424.793" style="stroke:#A80036;stroke-width:1.0;"/><line style="stroke:#A80036;stroke-width:1.5;" x1="252.5" x2="252.5" y1="235.9063" y2="255.9063"/><polygon fill="#A80036" points="248.5,245.9063,252.5,255.9063,256.5,245.9063,252.5,249.9063" style="stroke:#A80036;stroke-width:1.0;"/><line style="stroke:#A80036;stroke-width:1.5;" x1="252.5" x2="252.5" y1="454.793" y2="474.793"/><polygon fill="#A80036" points="248.5,464.793,252.5,474.793,256.5,464.793,252.5,468.793" style="stroke:#A80036;stroke-width:1.0;"/><line style="stroke:#A80036;stroke-width:1.5;" x1="252.5" x2="252.5" y1="508.7617" y2="518.7617"/><line style="stroke:#A80036;stroke-width:1.5;" x1="252.5" x2="368.5" y1="518.7617" y2="518.7617"/><polygon fill="#A80036" points="364.5,489.7773,368.5,479.7773,372.5,489.7773,368.5,485.7773" style="stroke:#A80036;stroke-width:1.5;"/><line style="stroke:#A80036;stroke-width:1.5;" x1="368.5" x2="368.5" y1="442.793" y2="518.7617"/><line style="stroke:#A80036;stroke-width:1.5;" x1="368.5" x2="356.5" y1="442.793" y2="442.793"/><polygon fill="#A80036" points="366.5,438.793,356.5,442.793,366.5,446.793,362.5,442.793" style="stroke:#A80036;stroke-width:1.0;"/><line style="stroke:#A80036;stroke-width:1.5;" x1="148.5" x2="136.5" y1="442.793" y2="442.793"/><polygon fill="#A80036" points="132.5,475.7773,136.5,485.7773,140.5,475.7773,136.5,479.7773" style="stroke:#A80036;stroke-width:1.5;"/><line style="stroke:#A80036;stroke-width:1.5;" x1="136.5" x2="136.5" y1="442.793" y2="530.7617"/><line style="stroke:#A80036;stroke-width:1.5;" x1="136.5" x2="252.5" y1="530.7617" y2="530.7617"/><line style="stroke:#A80036;stroke-width:1.5;" x1="252.5" x2="252.5" y1="530.7617" y2="550.7617"/><polygon fill="#A80036" points="248.5,540.7617,252.5,550.7617,256.5,540.7617,252.5,544.7617" style="stroke:#A80036;stroke-width:1.0;"/><line style="stroke:#A80036;stroke-width:1.5;" x1="252.5" x2="252.5" y1="574.7617" y2="599.1641"/><polygon fill="#A80036" points="248.5,589.1641,252.5,599.1641,256.5,589.1641,252.5,593.1641" style="stroke:#A80036;stroke-width:1.0;"/><line style="stroke:#A80036;stroke-width:1.5;" x1="329" x2="399.5" y1="562.7617" y2="562.7617"/><polygon fill="#A80036" points="395.5,606.1484,399.5,616.1484,403.5,606.1484,399.5,610.1484" style="stroke:#A80036;stroke-width:1.5;"/><line style="stroke:#A80036;stroke-width:1.5;" x1="399.5" x2="399.5" y1="562.7617" y2="665.1328"/><line style="stroke:#A80036;stroke-width:1.5;" x1="399.5" x2="264.5" y1="665.1328" y2="665.1328"/><polygon fill="#A80036" points="274.5,661.1328,264.5,665.1328,274.5,669.1328,270.5,665.1328" style="stroke:#A80036;stroke-width:1.0;"/><line style="stroke:#A80036;stroke-width:1.5;" x1="252.5" x2="252.5" y1="633.1328" y2="653.1328"/><polygon fill="#A80036" points="248.5,643.1328,252.5,653.1328,256.5,643.1328,252.5,647.1328" style="stroke:#A80036;stroke-width:1.0;"/><line style="stroke:#A80036;stroke-width:1.5;" x1="252.5" x2="252.5" y1="677.1328" y2="697.1328"/><polygon fill="#A80036" points="248.5,687.1328,252.5,697.1328,256.5,687.1328,252.5,691.1328" style="stroke:#A80036;stroke-width:1.0;"/><line style="stroke:#A80036;stroke-width:1.5;" x1="252.5" x2="252.5" y1="731.1016" y2="751.1016"/><polygon fill="#A80036" points="248.5,741.1016,252.5,751.1016,256.5,741.1016,252.5,745.1016" style="stroke:#A80036;stroke-width:1.0;"/><line style="stroke:#A80036;stroke-width:1.5;" x1="252.5" x2="252.5" y1="946.2339" y2="970.6362"/><line style="stroke:#A80036;stroke-width:1.5;" x1="252.5" x2="158.5" y1="970.6362" y2="970.6362"/><polygon fill="#A80036" points="168.5,966.6362,158.5,970.6362,168.5,974.6362,164.5,970.6362" style="stroke:#A80036;stroke-width:1.0;"/><line style="stroke:#A80036;stroke-width:1.5;" x1="313.5" x2="346.5" y1="934.2339" y2="934.2339"/><line style="stroke:#A80036;stroke-width:1.5;" x1="346.5" x2="346.5" y1="817.0703" y2="934.2339"/><line style="stroke:#A80036;stroke-width:1.5;" x1="346.5" x2="334.5" y1="817.0703" y2="817.0703"/><polygon fill="#A80036" points="344.5,813.0703,334.5,817.0703,344.5,821.0703,340.5,817.0703" style="stroke:#A80036;stroke-width:1.0;"/><line style="stroke:#A80036;stroke-width:1.5;" x1="252.5" x2="252.5" y1="894.7495" y2="922.2339"/><polygon fill="#A80036" points="248.5,912.2339,252.5,922.2339,256.5,912.2339,252.5,916.2339" style="stroke:#A80036;stroke-width:1.0;"/><line style="stroke:#A80036;stroke-width:1.5;" x1="252.5" x2="252.5" y1="829.0703" y2="860.7808"/><polygon fill="#A80036" points="248.5,850.7808,252.5,860.7808,256.5,850.7808,252.5,854.7808" style="stroke:#A80036;stroke-width:1.0;"/><line style="stroke:#A80036;stroke-width:1.5;" x1="170.5" x2="158.5" y1="817.0703" y2="817.0703"/><polygon fill="#A80036" points="154.5,904.7495,158.5,914.7495,162.5,904.7495,158.5,908.7495" style="stroke:#A80036;stroke-width:1.5;"/><line style="stroke:#A80036;stroke-width:1.5;" x1="158.5" x2="158.5" y1="817.0703" y2="1020.6362"/><line style="stroke:#A80036;stroke-width:1.5;" x1="158.5" x2="252.5" y1="1020.6362" y2="1020.6362"/><line style="stroke:#A80036;stroke-width:1.5;" x1="252.5" x2="252.5" y1="1020.6362" y2="1040.6362"/><polygon fill="#A80036" points="248.5,1030.6362,252.5,1040.6362,256.5,1030.6362,252.5,1034.6362" style="stroke:#A80036;stroke-width:1.0;"/><line style="stroke:#A80036;stroke-width:1.5;" x1="252.5" x2="252.5" y1="785.0703" y2="805.0703"/><polygon fill="#A80036" points="248.5,795.0703,252.5,805.0703,256.5,795.0703,252.5,799.0703" style="stroke:#A80036;stroke-width:1.0;"/><line style="stroke:#A80036;stroke-width:1.5;" x1="252.5" x2="252.5" y1="1284.1709" y2="1308.5732"/><line style="stroke:#A80036;stroke-width:1.5;" x1="252.5" x2="172.5" y1="1308.5732" y2="1308.5732"/><polygon fill="#A80036" points="182.5,1304.5732,172.5,1308.5732,182.5,1312.5732,178.5,1308.5732" style="stroke:#A80036;stroke-width:1.0;"/><line style="stroke:#A80036;stroke-width:1.5;" x1="311" x2="335" y1="1272.1709" y2="1272.1709"/><line style="stroke:#A80036;stroke-width:1.5;" x1="335" x2="335" y1="1155.0073" y2="1272.1709"/><line style="stroke:#A80036;stroke-width:1.5;" x1="335" x2="315" y1="1155.0073" y2="1155.0073"/><polygon fill="#A80036" points="325,1151.0073,315,1155.0073,325,1159.0073,321,1155.0073" style="stroke:#A80036;stroke-width:1.0;"/><line style="stroke:#A80036;stroke-width:1.5;" x1="252.5" x2="252.5" y1="1232.6865" y2="1260.1709"/><polygon fill="#A80036" points="248.5,1250.1709,252.5,1260.1709,256.5,1250.1709,252.5,1254.1709" style="stroke:#A80036;stroke-width:1.0;"/><line style="stroke:#A80036;stroke-width:1.5;" x1="252.5" x2="252.5" y1="1167.0073" y2="1198.7178"/><polygon fill="#A80036" points="248.5,1188.7178,252.5,1198.7178,256.5,1188.7178,252.5,1192.7178" style="stroke:#A80036;stroke-width:1.0;"/><line style="stroke:#A80036;stroke-width:1.5;" x1="190" x2="172.5" y1="1155.0073" y2="1155.0073"/><polygon fill="#A80036" points="168.5,1242.6865,172.5,1252.6865,176.5,1242.6865,172.5,1246.6865" style="stroke:#A80036;stroke-width:1.5;"/><line style="stroke:#A80036;stroke-width:1.5;" x1="172.5" x2="172.5" y1="1155.0073" y2="1356.5732"/><line style="stroke:#A80036;stroke-width:1.5;" x1="172.5" x2="252.5" y1="1356.5732" y2="1356.5732"/><line style="stroke:#A80036;stroke-width:1.5;" x1="252.5" x2="252.5" y1="1356.5732" y2="1376.5732"/><polygon fill="#A80036" points="248.5,1366.5732,252.5,1376.5732,256.5,1366.5732,252.5,1370.5732" style="stroke:#A80036;stroke-width:1.0;"/><line style="stroke:#A80036;stroke-width:1.5;" x1="252.5" x2="252.5" y1="1123.0073" y2="1143.0073"/><polygon fill="#A80036" points="248.5,1133.0073,252.5,1143.0073,256.5,1133.0073,252.5,1137.0073" style="stroke:#A80036;stroke-width:1.0;"/><line style="stroke:#A80036;stroke-width:1.5;" x1="252.5" x2="252.5" y1="1064.6362" y2="1089.0386"/><polygon fill="#A80036" points="248.5,1079.0386,252.5,1089.0386,256.5,1079.0386,252.5,1083.0386" style="stroke:#A80036;stroke-width:1.0;"/><line style="stroke:#A80036;stroke-width:1.5;" x1="313.5" x2="348.5" y1="1052.6362" y2="1052.6362"/><polygon fill="#A80036" points="344.5,1209.7178,348.5,1219.7178,352.5,1209.7178,348.5,1213.7178" style="stroke:#A80036;stroke-width:1.5;"/><line style="stroke:#A80036;stroke-width:1.5;" x1="348.5" x2="348.5" y1="1052.6362" y2="1388.5732"/><line style="stroke:#A80036;stroke-width:1.5;" x1="348.5" x2="264.5" y1="1388.5732" y2="1388.5732"/><polygon fill="#A80036" points="274.5,1384.5732,264.5,1388.5732,274.5,1392.5732,270.5,1388.5732" style="stroke:#A80036;stroke-width:1.0;"/><line style="stroke:#A80036;stroke-width:1.5;" x1="221.5" x2="87" y1="1432.5732" y2="1432.5732"/><line style="stroke:#A80036;stroke-width:1.5;" x1="87" x2="87" y1="1432.5732" y2="1480.1826"/><polygon fill="#A80036" points="83,1470.1826,87,1480.1826,91,1470.1826,87,1474.1826" style="stroke:#A80036;stroke-width:1.0;"/><text fill="#000000" font-family="sans-serif" font-size="11" lengthAdjust="spacing" textLength="61" x="87" y="1460.186">playerWon</text><line style="stroke:#A80036;stroke-width:1.5;" x1="283.5" x2="427.5" y1="1432.5732" y2="1432.5732"/><line style="stroke:#A80036;stroke-width:1.5;" x1="427.5" x2="427.5" y1="1432.5732" y2="1480.1826"/><polygon fill="#A80036" points="423.5,1470.1826,427.5,1480.1826,431.5,1470.1826,427.5,1474.1826" style="stroke:#A80036;stroke-width:1.0;"/><text fill="#000000" font-family="sans-serif" font-size="11" lengthAdjust="spacing" textLength="15" x="427.5" y="1460.186">tie</text><line style="stroke:#A80036;stroke-width:1.5;" x1="252.5" x2="252.5" y1="1444.5732" y2="1456.443"/><line style="stroke:#A80036;stroke-width:1.5;" x1="252.5" x2="262" y1="1456.443" y2="1456.443"/><line style="stroke:#A80036;stroke-width:1.5;" x1="262" x2="262" y1="1456.443" y2="1480.1826"/><polygon fill="#A80036" points="258,1470.1826,262,1480.1826,266,1470.1826,262,1474.1826" style="stroke:#A80036;stroke-width:1.0;"/><text fill="#000000" font-family="sans-serif" font-size="11" lengthAdjust="spacing" textLength="62" x="252.5" y="1461.186">dealerWon</text><line style="stroke:#A80036;stroke-width:1.5;" x1="87" x2="87" y1="1514.1514" y2="1546.1514"/><line style="stroke:#A80036;stroke-width:1.5;" x1="87" x2="240.5" y1="1546.1514" y2="1546.1514"/><polygon fill="#A80036" points="230.5,1542.1514,240.5,1546.1514,230.5,1550.1514,234.5,1546.1514" style="stroke:#A80036;stroke-width:1.0;"/><line style="stroke:#A80036;stroke-width:1.5;" x1="427.5" x2="427.5" y1="1514.1514" y2="1546.1514"/><line style="stroke:#A80036;stroke-width:1.5;" x1="427.5" x2="264.5" y1="1546.1514" y2="1546.1514"/><polygon fill="#A80036" points="274.5,1542.1514,264.5,1546.1514,274.5,1550.1514,270.5,1546.1514" style="stroke:#A80036;stroke-width:1.0;"/><line style="stroke:#A80036;stroke-width:1.5;" x1="262" x2="262" y1="1514.1514" y2="1519.1514"/><line style="stroke:#A80036;stroke-width:1.5;" x1="262" x2="252.5" y1="1519.1514" y2="1519.1514"/><line style="stroke:#A80036;stroke-width:1.5;" x1="252.5" x2="252.5" y1="1519.1514" y2="1534.1514"/><polygon fill="#A80036" points="248.5,1524.1514,252.5,1534.1514,256.5,1524.1514,252.5,1528.1514" style="stroke:#A80036;stroke-width:1.0;"/><line style="stroke:#A80036;stroke-width:1.5;" x1="252.5" x2="252.5" y1="1400.5732" y2="1420.5732"/><polygon fill="#A80036" points="248.5,1410.5732,252.5,1420.5732,256.5,1410.5732,252.5,1414.5732" style="stroke:#A80036;stroke-width:1.0;"/><line style="stroke:#A80036;stroke-width:1.5;" x1="252.5" x2="252.5" y1="1660.5225" y2="1689.0381"/><polygon fill="#A80036" points="248.5,1679.0381,252.5,1689.0381,256.5,1679.0381,252.5,1683.0381" style="stroke:#A80036;stroke-width:1.0;"/><line style="stroke:#A80036;stroke-width:1.5;" x1="252.5" x2="252.5" y1="1602.1514" y2="1626.5537"/><polygon fill="#A80036" points="248.5,1616.5537,252.5,1626.5537,256.5,1616.5537,252.5,1620.5537" style="stroke:#A80036;stroke-width:1.0;"/><line style="stroke:#A80036;stroke-width:1.5;" x1="315" x2="358.5" y1="1590.1514" y2="1590.1514"/><polygon fill="#A80036" points="354.5,1659.0381,358.5,1669.0381,362.5,1659.0381,358.5,1663.0381" style="stroke:#A80036;stroke-width:1.5;"/><line style="stroke:#A80036;stroke-width:1.5;" x1="358.5" x2="358.5" y1="1590.1514" y2="1733.0381"/><line style="stroke:#A80036;stroke-width:1.5;" x1="358.5" x2="252.5" y1="1733.0381" y2="1733.0381"/><line style="stroke:#A80036;stroke-width:1.5;" x1="252.5" x2="252.5" y1="1733.0381" y2="1781.0381"/><line style="stroke:#A80036;stroke-width:1.5;" x1="252.5" x2="252.5" y1="1558.1514" y2="1578.1514"/><polygon fill="#A80036" points="248.5,1568.1514,252.5,1578.1514,256.5,1568.1514,252.5,1572.1514" style="stroke:#A80036;stroke-width:1.0;"/><line style="stroke:#A80036;stroke-width:1.5;" x1="252.5" x2="252.5" y1="181.9375" y2="201.9375"/><polygon fill="#A80036" points="248.5,191.9375,252.5,201.9375,256.5,191.9375,252.5,195.9375" style="stroke:#A80036;stroke-width:1.0;"/><line style="stroke:#A80036;stroke-width:1.5;" x1="252.5" x2="650.5" y1="1781.0381" y2="1781.0381"/><polygon fill="#A80036" points="646.5,999.4878,650.5,989.4878,654.5,999.4878,650.5,995.4878" style="stroke:#A80036;stroke-width:1.5;"/><line style="stroke:#A80036;stroke-width:1.5;" x1="650.5" x2="650.5" y1="169.9375" y2="1781.0381"/><line style="stroke:#A80036;stroke-width:1.5;" x1="650.5" x2="264.5" y1="169.9375" y2="169.9375"/><polygon fill="#A80036" points="274.5,165.9375,264.5,169.9375,274.5,173.9375,270.5,169.9375" style="stroke:#A80036;stroke-width:1.0;"/><line style="stroke:#A80036;stroke-width:1.5;" x1="252.5" x2="252.5" y1="137.9375" y2="157.9375"/><polygon fill="#A80036" points="248.5,147.9375,252.5,157.9375,256.5,147.9375,252.5,151.9375" style="stroke:#A80036;stroke-width:1.0;"/><!--MD5=[742250719729d9f975cba64c6caaf077]
@startuml
'https://plantuml.com/activity-diagram-beta

start

:set saldo to 100;
:initialize pack with 6 decks (a 52 cards);
repeat
    :print player saldo;
    if (player wants to stay) then (yes)
    else (no)
        :print final saldo;
        stop
    endif
    while (0 < currentBetAmount <= saldo)
        :ask player for bet;
    endwhile
    if (remaining cards < 100) then (yes)
        :reinitialize pack with 6 decks (a 52 cards);
    endif
    :deal 2 cards to player and dealer;
    :show cards;
    note right: show both cards of player and 1 card of dealer
    while (while player wants to hit) is (yes)
        :deal card to player;
        if (player is busted?) then (yes)
            break;
        else (no)
        endif
    endwhile (no)
    if (player is busted?) then (yes)
    else (no)
        :turn second card of bank;
        while (dealerScore < 17) is (yes)
            :deal card to dealer;
            if (dealer is busted) then (yes)
                break;
            else (no)
            endif
        endwhile (no)
    endif
    switch (result?)
    case (playerWon)
        :increase saldo by bet;
    case (dealerWon)
        :decrease saldo by bet;
    case (tie)
        :leave saldo as it is;
    endswitch
    if (playerSaldo == 0) then (yes)
        :print you lost all your money;
        stop
    endif
repeat while
@enduml

@startuml

start

:set saldo to 100;
:initialize pack with 6 decks (a 52 cards);
repeat
    :print player saldo;
    if (player wants to stay) then (yes)
    else (no)
        :print final saldo;
        stop
    endif
    while (0 < currentBetAmount <= saldo)
        :ask player for bet;
    endwhile
    if (remaining cards < 100) then (yes)
        :reinitialize pack with 6 decks (a 52 cards);
    endif
    :deal 2 cards to player and dealer;
    :show cards;
    note right: show both cards of player and 1 card of dealer
    while (while player wants to hit) is (yes)
        :deal card to player;
        if (player is busted?) then (yes)
            break;
        else (no)
        endif
    endwhile (no)
    if (player is busted?) then (yes)
    else (no)
        :turn second card of bank;
        while (dealerScore < 17) is (yes)
            :deal card to dealer;
            if (dealer is busted) then (yes)
                break;
            else (no)
            endif
        endwhile (no)
    endif
    switch (result?)
    case (playerWon)
        :increase saldo by bet;
    case (dealerWon)
        :decrease saldo by bet;
    case (tie)
        :leave saldo as it is;
    endswitch
    if (playerSaldo == 0) then (yes)
        :print you lost all your money;
        stop
    endif
repeat while
@enduml

PlantUML version 1.2021.17beta1(Unknown compile time)
(GPL source distribution)
Java Runtime: Java(TM) SE Runtime Environment
JVM: Java HotSpot(TM) 64-Bit Server VM
Default Encoding: UTF-8
Language: en
Country: US
--></g></svg>