<?xml version="1.0" encoding="UTF-8" standalone="no"?><svg xmlns="http://www.w3.org/2000/svg" xmlns:xlink="http://www.w3.org/1999/xlink" contentScriptType="application/ecmascript" contentStyleType="text/css" height="1317px" preserveAspectRatio="none" style="width:1677px;height:1317px;background:#FFFFFF;" version="1.1" viewBox="0 0 1677 1317" width="1677px" zoomAndPan="magnify"><defs><filter height="300%" id="frevj1fxphxll" width="300%" x="-1" y="-1"><feGaussianBlur result="blurOut" stdDeviation="2.0"/><feColorMatrix in="blurOut" result="blurOut2" type="matrix" values="0 0 0 0 0 0 0 0 0 0 0 0 0 0 0 0 0 0 .4 0"/><feOffset dx="4.0" dy="4.0" in="blurOut2" result="blurOut3"/><feBlend in="SourceGraphic" in2="blurOut3" mode="normal"/></filter></defs><g><!--MD5=[9085b10f631a45ddb6288c83b816475c]
cluster flow control classes--><rect fill="#FFFFFF" filter="url(#frevj1fxphxll)" height="522" style="stroke:#000000;stroke-width:1.5;" width="514" x="509" y="7"/><text fill="#000000" font-family="sans-serif" font-size="14" font-weight="bold" lengthAdjust="spacing" textLength="164" x="684" y="21.9951">flow control classes</text><!--MD5=[5b907b3e90a8edb1eeaef0404841b693]
cluster classes with state--><rect fill="#FFFFFF" filter="url(#frevj1fxphxll)" height="238" style="stroke:#000000;stroke-width:1.5;" width="1379" x="7" y="578"/><text fill="#000000" font-family="sans-serif" font-size="14" font-weight="bold" lengthAdjust="spacing" textLength="150" x="621.5" y="592.9951">classes with state</text><!--MD5=[f70edfa18808b468e747653ba432281b]
cluster util classes--><rect fill="#FFFFFF" filter="url(#frevj1fxphxll)" height="140" style="stroke:#000000;stroke-width:1.5;" width="326" x="590" y="857"/><text fill="#000000" font-family="sans-serif" font-size="14" font-weight="bold" lengthAdjust="spacing" textLength="93" x="706.5" y="871.9951">util classes</text><!--MD5=[7157c6446899438a883718be29e1f6be]
cluster data classes--><rect fill="#FFFFFF" filter="url(#frevj1fxphxll)" height="456" style="stroke:#000000;stroke-width:1.5;" width="725" x="940" y="849"/><text fill="#000000" font-family="sans-serif" font-size="14" font-weight="bold" lengthAdjust="spacing" textLength="103" x="1251" y="863.9951">data classes</text><!--MD5=[e9b2638503cf7d902e3ef35601b95d1e]
entity BlackJack--><rect fill="#FEFECE" filter="url(#frevj1fxphxll)" height="121.7813" style="stroke:#000000;stroke-width:1.5;" width="416" x="587" y="42"/><text fill="#000000" font-family="sans-serif" font-size="14" lengthAdjust="spacing" textLength="68" x="597" y="64.9951">BlackJack</text><text fill="#000000" font-family="sans-serif" font-size="14" font-weight="bold" lengthAdjust="spacing" textLength="129" x="602" y="83.292">Responsibilities</text><text fill="#000000" font-family="sans-serif" font-size="14" font-weight="bold" lengthAdjust="spacing" textLength="111" x="877" y="83.292">Collaborators</text><text fill="#000000" font-family="sans-serif" font-size="14" lengthAdjust="spacing" textLength="199" x="601" y="99.5889">Print HumanPlayers balance</text><text fill="#000000" font-family="sans-serif" font-size="14" lengthAdjust="spacing" textLength="93" x="876" y="99.5889">HumanPlayer</text><text fill="#000000" font-family="sans-serif" font-size="14" lengthAdjust="spacing" textLength="259" x="601" y="115.8857">Ask HumanPlayer if he wants to play</text><text fill="#000000" font-family="sans-serif" font-size="14" lengthAdjust="spacing" textLength="93" x="876" y="115.8857">HumanPlayer</text><text fill="#000000" font-family="sans-serif" font-size="14" lengthAdjust="spacing" textLength="86" x="601" y="132.1826">Start Round</text><text fill="#000000" font-family="sans-serif" font-size="14" lengthAdjust="spacing" textLength="45" x="876" y="132.1826">Round</text><text fill="#000000" font-family="sans-serif" font-size="14" lengthAdjust="spacing" textLength="267" x="601" y="148.4795">Check if HumanPlayer still has money</text><text fill="#000000" font-family="sans-serif" font-size="14" lengthAdjust="spacing" textLength="93" x="876" y="148.4795">HumanPlayer</text><line style="stroke:#000000;stroke-width:1.5;" x1="597" x2="993" y1="70.2969" y2="70.2969"/><line style="stroke:#000000;stroke-width:1.5;" x1="597" x2="993" y1="86.5938" y2="86.5938"/><line style="stroke:#000000;stroke-width:1.5;" x1="597" x2="993" y1="102.8906" y2="102.8906"/><line style="stroke:#000000;stroke-width:1.5;" x1="597" x2="993" y1="119.1875" y2="119.1875"/><line style="stroke:#000000;stroke-width:1.5;" x1="597" x2="993" y1="135.4844" y2="135.4844"/><line style="stroke:#000000;stroke-width:1.5;" x1="597" x2="993" y1="151.7813" y2="151.7813"/><line style="stroke:#000000;stroke-width:1.5;" x1="597" x2="597" y1="70.2969" y2="151.7813"/><line style="stroke:#000000;stroke-width:1.5;" x1="872" x2="872" y1="70.2969" y2="151.7813"/><line style="stroke:#000000;stroke-width:1.5;" x1="993" x2="993" y1="70.2969" y2="151.7813"/><!--MD5=[f7598cc1e67e8b8299800c80d322643d]
entity Round--><rect fill="#FEFECE" filter="url(#frevj1fxphxll)" height="138.0781" style="stroke:#000000;stroke-width:1.5;" width="452" x="555" y="225"/><text fill="#000000" font-family="sans-serif" font-size="14" lengthAdjust="spacing" textLength="45" x="565" y="247.9951">Round</text><text fill="#000000" font-family="sans-serif" font-size="14" font-weight="bold" lengthAdjust="spacing" textLength="129" x="570" y="266.292">Responsibilities</text><text fill="#000000" font-family="sans-serif" font-size="14" font-weight="bold" lengthAdjust="spacing" textLength="111" x="850" y="266.292">Collaborators</text><text fill="#000000" font-family="sans-serif" font-size="14" lengthAdjust="spacing" textLength="272" x="569" y="282.5889">reset hand of HumanPlayer and dealer</text><text fill="#000000" font-family="sans-serif" font-size="14" lengthAdjust="spacing" textLength="148" x="849" y="282.5889">HumanPlayer, Dealer</text><text fill="#000000" font-family="sans-serif" font-size="14" lengthAdjust="spacing" textLength="185" x="569" y="298.8857">force HumanPlayer to bet</text><text fill="#000000" font-family="sans-serif" font-size="14" lengthAdjust="spacing" textLength="93" x="849" y="298.8857">HumanPlayer</text><text fill="#000000" font-family="sans-serif" font-size="14" lengthAdjust="spacing" textLength="156" x="569" y="315.1826">do HumanPlayers play</text><text fill="#000000" font-family="sans-serif" font-size="14" lengthAdjust="spacing" textLength="29" x="849" y="315.1826">Play</text><text fill="#000000" font-family="sans-serif" font-size="14" lengthAdjust="spacing" textLength="108" x="569" y="331.4795">do dealers play</text><text fill="#000000" font-family="sans-serif" font-size="14" lengthAdjust="spacing" textLength="29" x="849" y="331.4795">Play</text><text fill="#000000" font-family="sans-serif" font-size="14" lengthAdjust="spacing" textLength="114" x="569" y="347.7764">apply the result</text><text fill="#000000" font-family="sans-serif" font-size="14" lengthAdjust="spacing" textLength="0" x="849" y="347.7764"/><line style="stroke:#000000;stroke-width:1.5;" x1="565" x2="997" y1="253.2969" y2="253.2969"/><line style="stroke:#000000;stroke-width:1.5;" x1="565" x2="997" y1="269.5938" y2="269.5938"/><line style="stroke:#000000;stroke-width:1.5;" x1="565" x2="997" y1="285.8906" y2="285.8906"/><line style="stroke:#000000;stroke-width:1.5;" x1="565" x2="997" y1="302.1875" y2="302.1875"/><line style="stroke:#000000;stroke-width:1.5;" x1="565" x2="997" y1="318.4844" y2="318.4844"/><line style="stroke:#000000;stroke-width:1.5;" x1="565" x2="997" y1="334.7813" y2="334.7813"/><line style="stroke:#000000;stroke-width:1.5;" x1="565" x2="997" y1="351.0781" y2="351.0781"/><line style="stroke:#000000;stroke-width:1.5;" x1="565" x2="565" y1="253.2969" y2="351.0781"/><line style="stroke:#000000;stroke-width:1.5;" x1="845" x2="845" y1="253.2969" y2="351.0781"/><line style="stroke:#000000;stroke-width:1.5;" x1="997" x2="997" y1="253.2969" y2="351.0781"/><!--MD5=[0d3535d5527ef886cabc0cf2f5505438]
entity Play--><rect fill="#FEFECE" filter="url(#frevj1fxphxll)" height="89.1875" style="stroke:#000000;stroke-width:1.5;" width="481" x="525.5" y="424"/><text fill="#000000" font-family="sans-serif" font-size="14" lengthAdjust="spacing" textLength="29" x="535.5" y="446.9951">Play</text><text fill="#000000" font-family="sans-serif" font-size="14" font-weight="bold" lengthAdjust="spacing" textLength="129" x="540.5" y="465.292">Responsibilities</text><text fill="#000000" font-family="sans-serif" font-size="14" font-weight="bold" lengthAdjust="spacing" textLength="111" x="845.5" y="465.292">Collaborators</text><text fill="#000000" font-family="sans-serif" font-size="14" lengthAdjust="spacing" textLength="297" x="539.5" y="481.5889">ask HumanPlayer/dealer if he wants to hit</text><text fill="#000000" font-family="sans-serif" font-size="14" lengthAdjust="spacing" textLength="148" x="844.5" y="481.5889">HumanPlayer, Dealer</text><text fill="#000000" font-family="sans-serif" font-size="14" lengthAdjust="spacing" textLength="111" x="539.5" y="497.8857">check if busted</text><text fill="#000000" font-family="sans-serif" font-size="14" lengthAdjust="spacing" textLength="148" x="844.5" y="497.8857">HumanPlayer, Dealer</text><line style="stroke:#000000;stroke-width:1.5;" x1="535.5" x2="996.5" y1="452.2969" y2="452.2969"/><line style="stroke:#000000;stroke-width:1.5;" x1="535.5" x2="996.5" y1="468.5938" y2="468.5938"/><line style="stroke:#000000;stroke-width:1.5;" x1="535.5" x2="996.5" y1="484.8906" y2="484.8906"/><line style="stroke:#000000;stroke-width:1.5;" x1="535.5" x2="996.5" y1="501.1875" y2="501.1875"/><line style="stroke:#000000;stroke-width:1.5;" x1="535.5" x2="535.5" y1="452.2969" y2="501.1875"/><line style="stroke:#000000;stroke-width:1.5;" x1="840.5" x2="840.5" y1="452.2969" y2="501.1875"/><line style="stroke:#000000;stroke-width:1.5;" x1="996.5" x2="996.5" y1="452.2969" y2="501.1875"/><!--MD5=[6cd46936edabe581cb8fcbca9e19b232]
entity Dealer--><rect fill="#FEFECE" filter="url(#frevj1fxphxll)" height="105.4844" style="stroke:#000000;stroke-width:1.5;" width="351" x="577.5" y="654"/><text fill="#000000" font-family="sans-serif" font-size="14" lengthAdjust="spacing" textLength="47" x="587.5" y="676.9951">Dealer</text><text fill="#000000" font-family="sans-serif" font-size="14" font-weight="bold" lengthAdjust="spacing" textLength="129" x="592.5" y="695.292">Responsibilities</text><text fill="#000000" font-family="sans-serif" font-size="14" font-weight="bold" lengthAdjust="spacing" textLength="111" x="802.5" y="695.292">Collaborators</text><text fill="#000000" font-family="sans-serif" font-size="14" lengthAdjust="spacing" textLength="119" x="591.5" y="711.5889">hold dealer hand</text><text fill="#000000" font-family="sans-serif" font-size="14" lengthAdjust="spacing" textLength="36" x="801.5" y="711.5889">Hand</text><text fill="#000000" font-family="sans-serif" font-size="14" lengthAdjust="spacing" textLength="124" x="591.5" y="727.8857">print dealer hand</text><text fill="#000000" font-family="sans-serif" font-size="14" lengthAdjust="spacing" textLength="36" x="801.5" y="727.8857">Hand</text><text fill="#000000" font-family="sans-serif" font-size="14" lengthAdjust="spacing" textLength="202" x="591.5" y="744.1826">decide if dealer needs to hit</text><text fill="#000000" font-family="sans-serif" font-size="14" lengthAdjust="spacing" textLength="36" x="801.5" y="744.1826">Hand</text><line style="stroke:#000000;stroke-width:1.5;" x1="587.5" x2="918.5" y1="682.2969" y2="682.2969"/><line style="stroke:#000000;stroke-width:1.5;" x1="587.5" x2="918.5" y1="698.5938" y2="698.5938"/><line style="stroke:#000000;stroke-width:1.5;" x1="587.5" x2="918.5" y1="714.8906" y2="714.8906"/><line style="stroke:#000000;stroke-width:1.5;" x1="587.5" x2="918.5" y1="731.1875" y2="731.1875"/><line style="stroke:#000000;stroke-width:1.5;" x1="587.5" x2="918.5" y1="747.4844" y2="747.4844"/><line style="stroke:#000000;stroke-width:1.5;" x1="587.5" x2="587.5" y1="682.2969" y2="747.4844"/><line style="stroke:#000000;stroke-width:1.5;" x1="797.5" x2="797.5" y1="682.2969" y2="747.4844"/><line style="stroke:#000000;stroke-width:1.5;" x1="918.5" x2="918.5" y1="682.2969" y2="747.4844"/><!--MD5=[a82d56a5987c2105696f913f214af562]
entity HumanPlayer--><rect fill="#FEFECE" filter="url(#frevj1fxphxll)" height="186.9688" style="stroke:#000000;stroke-width:1.5;" width="406" x="964" y="613"/><text fill="#000000" font-family="sans-serif" font-size="14" lengthAdjust="spacing" textLength="93" x="974" y="635.9951">HumanPlayer</text><text fill="#000000" font-family="sans-serif" font-size="14" font-weight="bold" lengthAdjust="spacing" textLength="129" x="979" y="654.292">Responsibilities</text><text fill="#000000" font-family="sans-serif" font-size="14" font-weight="bold" lengthAdjust="spacing" textLength="111" x="1244" y="654.292">Collaborators</text><text fill="#000000" font-family="sans-serif" font-size="14" lengthAdjust="spacing" textLength="188" x="978" y="670.5889">hold HumanPlayer balance</text><text fill="#000000" font-family="sans-serif" font-size="14" lengthAdjust="spacing" textLength="0" x="1243" y="670.5889"/><text fill="#000000" font-family="sans-serif" font-size="14" lengthAdjust="spacing" textLength="96" x="978" y="686.8857">print balance</text><text fill="#000000" font-family="sans-serif" font-size="14" lengthAdjust="spacing" textLength="0" x="1243" y="686.8857"/><text fill="#000000" font-family="sans-serif" font-size="14" lengthAdjust="spacing" textLength="257" x="978" y="703.1826">ask HumanPlayer if he wants to play</text><text fill="#000000" font-family="sans-serif" font-size="14" lengthAdjust="spacing" textLength="0" x="1243" y="703.1826"/><text fill="#000000" font-family="sans-serif" font-size="14" lengthAdjust="spacing" textLength="189" x="978" y="719.4795">get valid HumanPlayer bet</text><text fill="#000000" font-family="sans-serif" font-size="14" lengthAdjust="spacing" textLength="0" x="1243" y="719.4795"/><text fill="#000000" font-family="sans-serif" font-size="14" lengthAdjust="spacing" textLength="118" x="978" y="735.7764">hold current bet</text><text fill="#000000" font-family="sans-serif" font-size="14" lengthAdjust="spacing" textLength="0" x="1243" y="735.7764"/><text fill="#000000" font-family="sans-serif" font-size="14" lengthAdjust="spacing" textLength="174" x="978" y="752.0732">hold HumanPlayers hand</text><text fill="#000000" font-family="sans-serif" font-size="14" lengthAdjust="spacing" textLength="36" x="1243" y="752.0732">Hand</text><text fill="#000000" font-family="sans-serif" font-size="14" lengthAdjust="spacing" textLength="172" x="978" y="768.3701">print HumanPlayer hand</text><text fill="#000000" font-family="sans-serif" font-size="14" lengthAdjust="spacing" textLength="36" x="1243" y="768.3701">Hand</text><text fill="#000000" font-family="sans-serif" font-size="14" lengthAdjust="spacing" textLength="121" x="978" y="784.667">get valid hit/stay</text><text fill="#000000" font-family="sans-serif" font-size="14" lengthAdjust="spacing" textLength="36" x="1243" y="784.667">Hand</text><line style="stroke:#000000;stroke-width:1.5;" x1="974" x2="1360" y1="641.2969" y2="641.2969"/><line style="stroke:#000000;stroke-width:1.5;" x1="974" x2="1360" y1="657.5938" y2="657.5938"/><line style="stroke:#000000;stroke-width:1.5;" x1="974" x2="1360" y1="673.8906" y2="673.8906"/><line style="stroke:#000000;stroke-width:1.5;" x1="974" x2="1360" y1="690.1875" y2="690.1875"/><line style="stroke:#000000;stroke-width:1.5;" x1="974" x2="1360" y1="706.4844" y2="706.4844"/><line style="stroke:#000000;stroke-width:1.5;" x1="974" x2="1360" y1="722.7813" y2="722.7813"/><line style="stroke:#000000;stroke-width:1.5;" x1="974" x2="1360" y1="739.0781" y2="739.0781"/><line style="stroke:#000000;stroke-width:1.5;" x1="974" x2="1360" y1="755.375" y2="755.375"/><line style="stroke:#000000;stroke-width:1.5;" x1="974" x2="1360" y1="771.6719" y2="771.6719"/><line style="stroke:#000000;stroke-width:1.5;" x1="974" x2="1360" y1="787.9688" y2="787.9688"/><line style="stroke:#000000;stroke-width:1.5;" x1="974" x2="974" y1="641.2969" y2="787.9688"/><line style="stroke:#000000;stroke-width:1.5;" x1="1239" x2="1239" y1="641.2969" y2="787.9688"/><line style="stroke:#000000;stroke-width:1.5;" x1="1360" x2="1360" y1="641.2969" y2="787.9688"/><!--MD5=[38beaf35c16586f4de6e538923e76087]
entity Pack--><rect fill="#FEFECE" filter="url(#frevj1fxphxll)" height="121.7813" style="stroke:#000000;stroke-width:1.5;" width="519" x="23.5" y="645.5"/><text fill="#000000" font-family="sans-serif" font-size="14" lengthAdjust="spacing" textLength="34" x="33.5" y="668.4951">Pack</text><text fill="#000000" font-family="sans-serif" font-size="14" font-weight="bold" lengthAdjust="spacing" textLength="129" x="38.5" y="686.792">Responsibilities</text><text fill="#000000" font-family="sans-serif" font-size="14" font-weight="bold" lengthAdjust="spacing" textLength="111" x="416.5" y="686.792">Collaborators</text><text fill="#000000" font-family="sans-serif" font-size="14" lengthAdjust="spacing" textLength="129" x="37.5" y="703.0889">initialize the pack</text><text fill="#000000" font-family="sans-serif" font-size="14" lengthAdjust="spacing" textLength="33" x="415.5" y="703.0889">Card</text><text fill="#000000" font-family="sans-serif" font-size="14" lengthAdjust="spacing" textLength="315" x="37.5" y="719.3857">hold the pack with which currently is played</text><text fill="#000000" font-family="sans-serif" font-size="14" lengthAdjust="spacing" textLength="0" x="415.5" y="719.3857"/><text fill="#000000" font-family="sans-serif" font-size="14" lengthAdjust="spacing" textLength="102" x="37.5" y="735.6826">provide a card</text><text fill="#000000" font-family="sans-serif" font-size="14" lengthAdjust="spacing" textLength="0" x="415.5" y="735.6826"/><text fill="#000000" font-family="sans-serif" font-size="14" lengthAdjust="spacing" textLength="370" x="37.5" y="751.9795">reinitialize the pack if there are less than 100 cards</text><text fill="#000000" font-family="sans-serif" font-size="14" lengthAdjust="spacing" textLength="33" x="415.5" y="751.9795">Card</text><line style="stroke:#000000;stroke-width:1.5;" x1="33.5" x2="532.5" y1="673.7969" y2="673.7969"/><line style="stroke:#000000;stroke-width:1.5;" x1="33.5" x2="532.5" y1="690.0938" y2="690.0938"/><line style="stroke:#000000;stroke-width:1.5;" x1="33.5" x2="532.5" y1="706.3906" y2="706.3906"/><line style="stroke:#000000;stroke-width:1.5;" x1="33.5" x2="532.5" y1="722.6875" y2="722.6875"/><line style="stroke:#000000;stroke-width:1.5;" x1="33.5" x2="532.5" y1="738.9844" y2="738.9844"/><line style="stroke:#000000;stroke-width:1.5;" x1="33.5" x2="532.5" y1="755.2813" y2="755.2813"/><line style="stroke:#000000;stroke-width:1.5;" x1="33.5" x2="33.5" y1="673.7969" y2="755.2813"/><line style="stroke:#000000;stroke-width:1.5;" x1="411.5" x2="411.5" y1="673.7969" y2="755.2813"/><line style="stroke:#000000;stroke-width:1.5;" x1="532.5" x2="532.5" y1="673.7969" y2="755.2813"/><!--MD5=[5183cb2edb5cf492c7a53635436e61b6]
entity Console--><rect fill="#FEFECE" filter="url(#frevj1fxphxll)" height="89.1875" style="stroke:#000000;stroke-width:1.5;" width="293" x="606.5" y="892"/><text fill="#000000" font-family="sans-serif" font-size="14" lengthAdjust="spacing" textLength="57" x="616.5" y="914.9951">Console</text><text fill="#000000" font-family="sans-serif" font-size="14" font-weight="bold" lengthAdjust="spacing" textLength="129" x="621.5" y="933.292">Responsibilities</text><text fill="#000000" font-family="sans-serif" font-size="14" font-weight="bold" lengthAdjust="spacing" textLength="111" x="773.5" y="933.292">Collaborators</text><text fill="#000000" font-family="sans-serif" font-size="14" lengthAdjust="spacing" textLength="144" x="620.5" y="949.5889">Read from the stdin</text><text fill="#000000" font-family="sans-serif" font-size="14" lengthAdjust="spacing" textLength="111" x="620.5" y="965.8857">Write to stdout</text><line style="stroke:#000000;stroke-width:1.5;" x1="616.5" x2="889.5" y1="920.2969" y2="920.2969"/><line style="stroke:#000000;stroke-width:1.5;" x1="616.5" x2="889.5" y1="936.5938" y2="936.5938"/><line style="stroke:#000000;stroke-width:1.5;" x1="616.5" x2="889.5" y1="952.8906" y2="952.8906"/><line style="stroke:#000000;stroke-width:1.5;" x1="616.5" x2="889.5" y1="969.1875" y2="969.1875"/><line style="stroke:#000000;stroke-width:1.5;" x1="616.5" x2="616.5" y1="920.2969" y2="969.1875"/><line style="stroke:#000000;stroke-width:1.5;" x1="768.5" x2="768.5" y1="920.2969" y2="969.1875"/><line style="stroke:#000000;stroke-width:1.5;" x1="889.5" x2="889.5" y1="920.2969" y2="969.1875"/><!--MD5=[be5caec417bb447074cdd764c677ef60]
entity Hand--><rect fill="#FEFECE" filter="url(#frevj1fxphxll)" height="105.4844" style="stroke:#000000;stroke-width:1.5;" width="376" x="975" y="884"/><text fill="#000000" font-family="sans-serif" font-size="14" lengthAdjust="spacing" textLength="36" x="985" y="906.9951">Hand</text><text fill="#000000" font-family="sans-serif" font-size="14" font-weight="bold" lengthAdjust="spacing" textLength="129" x="990" y="925.292">Responsibilities</text><text fill="#000000" font-family="sans-serif" font-size="14" font-weight="bold" lengthAdjust="spacing" textLength="111" x="1225" y="925.292">Collaborators</text><text fill="#000000" font-family="sans-serif" font-size="14" lengthAdjust="spacing" textLength="227" x="989" y="941.5889">Hold the list of card for a player</text><text fill="#000000" font-family="sans-serif" font-size="14" lengthAdjust="spacing" textLength="33" x="1224" y="941.5889">Card</text><text fill="#000000" font-family="sans-serif" font-size="14" lengthAdjust="spacing" textLength="136" x="989" y="957.8857">calculate the score</text><text fill="#000000" font-family="sans-serif" font-size="14" lengthAdjust="spacing" textLength="33" x="1224" y="957.8857">Card</text><text fill="#000000" font-family="sans-serif" font-size="14" lengthAdjust="spacing" textLength="215" x="989" y="974.1826">print the cards to the console</text><text fill="#000000" font-family="sans-serif" font-size="14" lengthAdjust="spacing" textLength="0" x="1224" y="974.1826"/><line style="stroke:#000000;stroke-width:1.5;" x1="985" x2="1341" y1="912.2969" y2="912.2969"/><line style="stroke:#000000;stroke-width:1.5;" x1="985" x2="1341" y1="928.5938" y2="928.5938"/><line style="stroke:#000000;stroke-width:1.5;" x1="985" x2="1341" y1="944.8906" y2="944.8906"/><line style="stroke:#000000;stroke-width:1.5;" x1="985" x2="1341" y1="961.1875" y2="961.1875"/><line style="stroke:#000000;stroke-width:1.5;" x1="985" x2="1341" y1="977.4844" y2="977.4844"/><line style="stroke:#000000;stroke-width:1.5;" x1="985" x2="985" y1="912.2969" y2="977.4844"/><line style="stroke:#000000;stroke-width:1.5;" x1="1220" x2="1220" y1="912.2969" y2="977.4844"/><line style="stroke:#000000;stroke-width:1.5;" x1="1341" x2="1341" y1="912.2969" y2="977.4844"/><!--MD5=[421c0c28c3c162af05b6849f8e632b78]
entity Card--><rect fill="#FEFECE" filter="url(#frevj1fxphxll)" height="105.4844" style="stroke:#000000;stroke-width:1.5;" width="413" x="956.5" y="1050"/><text fill="#000000" font-family="sans-serif" font-size="14" lengthAdjust="spacing" textLength="33" x="966.5" y="1072.9951">Card</text><text fill="#000000" font-family="sans-serif" font-size="14" font-weight="bold" lengthAdjust="spacing" textLength="129" x="971.5" y="1091.292">Responsibilities</text><text fill="#000000" font-family="sans-serif" font-size="14" font-weight="bold" lengthAdjust="spacing" textLength="111" x="1243.5" y="1091.292">Collaborators</text><text fill="#000000" font-family="sans-serif" font-size="14" lengthAdjust="spacing" textLength="67" x="970.5" y="1107.5889">hold rank</text><text fill="#000000" font-family="sans-serif" font-size="14" lengthAdjust="spacing" textLength="36" x="1242.5" y="1107.5889">Rank</text><text fill="#000000" font-family="sans-serif" font-size="14" lengthAdjust="spacing" textLength="61" x="970.5" y="1123.8857">hold suit</text><text fill="#000000" font-family="sans-serif" font-size="14" lengthAdjust="spacing" textLength="28" x="1242.5" y="1123.8857">Suit</text><text fill="#000000" font-family="sans-serif" font-size="14" lengthAdjust="spacing" textLength="264" x="970.5" y="1140.1826">generate a Deck of all possible cards</text><line style="stroke:#000000;stroke-width:1.5;" x1="966.5" x2="1359.5" y1="1078.2969" y2="1078.2969"/><line style="stroke:#000000;stroke-width:1.5;" x1="966.5" x2="1359.5" y1="1094.5938" y2="1094.5938"/><line style="stroke:#000000;stroke-width:1.5;" x1="966.5" x2="1359.5" y1="1110.8906" y2="1110.8906"/><line style="stroke:#000000;stroke-width:1.5;" x1="966.5" x2="1359.5" y1="1127.1875" y2="1127.1875"/><line style="stroke:#000000;stroke-width:1.5;" x1="966.5" x2="1359.5" y1="1143.4844" y2="1143.4844"/><line style="stroke:#000000;stroke-width:1.5;" x1="966.5" x2="966.5" y1="1078.2969" y2="1143.4844"/><line style="stroke:#000000;stroke-width:1.5;" x1="1238.5" x2="1238.5" y1="1078.2969" y2="1143.4844"/><line style="stroke:#000000;stroke-width:1.5;" x1="1359.5" x2="1359.5" y1="1078.2969" y2="1143.4844"/><!--MD5=[b3c5e5e431e999414e655a9af832d0fa]
entity Rank--><rect fill="#FEFECE" filter="url(#frevj1fxphxll)" height="72.8906" style="stroke:#000000;stroke-width:1.5;" width="333" x="956.5" y="1216"/><text fill="#000000" font-family="sans-serif" font-size="14" lengthAdjust="spacing" textLength="36" x="966.5" y="1238.9951">Rank</text><text fill="#000000" font-family="sans-serif" font-size="14" font-weight="bold" lengthAdjust="spacing" textLength="129" x="971.5" y="1257.292">Responsibilities</text><text fill="#000000" font-family="sans-serif" font-size="14" font-weight="bold" lengthAdjust="spacing" textLength="111" x="1163.5" y="1257.292">Collaborators</text><text fill="#000000" font-family="sans-serif" font-size="14" lengthAdjust="spacing" textLength="184" x="970.5" y="1273.5889">Hold the concept of Rank</text><text fill="#000000" font-family="sans-serif" font-size="14" lengthAdjust="spacing" textLength="0" x="1162.5" y="1273.5889"/><line style="stroke:#000000;stroke-width:1.5;" x1="966.5" x2="1279.5" y1="1244.2969" y2="1244.2969"/><line style="stroke:#000000;stroke-width:1.5;" x1="966.5" x2="1279.5" y1="1260.5938" y2="1260.5938"/><line style="stroke:#000000;stroke-width:1.5;" x1="966.5" x2="1279.5" y1="1276.8906" y2="1276.8906"/><line style="stroke:#000000;stroke-width:1.5;" x1="966.5" x2="966.5" y1="1244.2969" y2="1276.8906"/><line style="stroke:#000000;stroke-width:1.5;" x1="1158.5" x2="1158.5" y1="1244.2969" y2="1276.8906"/><line style="stroke:#000000;stroke-width:1.5;" x1="1279.5" x2="1279.5" y1="1244.2969" y2="1276.8906"/><!--MD5=[d6089c960fc36ba0b7262a36fefb6b34]
entity Suit--><rect fill="#FEFECE" filter="url(#frevj1fxphxll)" height="72.8906" style="stroke:#000000;stroke-width:1.5;" width="324" x="1325" y="1216"/><text fill="#000000" font-family="sans-serif" font-size="14" lengthAdjust="spacing" textLength="28" x="1335" y="1238.9951">Suit</text><text fill="#000000" font-family="sans-serif" font-size="14" font-weight="bold" lengthAdjust="spacing" textLength="129" x="1340" y="1257.292">Responsibilities</text><text fill="#000000" font-family="sans-serif" font-size="14" font-weight="bold" lengthAdjust="spacing" textLength="111" x="1523" y="1257.292">Collaborators</text><text fill="#000000" font-family="sans-serif" font-size="14" lengthAdjust="spacing" textLength="175" x="1339" y="1273.5889">Hold the concept uf Suit</text><text fill="#000000" font-family="sans-serif" font-size="14" lengthAdjust="spacing" textLength="0" x="1522" y="1273.5889"/><line style="stroke:#000000;stroke-width:1.5;" x1="1335" x2="1639" y1="1244.2969" y2="1244.2969"/><line style="stroke:#000000;stroke-width:1.5;" x1="1335" x2="1639" y1="1260.5938" y2="1260.5938"/><line style="stroke:#000000;stroke-width:1.5;" x1="1335" x2="1639" y1="1276.8906" y2="1276.8906"/><line style="stroke:#000000;stroke-width:1.5;" x1="1335" x2="1335" y1="1244.2969" y2="1276.8906"/><line style="stroke:#000000;stroke-width:1.5;" x1="1518" x2="1518" y1="1244.2969" y2="1276.8906"/><line style="stroke:#000000;stroke-width:1.5;" x1="1639" x2="1639" y1="1244.2969" y2="1276.8906"/><!--MD5=[8fe87f6255ab5d741f0a29827379a252]
link BlackJack to Round--><path codeLine="28" d="M790.551,164.06 C789.241,181.75 787.793,201.3 786.429,219.71 " fill="none" id="BlackJack-to-Round" style="stroke:#A80036;stroke-width:1.0;"/><polygon fill="#A80036" points="786.046,224.87,790.7036,216.192,786.4175,219.8838,782.7257,215.5977,786.046,224.87" style="stroke:#A80036;stroke-width:1.0;"/><!--MD5=[a846628aa728587fdc68b23d35806009]
link Round to Play--><path codeLine="29" d="M775.072,363.177 C773.461,381.696 771.75,401.38 770.252,418.601 " fill="none" id="Round-to-Play" style="stroke:#A80036;stroke-width:1.0;"/><polygon fill="#A80036" points="769.795,423.863,774.5591,415.2431,770.2278,418.8818,766.5891,414.5505,769.795,423.863" style="stroke:#A80036;stroke-width:1.0;"/><!--MD5=[2f16b817737525477c59504130fd53f7]
link Hand to Card--><path codeLine="104" d="M1163,989.391 C1163,1007.061 1163,1026.897 1163,1044.916 " fill="none" id="Hand-to-Card" style="stroke:#A80036;stroke-width:1.0;"/><polygon fill="#A80036" points="1163,1049.947,1167,1040.947,1163,1044.947,1159,1040.947,1163,1049.947" style="stroke:#A80036;stroke-width:1.0;"/><!--MD5=[dab4fdc688f775bd2cd14c67a04f3f7b]
link Card to Rank--><path codeLine="105" d="M1149.01,1155.263 C1144.11,1173.393 1138.68,1193.487 1134.05,1210.604 " fill="none" id="Card-to-Rank" style="stroke:#A80036;stroke-width:1.0;"/><polygon fill="#A80036" points="1132.64,1215.815,1138.8507,1208.1712,1133.9452,1210.9884,1131.128,1206.0829,1132.64,1215.815" style="stroke:#A80036;stroke-width:1.0;"/><!--MD5=[01ae9f68263e6bc4031c0aece6e20929]
link Card to Suit--><path codeLine="106" d="M1275.86,1155.055 C1318.16,1174.375 1365.39,1195.949 1404.44,1213.786 " fill="none" id="Card-to-Suit" style="stroke:#A80036;stroke-width:1.0;"/><polygon fill="#A80036" points="1409.16,1215.942,1402.6472,1208.5539,1404.6153,1213.8574,1399.3118,1215.8255,1409.16,1215.942" style="stroke:#A80036;stroke-width:1.0;"/><!--MD5=[d381bd37a81987dbe43b3888162c458b]
link BlackJack to HumanPlayer--><path codeLine="109" d="M941.752,164.14 C971.363,180.82 1000.56,201.07 1024,225 C1132.03,335.259 1133.54,392.753 1159,545 C1162.35,565.04 1164.44,586.668 1165.72,607.357 " fill="none" id="BlackJack-to-HumanPlayer" style="stroke:#A80036;stroke-width:1.0;"/><polygon fill="#A80036" points="1166.03,612.596,1169.4954,603.3769,1165.7368,607.6046,1161.5091,603.846,1166.03,612.596" style="stroke:#A80036;stroke-width:1.0;"/><!--MD5=[96b8ea27516f44b360a1f01adbcdd5c2]
link Round to HumanPlayer--><path codeLine="111" d="M999.51,363.108 C1026.14,379.371 1050.45,399.393 1069,424 C1109.6,477.847 1134.26,549.819 1148.69,607.508 " fill="none" id="Round-to-HumanPlayer" style="stroke:#A80036;stroke-width:1.0;"/><polygon fill="#A80036" points="1149.96,612.691,1151.69,602.9953,1148.7635,607.8363,1143.9224,604.9097,1149.96,612.691" style="stroke:#A80036;stroke-width:1.0;"/><!--MD5=[3294c98120167b3dc2d40294234de90e]
link Round to Dealer--><path codeLine="112" d="M959.683,363.028 C984.626,379.527 1007.37,399.641 1024,424 C1058.76,474.916 1079.66,516.559 1038,562 C1024.13,577.126 965.281,562.974 946,570 C897.01,587.851 848.996,621.477 813.113,650.764 " fill="none" id="Round-to-Dealer" style="stroke:#A80036;stroke-width:1.0;"/><polygon fill="#A80036" points="809.239,653.947,818.732,651.3235,813.102,650.7726,813.6529,645.1426,809.239,653.947" style="stroke:#A80036;stroke-width:1.0;"/><!--MD5=[7fd1669d68fb4efd3cf05e17f59b5112]
link Play to Dealer--><path codeLine="114" d="M640.32,513.26 C628.381,522.033 617.832,532.509 610,545 C585.995,583.287 616.692,621.263 655.713,650.656 " fill="none" id="Play-to-Dealer" style="stroke:#A80036;stroke-width:1.0;"/><polygon fill="#A80036" points="660.01,653.835,655.1541,645.2664,655.9905,650.8611,650.3959,651.6976,660.01,653.835" style="stroke:#A80036;stroke-width:1.0;"/><text fill="#000000" font-family="sans-serif" font-size="13" lengthAdjust="spacing" textLength="190" x="611" y="558.0669">either Dealer or HumanPlayer</text><!--MD5=[1f13dd08c73a25b071e4bd2e3e7108f3]
link Play to HumanPlayer--><path codeLine="115" d="M825.442,513.083 C851.295,530.369 882.586,549.15 913,562 C926.902,567.873 932.064,564.208 946,570 C972.911,581.185 1000.35,595.382 1026.32,610.35 " fill="none" id="Play-to-HumanPlayer" style="stroke:#A80036;stroke-width:1.0;"/><polygon fill="#A80036" points="1030.82,612.955,1025.049,604.974,1026.4972,610.4424,1021.0288,611.8906,1030.82,612.955" style="stroke:#A80036;stroke-width:1.0;"/><text fill="#000000" font-family="sans-serif" font-size="13" lengthAdjust="spacing" textLength="190" x="914" y="558.0669">either Dealer or HumanPlayer</text><!--MD5=[61167f774d1278d765f324e8c576081e]
link Play to Pack--><path codeLine="116" d="M665.344,513.089 C642.438,523.317 618.289,534.346 596,545 C530.891,576.122 459.197,612.711 400.871,643.088 " fill="none" id="Play-to-Pack" style="stroke:#A80036;stroke-width:1.0;"/><polygon fill="#A80036" points="396.34,645.45,406.1698,644.8369,400.7738,643.1388,402.4719,637.7429,396.34,645.45" style="stroke:#A80036;stroke-width:1.0;"/><!--MD5=[e9659a7ca59bb2f33a5cb623a1d435c5]
link HumanPlayer to Hand--><path codeLine="118" d="M1165.37,800.236 C1164.91,826.713 1164.42,854.777 1164,878.437 " fill="none" id="HumanPlayer-to-Hand" style="stroke:#A80036;stroke-width:1.0;"/><polygon fill="#A80036" points="1163.91,883.728,1168.0662,874.7991,1163.9971,878.7288,1160.0674,874.6597,1163.91,883.728" style="stroke:#A80036;stroke-width:1.0;"/><!--MD5=[e66f0c76c095a89c4be371414302133c]
link Dealer to Hand--><path codeLine="119" d="M835.868,759.222 C869.711,779.898 909.428,803.598 946,824 C980.869,843.452 1019.48,863.698 1054.35,881.514 " fill="none" id="Dealer-to-Hand" style="stroke:#A80036;stroke-width:1.0;"/><polygon fill="#A80036" points="1059.03,883.899,1052.8294,876.247,1054.5757,881.6276,1049.1952,883.3739,1059.03,883.899" style="stroke:#A80036;stroke-width:1.0;"/><!--MD5=[b8b3019cfe85e076e293cd57ef92a70b]
link Pack to Card--><path codeLine="121" d="M326.49,767.61 C380.132,836.87 478.073,948.389 590,1005 C652.326,1036.523 814.87,1062.178 950.982,1079.09 " fill="none" id="Pack-to-Card" style="stroke:#A80036;stroke-width:1.0;"/><polygon fill="#A80036" points="956.22,1079.738,947.7797,1074.6624,951.2579,1079.1236,946.7967,1082.6018,956.22,1079.738" style="stroke:#A80036;stroke-width:1.0;"/><!--MD5=[244f1e6d585682e73f25295604e22989]
link HumanPlayer to Console--><path codeLine="123" d="M998.91,800.072 C943.031,830.845 883.229,863.78 836.591,889.465 " fill="none" id="HumanPlayer-to-Console" style="stroke:#A80036;stroke-width:1.0;"/><polygon fill="#A80036" points="832.119,891.927,841.9321,891.088,836.4985,889.5144,838.072,884.0808,832.119,891.927" style="stroke:#A80036;stroke-width:1.0;"/><!--MD5=[2c971698b1012c911428e23d1a54f56d]
link Dealer to Console--><path codeLine="124" d="M753,759.237 C753,797.306 753,848.738 753,886.216 " fill="none" id="Dealer-to-Console" style="stroke:#A80036;stroke-width:1.0;"/><polygon fill="#A80036" points="753,891.641,757,882.641,753,886.641,749,882.641,753,891.641" style="stroke:#A80036;stroke-width:1.0;"/><!--MD5=[9c45b881f28cd69cdc9f76a9a3ea68dd]
@startuml
rectangle "flow control classes" {
    rectangle BlackJack [
        BlackJack
        |= Responsibilities |= Collaborators |
        | Print HumanPlayers balance | HumanPlayer |
        | Ask HumanPlayer if he wants to play | HumanPlayer |
        | Start Round | Round |
        | Check if HumanPlayer still has money | HumanPlayer |
    ]

    rectangle Round [
        Round
        |= Responsibilities |= Collaborators |
        | reset hand of HumanPlayer and dealer | HumanPlayer, Dealer|
        | force HumanPlayer to bet | HumanPlayer |
        | do HumanPlayers play | Play |
        | do dealers play | Play |
        | apply the result | |
    ]

    rectangle Play [
        Play
        |= Responsibilities |= Collaborators |
        | ask HumanPlayer/dealer if he wants to hit | HumanPlayer, Dealer |
        | check if busted | HumanPlayer, Dealer |
    ]

    BlackJack - -> Round
    Round - -> Play
}

rectangle "classes with state" {
    rectangle Dealer [
        Dealer
        |= Responsibilities |= Collaborators |
        | hold dealer hand | Hand |
        | print dealer hand | Hand |
        | decide if dealer needs to hit | Hand |
    ]

    rectangle HumanPlayer [
        HumanPlayer
        |= Responsibilities |= Collaborators |
        | hold HumanPlayer balance | |
        | print balance | |
        | ask HumanPlayer if he wants to play | |
        | get valid HumanPlayer bet | |
        | hold current bet | |
        | hold HumanPlayers hand | Hand |
        | print HumanPlayer hand | Hand |
        | get valid hit/stay | Hand |
    ]

    rectangle Pack [
        Pack
        |= Responsibilities |= Collaborators |
        | initialize the pack | Card |
        | hold the pack with which currently is played | |
        | provide a card | |
        | reinitialize the pack if there are less than 100 cards | Card |
    ]
}

rectangle "util classes" {

    rectangle Console [
        Console
        |= Responsibilities |= Collaborators |
        | Read from the stdin ||
        | Write to stdout ||
    ]
}

rectangle "data classes" {

    rectangle Hand [
        Hand
        |= Responsibilities |= Collaborators |
        | Hold the list of card for a player | Card |
        | calculate the score | Card |
        | print the cards to the console | |
    ]

    rectangle Card [
        Card
        |= Responsibilities |= Collaborators |
        | hold rank | Rank |
        | hold suit | Suit |
        | generate a Deck of all possible cards ||
    ]

    rectangle Rank [
        Rank
        |= Responsibilities |= Collaborators |
        | Hold the concept of Rank | |
    ]

    rectangle Suit [
        Suit
        |= Responsibilities |= Collaborators |
        | Hold the concept uf Suit | |
    ]

    Hand - -> Card
    Card - -> Rank
    Card - -> Suit
}

BlackJack - -> HumanPlayer

Round - -> HumanPlayer
Round - -> Dealer

Play - -> Dealer : either Dealer or HumanPlayer
Play - -> HumanPlayer : either Dealer or HumanPlayer
Play - -> Pack

HumanPlayer - -> Hand
Dealer - -> Hand

Pack -> Card

HumanPlayer - -> Console
Dealer - -> Console
@enduml

PlantUML version 1.2021.17beta3(Unknown compile time)
(GPL source distribution)
Java Runtime: Java(TM) SE Runtime Environment
JVM: Java HotSpot(TM) 64-Bit Server VM
Default Encoding: UTF-8
Language: en
Country: US
--></g></svg>