<?xml version="1.0" encoding="UTF-8" standalone="no"?><svg xmlns="http://www.w3.org/2000/svg" xmlns:xlink="http://www.w3.org/1999/xlink" contentScriptType="application/ecmascript" contentStyleType="text/css" height="1303px" preserveAspectRatio="none" style="width:1671px;height:1303px;background:#FFFFFF;" version="1.1" viewBox="0 0 1671 1303" width="1671px" zoomAndPan="magnify"><defs><filter height="300%" id="fmb0sdjbpvdmw" width="300%" x="-1" y="-1"><feGaussianBlur result="blurOut" stdDeviation="2.0"/><feColorMatrix in="blurOut" result="blurOut2" type="matrix" values="0 0 0 0 0 0 0 0 0 0 0 0 0 0 0 0 0 0 .4 0"/><feOffset dx="4.0" dy="4.0" in="blurOut2" result="blurOut3"/><feBlend in="SourceGraphic" in2="blurOut3" mode="normal"/></filter></defs><g><!--MD5=[9085b10f631a45ddb6288c83b816475c]
cluster flow control classes--><rect fill="#FFFFFF" filter="url(#fmb0sdjbpvdmw)" height="522" style="stroke:#000000;stroke-width:1.5;" width="430" x="569" y="7"/><text fill="#000000" font-family="sans-serif" font-size="14" font-weight="bold" lengthAdjust="spacing" textLength="164" x="702" y="21.9951">flow control classes</text><!--MD5=[5b907b3e90a8edb1eeaef0404841b693]
cluster classes with state--><rect fill="#FFFFFF" filter="url(#fmb0sdjbpvdmw)" height="238" style="stroke:#000000;stroke-width:1.5;" width="1331" x="7" y="578"/><text fill="#000000" font-family="sans-serif" font-size="14" font-weight="bold" lengthAdjust="spacing" textLength="150" x="597.5" y="592.9951">classes with state</text><!--MD5=[f70edfa18808b468e747653ba432281b]
cluster util classes--><rect fill="#FFFFFF" filter="url(#fmb0sdjbpvdmw)" height="140" style="stroke:#000000;stroke-width:1.5;" width="326" x="584" y="849"/><text fill="#000000" font-family="sans-serif" font-size="14" font-weight="bold" lengthAdjust="spacing" textLength="93" x="700.5" y="863.9951">util classes</text><!--MD5=[7157c6446899438a883718be29e1f6be]
cluster data classes--><rect fill="#FFFFFF" filter="url(#fmb0sdjbpvdmw)" height="442" style="stroke:#000000;stroke-width:1.5;" width="725" x="934" y="849"/><text fill="#000000" font-family="sans-serif" font-size="14" font-weight="bold" lengthAdjust="spacing" textLength="103" x="1245" y="863.9951">data classes</text><!--MD5=[e9b2638503cf7d902e3ef35601b95d1e]
entity BlackJack--><rect fill="#FEFECE" filter="url(#fmb0sdjbpvdmw)" height="121.7813" style="stroke:#000000;stroke-width:1.5;" width="367" x="614.5" y="42"/><text fill="#000000" font-family="sans-serif" font-size="14" lengthAdjust="spacing" textLength="68" x="624.5" y="64.9951">BlackJack</text><text fill="#000000" font-family="sans-serif" font-size="14" font-weight="bold" lengthAdjust="spacing" textLength="129" x="629.5" y="83.292">Responsibilities</text><text fill="#000000" font-family="sans-serif" font-size="14" font-weight="bold" lengthAdjust="spacing" textLength="111" x="855.5" y="83.292">Collaborators</text><text fill="#000000" font-family="sans-serif" font-size="14" lengthAdjust="spacing" textLength="133" x="628.5" y="99.5889">Print Players score</text><text fill="#000000" font-family="sans-serif" font-size="14" lengthAdjust="spacing" textLength="44" x="854.5" y="99.5889">Player</text><text fill="#000000" font-family="sans-serif" font-size="14" lengthAdjust="spacing" textLength="210" x="628.5" y="115.8857">Ask Player if he wants to play</text><text fill="#000000" font-family="sans-serif" font-size="14" lengthAdjust="spacing" textLength="44" x="854.5" y="115.8857">Player</text><text fill="#000000" font-family="sans-serif" font-size="14" lengthAdjust="spacing" textLength="86" x="628.5" y="132.1826">Start Round</text><text fill="#000000" font-family="sans-serif" font-size="14" lengthAdjust="spacing" textLength="45" x="854.5" y="132.1826">Round</text><text fill="#000000" font-family="sans-serif" font-size="14" lengthAdjust="spacing" textLength="218" x="628.5" y="148.4795">Check if Player still has money</text><text fill="#000000" font-family="sans-serif" font-size="14" lengthAdjust="spacing" textLength="44" x="854.5" y="148.4795">Player</text><line style="stroke:#000000;stroke-width:1.5;" x1="624.5" x2="971.5" y1="70.2969" y2="70.2969"/><line style="stroke:#000000;stroke-width:1.5;" x1="624.5" x2="971.5" y1="86.5938" y2="86.5938"/><line style="stroke:#000000;stroke-width:1.5;" x1="624.5" x2="971.5" y1="102.8906" y2="102.8906"/><line style="stroke:#000000;stroke-width:1.5;" x1="624.5" x2="971.5" y1="119.1875" y2="119.1875"/><line style="stroke:#000000;stroke-width:1.5;" x1="624.5" x2="971.5" y1="135.4844" y2="135.4844"/><line style="stroke:#000000;stroke-width:1.5;" x1="624.5" x2="971.5" y1="151.7813" y2="151.7813"/><line style="stroke:#000000;stroke-width:1.5;" x1="624.5" x2="624.5" y1="70.2969" y2="151.7813"/><line style="stroke:#000000;stroke-width:1.5;" x1="850.5" x2="850.5" y1="70.2969" y2="151.7813"/><line style="stroke:#000000;stroke-width:1.5;" x1="971.5" x2="971.5" y1="70.2969" y2="151.7813"/><!--MD5=[f7598cc1e67e8b8299800c80d322643d]
entity Round--><rect fill="#FEFECE" filter="url(#fmb0sdjbpvdmw)" height="138.0781" style="stroke:#000000;stroke-width:1.5;" width="373" x="609.5" y="225"/><text fill="#000000" font-family="sans-serif" font-size="14" lengthAdjust="spacing" textLength="45" x="619.5" y="247.9951">Round</text><text fill="#000000" font-family="sans-serif" font-size="14" font-weight="bold" lengthAdjust="spacing" textLength="129" x="624.5" y="266.292">Responsibilities</text><text fill="#000000" font-family="sans-serif" font-size="14" font-weight="bold" lengthAdjust="spacing" textLength="111" x="856.5" y="266.292">Collaborators</text><text fill="#000000" font-family="sans-serif" font-size="14" lengthAdjust="spacing" textLength="224" x="623.5" y="282.5889">reset hand of player and dealer</text><text fill="#000000" font-family="sans-serif" font-size="14" lengthAdjust="spacing" textLength="99" x="855.5" y="282.5889">Player, Dealer</text><text fill="#000000" font-family="sans-serif" font-size="14" lengthAdjust="spacing" textLength="136" x="623.5" y="298.8857">force Player to bet</text><text fill="#000000" font-family="sans-serif" font-size="14" lengthAdjust="spacing" textLength="44" x="855.5" y="298.8857">Player</text><text fill="#000000" font-family="sans-serif" font-size="14" lengthAdjust="spacing" textLength="108" x="623.5" y="315.1826">do players play</text><text fill="#000000" font-family="sans-serif" font-size="14" lengthAdjust="spacing" textLength="29" x="855.5" y="315.1826">Play</text><text fill="#000000" font-family="sans-serif" font-size="14" lengthAdjust="spacing" textLength="108" x="623.5" y="331.4795">do dealers play</text><text fill="#000000" font-family="sans-serif" font-size="14" lengthAdjust="spacing" textLength="29" x="855.5" y="331.4795">Play</text><text fill="#000000" font-family="sans-serif" font-size="14" lengthAdjust="spacing" textLength="114" x="623.5" y="347.7764">apply the result</text><text fill="#000000" font-family="sans-serif" font-size="14" lengthAdjust="spacing" textLength="0" x="855.5" y="347.7764"/><line style="stroke:#000000;stroke-width:1.5;" x1="619.5" x2="972.5" y1="253.2969" y2="253.2969"/><line style="stroke:#000000;stroke-width:1.5;" x1="619.5" x2="972.5" y1="269.5938" y2="269.5938"/><line style="stroke:#000000;stroke-width:1.5;" x1="619.5" x2="972.5" y1="285.8906" y2="285.8906"/><line style="stroke:#000000;stroke-width:1.5;" x1="619.5" x2="972.5" y1="302.1875" y2="302.1875"/><line style="stroke:#000000;stroke-width:1.5;" x1="619.5" x2="972.5" y1="318.4844" y2="318.4844"/><line style="stroke:#000000;stroke-width:1.5;" x1="619.5" x2="972.5" y1="334.7813" y2="334.7813"/><line style="stroke:#000000;stroke-width:1.5;" x1="619.5" x2="972.5" y1="351.0781" y2="351.0781"/><line style="stroke:#000000;stroke-width:1.5;" x1="619.5" x2="619.5" y1="253.2969" y2="351.0781"/><line style="stroke:#000000;stroke-width:1.5;" x1="851.5" x2="851.5" y1="253.2969" y2="351.0781"/><line style="stroke:#000000;stroke-width:1.5;" x1="972.5" x2="972.5" y1="253.2969" y2="351.0781"/><!--MD5=[0d3535d5527ef886cabc0cf2f5505438]
entity Play--><rect fill="#FEFECE" filter="url(#fmb0sdjbpvdmw)" height="89.1875" style="stroke:#000000;stroke-width:1.5;" width="398" x="585" y="424"/><text fill="#000000" font-family="sans-serif" font-size="14" lengthAdjust="spacing" textLength="29" x="595" y="446.9951">Play</text><text fill="#000000" font-family="sans-serif" font-size="14" font-weight="bold" lengthAdjust="spacing" textLength="129" x="600" y="465.292">Responsibilities</text><text fill="#000000" font-family="sans-serif" font-size="14" font-weight="bold" lengthAdjust="spacing" textLength="111" x="857" y="465.292">Collaborators</text><text fill="#000000" font-family="sans-serif" font-size="14" lengthAdjust="spacing" textLength="249" x="599" y="481.5889">ask player/dealer if he wants to hit</text><text fill="#000000" font-family="sans-serif" font-size="14" lengthAdjust="spacing" textLength="99" x="856" y="481.5889">Player, Dealer</text><text fill="#000000" font-family="sans-serif" font-size="14" lengthAdjust="spacing" textLength="111" x="599" y="497.8857">check if busted</text><text fill="#000000" font-family="sans-serif" font-size="14" lengthAdjust="spacing" textLength="99" x="856" y="497.8857">Player, Dealer</text><line style="stroke:#000000;stroke-width:1.5;" x1="595" x2="973" y1="452.2969" y2="452.2969"/><line style="stroke:#000000;stroke-width:1.5;" x1="595" x2="973" y1="468.5938" y2="468.5938"/><line style="stroke:#000000;stroke-width:1.5;" x1="595" x2="973" y1="484.8906" y2="484.8906"/><line style="stroke:#000000;stroke-width:1.5;" x1="595" x2="973" y1="501.1875" y2="501.1875"/><line style="stroke:#000000;stroke-width:1.5;" x1="595" x2="595" y1="452.2969" y2="501.1875"/><line style="stroke:#000000;stroke-width:1.5;" x1="852" x2="852" y1="452.2969" y2="501.1875"/><line style="stroke:#000000;stroke-width:1.5;" x1="973" x2="973" y1="452.2969" y2="501.1875"/><!--MD5=[6cd46936edabe581cb8fcbca9e19b232]
entity Dealer--><rect fill="#FEFECE" filter="url(#fmb0sdjbpvdmw)" height="105.4844" style="stroke:#000000;stroke-width:1.5;" width="351" x="577.5" y="654"/><text fill="#000000" font-family="sans-serif" font-size="14" lengthAdjust="spacing" textLength="47" x="587.5" y="676.9951">Dealer</text><text fill="#000000" font-family="sans-serif" font-size="14" font-weight="bold" lengthAdjust="spacing" textLength="129" x="592.5" y="695.292">Responsibilities</text><text fill="#000000" font-family="sans-serif" font-size="14" font-weight="bold" lengthAdjust="spacing" textLength="111" x="802.5" y="695.292">Collaborators</text><text fill="#000000" font-family="sans-serif" font-size="14" lengthAdjust="spacing" textLength="119" x="591.5" y="711.5889">hold dealer hand</text><text fill="#000000" font-family="sans-serif" font-size="14" lengthAdjust="spacing" textLength="36" x="801.5" y="711.5889">Hand</text><text fill="#000000" font-family="sans-serif" font-size="14" lengthAdjust="spacing" textLength="124" x="591.5" y="727.8857">print dealer hand</text><text fill="#000000" font-family="sans-serif" font-size="14" lengthAdjust="spacing" textLength="36" x="801.5" y="727.8857">Hand</text><text fill="#000000" font-family="sans-serif" font-size="14" lengthAdjust="spacing" textLength="202" x="591.5" y="744.1826">decide if dealer needs to hit</text><text fill="#000000" font-family="sans-serif" font-size="14" lengthAdjust="spacing" textLength="113" x="801.5" y="744.1826">ScoreCalculator</text><line style="stroke:#000000;stroke-width:1.5;" x1="587.5" x2="918.5" y1="682.2969" y2="682.2969"/><line style="stroke:#000000;stroke-width:1.5;" x1="587.5" x2="918.5" y1="698.5938" y2="698.5938"/><line style="stroke:#000000;stroke-width:1.5;" x1="587.5" x2="918.5" y1="714.8906" y2="714.8906"/><line style="stroke:#000000;stroke-width:1.5;" x1="587.5" x2="918.5" y1="731.1875" y2="731.1875"/><line style="stroke:#000000;stroke-width:1.5;" x1="587.5" x2="918.5" y1="747.4844" y2="747.4844"/><line style="stroke:#000000;stroke-width:1.5;" x1="587.5" x2="587.5" y1="682.2969" y2="747.4844"/><line style="stroke:#000000;stroke-width:1.5;" x1="797.5" x2="797.5" y1="682.2969" y2="747.4844"/><line style="stroke:#000000;stroke-width:1.5;" x1="918.5" x2="918.5" y1="682.2969" y2="747.4844"/><!--MD5=[de2effd8dc5bf946a609466312d0f75f]
entity Player--><rect fill="#FEFECE" filter="url(#fmb0sdjbpvdmw)" height="186.9688" style="stroke:#000000;stroke-width:1.5;" width="358" x="964" y="613"/><text fill="#000000" font-family="sans-serif" font-size="14" lengthAdjust="spacing" textLength="44" x="974" y="635.9951">Player</text><text fill="#000000" font-family="sans-serif" font-size="14" font-weight="bold" lengthAdjust="spacing" textLength="129" x="979" y="654.292">Responsibilities</text><text fill="#000000" font-family="sans-serif" font-size="14" font-weight="bold" lengthAdjust="spacing" textLength="111" x="1196" y="654.292">Collaborators</text><text fill="#000000" font-family="sans-serif" font-size="14" lengthAdjust="spacing" textLength="121" x="978" y="670.5889">hold player saldo</text><text fill="#000000" font-family="sans-serif" font-size="14" lengthAdjust="spacing" textLength="0" x="1195" y="670.5889"/><text fill="#000000" font-family="sans-serif" font-size="14" lengthAdjust="spacing" textLength="77" x="978" y="686.8857">print saldo</text><text fill="#000000" font-family="sans-serif" font-size="14" lengthAdjust="spacing" textLength="0" x="1195" y="686.8857"/><text fill="#000000" font-family="sans-serif" font-size="14" lengthAdjust="spacing" textLength="209" x="978" y="703.1826">ask player if he wants to play</text><text fill="#000000" font-family="sans-serif" font-size="14" lengthAdjust="spacing" textLength="0" x="1195" y="703.1826"/><text fill="#000000" font-family="sans-serif" font-size="14" lengthAdjust="spacing" textLength="141" x="978" y="719.4795">get valid player bet</text><text fill="#000000" font-family="sans-serif" font-size="14" lengthAdjust="spacing" textLength="0" x="1195" y="719.4795"/><text fill="#000000" font-family="sans-serif" font-size="14" lengthAdjust="spacing" textLength="118" x="978" y="735.7764">hold current bet</text><text fill="#000000" font-family="sans-serif" font-size="14" lengthAdjust="spacing" textLength="0" x="1195" y="735.7764"/><text fill="#000000" font-family="sans-serif" font-size="14" lengthAdjust="spacing" textLength="126" x="978" y="752.0732">hold players hand</text><text fill="#000000" font-family="sans-serif" font-size="14" lengthAdjust="spacing" textLength="36" x="1195" y="752.0732">Hand</text><text fill="#000000" font-family="sans-serif" font-size="14" lengthAdjust="spacing" textLength="124" x="978" y="768.3701">print player hand</text><text fill="#000000" font-family="sans-serif" font-size="14" lengthAdjust="spacing" textLength="36" x="1195" y="768.3701">Hand</text><text fill="#000000" font-family="sans-serif" font-size="14" lengthAdjust="spacing" textLength="121" x="978" y="784.667">get valid hit/stay</text><text fill="#000000" font-family="sans-serif" font-size="14" lengthAdjust="spacing" textLength="113" x="1195" y="784.667">ScoreCalculator</text><line style="stroke:#000000;stroke-width:1.5;" x1="974" x2="1312" y1="641.2969" y2="641.2969"/><line style="stroke:#000000;stroke-width:1.5;" x1="974" x2="1312" y1="657.5938" y2="657.5938"/><line style="stroke:#000000;stroke-width:1.5;" x1="974" x2="1312" y1="673.8906" y2="673.8906"/><line style="stroke:#000000;stroke-width:1.5;" x1="974" x2="1312" y1="690.1875" y2="690.1875"/><line style="stroke:#000000;stroke-width:1.5;" x1="974" x2="1312" y1="706.4844" y2="706.4844"/><line style="stroke:#000000;stroke-width:1.5;" x1="974" x2="1312" y1="722.7813" y2="722.7813"/><line style="stroke:#000000;stroke-width:1.5;" x1="974" x2="1312" y1="739.0781" y2="739.0781"/><line style="stroke:#000000;stroke-width:1.5;" x1="974" x2="1312" y1="755.375" y2="755.375"/><line style="stroke:#000000;stroke-width:1.5;" x1="974" x2="1312" y1="771.6719" y2="771.6719"/><line style="stroke:#000000;stroke-width:1.5;" x1="974" x2="1312" y1="787.9688" y2="787.9688"/><line style="stroke:#000000;stroke-width:1.5;" x1="974" x2="974" y1="641.2969" y2="787.9688"/><line style="stroke:#000000;stroke-width:1.5;" x1="1191" x2="1191" y1="641.2969" y2="787.9688"/><line style="stroke:#000000;stroke-width:1.5;" x1="1312" x2="1312" y1="641.2969" y2="787.9688"/><!--MD5=[38beaf35c16586f4de6e538923e76087]
entity Pack--><rect fill="#FEFECE" filter="url(#fmb0sdjbpvdmw)" height="121.7813" style="stroke:#000000;stroke-width:1.5;" width="519" x="23.5" y="645.5"/><text fill="#000000" font-family="sans-serif" font-size="14" lengthAdjust="spacing" textLength="34" x="33.5" y="668.4951">Pack</text><text fill="#000000" font-family="sans-serif" font-size="14" font-weight="bold" lengthAdjust="spacing" textLength="129" x="38.5" y="686.792">Responsibilities</text><text fill="#000000" font-family="sans-serif" font-size="14" font-weight="bold" lengthAdjust="spacing" textLength="111" x="416.5" y="686.792">Collaborators</text><text fill="#000000" font-family="sans-serif" font-size="14" lengthAdjust="spacing" textLength="129" x="37.5" y="703.0889">initialize the pack</text><text fill="#000000" font-family="sans-serif" font-size="14" lengthAdjust="spacing" textLength="33" x="415.5" y="703.0889">Card</text><text fill="#000000" font-family="sans-serif" font-size="14" lengthAdjust="spacing" textLength="315" x="37.5" y="719.3857">hold the pack with which currently is played</text><text fill="#000000" font-family="sans-serif" font-size="14" lengthAdjust="spacing" textLength="0" x="415.5" y="719.3857"/><text fill="#000000" font-family="sans-serif" font-size="14" lengthAdjust="spacing" textLength="102" x="37.5" y="735.6826">provide a card</text><text fill="#000000" font-family="sans-serif" font-size="14" lengthAdjust="spacing" textLength="0" x="415.5" y="735.6826"/><text fill="#000000" font-family="sans-serif" font-size="14" lengthAdjust="spacing" textLength="370" x="37.5" y="751.9795">reinitialize the pack if there are less than 100 cards</text><text fill="#000000" font-family="sans-serif" font-size="14" lengthAdjust="spacing" textLength="33" x="415.5" y="751.9795">Card</text><line style="stroke:#000000;stroke-width:1.5;" x1="33.5" x2="532.5" y1="673.7969" y2="673.7969"/><line style="stroke:#000000;stroke-width:1.5;" x1="33.5" x2="532.5" y1="690.0938" y2="690.0938"/><line style="stroke:#000000;stroke-width:1.5;" x1="33.5" x2="532.5" y1="706.3906" y2="706.3906"/><line style="stroke:#000000;stroke-width:1.5;" x1="33.5" x2="532.5" y1="722.6875" y2="722.6875"/><line style="stroke:#000000;stroke-width:1.5;" x1="33.5" x2="532.5" y1="738.9844" y2="738.9844"/><line style="stroke:#000000;stroke-width:1.5;" x1="33.5" x2="532.5" y1="755.2813" y2="755.2813"/><line style="stroke:#000000;stroke-width:1.5;" x1="33.5" x2="33.5" y1="673.7969" y2="755.2813"/><line style="stroke:#000000;stroke-width:1.5;" x1="411.5" x2="411.5" y1="673.7969" y2="755.2813"/><line style="stroke:#000000;stroke-width:1.5;" x1="532.5" x2="532.5" y1="673.7969" y2="755.2813"/><!--MD5=[5183cb2edb5cf492c7a53635436e61b6]
entity Console--><rect fill="#FEFECE" filter="url(#fmb0sdjbpvdmw)" height="89.1875" style="stroke:#000000;stroke-width:1.5;" width="293" x="600.5" y="884"/><text fill="#000000" font-family="sans-serif" font-size="14" lengthAdjust="spacing" textLength="57" x="610.5" y="906.9951">Console</text><text fill="#000000" font-family="sans-serif" font-size="14" font-weight="bold" lengthAdjust="spacing" textLength="129" x="615.5" y="925.292">Responsibilities</text><text fill="#000000" font-family="sans-serif" font-size="14" font-weight="bold" lengthAdjust="spacing" textLength="111" x="767.5" y="925.292">Collaborators</text><text fill="#000000" font-family="sans-serif" font-size="14" lengthAdjust="spacing" textLength="144" x="614.5" y="941.5889">Read from the stdin</text><text fill="#000000" font-family="sans-serif" font-size="14" lengthAdjust="spacing" textLength="111" x="614.5" y="957.8857">Write to stdout</text><line style="stroke:#000000;stroke-width:1.5;" x1="610.5" x2="883.5" y1="912.2969" y2="912.2969"/><line style="stroke:#000000;stroke-width:1.5;" x1="610.5" x2="883.5" y1="928.5938" y2="928.5938"/><line style="stroke:#000000;stroke-width:1.5;" x1="610.5" x2="883.5" y1="944.8906" y2="944.8906"/><line style="stroke:#000000;stroke-width:1.5;" x1="610.5" x2="883.5" y1="961.1875" y2="961.1875"/><line style="stroke:#000000;stroke-width:1.5;" x1="610.5" x2="610.5" y1="912.2969" y2="961.1875"/><line style="stroke:#000000;stroke-width:1.5;" x1="762.5" x2="762.5" y1="912.2969" y2="961.1875"/><line style="stroke:#000000;stroke-width:1.5;" x1="883.5" x2="883.5" y1="912.2969" y2="961.1875"/><!--MD5=[be5caec417bb447074cdd764c677ef60]
entity Hand--><rect fill="#FEFECE" filter="url(#fmb0sdjbpvdmw)" height="89.1875" style="stroke:#000000;stroke-width:1.5;" width="376" x="955" y="884"/><text fill="#000000" font-family="sans-serif" font-size="14" lengthAdjust="spacing" textLength="36" x="965" y="906.9951">Hand</text><text fill="#000000" font-family="sans-serif" font-size="14" font-weight="bold" lengthAdjust="spacing" textLength="129" x="970" y="925.292">Responsibilities</text><text fill="#000000" font-family="sans-serif" font-size="14" font-weight="bold" lengthAdjust="spacing" textLength="111" x="1205" y="925.292">Collaborators</text><text fill="#000000" font-family="sans-serif" font-size="14" lengthAdjust="spacing" textLength="227" x="969" y="941.5889">Hold the list of card for a player</text><text fill="#000000" font-family="sans-serif" font-size="14" lengthAdjust="spacing" textLength="33" x="1204" y="941.5889">Card</text><text fill="#000000" font-family="sans-serif" font-size="14" lengthAdjust="spacing" textLength="136" x="969" y="957.8857">calculate the score</text><text fill="#000000" font-family="sans-serif" font-size="14" lengthAdjust="spacing" textLength="33" x="1204" y="957.8857">Card</text><line style="stroke:#000000;stroke-width:1.5;" x1="965" x2="1321" y1="912.2969" y2="912.2969"/><line style="stroke:#000000;stroke-width:1.5;" x1="965" x2="1321" y1="928.5938" y2="928.5938"/><line style="stroke:#000000;stroke-width:1.5;" x1="965" x2="1321" y1="944.8906" y2="944.8906"/><line style="stroke:#000000;stroke-width:1.5;" x1="965" x2="1321" y1="961.1875" y2="961.1875"/><line style="stroke:#000000;stroke-width:1.5;" x1="965" x2="965" y1="912.2969" y2="961.1875"/><line style="stroke:#000000;stroke-width:1.5;" x1="1200" x2="1200" y1="912.2969" y2="961.1875"/><line style="stroke:#000000;stroke-width:1.5;" x1="1321" x2="1321" y1="912.2969" y2="961.1875"/><!--MD5=[421c0c28c3c162af05b6849f8e632b78]
entity Card--><rect fill="#FEFECE" filter="url(#fmb0sdjbpvdmw)" height="105.4844" style="stroke:#000000;stroke-width:1.5;" width="413" x="950.5" y="1036"/><text fill="#000000" font-family="sans-serif" font-size="14" lengthAdjust="spacing" textLength="33" x="960.5" y="1058.9951">Card</text><text fill="#000000" font-family="sans-serif" font-size="14" font-weight="bold" lengthAdjust="spacing" textLength="129" x="965.5" y="1077.292">Responsibilities</text><text fill="#000000" font-family="sans-serif" font-size="14" font-weight="bold" lengthAdjust="spacing" textLength="111" x="1237.5" y="1077.292">Collaborators</text><text fill="#000000" font-family="sans-serif" font-size="14" lengthAdjust="spacing" textLength="67" x="964.5" y="1093.5889">hold rank</text><text fill="#000000" font-family="sans-serif" font-size="14" lengthAdjust="spacing" textLength="36" x="1236.5" y="1093.5889">Rank</text><text fill="#000000" font-family="sans-serif" font-size="14" lengthAdjust="spacing" textLength="61" x="964.5" y="1109.8857">hold suit</text><text fill="#000000" font-family="sans-serif" font-size="14" lengthAdjust="spacing" textLength="28" x="1236.5" y="1109.8857">Suit</text><text fill="#000000" font-family="sans-serif" font-size="14" lengthAdjust="spacing" textLength="264" x="964.5" y="1126.1826">generate a Deck of all possible cards</text><line style="stroke:#000000;stroke-width:1.5;" x1="960.5" x2="1353.5" y1="1064.2969" y2="1064.2969"/><line style="stroke:#000000;stroke-width:1.5;" x1="960.5" x2="1353.5" y1="1080.5938" y2="1080.5938"/><line style="stroke:#000000;stroke-width:1.5;" x1="960.5" x2="1353.5" y1="1096.8906" y2="1096.8906"/><line style="stroke:#000000;stroke-width:1.5;" x1="960.5" x2="1353.5" y1="1113.1875" y2="1113.1875"/><line style="stroke:#000000;stroke-width:1.5;" x1="960.5" x2="1353.5" y1="1129.4844" y2="1129.4844"/><line style="stroke:#000000;stroke-width:1.5;" x1="960.5" x2="960.5" y1="1064.2969" y2="1129.4844"/><line style="stroke:#000000;stroke-width:1.5;" x1="1232.5" x2="1232.5" y1="1064.2969" y2="1129.4844"/><line style="stroke:#000000;stroke-width:1.5;" x1="1353.5" x2="1353.5" y1="1064.2969" y2="1129.4844"/><!--MD5=[b3c5e5e431e999414e655a9af832d0fa]
entity Rank--><rect fill="#FEFECE" filter="url(#fmb0sdjbpvdmw)" height="72.8906" style="stroke:#000000;stroke-width:1.5;" width="333" x="950.5" y="1202"/><text fill="#000000" font-family="sans-serif" font-size="14" lengthAdjust="spacing" textLength="36" x="960.5" y="1224.9951">Rank</text><text fill="#000000" font-family="sans-serif" font-size="14" font-weight="bold" lengthAdjust="spacing" textLength="129" x="965.5" y="1243.292">Responsibilities</text><text fill="#000000" font-family="sans-serif" font-size="14" font-weight="bold" lengthAdjust="spacing" textLength="111" x="1157.5" y="1243.292">Collaborators</text><text fill="#000000" font-family="sans-serif" font-size="14" lengthAdjust="spacing" textLength="184" x="964.5" y="1259.5889">Hold the concept of Rank</text><text fill="#000000" font-family="sans-serif" font-size="14" lengthAdjust="spacing" textLength="0" x="1156.5" y="1259.5889"/><line style="stroke:#000000;stroke-width:1.5;" x1="960.5" x2="1273.5" y1="1230.2969" y2="1230.2969"/><line style="stroke:#000000;stroke-width:1.5;" x1="960.5" x2="1273.5" y1="1246.5938" y2="1246.5938"/><line style="stroke:#000000;stroke-width:1.5;" x1="960.5" x2="1273.5" y1="1262.8906" y2="1262.8906"/><line style="stroke:#000000;stroke-width:1.5;" x1="960.5" x2="960.5" y1="1230.2969" y2="1262.8906"/><line style="stroke:#000000;stroke-width:1.5;" x1="1152.5" x2="1152.5" y1="1230.2969" y2="1262.8906"/><line style="stroke:#000000;stroke-width:1.5;" x1="1273.5" x2="1273.5" y1="1230.2969" y2="1262.8906"/><!--MD5=[d6089c960fc36ba0b7262a36fefb6b34]
entity Suit--><rect fill="#FEFECE" filter="url(#fmb0sdjbpvdmw)" height="72.8906" style="stroke:#000000;stroke-width:1.5;" width="324" x="1319" y="1202"/><text fill="#000000" font-family="sans-serif" font-size="14" lengthAdjust="spacing" textLength="28" x="1329" y="1224.9951">Suit</text><text fill="#000000" font-family="sans-serif" font-size="14" font-weight="bold" lengthAdjust="spacing" textLength="129" x="1334" y="1243.292">Responsibilities</text><text fill="#000000" font-family="sans-serif" font-size="14" font-weight="bold" lengthAdjust="spacing" textLength="111" x="1517" y="1243.292">Collaborators</text><text fill="#000000" font-family="sans-serif" font-size="14" lengthAdjust="spacing" textLength="175" x="1333" y="1259.5889">Hold the concept uf Suit</text><text fill="#000000" font-family="sans-serif" font-size="14" lengthAdjust="spacing" textLength="0" x="1516" y="1259.5889"/><line style="stroke:#000000;stroke-width:1.5;" x1="1329" x2="1633" y1="1230.2969" y2="1230.2969"/><line style="stroke:#000000;stroke-width:1.5;" x1="1329" x2="1633" y1="1246.5938" y2="1246.5938"/><line style="stroke:#000000;stroke-width:1.5;" x1="1329" x2="1633" y1="1262.8906" y2="1262.8906"/><line style="stroke:#000000;stroke-width:1.5;" x1="1329" x2="1329" y1="1230.2969" y2="1262.8906"/><line style="stroke:#000000;stroke-width:1.5;" x1="1512" x2="1512" y1="1230.2969" y2="1262.8906"/><line style="stroke:#000000;stroke-width:1.5;" x1="1633" x2="1633" y1="1230.2969" y2="1262.8906"/><!--MD5=[8fe87f6255ab5d741f0a29827379a252]
link BlackJack to Round--><path codeLine="28" d="M797.364,164.06 C797.177,181.75 796.97,201.3 796.776,219.71 " fill="none" id="BlackJack-to-Round" style="stroke:#A80036;stroke-width:1.0;"/><polygon fill="#A80036" points="796.721,224.87,800.798,215.9046,796.7639,219.8702,792.7983,215.836,796.721,224.87" style="stroke:#A80036;stroke-width:1.0;"/><!--MD5=[a846628aa728587fdc68b23d35806009]
link Round to Play--><path codeLine="29" d="M791.257,363.177 C789.969,381.696 788.6,401.38 787.402,418.601 " fill="none" id="Round-to-Play" style="stroke:#A80036;stroke-width:1.0;"/><polygon fill="#A80036" points="787.036,423.863,791.6513,415.1625,787.3832,418.8751,783.6706,414.607,787.036,423.863" style="stroke:#A80036;stroke-width:1.0;"/><!--MD5=[2f16b817737525477c59504130fd53f7]
link Hand to Card--><path codeLine="103" d="M1146.86,973.092 C1148.44,990.876 1150.28,1011.678 1151.96,1030.632 " fill="none" id="Hand-to-Card" style="stroke:#A80036;stroke-width:1.0;"/><polygon fill="#A80036" points="1152.43,1035.925,1155.6183,1026.6065,1151.9878,1030.9446,1147.6497,1027.3141,1152.43,1035.925" style="stroke:#A80036;stroke-width:1.0;"/><!--MD5=[dab4fdc688f775bd2cd14c67a04f3f7b]
link Card to Rank--><path codeLine="104" d="M1143.01,1141.263 C1138.11,1159.393 1132.68,1179.487 1128.05,1196.604 " fill="none" id="Card-to-Rank" style="stroke:#A80036;stroke-width:1.0;"/><polygon fill="#A80036" points="1126.64,1201.815,1132.8507,1194.1712,1127.9452,1196.9884,1125.128,1192.0829,1126.64,1201.815" style="stroke:#A80036;stroke-width:1.0;"/><!--MD5=[01ae9f68263e6bc4031c0aece6e20929]
link Card to Suit--><path codeLine="105" d="M1269.86,1141.055 C1312.16,1160.375 1359.39,1181.949 1398.44,1199.786 " fill="none" id="Card-to-Suit" style="stroke:#A80036;stroke-width:1.0;"/><polygon fill="#A80036" points="1403.16,1201.942,1396.6472,1194.5539,1398.6153,1199.8574,1393.3118,1201.8255,1403.16,1201.942" style="stroke:#A80036;stroke-width:1.0;"/><!--MD5=[88e4e4291f25e986c7469c6daaaef128]
link BlackJack to Player--><path codeLine="108" d="M923.506,164.03 C950.966,181.08 978.281,201.52 1000,225 C1104.81,338.325 1108.96,392.851 1135,545 C1138.46,565.239 1140.6,587.107 1141.88,607.995 " fill="none" id="BlackJack-to-Player" style="stroke:#A80036;stroke-width:1.0;"/><polygon fill="#A80036" points="1142.17,612.998,1145.6369,603.7795,1141.8776,608.0066,1137.6506,604.2473,1142.17,612.998" style="stroke:#A80036;stroke-width:1.0;"/><!--MD5=[015547f7ddbd9564a38749abc8e7406b]
link Round to Player--><path codeLine="110" d="M976.865,363.072 C1002.86,379.592 1026.89,399.701 1045,424 C1085.3,478.067 1109.97,550.034 1124.47,607.667 " fill="none" id="Round-to-Player" style="stroke:#A80036;stroke-width:1.0;"/><polygon fill="#A80036" points="1125.76,612.845,1127.4699,603.1457,1124.5534,607.9928,1119.7063,605.0763,1125.76,612.845" style="stroke:#A80036;stroke-width:1.0;"/><!--MD5=[3294c98120167b3dc2d40294234de90e]
link Round to Dealer--><path codeLine="111" d="M940.71,363.059 C963.812,379.914 985.006,400.14 1000,424 C1032.8,476.197 1054.97,515.932 1014,562 C1003.89,573.37 960.215,564.574 946,570 C897.851,588.377 850.388,621.445 814.578,650.312 " fill="none" id="Round-to-Dealer" style="stroke:#A80036;stroke-width:1.0;"/><polygon fill="#A80036" points="810.269,653.81,819.7773,651.2424,814.1507,650.6584,814.7347,645.0318,810.269,653.81" style="stroke:#A80036;stroke-width:1.0;"/><!--MD5=[7fd1669d68fb4efd3cf05e17f59b5112]
link Play to Dealer--><path codeLine="113" d="M703.92,513.085 C693.486,522.226 684.263,532.85 678,545 C660.333,579.275 677.958,618.472 700.545,649.551 " fill="none" id="Play-to-Dealer" style="stroke:#A80036;stroke-width:1.0;"/><polygon fill="#A80036" points="703.614,653.687,701.4634,644.0758,700.6346,649.6716,695.0388,648.8428,703.614,653.687" style="stroke:#A80036;stroke-width:1.0;"/><text fill="#000000" font-family="sans-serif" font-size="13" lengthAdjust="spacing" textLength="144" x="679" y="558.0669">either Dealer or Player</text><!--MD5=[95a736342928cb1e4bf02aa3065172b7]
link Play to Player--><path codeLine="114" d="M855.832,513.056 C884.12,530.47 916.771,550.897 946,570 C965.545,582.774 986.012,596.476 1006.05,610.082 " fill="none" id="Play-to-Player" style="stroke:#A80036;stroke-width:1.0;"/><polygon fill="#A80036" points="1010.32,612.984,1005.1297,604.6138,1006.1863,610.1711,1000.629,611.2277,1010.32,612.984" style="stroke:#A80036;stroke-width:1.0;"/><text fill="#000000" font-family="sans-serif" font-size="13" lengthAdjust="spacing" textLength="144" x="935" y="558.0669">either Dealer or Player</text><!--MD5=[61167f774d1278d765f324e8c576081e]
link Play to Pack--><path codeLine="115" d="M684.99,513.074 C645.917,530.491 600.717,550.914 560,570 C510.106,593.388 455.554,619.874 408.155,643.186 " fill="none" id="Play-to-Pack" style="stroke:#A80036;stroke-width:1.0;"/><polygon fill="#A80036" points="403.591,645.431,413.4324,645.0467,408.0773,643.2236,409.9004,637.8685,403.591,645.431" style="stroke:#A80036;stroke-width:1.0;"/><!--MD5=[56fbd05464c9cb1c8c48b2b6b42054b4]
link Player to Hand--><path codeLine="117" d="M1143,800.162 C1143,827.128 1143,855.52 1143,878.634 " fill="none" id="Player-to-Hand" style="stroke:#A80036;stroke-width:1.0;"/><polygon fill="#A80036" points="1143,883.785,1147,874.785,1143,878.785,1139,874.785,1143,883.785" style="stroke:#A80036;stroke-width:1.0;"/><!--MD5=[e66f0c76c095a89c4be371414302133c]
link Dealer to Hand--><path codeLine="118" d="M835.962,759.053 C869.82,779.705 909.521,803.432 946,824 C980.462,843.431 1018.87,863.878 1052.56,881.418 " fill="none" id="Dealer-to-Hand" style="stroke:#A80036;stroke-width:1.0;"/><polygon fill="#A80036" points="1057.07,883.763,1050.9205,876.0699,1052.6309,881.462,1047.2389,883.1725,1057.07,883.763" style="stroke:#A80036;stroke-width:1.0;"/><!--MD5=[b8b3019cfe85e076e293cd57ef92a70b]
link Pack to Card--><path codeLine="120" d="M326.819,767.69 C379.665,835.369 475.086,942.864 584,997 C646.44,1028.036 808.975,1051.975 945.055,1067.414 " fill="none" id="Pack-to-Card" style="stroke:#A80036;stroke-width:1.0;"/><polygon fill="#A80036" points="950.291,1068.006,941.797,1063.0208,945.3226,1067.4446,940.8988,1070.9702,950.291,1068.006" style="stroke:#A80036;stroke-width:1.0;"/><!--MD5=[c4faf1eb9de65130f99cd748f90cdf2c]
link Player to Console--><path codeLine="122" d="M988.334,800.034 C974.079,808.239 959.809,816.333 946,824 C910.973,843.447 871.959,863.979 837.82,881.584 " fill="none" id="Player-to-Console" style="stroke:#A80036;stroke-width:1.0;"/><polygon fill="#A80036" points="833.252,883.937,843.0848,883.3742,837.6975,881.6485,839.4232,876.2613,833.252,883.937" style="stroke:#A80036;stroke-width:1.0;"/><!--MD5=[2c971698b1012c911428e23d1a54f56d]
link Dealer to Console--><path codeLine="123" d="M751.593,759.08 C750.609,795.153 749.304,843.034 748.336,878.52 " fill="none" id="Dealer-to-Console" style="stroke:#A80036;stroke-width:1.0;"/><polygon fill="#A80036" points="748.196,883.663,752.4414,874.7761,748.3332,878.6649,744.4444,874.5567,748.196,883.663" style="stroke:#A80036;stroke-width:1.0;"/><!--MD5=[3df6e037191fc358d4a30e45f56ec204]
@startuml
rectangle "flow control classes" {
    rectangle BlackJack [
        BlackJack
        |= Responsibilities |= Collaborators |
        | Print Players score | Player |
        | Ask Player if he wants to play | Player |
        | Start Round | Round |
        | Check if Player still has money | Player |
    ]

    rectangle Round [
        Round
        |= Responsibilities |= Collaborators |
        | reset hand of player and dealer | Player, Dealer|
        | force Player to bet | Player |
        | do players play | Play |
        | do dealers play | Play |
        | apply the result | |
    ]

    rectangle Play [
        Play
        |= Responsibilities |= Collaborators |
        | ask player/dealer if he wants to hit | Player, Dealer |
        | check if busted | Player, Dealer |
    ]

    BlackJack - -> Round
    Round - -> Play
}

rectangle "classes with state" {
    rectangle Dealer [
        Dealer
        |= Responsibilities |= Collaborators |
        | hold dealer hand | Hand |
        | print dealer hand | Hand |
        | decide if dealer needs to hit | ScoreCalculator |
    ]

    rectangle Player [
        Player
        |= Responsibilities |= Collaborators |
        | hold player saldo | |
        | print saldo | |
        | ask player if he wants to play | |
        | get valid player bet | |
        | hold current bet | |
        | hold players hand | Hand |
        | print player hand | Hand |
        | get valid hit/stay | ScoreCalculator |
    ]

    rectangle Pack [
        Pack
        |= Responsibilities |= Collaborators |
        | initialize the pack | Card |
        | hold the pack with which currently is played | |
        | provide a card | |
        | reinitialize the pack if there are less than 100 cards | Card |
    ]
}

rectangle "util classes" {

    rectangle Console [
        Console
        |= Responsibilities |= Collaborators |
        | Read from the stdin ||
        | Write to stdout ||
    ]
}

rectangle "data classes" {

    rectangle Hand [
        Hand
        |= Responsibilities |= Collaborators |
        | Hold the list of card for a player | Card |
        | calculate the score | Card |
    ]

    rectangle Card [
        Card
        |= Responsibilities |= Collaborators |
        | hold rank | Rank |
        | hold suit | Suit |
        | generate a Deck of all possible cards ||
    ]

    rectangle Rank [
        Rank
        |= Responsibilities |= Collaborators |
        | Hold the concept of Rank | |
    ]

    rectangle Suit [
        Suit
        |= Responsibilities |= Collaborators |
        | Hold the concept uf Suit | |
    ]

    Hand - -> Card
    Card - -> Rank
    Card - -> Suit
}

BlackJack - -> Player

Round - -> Player
Round - -> Dealer

Play - -> Dealer : either Dealer or Player
Play - -> Player : either Dealer or Player
Play - -> Pack

Player - -> Hand
Dealer - -> Hand

Pack -> Card

Player - -> Console
Dealer - -> Console
@enduml

PlantUML version 1.2021.17beta1(Unknown compile time)
(GPL source distribution)
Java Runtime: Java(TM) SE Runtime Environment
JVM: Java HotSpot(TM) 64-Bit Server VM
Default Encoding: UTF-8
Language: en
Country: US
--></g></svg>