<?xml version="1.0" encoding="UTF-8" standalone="no"?><svg xmlns="http://www.w3.org/2000/svg" xmlns:xlink="http://www.w3.org/1999/xlink" contentScriptType="application/ecmascript" contentStyleType="text/css" height="681px" preserveAspectRatio="none" style="width:426px;height:681px;background:#FFFFFF;" version="1.1" viewBox="0 0 426 681" width="426px" zoomAndPan="magnify"><defs><filter height="300%" id="f1wxsmw2dkawbq" width="300%" x="-1" y="-1"><feGaussianBlur result="blurOut" stdDeviation="2.0"/><feColorMatrix in="blurOut" result="blurOut2" type="matrix" values="0 0 0 0 0 0 0 0 0 0 0 0 0 0 0 0 0 0 .4 0"/><feOffset dx="4.0" dy="4.0" in="blurOut2" result="blurOut3"/><feBlend in="SourceGraphic" in2="blurOut3" mode="normal"/></filter></defs><g><!--MD5=[2cb47ba637a0d19583e6199456f6ad0b]
class Player--><rect codeLine="3" fill="#FEFECE" filter="url(#f1wxsmw2dkawbq)" height="99.2188" id="Player" style="stroke:#A80036;stroke-width:1.5;" width="163" x="119" y="7"/><ellipse cx="178.25" cy="23" fill="#B4A7E5" rx="11" ry="11" style="stroke:#A80036;stroke-width:1.0;"/><path d="M179.2031,19.7813 L180.9219,19.7813 C181.3125,19.7813 181.5,19.75 181.625,19.6719 C181.8906,19.5156 182.0313,19.2344 182.0313,18.9375 C182.0313,18.6719 181.9219,18.4063 181.6875,18.2344 C181.5156,18.125 181.375,18.0938 180.9219,18.0938 L175.7813,18.0938 C175.3438,18.0938 175.2188,18.1094 175.0625,18.2031 C174.8125,18.3594 174.6563,18.6563 174.6563,18.9375 C174.6563,19.2188 174.7969,19.4688 175.0156,19.6406 C175.1719,19.75 175.3594,19.7813 175.7813,19.7813 L177.5,19.7813 L177.5,26.2969 L175.7813,26.2969 C175.3438,26.2969 175.2188,26.3125 175.0625,26.4219 C174.8125,26.5781 174.6563,26.8594 174.6563,27.1563 C174.6563,27.4063 174.7969,27.6719 175.0156,27.8281 C175.1719,27.9531 175.375,28 175.7813,28 L180.9219,28 C181.6719,28 182.0313,27.7188 182.0313,27.1563 C182.0313,26.875 181.9219,26.625 181.6875,26.4531 C181.5156,26.3281 181.375,26.2969 180.9219,26.2969 L179.2031,26.2969 L179.2031,19.7813 Z " fill="#000000"/><text fill="#000000" font-family="sans-serif" font-size="12" font-style="italic" lengthAdjust="spacing" textLength="36" x="198.75" y="27.1543">Player</text><line style="stroke:#A80036;stroke-width:1.5;" x1="120" x2="281" y1="39" y2="39"/><line style="stroke:#A80036;stroke-width:1.5;" x1="120" x2="281" y1="47" y2="47"/><ellipse cx="130" cy="58" fill="#84BE84" rx="3" ry="3" style="stroke:#038048;stroke-width:1.0;"/><text fill="#008000" font-family="sans-serif" font-size="11" lengthAdjust="spacing" textLength="137" x="139" y="61.2104">void addCard(Card card)</text><ellipse cx="130" cy="70.8047" fill="#84BE84" rx="3" ry="3" style="stroke:#038048;stroke-width:1.0;"/><text fill="#008000" font-family="sans-serif" font-size="11" lengthAdjust="spacing" textLength="107" x="139" y="74.0151">void printAllCards()</text><ellipse cx="130" cy="83.6094" fill="#84BE84" rx="3" ry="3" style="stroke:#038048;stroke-width:1.0;"/><text fill="#008000" font-family="sans-serif" font-size="11" lengthAdjust="spacing" textLength="78" x="139" y="86.8198">int getScore()</text><ellipse cx="130" cy="96.4141" fill="#84BE84" rx="3" ry="3" style="stroke:#038048;stroke-width:1.0;"/><text fill="#000000" font-family="sans-serif" font-size="11" lengthAdjust="spacing" textLength="123" x="139" y="99.6245">PlayAction hitOrStay()</text><!--MD5=[b3a980551af4fb5504d75634056fd54d]
class Hand--><rect codeLine="10" fill="#FEFECE" filter="url(#f1wxsmw2dkawbq)" height="163.2422" id="Hand" style="stroke:#A80036;stroke-width:1.5;" width="199" x="101" y="504"/><ellipse cx="180.75" cy="520" fill="#ADD1B2" rx="11" ry="11" style="stroke:#A80036;stroke-width:1.0;"/><path d="M183.0938,515.6719 C182.1563,515.2344 181.5625,515.0938 180.6875,515.0938 C178.0625,515.0938 176.0625,517.1719 176.0625,519.8906 L176.0625,521.0156 C176.0625,523.5938 178.1719,525.4844 181.0625,525.4844 C182.2813,525.4844 183.4375,525.1875 184.1875,524.6406 C184.7656,524.2344 185.0938,523.7813 185.0938,523.3906 C185.0938,522.9375 184.7031,522.5469 184.2344,522.5469 C184.0156,522.5469 183.8125,522.625 183.625,522.8125 C183.1719,523.2969 183.1719,523.2969 182.9844,523.3906 C182.5625,523.6563 181.875,523.7813 181.1094,523.7813 C179.0625,523.7813 177.7656,522.6875 177.7656,520.9844 L177.7656,519.8906 C177.7656,518.1094 179.0156,516.7969 180.75,516.7969 C181.3281,516.7969 181.9375,516.9531 182.4063,517.2031 C182.8906,517.4844 183.0625,517.7031 183.1563,518.1094 C183.2188,518.5156 183.25,518.6406 183.3906,518.7656 C183.5313,518.9063 183.7656,519.0156 183.9844,519.0156 C184.25,519.0156 184.5156,518.875 184.6875,518.6563 C184.7969,518.5 184.8281,518.3125 184.8281,517.8906 L184.8281,516.4688 C184.8281,516.0313 184.8125,515.9063 184.7188,515.75 C184.5625,515.4844 184.2813,515.3438 183.9844,515.3438 C183.6875,515.3438 183.4844,515.4375 183.2656,515.75 L183.0938,515.6719 Z " fill="#000000"/><text fill="#000000" font-family="sans-serif" font-size="12" lengthAdjust="spacing" textLength="31" x="201.25" y="524.1543">Hand</text><line style="stroke:#A80036;stroke-width:1.5;" x1="102" x2="299" y1="536" y2="536"/><rect fill="none" height="6" style="stroke:#C82930;stroke-width:1.0;" width="6" x="109" y="544"/><text fill="#000000" font-family="sans-serif" font-size="11" lengthAdjust="spacing" textLength="94" x="121" y="550.2104">Console console</text><rect fill="none" height="6" style="stroke:#C82930;stroke-width:1.0;" width="6" x="109" y="556.8047"/><text fill="#000000" font-family="sans-serif" font-size="11" lengthAdjust="spacing" textLength="95" x="121" y="563.0151">List&lt;Card&gt; hand</text><line style="stroke:#A80036;stroke-width:1.5;" x1="102" x2="299" y1="569.6094" y2="569.6094"/><ellipse cx="112" cy="580.6094" fill="#84BE84" rx="3" ry="3" style="stroke:#038048;stroke-width:1.0;"/><text fill="#000000" font-family="sans-serif" font-size="11" lengthAdjust="spacing" textLength="131" x="121" y="583.8198">Hand(Console console)</text><ellipse cx="112" cy="593.4141" fill="#84BE84" rx="3" ry="3" style="stroke:#038048;stroke-width:1.0;"/><text fill="#008000" font-family="sans-serif" font-size="11" lengthAdjust="spacing" textLength="137" x="121" y="596.6245">void addCard(Card card)</text><ellipse cx="112" cy="606.2188" fill="#84BE84" rx="3" ry="3" style="stroke:#038048;stroke-width:1.0;"/><text fill="#000000" font-family="sans-serif" font-size="11" lengthAdjust="spacing" textLength="110" x="121" y="609.4292">void printFirstCard()</text><ellipse cx="112" cy="619.0234" fill="#84BE84" rx="3" ry="3" style="stroke:#038048;stroke-width:1.0;"/><text fill="#008000" font-family="sans-serif" font-size="11" lengthAdjust="spacing" textLength="107" x="121" y="622.2339">void printAllCards()</text><ellipse cx="112" cy="631.8281" fill="#84BE84" rx="3" ry="3" style="stroke:#038048;stroke-width:1.0;"/><text fill="#008000" font-family="sans-serif" font-size="11" lengthAdjust="spacing" textLength="78" x="121" y="635.0386">int getScore()</text><rect fill="#F24D5C" height="6" style="stroke:#C82930;stroke-width:1.0;" width="6" x="109" y="641.6328"/><text fill="#000000" font-family="sans-serif" font-size="11" lengthAdjust="spacing" textLength="151" x="121" y="647.8433">void printCardsUpTo(int to)</text><rect fill="#F24D5C" height="6" style="stroke:#C82930;stroke-width:1.0;" width="6" x="109" y="654.4375"/><text fill="#000000" font-family="sans-serif" font-size="11" lengthAdjust="spacing" text-decoration="underline" textLength="173" x="121" y="660.6479">int getScoreOfRank(Rank rank)</text><!--MD5=[489d8ee0a19148a265eb284aebff018b]
class Dealer--><rect codeLine="23" fill="#FEFECE" filter="url(#f1wxsmw2dkawbq)" height="176.0469" id="Dealer" style="stroke:#A80036;stroke-width:1.5;" width="167" x="7" y="217"/><ellipse cx="66.25" cy="233" fill="#ADD1B2" rx="11" ry="11" style="stroke:#A80036;stroke-width:1.0;"/><path d="M68.5938,228.6719 C67.6563,228.2344 67.0625,228.0938 66.1875,228.0938 C63.5625,228.0938 61.5625,230.1719 61.5625,232.8906 L61.5625,234.0156 C61.5625,236.5938 63.6719,238.4844 66.5625,238.4844 C67.7813,238.4844 68.9375,238.1875 69.6875,237.6406 C70.2656,237.2344 70.5938,236.7813 70.5938,236.3906 C70.5938,235.9375 70.2031,235.5469 69.7344,235.5469 C69.5156,235.5469 69.3125,235.625 69.125,235.8125 C68.6719,236.2969 68.6719,236.2969 68.4844,236.3906 C68.0625,236.6563 67.375,236.7813 66.6094,236.7813 C64.5625,236.7813 63.2656,235.6875 63.2656,233.9844 L63.2656,232.8906 C63.2656,231.1094 64.5156,229.7969 66.25,229.7969 C66.8281,229.7969 67.4375,229.9531 67.9063,230.2031 C68.3906,230.4844 68.5625,230.7031 68.6563,231.1094 C68.7188,231.5156 68.75,231.6406 68.8906,231.7656 C69.0313,231.9063 69.2656,232.0156 69.4844,232.0156 C69.75,232.0156 70.0156,231.875 70.1875,231.6563 C70.2969,231.5 70.3281,231.3125 70.3281,230.8906 L70.3281,229.4688 C70.3281,229.0313 70.3125,228.9063 70.2188,228.75 C70.0625,228.4844 69.7813,228.3438 69.4844,228.3438 C69.1875,228.3438 68.9844,228.4375 68.7656,228.75 L68.5938,228.6719 Z " fill="#000000"/><text fill="#000000" font-family="sans-serif" font-size="12" lengthAdjust="spacing" textLength="40" x="86.75" y="237.1543">Dealer</text><line style="stroke:#A80036;stroke-width:1.5;" x1="8" x2="173" y1="249" y2="249"/><rect fill="none" height="6" style="stroke:#C82930;stroke-width:1.0;" width="6" x="15" y="257"/><text fill="#000000" font-family="sans-serif" font-size="11" lengthAdjust="spacing" textLength="97" x="27" y="263.2104">Console console;</text><text fill="#000000" font-family="sans-serif" font-size="11" lengthAdjust="spacing" textLength="0" x="31" y="276.0151"/><rect fill="none" height="6" style="stroke:#C82930;stroke-width:1.0;" width="6" x="15" y="282.6094"/><text fill="#000000" font-family="sans-serif" font-size="11" lengthAdjust="spacing" textLength="64" x="27" y="288.8198">Hand hand;</text><line style="stroke:#A80036;stroke-width:1.5;" x1="8" x2="173" y1="295.4141" y2="295.4141"/><ellipse cx="18" cy="306.4141" fill="#84BE84" rx="3" ry="3" style="stroke:#038048;stroke-width:1.0;"/><text fill="#000000" font-family="sans-serif" font-size="11" lengthAdjust="spacing" textLength="141" x="27" y="309.6245">Dealer(Console console)</text><ellipse cx="18" cy="319.2188" fill="#84BE84" rx="3" ry="3" style="stroke:#038048;stroke-width:1.0;"/><text fill="#000000" font-family="sans-serif" font-size="11" lengthAdjust="spacing" textLength="96" x="27" y="322.4292">void startRound()</text><ellipse cx="18" cy="332.0234" fill="#84BE84" rx="3" ry="3" style="stroke:#038048;stroke-width:1.0;"/><text fill="#000000" font-family="sans-serif" font-size="11" lengthAdjust="spacing" textLength="120" x="27" y="335.2339">void printInitialHand()</text><ellipse cx="18" cy="344.8281" fill="#84BE84" rx="3" ry="3" style="stroke:#038048;stroke-width:1.0;"/><text fill="#008000" font-family="sans-serif" font-size="11" lengthAdjust="spacing" textLength="137" x="27" y="348.0386">void addCard(Card card)</text><ellipse cx="18" cy="357.6328" fill="#84BE84" rx="3" ry="3" style="stroke:#038048;stroke-width:1.0;"/><text fill="#008000" font-family="sans-serif" font-size="11" lengthAdjust="spacing" textLength="107" x="27" y="360.8433">void printAllCards()</text><ellipse cx="18" cy="370.4375" fill="#84BE84" rx="3" ry="3" style="stroke:#038048;stroke-width:1.0;"/><text fill="#008000" font-family="sans-serif" font-size="11" lengthAdjust="spacing" textLength="78" x="27" y="373.6479">int getScore()</text><ellipse cx="18" cy="383.2422" fill="#84BE84" rx="3" ry="3" style="stroke:#038048;stroke-width:1.0;"/><text fill="#000000" font-family="sans-serif" font-size="11" lengthAdjust="spacing" textLength="123" x="27" y="386.4526">PlayAction hitOrStay()</text><!--MD5=[c9258217e9bf77cef15858c9efd4d2a2]
class HumanPlayer--><rect codeLine="37" fill="#FEFECE" filter="url(#f1wxsmw2dkawbq)" height="278.4844" id="HumanPlayer" style="stroke:#A80036;stroke-width:1.5;" width="203" x="209" y="166"/><ellipse cx="267.75" cy="182" fill="#ADD1B2" rx="11" ry="11" style="stroke:#A80036;stroke-width:1.0;"/><path d="M270.0938,177.6719 C269.1563,177.2344 268.5625,177.0938 267.6875,177.0938 C265.0625,177.0938 263.0625,179.1719 263.0625,181.8906 L263.0625,183.0156 C263.0625,185.5938 265.1719,187.4844 268.0625,187.4844 C269.2813,187.4844 270.4375,187.1875 271.1875,186.6406 C271.7656,186.2344 272.0938,185.7813 272.0938,185.3906 C272.0938,184.9375 271.7031,184.5469 271.2344,184.5469 C271.0156,184.5469 270.8125,184.625 270.625,184.8125 C270.1719,185.2969 270.1719,185.2969 269.9844,185.3906 C269.5625,185.6563 268.875,185.7813 268.1094,185.7813 C266.0625,185.7813 264.7656,184.6875 264.7656,182.9844 L264.7656,181.8906 C264.7656,180.1094 266.0156,178.7969 267.75,178.7969 C268.3281,178.7969 268.9375,178.9531 269.4063,179.2031 C269.8906,179.4844 270.0625,179.7031 270.1563,180.1094 C270.2188,180.5156 270.25,180.6406 270.3906,180.7656 C270.5313,180.9063 270.7656,181.0156 270.9844,181.0156 C271.25,181.0156 271.5156,180.875 271.6875,180.6563 C271.7969,180.5 271.8281,180.3125 271.8281,179.8906 L271.8281,178.4688 C271.8281,178.0313 271.8125,177.9063 271.7188,177.75 C271.5625,177.4844 271.2813,177.3438 270.9844,177.3438 C270.6875,177.3438 270.4844,177.4375 270.2656,177.75 L270.0938,177.6719 Z " fill="#000000"/><text fill="#000000" font-family="sans-serif" font-size="12" lengthAdjust="spacing" textLength="77" x="288.25" y="186.1543">HumanPlayer</text><line style="stroke:#A80036;stroke-width:1.5;" x1="210" x2="411" y1="198" y2="198"/><rect fill="none" height="6" style="stroke:#C82930;stroke-width:1.0;" width="6" x="217" y="206"/><text fill="#000000" font-family="sans-serif" font-size="11" lengthAdjust="spacing" textLength="97" x="229" y="212.2104">Console console;</text><text fill="#000000" font-family="sans-serif" font-size="11" lengthAdjust="spacing" textLength="0" x="233" y="225.0151"/><rect fill="none" height="6" style="stroke:#C82930;stroke-width:1.0;" width="6" x="217" y="231.6094"/><text fill="#000000" font-family="sans-serif" font-size="11" lengthAdjust="spacing" textLength="64" x="229" y="237.8198">Hand hand;</text><rect fill="none" height="6" style="stroke:#C82930;stroke-width:1.0;" width="6" x="217" y="244.4141"/><text fill="#000000" font-family="sans-serif" font-size="11" lengthAdjust="spacing" textLength="104" x="229" y="250.6245">int balance = 100;</text><rect fill="none" height="6" style="stroke:#C82930;stroke-width:1.0;" width="6" x="217" y="257.2188"/><text fill="#000000" font-family="sans-serif" font-size="11" lengthAdjust="spacing" textLength="81" x="229" y="263.4292">int currentBet;</text><line style="stroke:#A80036;stroke-width:1.5;" x1="210" x2="411" y1="270.0234" y2="270.0234"/><ellipse cx="220" cy="281.0234" fill="#84BE84" rx="3" ry="3" style="stroke:#038048;stroke-width:1.0;"/><text fill="#000000" font-family="sans-serif" font-size="11" lengthAdjust="spacing" textLength="177" x="229" y="284.2339">HumanPlayer(Console console)</text><ellipse cx="220" cy="293.8281" fill="#84BE84" rx="3" ry="3" style="stroke:#038048;stroke-width:1.0;"/><text fill="#000000" font-family="sans-serif" font-size="11" lengthAdjust="spacing" textLength="156" x="229" y="297.0386">boolean wantsToContinue()</text><ellipse cx="220" cy="306.6328" fill="#84BE84" rx="3" ry="3" style="stroke:#038048;stroke-width:1.0;"/><text fill="#000000" font-family="sans-serif" font-size="11" lengthAdjust="spacing" textLength="96" x="229" y="309.8433">void startRound()</text><ellipse cx="220" cy="319.4375" fill="#84BE84" rx="3" ry="3" style="stroke:#038048;stroke-width:1.0;"/><text fill="#000000" font-family="sans-serif" font-size="11" lengthAdjust="spacing" textLength="120" x="229" y="322.6479">void printInitialHand()</text><ellipse cx="220" cy="332.2422" fill="#84BE84" rx="3" ry="3" style="stroke:#038048;stroke-width:1.0;"/><text fill="#008000" font-family="sans-serif" font-size="11" lengthAdjust="spacing" textLength="137" x="229" y="335.4526">void addCard(Card card)</text><ellipse cx="220" cy="345.0469" fill="#84BE84" rx="3" ry="3" style="stroke:#038048;stroke-width:1.0;"/><text fill="#008000" font-family="sans-serif" font-size="11" lengthAdjust="spacing" textLength="107" x="229" y="348.2573">void printAllCards()</text><ellipse cx="220" cy="357.8516" fill="#84BE84" rx="3" ry="3" style="stroke:#038048;stroke-width:1.0;"/><text fill="#008000" font-family="sans-serif" font-size="11" lengthAdjust="spacing" textLength="78" x="229" y="361.062">int getScore()</text><ellipse cx="220" cy="370.6563" fill="#84BE84" rx="3" ry="3" style="stroke:#038048;stroke-width:1.0;"/><text fill="#000000" font-family="sans-serif" font-size="11" lengthAdjust="spacing" textLength="123" x="229" y="373.8667">PlayAction hitOrStay()</text><ellipse cx="220" cy="383.4609" fill="#84BE84" rx="3" ry="3" style="stroke:#038048;stroke-width:1.0;"/><text fill="#000000" font-family="sans-serif" font-size="11" lengthAdjust="spacing" textLength="107" x="229" y="386.6714">void printBalance()</text><ellipse cx="220" cy="396.2656" fill="#84BE84" rx="3" ry="3" style="stroke:#038048;stroke-width:1.0;"/><text fill="#000000" font-family="sans-serif" font-size="11" lengthAdjust="spacing" textLength="87" x="229" y="399.4761">void placeBet()</text><ellipse cx="220" cy="409.0703" fill="#84BE84" rx="3" ry="3" style="stroke:#038048;stroke-width:1.0;"/><text fill="#000000" font-family="sans-serif" font-size="11" lengthAdjust="spacing" textLength="92" x="229" y="412.2808">void applyWon()</text><ellipse cx="220" cy="421.875" fill="#84BE84" rx="3" ry="3" style="stroke:#038048;stroke-width:1.0;"/><text fill="#000000" font-family="sans-serif" font-size="11" lengthAdjust="spacing" textLength="90" x="229" y="425.0854">void applyLost()</text><ellipse cx="220" cy="434.6797" fill="#84BE84" rx="3" ry="3" style="stroke:#038048;stroke-width:1.0;"/><text fill="#000000" font-family="sans-serif" font-size="11" lengthAdjust="spacing" textLength="100" x="229" y="437.8901">boolean isBroke()</text><!--MD5=[6120630932363b125bb1d42b4bbf62ab]
reverse link Player to Dealer--><path d="M170.579,124.551 C157.867,153.037 142.881,186.619 129.331,216.982 " fill="none" id="Player-backto-Dealer" style="stroke:#A80036;stroke-width:1.0;stroke-dasharray:7.0,7.0;"/><polygon fill="none" points="164.225,121.612,178.768,106.2,177.01,127.317,164.225,121.612" style="stroke:#A80036;stroke-width:1.0;"/><!--MD5=[480206b57360204782f62575e8914631]
reverse link Player to HumanPlayer--><path d="M230.563,124.869 C236.315,137.758 242.529,151.682 248.861,165.873 " fill="none" id="Player-backto-HumanPlayer" style="stroke:#A80036;stroke-width:1.0;stroke-dasharray:7.0,7.0;"/><polygon fill="none" points="223.99,127.317,222.232,106.2,236.775,121.612,223.99,127.317" style="stroke:#A80036;stroke-width:1.0;"/><!--MD5=[e66f0c76c095a89c4be371414302133c]
link Dealer to Hand--><path codeLine="59" d="M125.003,393.355 C138.275,426.957 153.405,465.263 166.617,498.715 " fill="none" id="Dealer-to-Hand" style="stroke:#A80036;stroke-width:1.0;stroke-dasharray:7.0,7.0;"/><polygon fill="#A80036" points="168.552,503.615,168.9652,493.7748,166.7148,498.9648,161.5248,496.7144,168.552,503.615" style="stroke:#A80036;stroke-width:1.0;"/><!--MD5=[e9659a7ca59bb2f33a5cb623a1d435c5]
link HumanPlayer to Hand--><path codeLine="60" d="M255.983,444.026 C248.576,462.78 241.157,481.563 234.264,499.015 " fill="none" id="HumanPlayer-to-Hand" style="stroke:#A80036;stroke-width:1.0;stroke-dasharray:7.0,7.0;"/><polygon fill="#A80036" points="232.334,503.901,239.3594,496.9985,234.17,499.2503,231.9182,494.0609,232.334,503.901" style="stroke:#A80036;stroke-width:1.0;"/><!--MD5=[66e44f3e1dc4fa914ec2e8357222664a]
@startuml
'https://plantuml.com/class-diagram

interface Player {
    + <color:#green>void addCard(Card card)
    + <color:#green>void printAllCards()
    + <color:#green>int getScore()
    + PlayAction hitOrStay()
}

class Hand {
    - Console console
    - List<Card> hand

    + Hand(Console console)
    + <color:#green>void addCard(Card card)
    + void printFirstCard()
    + <color:#green>void printAllCards()
    + <color:#green>int getScore()
    - void printCardsUpTo(int to)
    - {static} int getScoreOfRank(Rank rank)
}

class Dealer implements Player {
    - Console console;

    - Hand hand;

    + Dealer(Console console)
    + void startRound()
    + void printInitialHand()
    + <color:#green>void addCard(Card card)
    + <color:#green>void printAllCards()
    + <color:#green>int getScore()
    + PlayAction hitOrStay()
}

class HumanPlayer implements Player {
    - Console console;

    - Hand hand;
    - int balance = 100;
    - int currentBet;

    + HumanPlayer(Console console)
    + boolean wantsToContinue()
    + void startRound()
    + void printInitialHand()
    + <color:#green>void addCard(Card card)
    + <color:#green>void printAllCards()
    + <color:#green>int getScore()
    + PlayAction hitOrStay()
    + void printBalance()
    + void placeBet()
    + void applyWon()
    + void applyLost()
    + boolean isBroke()
}

Dealer ..> Hand
HumanPlayer ..> Hand
@enduml

@startuml

interface Player {
    + <color:#green>void addCard(Card card)
    + <color:#green>void printAllCards()
    + <color:#green>int getScore()
    + PlayAction hitOrStay()
}

class Hand {
    - Console console
    - List<Card> hand

    + Hand(Console console)
    + <color:#green>void addCard(Card card)
    + void printFirstCard()
    + <color:#green>void printAllCards()
    + <color:#green>int getScore()
    - void printCardsUpTo(int to)
    - {static} int getScoreOfRank(Rank rank)
}

class Dealer implements Player {
    - Console console;

    - Hand hand;

    + Dealer(Console console)
    + void startRound()
    + void printInitialHand()
    + <color:#green>void addCard(Card card)
    + <color:#green>void printAllCards()
    + <color:#green>int getScore()
    + PlayAction hitOrStay()
}

class HumanPlayer implements Player {
    - Console console;

    - Hand hand;
    - int balance = 100;
    - int currentBet;

    + HumanPlayer(Console console)
    + boolean wantsToContinue()
    + void startRound()
    + void printInitialHand()
    + <color:#green>void addCard(Card card)
    + <color:#green>void printAllCards()
    + <color:#green>int getScore()
    + PlayAction hitOrStay()
    + void printBalance()
    + void placeBet()
    + void applyWon()
    + void applyLost()
    + boolean isBroke()
}

Dealer ..> Hand
HumanPlayer ..> Hand
@enduml

PlantUML version 1.2021.17beta3(Unknown compile time)
(GPL source distribution)
Java Runtime: Java(TM) SE Runtime Environment
JVM: Java HotSpot(TM) 64-Bit Server VM
Default Encoding: UTF-8
Language: en
Country: US
--></g></svg>