<?xml version="1.0" encoding="UTF-8" standalone="no"?><svg xmlns="http://www.w3.org/2000/svg" xmlns:xlink="http://www.w3.org/1999/xlink" contentScriptType="application/ecmascript" contentStyleType="text/css" height="133px" preserveAspectRatio="none" style="width:176px;height:133px;background:#FFFFFF;" version="1.1" viewBox="0 0 176 133" width="176px" zoomAndPan="magnify"><defs><filter height="300%" id="fkxdi31805yi2" width="300%" x="-1" y="-1"><feGaussianBlur result="blurOut" stdDeviation="2.0"/><feColorMatrix in="blurOut" result="blurOut2" type="matrix" values="0 0 0 0 0 0 0 0 0 0 0 0 0 0 0 0 0 0 .4 0"/><feOffset dx="4.0" dy="4.0" in="blurOut2" result="blurOut3"/><feBlend in="SourceGraphic" in2="blurOut3" mode="normal"/></filter></defs><g><!--MD5=[315b61b427ec618d6861d47eee00cca3]
class Console--><rect codeLine="3" fill="#FEFECE" filter="url(#fkxdi31805yi2)" height="112.0234" id="Console" style="stroke:#A80036;stroke-width:1.5;" width="155" x="7" y="7"/><ellipse cx="55.75" cy="23" fill="#ADD1B2" rx="11" ry="11" style="stroke:#A80036;stroke-width:1.0;"/><path d="M58.0938,18.6719 C57.1563,18.2344 56.5625,18.0938 55.6875,18.0938 C53.0625,18.0938 51.0625,20.1719 51.0625,22.8906 L51.0625,24.0156 C51.0625,26.5938 53.1719,28.4844 56.0625,28.4844 C57.2813,28.4844 58.4375,28.1875 59.1875,27.6406 C59.7656,27.2344 60.0938,26.7813 60.0938,26.3906 C60.0938,25.9375 59.7031,25.5469 59.2344,25.5469 C59.0156,25.5469 58.8125,25.625 58.625,25.8125 C58.1719,26.2969 58.1719,26.2969 57.9844,26.3906 C57.5625,26.6563 56.875,26.7813 56.1094,26.7813 C54.0625,26.7813 52.7656,25.6875 52.7656,23.9844 L52.7656,22.8906 C52.7656,21.1094 54.0156,19.7969 55.75,19.7969 C56.3281,19.7969 56.9375,19.9531 57.4063,20.2031 C57.8906,20.4844 58.0625,20.7031 58.1563,21.1094 C58.2188,21.5156 58.25,21.6406 58.3906,21.7656 C58.5313,21.9063 58.7656,22.0156 58.9844,22.0156 C59.25,22.0156 59.5156,21.875 59.6875,21.6563 C59.7969,21.5 59.8281,21.3125 59.8281,20.8906 L59.8281,19.4688 C59.8281,19.0313 59.8125,18.9063 59.7188,18.75 C59.5625,18.4844 59.2813,18.3438 58.9844,18.3438 C58.6875,18.3438 58.4844,18.4375 58.2656,18.75 L58.0938,18.6719 Z " fill="#000000"/><text fill="#000000" font-family="sans-serif" font-size="12" lengthAdjust="spacing" textLength="49" x="76.25" y="27.1543">Console</text><line style="stroke:#A80036;stroke-width:1.5;" x1="8" x2="161" y1="39" y2="39"/><rect fill="none" height="6" style="stroke:#C82930;stroke-width:1.0;" width="6" x="15" y="47"/><text fill="#000000" font-family="sans-serif" font-size="11" lengthAdjust="spacing" text-decoration="underline" textLength="98" x="27" y="53.2104">Console instance</text><line style="stroke:#A80036;stroke-width:1.5;" x1="8" x2="161" y1="59.8047" y2="59.8047"/><ellipse cx="18" cy="70.8047" fill="#84BE84" rx="3" ry="3" style="stroke:#038048;stroke-width:1.0;"/><text fill="#000000" font-family="sans-serif" font-size="11" lengthAdjust="spacing" text-decoration="underline" textLength="125" x="27" y="74.0151">Console getInstance()</text><rect fill="#F24D5C" height="6" style="stroke:#C82930;stroke-width:1.0;" width="6" x="15" y="80.6094"/><text fill="#000000" font-family="sans-serif" font-size="11" lengthAdjust="spacing" textLength="54" x="27" y="86.8198">Console()</text><ellipse cx="18" cy="96.4141" fill="#84BE84" rx="3" ry="3" style="stroke:#038048;stroke-width:1.0;"/><text fill="#000000" font-family="sans-serif" font-size="11" lengthAdjust="spacing" textLength="129" x="27" y="99.6245">void print(String string)</text><ellipse cx="18" cy="109.2188" fill="#84BE84" rx="3" ry="3" style="stroke:#038048;stroke-width:1.0;"/><text fill="#000000" font-family="sans-serif" font-size="11" lengthAdjust="spacing" textLength="118" x="27" y="112.4292">String getUserInput()</text><!--MD5=[353a3a7d96935194bc6d0a3c556fe344]
@startuml
'https://plantuml.com/class-diagram

class Console {
    - {static} Console instance
    + {static} Console getInstance()
    - Console()
    + void print(String string)
    + String getUserInput()
}
@enduml

@startuml

class Console {
    - {static} Console instance
    + {static} Console getInstance()
    - Console()
    + void print(String string)
    + String getUserInput()
}
@enduml

PlantUML version 1.2021.15beta8(Unknown compile time)
(GPL source distribution)
Java Runtime: Java(TM) SE Runtime Environment
JVM: Java HotSpot(TM) 64-Bit Server VM
Default Encoding: UTF-8
Language: en
Country: US
--></g></svg>