<?xml version="1.0" encoding="UTF-8" standalone="no"?><svg xmlns="http://www.w3.org/2000/svg" xmlns:xlink="http://www.w3.org/1999/xlink" contentScriptType="application/ecmascript" contentStyleType="text/css" height="690px" preserveAspectRatio="none" style="width:1432px;height:690px;background:#FFFFFF;" version="1.1" viewBox="0 0 1432 690" width="1432px" zoomAndPan="magnify"><defs><filter height="300%" id="fm3ek66zsrgth" width="300%" x="-1" y="-1"><feGaussianBlur result="blurOut" stdDeviation="2.0"/><feColorMatrix in="blurOut" result="blurOut2" type="matrix" values="0 0 0 0 0 0 0 0 0 0 0 0 0 0 0 0 0 0 .4 0"/><feOffset dx="4.0" dy="4.0" in="blurOut2" result="blurOut3"/><feBlend in="SourceGraphic" in2="blurOut3" mode="normal"/></filter></defs><g><!--MD5=[5190a5b48825747bb8971cef3dd054c9]
cluster gamelogic--><rect fill="#FFFFFF" filter="url(#fm3ek66zsrgth)" height="247" style="stroke:#000000;stroke-width:1.5;" width="633" x="301.8815" y="7"/><text fill="#000000" font-family="sans-serif" font-size="14" font-weight="bold" lengthAdjust="spacing" textLength="89" x="573.8815" y="21.9951">GameLogic</text><!--MD5=[2f74336157ef17ab5547a5f506e0d64b]
cluster board--><rect fill="#FFFFFF" filter="url(#fm3ek66zsrgth)" height="157" style="stroke:#000000;stroke-width:1.5;" width="563" x="185.8815" y="521"/><text fill="#000000" font-family="sans-serif" font-size="14" font-weight="bold" lengthAdjust="spacing" textLength="48" x="443.3815" y="535.9951">Board</text><!--MD5=[860b7508bd0818ef5de66c25436d111c]
cluster winconditions--><rect fill="#FFFFFF" filter="url(#fm3ek66zsrgth)" height="126" style="stroke:#000000;stroke-width:1.5;" width="436.9996" x="63.8819" y="324.5"/><text fill="#000000" font-family="sans-serif" font-size="14" font-weight="bold" lengthAdjust="spacing" textLength="161" x="201.8817" y="339.4951">List&lt;WinCondition&gt;</text><!--MD5=[e77d2d9046e41d3b4148c9761b8b60ec]
cluster boardprinter--><rect fill="#FFFFFF" filter="url(#fm3ek66zsrgth)" height="126" style="stroke:#000000;stroke-width:1.5;" width="331" x="540.8815" y="324.5"/><text fill="#000000" font-family="sans-serif" font-size="14" font-weight="bold" lengthAdjust="spacing" textLength="104" x="654.3815" y="339.4951">BoardPrinter</text><!--MD5=[0b500c664c088fe959a03579850083bc]
cluster move--><rect fill="#FFFFFF" filter="url(#fm3ek66zsrgth)" height="126" style="stroke:#000000;stroke-width:1.5;" width="509.002" x="911.8815" y="536.5"/><text fill="#000000" font-family="sans-serif" font-size="14" font-weight="bold" lengthAdjust="spacing" textLength="42" x="1145.3825" y="551.4951">Move</text><!--MD5=[2cf3e09fbb7893d788e36f8f47898fcb]
cluster rules--><rect fill="#FFFFFF" filter="url(#fm3ek66zsrgth)" height="187" style="stroke:#000000;stroke-width:1.5;" width="379.002" x="911.8815" y="294"/><text fill="#000000" font-family="sans-serif" font-size="14" font-weight="bold" lengthAdjust="spacing" textLength="88" x="1057.3825" y="308.9951">List&lt;Rule&gt;</text><path d="M345.3815,50 L345.3815,230.4609 L910.3815,230.4609 L910.3815,60 L900.3815,50 L345.3815,50 " fill="#FBFB77" filter="url(#fm3ek66zsrgth)" style="stroke:#A80036;stroke-width:1.0;"/><path d="M900.3815,50 L900.3815,60 L910.3815,60 L900.3815,50 " fill="#FBFB77" style="stroke:#A80036;stroke-width:1.0;"/><text fill="#000000" font-family="sans-serif" font-size="13" font-weight="bold" lengthAdjust="spacing" textLength="117" x="356.3815" y="69.0669">Responsibilities</text><text fill="#000000" font-family="sans-serif" font-size="13" font-weight="bold" lengthAdjust="spacing" textLength="105" x="766.3815" y="69.0669">Collaborators</text><text fill="#000000" font-family="sans-serif" font-size="13" lengthAdjust="spacing" textLength="164" x="355.3815" y="84.1997">knows which players play</text><text fill="#000000" font-family="sans-serif" font-size="13" lengthAdjust="spacing" textLength="37" x="765.3815" y="84.1997">Board</text><text fill="#000000" font-family="sans-serif" font-size="13" lengthAdjust="spacing" textLength="154" x="355.3815" y="99.3325">print welcome message</text><text fill="#000000" font-family="sans-serif" font-size="13" lengthAdjust="spacing" textLength="70" x="765.3815" y="99.3325">List&lt;Rule&gt;</text><text fill="#000000" font-family="sans-serif" font-size="13" lengthAdjust="spacing" textLength="168" x="355.3815" y="114.4653">Print instructions to player</text><text fill="#000000" font-family="sans-serif" font-size="13" lengthAdjust="spacing" textLength="126" x="765.3815" y="114.4653">List&lt;WinCondition&gt;</text><text fill="#000000" font-family="sans-serif" font-size="13" lengthAdjust="spacing" textLength="402" x="355.3815" y="129.5981">decide which player should move (attention, double Jump rule)</text><text fill="#000000" font-family="sans-serif" font-size="13" lengthAdjust="spacing" textLength="79" x="765.3815" y="129.5981">BoardPrinter</text><text fill="#000000" font-family="sans-serif" font-size="13" lengthAdjust="spacing" textLength="132" x="355.3815" y="144.731">check win conditions</text><text fill="#000000" font-family="sans-serif" font-size="13" lengthAdjust="spacing" textLength="118" x="355.3815" y="159.8638">print win message</text><text fill="#000000" font-family="sans-serif" font-size="13" lengthAdjust="spacing" textLength="268" x="355.3815" y="174.9966">check that input move has correct format</text><text fill="#000000" font-family="sans-serif" font-size="13" lengthAdjust="spacing" textLength="138" x="355.3815" y="190.1294">check if move is valid</text><text fill="#000000" font-family="sans-serif" font-size="13" lengthAdjust="spacing" textLength="141" x="355.3815" y="205.2622">get move from player</text><text fill="#000000" font-family="sans-serif" font-size="13" lengthAdjust="spacing" textLength="127" x="355.3815" y="220.395">print error message</text><line style="stroke:#000000;stroke-width:1.0;" x1="351.3815" x2="895.3815" y1="57" y2="57"/><line style="stroke:#000000;stroke-width:1.0;" x1="351.3815" x2="895.3815" y1="72.1328" y2="72.1328"/><line style="stroke:#000000;stroke-width:1.0;" x1="351.3815" x2="895.3815" y1="87.2656" y2="87.2656"/><line style="stroke:#000000;stroke-width:1.0;" x1="351.3815" x2="895.3815" y1="102.3984" y2="102.3984"/><line style="stroke:#000000;stroke-width:1.0;" x1="351.3815" x2="895.3815" y1="117.5313" y2="117.5313"/><line style="stroke:#000000;stroke-width:1.0;" x1="351.3815" x2="895.3815" y1="132.6641" y2="132.6641"/><line style="stroke:#000000;stroke-width:1.0;" x1="351.3815" x2="895.3815" y1="147.7969" y2="147.7969"/><line style="stroke:#000000;stroke-width:1.0;" x1="351.3815" x2="895.3815" y1="162.9297" y2="162.9297"/><line style="stroke:#000000;stroke-width:1.0;" x1="351.3815" x2="895.3815" y1="178.0625" y2="178.0625"/><line style="stroke:#000000;stroke-width:1.0;" x1="351.3815" x2="895.3815" y1="193.1953" y2="193.1953"/><line style="stroke:#000000;stroke-width:1.0;" x1="351.3815" x2="895.3815" y1="208.3281" y2="208.3281"/><line style="stroke:#000000;stroke-width:1.0;" x1="351.3815" x2="895.3815" y1="223.4609" y2="223.4609"/><line style="stroke:#000000;stroke-width:1.0;" x1="351.3815" x2="351.3815" y1="57" y2="223.4609"/><line style="stroke:#000000;stroke-width:1.0;" x1="761.3815" x2="761.3815" y1="57" y2="223.4609"/><line style="stroke:#000000;stroke-width:1.0;" x1="895.3815" x2="895.3815" y1="57" y2="223.4609"/><path d="M228.8815,564 L228.8815,653.6641 L724.8815,653.6641 L724.8815,574 L714.8815,564 L228.8815,564 " fill="#FBFB77" filter="url(#fm3ek66zsrgth)" style="stroke:#A80036;stroke-width:1.0;"/><path d="M714.8815,564 L714.8815,574 L724.8815,574 L714.8815,564 " fill="#FBFB77" style="stroke:#A80036;stroke-width:1.0;"/><text fill="#000000" font-family="sans-serif" font-size="13" font-weight="bold" lengthAdjust="spacing" textLength="117" x="239.8815" y="583.0669">Responsibilities</text><text fill="#000000" font-family="sans-serif" font-size="13" font-weight="bold" lengthAdjust="spacing" textLength="105" x="599.8815" y="583.0669">Collaborators</text><text fill="#000000" font-family="sans-serif" font-size="13" lengthAdjust="spacing" textLength="101" x="238.8815" y="598.1997">create init state</text><text fill="#000000" font-family="sans-serif" font-size="13" lengthAdjust="spacing" textLength="75" x="238.8815" y="613.3325">move piece</text><text fill="#000000" font-family="sans-serif" font-size="13" lengthAdjust="spacing" textLength="352" x="238.8815" y="628.4653">decide if piece was captured and maybe remove piece</text><text fill="#000000" font-family="sans-serif" font-size="13" lengthAdjust="spacing" textLength="172" x="238.8815" y="643.5981">Decide if transform to King</text><line style="stroke:#000000;stroke-width:1.0;" x1="234.8815" x2="709.8815" y1="571" y2="571"/><line style="stroke:#000000;stroke-width:1.0;" x1="234.8815" x2="709.8815" y1="586.1328" y2="586.1328"/><line style="stroke:#000000;stroke-width:1.0;" x1="234.8815" x2="709.8815" y1="601.2656" y2="601.2656"/><line style="stroke:#000000;stroke-width:1.0;" x1="234.8815" x2="709.8815" y1="616.3984" y2="616.3984"/><line style="stroke:#000000;stroke-width:1.0;" x1="234.8815" x2="709.8815" y1="631.5313" y2="631.5313"/><line style="stroke:#000000;stroke-width:1.0;" x1="234.8815" x2="709.8815" y1="646.6641" y2="646.6641"/><line style="stroke:#000000;stroke-width:1.0;" x1="234.8815" x2="234.8815" y1="571" y2="646.6641"/><line style="stroke:#000000;stroke-width:1.0;" x1="594.8815" x2="594.8815" y1="571" y2="646.6641"/><line style="stroke:#000000;stroke-width:1.0;" x1="709.8815" x2="709.8815" y1="571" y2="646.6641"/><path d="M106.8819,367.5 L106.8819,426.8984 L476.8819,426.8984 L476.8819,377.5 L466.8819,367.5 L106.8819,367.5 " fill="#FBFB77" filter="url(#fm3ek66zsrgth)" style="stroke:#A80036;stroke-width:1.0;"/><path d="M466.8819,367.5 L466.8819,377.5 L476.8819,377.5 L466.8819,367.5 " fill="#FBFB77" style="stroke:#A80036;stroke-width:1.0;"/><text fill="#000000" font-family="sans-serif" font-size="13" lengthAdjust="spacing" textLength="341" x="116.8819" y="386.5669">One subclass of WinCondition for every win condition</text><text fill="#000000" font-family="sans-serif" font-size="13" font-weight="bold" lengthAdjust="spacing" textLength="117" x="117.8819" y="401.6997">Responsibilities</text><text fill="#000000" font-family="sans-serif" font-size="13" lengthAdjust="spacing" textLength="176" x="116.8819" y="416.8325">decide if condition was met</text><line style="stroke:#000000;stroke-width:1.0;" x1="112.8819" x2="461.8819" y1="374.5" y2="374.5"/><line style="stroke:#000000;stroke-width:1.0;" x1="112.8819" x2="461.8819" y1="389.6328" y2="389.6328"/><line style="stroke:#000000;stroke-width:1.0;" x1="112.8819" x2="461.8819" y1="404.7656" y2="404.7656"/><line style="stroke:#000000;stroke-width:1.0;" x1="112.8819" x2="461.8819" y1="419.8984" y2="419.8984"/><line style="stroke:#000000;stroke-width:1.0;" x1="112.8819" x2="112.8819" y1="374.5" y2="419.8984"/><line style="stroke:#000000;stroke-width:1.0;" x1="461.8819" x2="461.8819" y1="374.5" y2="419.8984"/><path d="M584.3815,367.5 L584.3815,426.8984 L847.3815,426.8984 L847.3815,377.5 L837.3815,367.5 L584.3815,367.5 " fill="#FBFB77" filter="url(#fm3ek66zsrgth)" style="stroke:#A80036;stroke-width:1.0;"/><path d="M837.3815,367.5 L837.3815,377.5 L847.3815,377.5 L837.3815,367.5 " fill="#FBFB77" style="stroke:#A80036;stroke-width:1.0;"/><text fill="#000000" font-family="sans-serif" font-size="13" font-weight="bold" lengthAdjust="spacing" textLength="99" x="595.3815" y="386.5669">BoardPrinter</text><text fill="#000000" font-family="sans-serif" font-size="13" font-weight="bold" lengthAdjust="spacing" textLength="0" x="722.3815" y="386.5669"/><text fill="#000000" font-family="sans-serif" font-size="13" font-weight="bold" lengthAdjust="spacing" textLength="117" x="595.3815" y="401.6997">Responsibilities</text><text fill="#000000" font-family="sans-serif" font-size="13" font-weight="bold" lengthAdjust="spacing" textLength="105" x="722.3815" y="401.6997">Collaborators</text><text fill="#000000" font-family="sans-serif" font-size="13" lengthAdjust="spacing" textLength="70" x="594.3815" y="416.8325">print board</text><text fill="#000000" font-family="sans-serif" font-size="13" lengthAdjust="spacing" textLength="37" x="721.3815" y="416.8325">Board</text><line style="stroke:#000000;stroke-width:1.0;" x1="590.3815" x2="832.3815" y1="374.5" y2="374.5"/><line style="stroke:#000000;stroke-width:1.0;" x1="590.3815" x2="832.3815" y1="389.6328" y2="389.6328"/><line style="stroke:#000000;stroke-width:1.0;" x1="590.3815" x2="832.3815" y1="404.7656" y2="404.7656"/><line style="stroke:#000000;stroke-width:1.0;" x1="590.3815" x2="832.3815" y1="419.8984" y2="419.8984"/><line style="stroke:#000000;stroke-width:1.0;" x1="590.3815" x2="590.3815" y1="374.5" y2="419.8984"/><line style="stroke:#000000;stroke-width:1.0;" x1="717.3815" x2="717.3815" y1="374.5" y2="419.8984"/><line style="stroke:#000000;stroke-width:1.0;" x1="832.3815" x2="832.3815" y1="374.5" y2="419.8984"/><path d="M954.8815,579.5 L954.8815,638.8984 L1396.8815,638.8984 L1396.8815,589.5 L1386.8815,579.5 L954.8815,579.5 " fill="#FBFB77" filter="url(#fm3ek66zsrgth)" style="stroke:#A80036;stroke-width:1.0;"/><path d="M1386.8815,579.5 L1386.8815,589.5 L1396.8815,589.5 L1386.8815,579.5 " fill="#FBFB77" style="stroke:#A80036;stroke-width:1.0;"/><text fill="#000000" font-family="sans-serif" font-size="13" font-weight="bold" lengthAdjust="spacing" textLength="40" x="965.8815" y="598.5669">Move</text><text fill="#000000" font-family="sans-serif" font-size="13" font-weight="bold" lengthAdjust="spacing" textLength="0" x="1271.8815" y="598.5669"/><text fill="#000000" font-family="sans-serif" font-size="13" font-weight="bold" lengthAdjust="spacing" textLength="117" x="965.8815" y="613.6997">Responsibilities</text><text fill="#000000" font-family="sans-serif" font-size="13" font-weight="bold" lengthAdjust="spacing" textLength="105" x="1271.8815" y="613.6997">Collaborators</text><text fill="#000000" font-family="sans-serif" font-size="13" lengthAdjust="spacing" textLength="298" x="964.8815" y="628.8325">hold move parameters (From field A to field B)</text><line style="stroke:#000000;stroke-width:1.0;" x1="960.8815" x2="1381.8815" y1="586.5" y2="586.5"/><line style="stroke:#000000;stroke-width:1.0;" x1="960.8815" x2="1381.8815" y1="601.6328" y2="601.6328"/><line style="stroke:#000000;stroke-width:1.0;" x1="960.8815" x2="1381.8815" y1="616.7656" y2="616.7656"/><line style="stroke:#000000;stroke-width:1.0;" x1="960.8815" x2="1381.8815" y1="631.8984" y2="631.8984"/><line style="stroke:#000000;stroke-width:1.0;" x1="960.8815" x2="960.8815" y1="586.5" y2="631.8984"/><line style="stroke:#000000;stroke-width:1.0;" x1="1266.8815" x2="1266.8815" y1="586.5" y2="631.8984"/><line style="stroke:#000000;stroke-width:1.0;" x1="1381.8815" x2="1381.8815" y1="586.5" y2="631.8984"/><path d="M955.3815,337 L955.3815,456.9297 L1266.3815,456.9297 L1266.3815,347 L1256.3815,337 L955.3815,337 " fill="#FBFB77" filter="url(#fm3ek66zsrgth)" style="stroke:#A80036;stroke-width:1.0;"/><path d="M1256.3815,337 L1256.3815,347 L1266.3815,347 L1256.3815,337 " fill="#FBFB77" style="stroke:#A80036;stroke-width:1.0;"/><text fill="#000000" font-family="sans-serif" font-size="13" lengthAdjust="spacing" textLength="225" x="965.3815" y="356.0669">One subclass of Rule for every rule</text><text fill="#000000" font-family="sans-serif" font-size="13" font-weight="bold" lengthAdjust="spacing" textLength="117" x="966.3815" y="371.1997">Responsibilities</text><text fill="#000000" font-family="sans-serif" font-size="13" lengthAdjust="spacing" textLength="233" x="965.3815" y="386.3325">Is there a piece of the correct player</text><text fill="#000000" font-family="sans-serif" font-size="13" lengthAdjust="spacing" textLength="133" x="965.3815" y="401.4653">Target field is empty</text><text fill="#000000" font-family="sans-serif" font-size="13" lengthAdjust="spacing" textLength="279" x="965.3815" y="416.5981">If jump move: is a opponent piece between</text><text fill="#000000" font-family="sans-serif" font-size="13" lengthAdjust="spacing" textLength="282" x="965.3815" y="431.731">If not jump move: is no jump move possible</text><text fill="#000000" font-family="sans-serif" font-size="13" lengthAdjust="spacing" textLength="279" x="965.3815" y="446.8638">If king: can move diagonally in all directions</text><line style="stroke:#000000;stroke-width:1.0;" x1="961.3815" x2="1251.3815" y1="344" y2="344"/><line style="stroke:#000000;stroke-width:1.0;" x1="961.3815" x2="1251.3815" y1="359.1328" y2="359.1328"/><line style="stroke:#000000;stroke-width:1.0;" x1="961.3815" x2="1251.3815" y1="374.2656" y2="374.2656"/><line style="stroke:#000000;stroke-width:1.0;" x1="961.3815" x2="1251.3815" y1="389.3984" y2="389.3984"/><line style="stroke:#000000;stroke-width:1.0;" x1="961.3815" x2="1251.3815" y1="404.5313" y2="404.5313"/><line style="stroke:#000000;stroke-width:1.0;" x1="961.3815" x2="1251.3815" y1="419.6641" y2="419.6641"/><line style="stroke:#000000;stroke-width:1.0;" x1="961.3815" x2="1251.3815" y1="434.7969" y2="434.7969"/><line style="stroke:#000000;stroke-width:1.0;" x1="961.3815" x2="1251.3815" y1="449.9297" y2="449.9297"/><line style="stroke:#000000;stroke-width:1.0;" x1="961.3815" x2="961.3815" y1="344" y2="449.9297"/><line style="stroke:#000000;stroke-width:1.0;" x1="1251.3815" x2="1251.3815" y1="344" y2="449.9297"/><!--MD5=[c6ba2ec01c0377238987786e747b175a]
link gamelogic to board--><path d="M301.8792,142.3308 C301.2379,142.4459 300.561,142.5689 299.8498,142.7002 C294.1604,143.7504 286.273,145.3257 276.7667,147.5312 C257.7541,151.9423 232.266,158.8744 204.9344,169.1683 C150.2713,189.756 88.2347,223.791 55.8819,278 C6,361.58 13.8342,409.217 55.8819,497 C72.6179,531.9395 106.3098,559.375 136.2123,578.2292 C151.1636,587.6564 165.1675,594.9382 175.6309,599.9399 C178.2468,601.1904 180.6413,602.2983 182.7741,603.2617 C183.8405,603.7434 184.8414,604.1889 185.7719,604.598 " fill="none" id="gamelogic-to-board" style="stroke:#A80036;stroke-width:1.0;"/><polygon fill="#A80036" points="185.7719,604.598,179.1432,597.3137,181.1948,602.5854,175.9231,604.6371,185.7719,604.598" style="stroke:#A80036;stroke-width:1.0;"/><!--MD5=[aa5880e068340dffb44a632c3effeeba]
link gamelogic to rules--><path d="M316.0461,254.3397 C316.1562,254.5269 316.2672,254.7137 316.3791,254.8999 C316.6028,255.2724 316.8298,255.6427 317.0604,256.0108 C317.5214,256.747 317.9963,257.4744 318.4852,258.1925 C319.4631,259.6287 320.4973,261.0277 321.5907,262.3852 C323.7774,265.1003 326.2004,267.6497 328.8815,270 C351.2345,289.595 838.8775,261.926 863.8815,278 C887.916,293.45 901.8575,322.2768 909.819,347.5698 C910.3166,349.1506 910.7908,350.7176 911.2427,352.2666 C911.3557,352.6539 911.4672,353.0401 911.5774,353.425 C911.6325,353.6175 911.6873,353.8097 911.7417,354.0016 " fill="none" id="gamelogic-to-rules" style="stroke:#A80036;stroke-width:1.0;"/><polygon fill="#A80036" points="911.7417,354.0016,913.1349,344.2518,910.3777,349.1912,905.4383,346.4341,911.7417,354.0016" style="stroke:#A80036;stroke-width:1.0;"/><!--MD5=[3dc95711368eaf5a50b22564123d4e33]
link gamelogic to winconditions--><path d="M301.5691,143.4187 C296.8472,144.8599 290.2902,146.9541 282.3596,149.7257 C266.4983,155.2687 245.1422,163.5209 221.9813,174.6764 C175.6596,196.9873 122.1192,230.911 90.8819,278 C83.6555,288.8935 78.8351,301.5717 75.6742,314.4964 C74.884,317.7276 74.1975,320.9742 73.6031,324.2122 " fill="none" id="gamelogic-to-winconditions" style="stroke:#A80036;stroke-width:1.0;"/><polygon fill="#A80036" points="73.6031,324.2122,79.1624,316.0824,74.5059,319.2944,71.2939,314.6378,73.6031,324.2122" style="stroke:#A80036;stroke-width:1.0;"/><!--MD5=[64c0e213f99de6e10bf62277ee3934e0]
link gamelogic to boardprinter--><path d="M316.227,254.137 C316.3357,254.3259 316.4453,254.5142 316.5557,254.7021 C316.7765,255.0778 317.0006,255.4514 317.2281,255.8229 C317.6831,256.5659 318.1516,257.3004 318.634,258.0259 C319.5987,259.4768 320.6187,260.8917 321.6967,262.2665 C323.8527,265.0159 326.2406,267.6047 328.8815,270 C342.3955,282.256 477.7045,267.877 492.8815,278 C516.6515,293.854 530.589,322.687 538.6146,347.8823 C539.1162,349.457 539.5947,351.0174 540.0511,352.5597 C540.2793,353.3308 540.5019,354.0973 540.7192,354.8588 C540.7735,355.0492 540.8275,355.2392 540.8811,355.429 " fill="none" id="gamelogic-to-boardprinter" style="stroke:#A80036;stroke-width:1.0;"/><polygon fill="#A80036" points="540.8811,355.429,542.2819,345.6802,539.5209,350.6175,534.5836,347.8565,540.8811,355.429" style="stroke:#A80036;stroke-width:1.0;"/><!--MD5=[818e5202a4440cb719888958d47bd191]
link winconditions to board--><path d="M76.4585,450.8826 C76.5798,451.5545 76.7043,452.2284 76.832,452.9041 C77.0875,454.2554 77.356,455.6136 77.6382,456.9766 C78.2027,459.7025 78.822,462.4472 79.5015,465.1924 C82.2195,476.1735 85.9001,487.164 90.8819,497 C105.8488,526.5505 131.0342,553.9018 152.7536,574.0602 C163.6133,584.1394 173.6065,592.4204 181.0227,598.2789 C181.9497,599.0112 182.8365,599.7056 183.6796,600.361 C184.1012,600.6887 184.5119,601.0067 184.9112,601.3147 C185.1109,601.4687 185.3078,601.6202 185.5017,601.7692 C185.5987,601.8437 185.695,601.9176 185.7905,601.9909 " fill="none" id="winconditions-to-board" style="stroke:#A80036;stroke-width:1.0;"/><polygon fill="#A80036" points="185.7905,601.9909,181.0828,593.34,181.8228,598.9483,176.2146,599.6883,185.7905,601.9909" style="stroke:#A80036;stroke-width:1.0;"/><!--MD5=[4d329ea7464e233e29a859656c9a9e2e]
link boardprinter to board--><path d="M540.8606,427.638 C540.8075,427.7922 540.7541,427.9467 540.7005,428.1016 C540.5932,428.4112 540.4846,428.7222 540.3749,429.0345 C540.1554,429.659 539.9311,430.2886 539.7019,430.9227 C538.7851,433.4594 537.7901,436.0698 536.7125,438.726 C528.092,459.9758 514.193,484.159 492.8815,497 C466.2235,513.063 236.5155,484.749 212.8815,505 C208.5321,508.727 204.9654,513.0963 202.0547,517.8934 C201.6908,518.493 201.3372,519.0993 200.9936,519.7119 C200.8218,520.0182 200.6525,520.326 200.4857,520.6354 " fill="none" id="boardprinter-to-board" style="stroke:#A80036;stroke-width:1.0;"/><polygon fill="#A80036" points="200.4857,520.6354,208.2782,514.6123,202.8589,516.2345,201.2367,510.8152,200.4857,520.6354" style="stroke:#A80036;stroke-width:1.0;"/><!--MD5=[337e2c7e7b2f26b3e198bffa8ca3c1b8]
link rules to move--><path d="M919.8815,481.7089 C919.8815,482.489 919.8815,483.2708 919.8815,484.0541 C919.8815,490.3202 919.8815,496.6794 919.8815,503.0384 C919.8815,509.3975 919.8815,515.7563 919.8815,522.0216 C919.8815,525.1543 919.8815,528.2636 919.8815,531.3379 C919.8815,532.875 919.8815,534.4034 919.8815,535.9216 C919.8815,536.1114 919.8815,536.301 919.8815,536.4904 " fill="none" id="rules-to-move" style="stroke:#A80036;stroke-width:1.0;"/><polygon fill="#A80036" points="919.8815,536.4904,923.8815,527.4904,919.8815,531.4904,915.8815,527.4904,919.8815,536.4904" style="stroke:#A80036;stroke-width:1.0;"/><!--MD5=[da2f4759a684b38a39f9d568d729a1a9]
link rules to board--><path d="M911.7654,428.2111 C911.6586,428.5216 911.5506,428.8335 911.4413,429.1466 C911.2228,429.7727 910.9995,430.4039 910.7713,431.0397 C909.8583,433.5828 908.8668,436.1991 907.7924,438.8606 C899.197,460.1525 885.2965,484.333 863.8815,497 C848.3165,506.207 226.7095,493.345 212.8815,505 C208.5019,508.6915 204.9124,513.034 201.9849,517.8115 C201.619,518.4086 201.2634,519.0126 200.9179,519.623 C200.7451,519.9281 200.5749,520.2349 200.4072,520.5432 " fill="none" id="rules-to-board" style="stroke:#A80036;stroke-width:1.0;"/><polygon fill="#A80036" points="200.4072,520.5432,208.2219,514.5491,202.7967,516.1511,201.1946,510.7259,200.4072,520.5432" style="stroke:#A80036;stroke-width:1.0;"/><!--MD5=[428434abdefb47aeef1dc36d1ac80f7e]
@startuml
rectangle "GameLogic" as gamelogic {
    note as gamelogicnote
      |= Responsibilities |= Collaborators |
      | knows which players play | Board |
      | print welcome message | List<Rule> |
      | Print instructions to player | List<WinCondition> |
      | decide which player should move (attention, double Jump rule) | BoardPrinter |
      | check win conditions ||
      | print win message ||
      | check that input move has correct format ||
      | check if move is valid ||
      | get move from player ||
      | print error message ||
    endnote
}

rectangle "Board" as board {
    note as boardnote
      |= Responsibilities |= Collaborators |
      | create init state ||
      | move piece ||
      | decide if piece was captured and maybe remove piece ||
      | Decide if transform to King ||
    endnote
}

rectangle "List<WinCondition>" as winconditions {
    note as WinCondition
      | One subclass of WinCondition for every win condition ||
      |= Responsibilities |= Collaborators |
      | decide if condition was met | Board |
    endnote
}

rectangle "BoardPrinter" as boardprinter {
    note as BoardPrinter
      |= BoardPrinter |= |
      |= Responsibilities |= Collaborators |
      | print board | Board |
    endnote
}

rectangle Move as move {
  note as Move
    |= Move |= |
    |= Responsibilities |= Collaborators |
    | hold move parameters (From field A to field B) ||
  endnote
}

rectangle "List<Rule>" as rules {
  note as Rule
    | One subclass of Rule for every rule ||
    |= Responsibilities |= Collaborators |
    | Is there a piece of the correct player ||
    | Target field is empty ||
    | If jump move: is a opponent piece between ||
    | If not jump move: is no jump move possible ||
    | If king: can move diagonally in all directions ||
  endnote
}

gamelogic - -> board
gamelogic - -> rules
gamelogic - -> winconditions
gamelogic - -> boardprinter

winconditions - -> board

boardprinter - -> board

rules - -> move
rules - -> board
@enduml

PlantUML version 1.2021.13beta1(Unknown compile time)
(GPL source distribution)
Java Runtime: Java(TM) SE Runtime Environment
JVM: Java HotSpot(TM) 64-Bit Server VM
Default Encoding: UTF-8
Language: en
Country: US
--></g></svg>