<?xml version="1.0" encoding="UTF-8" standalone="no"?><svg xmlns="http://www.w3.org/2000/svg" xmlns:xlink="http://www.w3.org/1999/xlink" contentScriptType="application/ecmascript" contentStyleType="text/css" height="443px" preserveAspectRatio="none" style="width:1532px;height:443px;background:#FFFFFF;" version="1.1" viewBox="0 0 1532 443" width="1532px" zoomAndPan="magnify"><defs><filter height="300%" id="fgektaj3qqk0a" width="300%" x="-1" y="-1"><feGaussianBlur result="blurOut" stdDeviation="2.0"/><feColorMatrix in="blurOut" result="blurOut2" type="matrix" values="0 0 0 0 0 0 0 0 0 0 0 0 0 0 0 0 0 0 .4 0"/><feOffset dx="4.0" dy="4.0" in="blurOut2" result="blurOut3"/><feBlend in="SourceGraphic" in2="blurOut3" mode="normal"/></filter></defs><g><!--MD5=[28b67fcf98ed12ee50c06f64d60a688e]
cluster exercise3--><polygon fill="#FFFFFF" filter="url(#fgektaj3qqk0a)" points="16,6,98,6,105,28.2969,1515,28.2969,1515,436,16,436,16,6" style="stroke:#000000;stroke-width:1.5;"/><line style="stroke:#000000;stroke-width:1.5;" x1="16" x2="105" y1="28.2969" y2="28.2969"/><text fill="#000000" font-family="sans-serif" font-size="14" font-weight="bold" lengthAdjust="spacing" textLength="76" x="20" y="20.9951">exercise3</text><!--MD5=[e22c8116d6f4c16f6522eab6546ffa36]
cluster movevalidator--><polygon fill="#FFFFFF" filter="url(#fgektaj3qqk0a)" points="48,113,171,113,178,135.2969,926,135.2969,926,336,48,336,48,113" style="stroke:#000000;stroke-width:1.5;"/><line style="stroke:#000000;stroke-width:1.5;" x1="48" x2="178" y1="135.2969" y2="135.2969"/><text fill="#000000" font-family="sans-serif" font-size="14" font-weight="bold" lengthAdjust="spacing" textLength="117" x="52" y="127.9951">movevalidator</text><!--MD5=[9563755d011c5cec7ec66dc53565a59e]
class Board--><rect codeLine="12" fill="#FEFECE" filter="url(#fgektaj3qqk0a)" height="48" id="Board" style="stroke:#A80036;stroke-width:1.5;" width="68" x="1053" y="264"/><ellipse cx="1068" cy="280" fill="#ADD1B2" rx="11" ry="11" style="stroke:#A80036;stroke-width:1.0;"/><path d="M1070.3438,275.6719 C1069.4063,275.2344 1068.8125,275.0938 1067.9375,275.0938 C1065.3125,275.0938 1063.3125,277.1719 1063.3125,279.8906 L1063.3125,281.0156 C1063.3125,283.5938 1065.4219,285.4844 1068.3125,285.4844 C1069.5313,285.4844 1070.6875,285.1875 1071.4375,284.6406 C1072.0156,284.2344 1072.3438,283.7813 1072.3438,283.3906 C1072.3438,282.9375 1071.9531,282.5469 1071.4844,282.5469 C1071.2656,282.5469 1071.0625,282.625 1070.875,282.8125 C1070.4219,283.2969 1070.4219,283.2969 1070.2344,283.3906 C1069.8125,283.6563 1069.125,283.7813 1068.3594,283.7813 C1066.3125,283.7813 1065.0156,282.6875 1065.0156,280.9844 L1065.0156,279.8906 C1065.0156,278.1094 1066.2656,276.7969 1068,276.7969 C1068.5781,276.7969 1069.1875,276.9531 1069.6563,277.2031 C1070.1406,277.4844 1070.3125,277.7031 1070.4063,278.1094 C1070.4688,278.5156 1070.5,278.6406 1070.6406,278.7656 C1070.7813,278.9063 1071.0156,279.0156 1071.2344,279.0156 C1071.5,279.0156 1071.7656,278.875 1071.9375,278.6563 C1072.0469,278.5 1072.0781,278.3125 1072.0781,277.8906 L1072.0781,276.4688 C1072.0781,276.0313 1072.0625,275.9063 1071.9688,275.75 C1071.8125,275.4844 1071.5313,275.3438 1071.2344,275.3438 C1070.9375,275.3438 1070.7344,275.4375 1070.5156,275.75 L1070.3438,275.6719 Z " fill="#000000"/><text fill="#000000" font-family="sans-serif" font-size="12" lengthAdjust="spacing" textLength="36" x="1082" y="284.1543">Board</text><line style="stroke:#A80036;stroke-width:1.5;" x1="1054" x2="1120" y1="296" y2="296"/><line style="stroke:#A80036;stroke-width:1.5;" x1="1054" x2="1120" y1="304" y2="304"/><!--MD5=[cde9f0c4f6743a55420c54dca870518d]
class BoardCoordinates--><rect codeLine="13" fill="#FEFECE" filter="url(#fgektaj3qqk0a)" height="48" id="BoardCoordinates" style="stroke:#A80036;stroke-width:1.5;" width="141" x="1120.5" y="372"/><ellipse cx="1135.5" cy="388" fill="#ADD1B2" rx="11" ry="11" style="stroke:#A80036;stroke-width:1.0;"/><path d="M1137.8438,383.6719 C1136.9063,383.2344 1136.3125,383.0938 1135.4375,383.0938 C1132.8125,383.0938 1130.8125,385.1719 1130.8125,387.8906 L1130.8125,389.0156 C1130.8125,391.5938 1132.9219,393.4844 1135.8125,393.4844 C1137.0313,393.4844 1138.1875,393.1875 1138.9375,392.6406 C1139.5156,392.2344 1139.8438,391.7813 1139.8438,391.3906 C1139.8438,390.9375 1139.4531,390.5469 1138.9844,390.5469 C1138.7656,390.5469 1138.5625,390.625 1138.375,390.8125 C1137.9219,391.2969 1137.9219,391.2969 1137.7344,391.3906 C1137.3125,391.6563 1136.625,391.7813 1135.8594,391.7813 C1133.8125,391.7813 1132.5156,390.6875 1132.5156,388.9844 L1132.5156,387.8906 C1132.5156,386.1094 1133.7656,384.7969 1135.5,384.7969 C1136.0781,384.7969 1136.6875,384.9531 1137.1563,385.2031 C1137.6406,385.4844 1137.8125,385.7031 1137.9063,386.1094 C1137.9688,386.5156 1138,386.6406 1138.1406,386.7656 C1138.2813,386.9063 1138.5156,387.0156 1138.7344,387.0156 C1139,387.0156 1139.2656,386.875 1139.4375,386.6563 C1139.5469,386.5 1139.5781,386.3125 1139.5781,385.8906 L1139.5781,384.4688 C1139.5781,384.0313 1139.5625,383.9063 1139.4688,383.75 C1139.3125,383.4844 1139.0313,383.3438 1138.7344,383.3438 C1138.4375,383.3438 1138.2344,383.4375 1138.0156,383.75 L1137.8438,383.6719 Z " fill="#000000"/><text fill="#000000" font-family="sans-serif" font-size="12" lengthAdjust="spacing" textLength="109" x="1149.5" y="392.1543">BoardCoordinates</text><line style="stroke:#A80036;stroke-width:1.5;" x1="1121.5" x2="1260.5" y1="404" y2="404"/><line style="stroke:#A80036;stroke-width:1.5;" x1="1121.5" x2="1260.5" y1="412" y2="412"/><!--MD5=[52eedb0dee32d5ffd86442c605b13fc4]
class BoardPrinter--><rect codeLine="14" fill="#FEFECE" filter="url(#fgektaj3qqk0a)" height="48" id="BoardPrinter" style="stroke:#A80036;stroke-width:1.5;" width="106" x="1393" y="264"/><ellipse cx="1408" cy="280" fill="#ADD1B2" rx="11" ry="11" style="stroke:#A80036;stroke-width:1.0;"/><path d="M1410.3438,275.6719 C1409.4063,275.2344 1408.8125,275.0938 1407.9375,275.0938 C1405.3125,275.0938 1403.3125,277.1719 1403.3125,279.8906 L1403.3125,281.0156 C1403.3125,283.5938 1405.4219,285.4844 1408.3125,285.4844 C1409.5313,285.4844 1410.6875,285.1875 1411.4375,284.6406 C1412.0156,284.2344 1412.3438,283.7813 1412.3438,283.3906 C1412.3438,282.9375 1411.9531,282.5469 1411.4844,282.5469 C1411.2656,282.5469 1411.0625,282.625 1410.875,282.8125 C1410.4219,283.2969 1410.4219,283.2969 1410.2344,283.3906 C1409.8125,283.6563 1409.125,283.7813 1408.3594,283.7813 C1406.3125,283.7813 1405.0156,282.6875 1405.0156,280.9844 L1405.0156,279.8906 C1405.0156,278.1094 1406.2656,276.7969 1408,276.7969 C1408.5781,276.7969 1409.1875,276.9531 1409.6563,277.2031 C1410.1406,277.4844 1410.3125,277.7031 1410.4063,278.1094 C1410.4688,278.5156 1410.5,278.6406 1410.6406,278.7656 C1410.7813,278.9063 1411.0156,279.0156 1411.2344,279.0156 C1411.5,279.0156 1411.7656,278.875 1411.9375,278.6563 C1412.0469,278.5 1412.0781,278.3125 1412.0781,277.8906 L1412.0781,276.4688 C1412.0781,276.0313 1412.0625,275.9063 1411.9688,275.75 C1411.8125,275.4844 1411.5313,275.3438 1411.2344,275.3438 C1410.9375,275.3438 1410.7344,275.4375 1410.5156,275.75 L1410.3438,275.6719 Z " fill="#000000"/><text fill="#000000" font-family="sans-serif" font-size="12" lengthAdjust="spacing" textLength="74" x="1422" y="284.1543">BoardPrinter</text><line style="stroke:#A80036;stroke-width:1.5;" x1="1394" x2="1498" y1="296" y2="296"/><line style="stroke:#A80036;stroke-width:1.5;" x1="1394" x2="1498" y1="304" y2="304"/><!--MD5=[315b61b427ec618d6861d47eee00cca3]
class Console--><rect codeLine="15" fill="#FEFECE" filter="url(#fgektaj3qqk0a)" height="48" id="Console" style="stroke:#A80036;stroke-width:1.5;" width="81" x="1199.5" y="41"/><ellipse cx="1214.5" cy="57" fill="#ADD1B2" rx="11" ry="11" style="stroke:#A80036;stroke-width:1.0;"/><path d="M1216.8438,52.6719 C1215.9063,52.2344 1215.3125,52.0938 1214.4375,52.0938 C1211.8125,52.0938 1209.8125,54.1719 1209.8125,56.8906 L1209.8125,58.0156 C1209.8125,60.5938 1211.9219,62.4844 1214.8125,62.4844 C1216.0313,62.4844 1217.1875,62.1875 1217.9375,61.6406 C1218.5156,61.2344 1218.8438,60.7813 1218.8438,60.3906 C1218.8438,59.9375 1218.4531,59.5469 1217.9844,59.5469 C1217.7656,59.5469 1217.5625,59.625 1217.375,59.8125 C1216.9219,60.2969 1216.9219,60.2969 1216.7344,60.3906 C1216.3125,60.6563 1215.625,60.7813 1214.8594,60.7813 C1212.8125,60.7813 1211.5156,59.6875 1211.5156,57.9844 L1211.5156,56.8906 C1211.5156,55.1094 1212.7656,53.7969 1214.5,53.7969 C1215.0781,53.7969 1215.6875,53.9531 1216.1563,54.2031 C1216.6406,54.4844 1216.8125,54.7031 1216.9063,55.1094 C1216.9688,55.5156 1217,55.6406 1217.1406,55.7656 C1217.2813,55.9063 1217.5156,56.0156 1217.7344,56.0156 C1218,56.0156 1218.2656,55.875 1218.4375,55.6563 C1218.5469,55.5 1218.5781,55.3125 1218.5781,54.8906 L1218.5781,53.4688 C1218.5781,53.0313 1218.5625,52.9063 1218.4688,52.75 C1218.3125,52.4844 1218.0313,52.3438 1217.7344,52.3438 C1217.4375,52.3438 1217.2344,52.4375 1217.0156,52.75 L1216.8438,52.6719 Z " fill="#000000"/><text fill="#000000" font-family="sans-serif" font-size="12" lengthAdjust="spacing" textLength="49" x="1228.5" y="61.1543">Console</text><line style="stroke:#A80036;stroke-width:1.5;" x1="1200.5" x2="1279.5" y1="73" y2="73"/><line style="stroke:#A80036;stroke-width:1.5;" x1="1200.5" x2="1279.5" y1="81" y2="81"/><!--MD5=[69cd7bb0186966cdb12d6f14492428f2]
class GameLogic--><rect codeLine="16" fill="#FEFECE" filter="url(#fgektaj3qqk0a)" height="48" id="GameLogic" style="stroke:#A80036;stroke-width:1.5;" width="99" x="247.5" y="41"/><ellipse cx="262.5" cy="57" fill="#ADD1B2" rx="11" ry="11" style="stroke:#A80036;stroke-width:1.0;"/><path d="M264.8438,52.6719 C263.9063,52.2344 263.3125,52.0938 262.4375,52.0938 C259.8125,52.0938 257.8125,54.1719 257.8125,56.8906 L257.8125,58.0156 C257.8125,60.5938 259.9219,62.4844 262.8125,62.4844 C264.0313,62.4844 265.1875,62.1875 265.9375,61.6406 C266.5156,61.2344 266.8438,60.7813 266.8438,60.3906 C266.8438,59.9375 266.4531,59.5469 265.9844,59.5469 C265.7656,59.5469 265.5625,59.625 265.375,59.8125 C264.9219,60.2969 264.9219,60.2969 264.7344,60.3906 C264.3125,60.6563 263.625,60.7813 262.8594,60.7813 C260.8125,60.7813 259.5156,59.6875 259.5156,57.9844 L259.5156,56.8906 C259.5156,55.1094 260.7656,53.7969 262.5,53.7969 C263.0781,53.7969 263.6875,53.9531 264.1563,54.2031 C264.6406,54.4844 264.8125,54.7031 264.9063,55.1094 C264.9688,55.5156 265,55.6406 265.1406,55.7656 C265.2813,55.9063 265.5156,56.0156 265.7344,56.0156 C266,56.0156 266.2656,55.875 266.4375,55.6563 C266.5469,55.5 266.5781,55.3125 266.5781,54.8906 L266.5781,53.4688 C266.5781,53.0313 266.5625,52.9063 266.4688,52.75 C266.3125,52.4844 266.0313,52.3438 265.7344,52.3438 C265.4375,52.3438 265.2344,52.4375 265.0156,52.75 L264.8438,52.6719 Z " fill="#000000"/><text fill="#000000" font-family="sans-serif" font-size="12" lengthAdjust="spacing" textLength="67" x="276.5" y="61.1543">GameLogic</text><line style="stroke:#A80036;stroke-width:1.5;" x1="248.5" x2="345.5" y1="73" y2="73"/><line style="stroke:#A80036;stroke-width:1.5;" x1="248.5" x2="345.5" y1="81" y2="81"/><!--MD5=[84718776d214be480e4c259efcb737fc]
class Main--><rect codeLine="17" fill="#FEFECE" filter="url(#fgektaj3qqk0a)" height="48" id="Main" style="stroke:#A80036;stroke-width:1.5;" width="59" x="888.5" y="41"/><ellipse cx="903.5" cy="57" fill="#ADD1B2" rx="11" ry="11" style="stroke:#A80036;stroke-width:1.0;"/><path d="M905.8438,52.6719 C904.9063,52.2344 904.3125,52.0938 903.4375,52.0938 C900.8125,52.0938 898.8125,54.1719 898.8125,56.8906 L898.8125,58.0156 C898.8125,60.5938 900.9219,62.4844 903.8125,62.4844 C905.0313,62.4844 906.1875,62.1875 906.9375,61.6406 C907.5156,61.2344 907.8438,60.7813 907.8438,60.3906 C907.8438,59.9375 907.4531,59.5469 906.9844,59.5469 C906.7656,59.5469 906.5625,59.625 906.375,59.8125 C905.9219,60.2969 905.9219,60.2969 905.7344,60.3906 C905.3125,60.6563 904.625,60.7813 903.8594,60.7813 C901.8125,60.7813 900.5156,59.6875 900.5156,57.9844 L900.5156,56.8906 C900.5156,55.1094 901.7656,53.7969 903.5,53.7969 C904.0781,53.7969 904.6875,53.9531 905.1563,54.2031 C905.6406,54.4844 905.8125,54.7031 905.9063,55.1094 C905.9688,55.5156 906,55.6406 906.1406,55.7656 C906.2813,55.9063 906.5156,56.0156 906.7344,56.0156 C907,56.0156 907.2656,55.875 907.4375,55.6563 C907.5469,55.5 907.5781,55.3125 907.5781,54.8906 L907.5781,53.4688 C907.5781,53.0313 907.5625,52.9063 907.4688,52.75 C907.3125,52.4844 907.0313,52.3438 906.7344,52.3438 C906.4375,52.3438 906.2344,52.4375 906.0156,52.75 L905.8438,52.6719 Z " fill="#000000"/><text fill="#000000" font-family="sans-serif" font-size="12" lengthAdjust="spacing" textLength="27" x="917.5" y="61.1543">Main</text><line style="stroke:#A80036;stroke-width:1.5;" x1="889.5" x2="946.5" y1="73" y2="73"/><line style="stroke:#A80036;stroke-width:1.5;" x1="889.5" x2="946.5" y1="81" y2="81"/><!--MD5=[1981719fa3982d92ef7fd3f06d73b3e7]
class Move--><rect codeLine="18" fill="#FEFECE" filter="url(#fgektaj3qqk0a)" height="48" id="Move" style="stroke:#A80036;stroke-width:1.5;" width="65" x="1193.5" y="264"/><ellipse cx="1208.5" cy="280" fill="#ADD1B2" rx="11" ry="11" style="stroke:#A80036;stroke-width:1.0;"/><path d="M1210.8438,275.6719 C1209.9063,275.2344 1209.3125,275.0938 1208.4375,275.0938 C1205.8125,275.0938 1203.8125,277.1719 1203.8125,279.8906 L1203.8125,281.0156 C1203.8125,283.5938 1205.9219,285.4844 1208.8125,285.4844 C1210.0313,285.4844 1211.1875,285.1875 1211.9375,284.6406 C1212.5156,284.2344 1212.8438,283.7813 1212.8438,283.3906 C1212.8438,282.9375 1212.4531,282.5469 1211.9844,282.5469 C1211.7656,282.5469 1211.5625,282.625 1211.375,282.8125 C1210.9219,283.2969 1210.9219,283.2969 1210.7344,283.3906 C1210.3125,283.6563 1209.625,283.7813 1208.8594,283.7813 C1206.8125,283.7813 1205.5156,282.6875 1205.5156,280.9844 L1205.5156,279.8906 C1205.5156,278.1094 1206.7656,276.7969 1208.5,276.7969 C1209.0781,276.7969 1209.6875,276.9531 1210.1563,277.2031 C1210.6406,277.4844 1210.8125,277.7031 1210.9063,278.1094 C1210.9688,278.5156 1211,278.6406 1211.1406,278.7656 C1211.2813,278.9063 1211.5156,279.0156 1211.7344,279.0156 C1212,279.0156 1212.2656,278.875 1212.4375,278.6563 C1212.5469,278.5 1212.5781,278.3125 1212.5781,277.8906 L1212.5781,276.4688 C1212.5781,276.0313 1212.5625,275.9063 1212.4688,275.75 C1212.3125,275.4844 1212.0313,275.3438 1211.7344,275.3438 C1211.4375,275.3438 1211.2344,275.4375 1211.0156,275.75 L1210.8438,275.6719 Z " fill="#000000"/><text fill="#000000" font-family="sans-serif" font-size="12" lengthAdjust="spacing" textLength="33" x="1222.5" y="284.1543">Move</text><line style="stroke:#A80036;stroke-width:1.5;" x1="1194.5" x2="1257.5" y1="296" y2="296"/><line style="stroke:#A80036;stroke-width:1.5;" x1="1194.5" x2="1257.5" y1="304" y2="304"/><!--MD5=[e05bacf3ff4416a0580578814d41bbf6]
class Piece--><rect codeLine="19" fill="#FEFECE" filter="url(#fgektaj3qqk0a)" height="48" id="Piece" style="stroke:#A80036;stroke-width:1.5;" width="64" x="1294" y="264"/><ellipse cx="1309" cy="280" fill="#ADD1B2" rx="11" ry="11" style="stroke:#A80036;stroke-width:1.0;"/><path d="M1311.3438,275.6719 C1310.4063,275.2344 1309.8125,275.0938 1308.9375,275.0938 C1306.3125,275.0938 1304.3125,277.1719 1304.3125,279.8906 L1304.3125,281.0156 C1304.3125,283.5938 1306.4219,285.4844 1309.3125,285.4844 C1310.5313,285.4844 1311.6875,285.1875 1312.4375,284.6406 C1313.0156,284.2344 1313.3438,283.7813 1313.3438,283.3906 C1313.3438,282.9375 1312.9531,282.5469 1312.4844,282.5469 C1312.2656,282.5469 1312.0625,282.625 1311.875,282.8125 C1311.4219,283.2969 1311.4219,283.2969 1311.2344,283.3906 C1310.8125,283.6563 1310.125,283.7813 1309.3594,283.7813 C1307.3125,283.7813 1306.0156,282.6875 1306.0156,280.9844 L1306.0156,279.8906 C1306.0156,278.1094 1307.2656,276.7969 1309,276.7969 C1309.5781,276.7969 1310.1875,276.9531 1310.6563,277.2031 C1311.1406,277.4844 1311.3125,277.7031 1311.4063,278.1094 C1311.4688,278.5156 1311.5,278.6406 1311.6406,278.7656 C1311.7813,278.9063 1312.0156,279.0156 1312.2344,279.0156 C1312.5,279.0156 1312.7656,278.875 1312.9375,278.6563 C1313.0469,278.5 1313.0781,278.3125 1313.0781,277.8906 L1313.0781,276.4688 C1313.0781,276.0313 1313.0625,275.9063 1312.9688,275.75 C1312.8125,275.4844 1312.5313,275.3438 1312.2344,275.3438 C1311.9375,275.3438 1311.7344,275.4375 1311.5156,275.75 L1311.3438,275.6719 Z " fill="#000000"/><text fill="#000000" font-family="sans-serif" font-size="12" lengthAdjust="spacing" textLength="32" x="1323" y="284.1543">Piece</text><line style="stroke:#A80036;stroke-width:1.5;" x1="1295" x2="1357" y1="296" y2="296"/><line style="stroke:#A80036;stroke-width:1.5;" x1="1295" x2="1357" y1="304" y2="304"/><!--MD5=[2cb47ba637a0d19583e6199456f6ad0b]
class Player--><rect codeLine="20" fill="#FEFECE" filter="url(#fgektaj3qqk0a)" height="48" id="Player" style="stroke:#A80036;stroke-width:1.5;" width="68" x="950" y="264"/><ellipse cx="965" cy="280" fill="#ADD1B2" rx="11" ry="11" style="stroke:#A80036;stroke-width:1.0;"/><path d="M967.3438,275.6719 C966.4063,275.2344 965.8125,275.0938 964.9375,275.0938 C962.3125,275.0938 960.3125,277.1719 960.3125,279.8906 L960.3125,281.0156 C960.3125,283.5938 962.4219,285.4844 965.3125,285.4844 C966.5313,285.4844 967.6875,285.1875 968.4375,284.6406 C969.0156,284.2344 969.3438,283.7813 969.3438,283.3906 C969.3438,282.9375 968.9531,282.5469 968.4844,282.5469 C968.2656,282.5469 968.0625,282.625 967.875,282.8125 C967.4219,283.2969 967.4219,283.2969 967.2344,283.3906 C966.8125,283.6563 966.125,283.7813 965.3594,283.7813 C963.3125,283.7813 962.0156,282.6875 962.0156,280.9844 L962.0156,279.8906 C962.0156,278.1094 963.2656,276.7969 965,276.7969 C965.5781,276.7969 966.1875,276.9531 966.6563,277.2031 C967.1406,277.4844 967.3125,277.7031 967.4063,278.1094 C967.4688,278.5156 967.5,278.6406 967.6406,278.7656 C967.7813,278.9063 968.0156,279.0156 968.2344,279.0156 C968.5,279.0156 968.7656,278.875 968.9375,278.6563 C969.0469,278.5 969.0781,278.3125 969.0781,277.8906 L969.0781,276.4688 C969.0781,276.0313 969.0625,275.9063 968.9688,275.75 C968.8125,275.4844 968.5313,275.3438 968.2344,275.3438 C967.9375,275.3438 967.7344,275.4375 967.5156,275.75 L967.3438,275.6719 Z " fill="#000000"/><text fill="#000000" font-family="sans-serif" font-size="12" lengthAdjust="spacing" textLength="36" x="979" y="284.1543">Player</text><line style="stroke:#A80036;stroke-width:1.5;" x1="951" x2="1017" y1="296" y2="296"/><line style="stroke:#A80036;stroke-width:1.5;" x1="951" x2="1017" y1="304" y2="304"/><!--MD5=[a1afa0a95a001be89659a266b6dc5aeb]
class WinCondition--><rect codeLine="21" fill="#FEFECE" filter="url(#fgektaj3qqk0a)" height="48" id="WinCondition" style="stroke:#A80036;stroke-width:1.5;" width="110" x="76" y="41"/><ellipse cx="91" cy="57" fill="#ADD1B2" rx="11" ry="11" style="stroke:#A80036;stroke-width:1.0;"/><path d="M93.3438,52.6719 C92.4063,52.2344 91.8125,52.0938 90.9375,52.0938 C88.3125,52.0938 86.3125,54.1719 86.3125,56.8906 L86.3125,58.0156 C86.3125,60.5938 88.4219,62.4844 91.3125,62.4844 C92.5313,62.4844 93.6875,62.1875 94.4375,61.6406 C95.0156,61.2344 95.3438,60.7813 95.3438,60.3906 C95.3438,59.9375 94.9531,59.5469 94.4844,59.5469 C94.2656,59.5469 94.0625,59.625 93.875,59.8125 C93.4219,60.2969 93.4219,60.2969 93.2344,60.3906 C92.8125,60.6563 92.125,60.7813 91.3594,60.7813 C89.3125,60.7813 88.0156,59.6875 88.0156,57.9844 L88.0156,56.8906 C88.0156,55.1094 89.2656,53.7969 91,53.7969 C91.5781,53.7969 92.1875,53.9531 92.6563,54.2031 C93.1406,54.4844 93.3125,54.7031 93.4063,55.1094 C93.4688,55.5156 93.5,55.6406 93.6406,55.7656 C93.7813,55.9063 94.0156,56.0156 94.2344,56.0156 C94.5,56.0156 94.7656,55.875 94.9375,55.6563 C95.0469,55.5 95.0781,55.3125 95.0781,54.8906 L95.0781,53.4688 C95.0781,53.0313 95.0625,52.9063 94.9688,52.75 C94.8125,52.4844 94.5313,52.3438 94.2344,52.3438 C93.9375,52.3438 93.7344,52.4375 93.5156,52.75 L93.3438,52.6719 Z " fill="#000000"/><text fill="#000000" font-family="sans-serif" font-size="12" lengthAdjust="spacing" textLength="78" x="105" y="61.1543">WinCondition</text><line style="stroke:#A80036;stroke-width:1.5;" x1="77" x2="185" y1="73" y2="73"/><line style="stroke:#A80036;stroke-width:1.5;" x1="77" x2="185" y1="81" y2="81"/><!--MD5=[d6bdbcc18aeb9c5da5e915b0b2b9e30a]
class MoveIsDiagonal--><rect codeLine="3" fill="#FEFECE" filter="url(#fgektaj3qqk0a)" height="48" id="MoveIsDiagonal" style="stroke:#A80036;stroke-width:1.5;" width="127" x="455.5" y="156"/><ellipse cx="470.5" cy="172" fill="#ADD1B2" rx="11" ry="11" style="stroke:#A80036;stroke-width:1.0;"/><path d="M472.8438,167.6719 C471.9063,167.2344 471.3125,167.0938 470.4375,167.0938 C467.8125,167.0938 465.8125,169.1719 465.8125,171.8906 L465.8125,173.0156 C465.8125,175.5938 467.9219,177.4844 470.8125,177.4844 C472.0313,177.4844 473.1875,177.1875 473.9375,176.6406 C474.5156,176.2344 474.8438,175.7813 474.8438,175.3906 C474.8438,174.9375 474.4531,174.5469 473.9844,174.5469 C473.7656,174.5469 473.5625,174.625 473.375,174.8125 C472.9219,175.2969 472.9219,175.2969 472.7344,175.3906 C472.3125,175.6563 471.625,175.7813 470.8594,175.7813 C468.8125,175.7813 467.5156,174.6875 467.5156,172.9844 L467.5156,171.8906 C467.5156,170.1094 468.7656,168.7969 470.5,168.7969 C471.0781,168.7969 471.6875,168.9531 472.1563,169.2031 C472.6406,169.4844 472.8125,169.7031 472.9063,170.1094 C472.9688,170.5156 473,170.6406 473.1406,170.7656 C473.2813,170.9063 473.5156,171.0156 473.7344,171.0156 C474,171.0156 474.2656,170.875 474.4375,170.6563 C474.5469,170.5 474.5781,170.3125 474.5781,169.8906 L474.5781,168.4688 C474.5781,168.0313 474.5625,167.9063 474.4688,167.75 C474.3125,167.4844 474.0313,167.3438 473.7344,167.3438 C473.4375,167.3438 473.2344,167.4375 473.0156,167.75 L472.8438,167.6719 Z " fill="#000000"/><text fill="#000000" font-family="sans-serif" font-size="12" lengthAdjust="spacing" textLength="95" x="484.5" y="176.1543">MoveIsDiagonal</text><line style="stroke:#A80036;stroke-width:1.5;" x1="456.5" x2="581.5" y1="188" y2="188"/><line style="stroke:#A80036;stroke-width:1.5;" x1="456.5" x2="581.5" y1="196" y2="196"/><!--MD5=[0259f0a8215eff7078b4f23e87fc63bc]
class MoveIsForward--><rect codeLine="4" fill="#FEFECE" filter="url(#fgektaj3qqk0a)" height="48" id="MoveIsForward" style="stroke:#A80036;stroke-width:1.5;" width="125" x="617.5" y="156"/><ellipse cx="632.5" cy="172" fill="#ADD1B2" rx="11" ry="11" style="stroke:#A80036;stroke-width:1.0;"/><path d="M634.8438,167.6719 C633.9063,167.2344 633.3125,167.0938 632.4375,167.0938 C629.8125,167.0938 627.8125,169.1719 627.8125,171.8906 L627.8125,173.0156 C627.8125,175.5938 629.9219,177.4844 632.8125,177.4844 C634.0313,177.4844 635.1875,177.1875 635.9375,176.6406 C636.5156,176.2344 636.8438,175.7813 636.8438,175.3906 C636.8438,174.9375 636.4531,174.5469 635.9844,174.5469 C635.7656,174.5469 635.5625,174.625 635.375,174.8125 C634.9219,175.2969 634.9219,175.2969 634.7344,175.3906 C634.3125,175.6563 633.625,175.7813 632.8594,175.7813 C630.8125,175.7813 629.5156,174.6875 629.5156,172.9844 L629.5156,171.8906 C629.5156,170.1094 630.7656,168.7969 632.5,168.7969 C633.0781,168.7969 633.6875,168.9531 634.1563,169.2031 C634.6406,169.4844 634.8125,169.7031 634.9063,170.1094 C634.9688,170.5156 635,170.6406 635.1406,170.7656 C635.2813,170.9063 635.5156,171.0156 635.7344,171.0156 C636,171.0156 636.2656,170.875 636.4375,170.6563 C636.5469,170.5 636.5781,170.3125 636.5781,169.8906 L636.5781,168.4688 C636.5781,168.0313 636.5625,167.9063 636.4688,167.75 C636.3125,167.4844 636.0313,167.3438 635.7344,167.3438 C635.4375,167.3438 635.2344,167.4375 635.0156,167.75 L634.8438,167.6719 Z " fill="#000000"/><text fill="#000000" font-family="sans-serif" font-size="12" lengthAdjust="spacing" textLength="93" x="646.5" y="176.1543">MoveIsForward</text><line style="stroke:#A80036;stroke-width:1.5;" x1="618.5" x2="741.5" y1="188" y2="188"/><line style="stroke:#A80036;stroke-width:1.5;" x1="618.5" x2="741.5" y1="196" y2="196"/><!--MD5=[364ccf8958780f78aeeac0b3c6c2d700]
class MoveLength--><rect codeLine="5" fill="#FEFECE" filter="url(#fgektaj3qqk0a)" height="48" id="MoveLength" style="stroke:#A80036;stroke-width:1.5;" width="105" x="777.5" y="156"/><ellipse cx="792.5" cy="172" fill="#ADD1B2" rx="11" ry="11" style="stroke:#A80036;stroke-width:1.0;"/><path d="M794.8438,167.6719 C793.9063,167.2344 793.3125,167.0938 792.4375,167.0938 C789.8125,167.0938 787.8125,169.1719 787.8125,171.8906 L787.8125,173.0156 C787.8125,175.5938 789.9219,177.4844 792.8125,177.4844 C794.0313,177.4844 795.1875,177.1875 795.9375,176.6406 C796.5156,176.2344 796.8438,175.7813 796.8438,175.3906 C796.8438,174.9375 796.4531,174.5469 795.9844,174.5469 C795.7656,174.5469 795.5625,174.625 795.375,174.8125 C794.9219,175.2969 794.9219,175.2969 794.7344,175.3906 C794.3125,175.6563 793.625,175.7813 792.8594,175.7813 C790.8125,175.7813 789.5156,174.6875 789.5156,172.9844 L789.5156,171.8906 C789.5156,170.1094 790.7656,168.7969 792.5,168.7969 C793.0781,168.7969 793.6875,168.9531 794.1563,169.2031 C794.6406,169.4844 794.8125,169.7031 794.9063,170.1094 C794.9688,170.5156 795,170.6406 795.1406,170.7656 C795.2813,170.9063 795.5156,171.0156 795.7344,171.0156 C796,171.0156 796.2656,170.875 796.4375,170.6563 C796.5469,170.5 796.5781,170.3125 796.5781,169.8906 L796.5781,168.4688 C796.5781,168.0313 796.5625,167.9063 796.4688,167.75 C796.3125,167.4844 796.0313,167.3438 795.7344,167.3438 C795.4375,167.3438 795.2344,167.4375 795.0156,167.75 L794.8438,167.6719 Z " fill="#000000"/><text fill="#000000" font-family="sans-serif" font-size="12" lengthAdjust="spacing" textLength="73" x="806.5" y="176.1543">MoveLength</text><line style="stroke:#A80036;stroke-width:1.5;" x1="778.5" x2="881.5" y1="188" y2="188"/><line style="stroke:#A80036;stroke-width:1.5;" x1="778.5" x2="881.5" y1="196" y2="196"/><!--MD5=[0e92013d96b67125c3d883bb456ddcaa]
class MoveValidator--><rect codeLine="6" fill="#FEFECE" filter="url(#fgektaj3qqk0a)" height="48" id="MoveValidator" style="stroke:#A80036;stroke-width:1.5;" width="118" x="72" y="156"/><ellipse cx="87" cy="172" fill="#ADD1B2" rx="11" ry="11" style="stroke:#A80036;stroke-width:1.0;"/><path d="M89.3438,167.6719 C88.4063,167.2344 87.8125,167.0938 86.9375,167.0938 C84.3125,167.0938 82.3125,169.1719 82.3125,171.8906 L82.3125,173.0156 C82.3125,175.5938 84.4219,177.4844 87.3125,177.4844 C88.5313,177.4844 89.6875,177.1875 90.4375,176.6406 C91.0156,176.2344 91.3438,175.7813 91.3438,175.3906 C91.3438,174.9375 90.9531,174.5469 90.4844,174.5469 C90.2656,174.5469 90.0625,174.625 89.875,174.8125 C89.4219,175.2969 89.4219,175.2969 89.2344,175.3906 C88.8125,175.6563 88.125,175.7813 87.3594,175.7813 C85.3125,175.7813 84.0156,174.6875 84.0156,172.9844 L84.0156,171.8906 C84.0156,170.1094 85.2656,168.7969 87,168.7969 C87.5781,168.7969 88.1875,168.9531 88.6563,169.2031 C89.1406,169.4844 89.3125,169.7031 89.4063,170.1094 C89.4688,170.5156 89.5,170.6406 89.6406,170.7656 C89.7813,170.9063 90.0156,171.0156 90.2344,171.0156 C90.5,171.0156 90.7656,170.875 90.9375,170.6563 C91.0469,170.5 91.0781,170.3125 91.0781,169.8906 L91.0781,168.4688 C91.0781,168.0313 91.0625,167.9063 90.9688,167.75 C90.8125,167.4844 90.5313,167.3438 90.2344,167.3438 C89.9375,167.3438 89.7344,167.4375 89.5156,167.75 L89.3438,167.6719 Z " fill="#000000"/><text fill="#000000" font-family="sans-serif" font-size="12" lengthAdjust="spacing" textLength="86" x="101" y="176.1543">MoveValidator</text><line style="stroke:#A80036;stroke-width:1.5;" x1="73" x2="189" y1="188" y2="188"/><line style="stroke:#A80036;stroke-width:1.5;" x1="73" x2="189" y1="196" y2="196"/><!--MD5=[4b28f5fdca66a50faa00a02f1e4fa63f]
class NoOtherJumpMovePossible--><rect codeLine="7" fill="#FEFECE" filter="url(#fgektaj3qqk0a)" height="48" id="NoOtherJumpMovePossible" style="stroke:#A80036;stroke-width:1.5;" width="195" x="225.5" y="156"/><ellipse cx="240.5" cy="172" fill="#ADD1B2" rx="11" ry="11" style="stroke:#A80036;stroke-width:1.0;"/><path d="M242.8438,167.6719 C241.9063,167.2344 241.3125,167.0938 240.4375,167.0938 C237.8125,167.0938 235.8125,169.1719 235.8125,171.8906 L235.8125,173.0156 C235.8125,175.5938 237.9219,177.4844 240.8125,177.4844 C242.0313,177.4844 243.1875,177.1875 243.9375,176.6406 C244.5156,176.2344 244.8438,175.7813 244.8438,175.3906 C244.8438,174.9375 244.4531,174.5469 243.9844,174.5469 C243.7656,174.5469 243.5625,174.625 243.375,174.8125 C242.9219,175.2969 242.9219,175.2969 242.7344,175.3906 C242.3125,175.6563 241.625,175.7813 240.8594,175.7813 C238.8125,175.7813 237.5156,174.6875 237.5156,172.9844 L237.5156,171.8906 C237.5156,170.1094 238.7656,168.7969 240.5,168.7969 C241.0781,168.7969 241.6875,168.9531 242.1563,169.2031 C242.6406,169.4844 242.8125,169.7031 242.9063,170.1094 C242.9688,170.5156 243,170.6406 243.1406,170.7656 C243.2813,170.9063 243.5156,171.0156 243.7344,171.0156 C244,171.0156 244.2656,170.875 244.4375,170.6563 C244.5469,170.5 244.5781,170.3125 244.5781,169.8906 L244.5781,168.4688 C244.5781,168.0313 244.5625,167.9063 244.4688,167.75 C244.3125,167.4844 244.0313,167.3438 243.7344,167.3438 C243.4375,167.3438 243.2344,167.4375 243.0156,167.75 L242.8438,167.6719 Z " fill="#000000"/><text fill="#000000" font-family="sans-serif" font-size="12" lengthAdjust="spacing" textLength="163" x="254.5" y="176.1543">NoOtherJumpMovePossible</text><line style="stroke:#A80036;stroke-width:1.5;" x1="226.5" x2="419.5" y1="188" y2="188"/><line style="stroke:#A80036;stroke-width:1.5;" x1="226.5" x2="419.5" y1="196" y2="196"/><!--MD5=[144a57071119a3d13e26b3f4424e8101]
class OpponentPieceBetweenJump--><rect codeLine="8" fill="#FEFECE" filter="url(#fgektaj3qqk0a)" height="48" id="OpponentPieceBetweenJump" style="stroke:#A80036;stroke-width:1.5;" width="207" x="347.5" y="264"/><ellipse cx="362.5" cy="280" fill="#ADD1B2" rx="11" ry="11" style="stroke:#A80036;stroke-width:1.0;"/><path d="M364.8438,275.6719 C363.9063,275.2344 363.3125,275.0938 362.4375,275.0938 C359.8125,275.0938 357.8125,277.1719 357.8125,279.8906 L357.8125,281.0156 C357.8125,283.5938 359.9219,285.4844 362.8125,285.4844 C364.0313,285.4844 365.1875,285.1875 365.9375,284.6406 C366.5156,284.2344 366.8438,283.7813 366.8438,283.3906 C366.8438,282.9375 366.4531,282.5469 365.9844,282.5469 C365.7656,282.5469 365.5625,282.625 365.375,282.8125 C364.9219,283.2969 364.9219,283.2969 364.7344,283.3906 C364.3125,283.6563 363.625,283.7813 362.8594,283.7813 C360.8125,283.7813 359.5156,282.6875 359.5156,280.9844 L359.5156,279.8906 C359.5156,278.1094 360.7656,276.7969 362.5,276.7969 C363.0781,276.7969 363.6875,276.9531 364.1563,277.2031 C364.6406,277.4844 364.8125,277.7031 364.9063,278.1094 C364.9688,278.5156 365,278.6406 365.1406,278.7656 C365.2813,278.9063 365.5156,279.0156 365.7344,279.0156 C366,279.0156 366.2656,278.875 366.4375,278.6563 C366.5469,278.5 366.5781,278.3125 366.5781,277.8906 L366.5781,276.4688 C366.5781,276.0313 366.5625,275.9063 366.4688,275.75 C366.3125,275.4844 366.0313,275.3438 365.7344,275.3438 C365.4375,275.3438 365.2344,275.4375 365.0156,275.75 L364.8438,275.6719 Z " fill="#000000"/><text fill="#000000" font-family="sans-serif" font-size="12" lengthAdjust="spacing" textLength="175" x="376.5" y="284.1543">OpponentPieceBetweenJump</text><line style="stroke:#A80036;stroke-width:1.5;" x1="348.5" x2="553.5" y1="296" y2="296"/><line style="stroke:#A80036;stroke-width:1.5;" x1="348.5" x2="553.5" y1="304" y2="304"/><!--MD5=[d9e999e06b20071fb8d06cb4ed94fff3]
class StartPieceValid--><rect codeLine="9" fill="#FEFECE" filter="url(#fgektaj3qqk0a)" height="48" id="StartPieceValid" style="stroke:#A80036;stroke-width:1.5;" width="121" x="589.5" y="264"/><ellipse cx="604.5" cy="280" fill="#ADD1B2" rx="11" ry="11" style="stroke:#A80036;stroke-width:1.0;"/><path d="M606.8438,275.6719 C605.9063,275.2344 605.3125,275.0938 604.4375,275.0938 C601.8125,275.0938 599.8125,277.1719 599.8125,279.8906 L599.8125,281.0156 C599.8125,283.5938 601.9219,285.4844 604.8125,285.4844 C606.0313,285.4844 607.1875,285.1875 607.9375,284.6406 C608.5156,284.2344 608.8438,283.7813 608.8438,283.3906 C608.8438,282.9375 608.4531,282.5469 607.9844,282.5469 C607.7656,282.5469 607.5625,282.625 607.375,282.8125 C606.9219,283.2969 606.9219,283.2969 606.7344,283.3906 C606.3125,283.6563 605.625,283.7813 604.8594,283.7813 C602.8125,283.7813 601.5156,282.6875 601.5156,280.9844 L601.5156,279.8906 C601.5156,278.1094 602.7656,276.7969 604.5,276.7969 C605.0781,276.7969 605.6875,276.9531 606.1563,277.2031 C606.6406,277.4844 606.8125,277.7031 606.9063,278.1094 C606.9688,278.5156 607,278.6406 607.1406,278.7656 C607.2813,278.9063 607.5156,279.0156 607.7344,279.0156 C608,279.0156 608.2656,278.875 608.4375,278.6563 C608.5469,278.5 608.5781,278.3125 608.5781,277.8906 L608.5781,276.4688 C608.5781,276.0313 608.5625,275.9063 608.4688,275.75 C608.3125,275.4844 608.0313,275.3438 607.7344,275.3438 C607.4375,275.3438 607.2344,275.4375 607.0156,275.75 L606.8438,275.6719 Z " fill="#000000"/><text fill="#000000" font-family="sans-serif" font-size="12" lengthAdjust="spacing" textLength="89" x="618.5" y="284.1543">StartPieceValid</text><line style="stroke:#A80036;stroke-width:1.5;" x1="590.5" x2="709.5" y1="296" y2="296"/><line style="stroke:#A80036;stroke-width:1.5;" x1="590.5" x2="709.5" y1="304" y2="304"/><!--MD5=[4759e6c7226a5465ab4896ebeaa6b5f9]
class TargetFieldEmpty--><rect codeLine="10" fill="#FEFECE" filter="url(#fgektaj3qqk0a)" height="48" id="TargetFieldEmpty" style="stroke:#A80036;stroke-width:1.5;" width="137" x="745.5" y="264"/><ellipse cx="760.5" cy="280" fill="#ADD1B2" rx="11" ry="11" style="stroke:#A80036;stroke-width:1.0;"/><path d="M762.8438,275.6719 C761.9063,275.2344 761.3125,275.0938 760.4375,275.0938 C757.8125,275.0938 755.8125,277.1719 755.8125,279.8906 L755.8125,281.0156 C755.8125,283.5938 757.9219,285.4844 760.8125,285.4844 C762.0313,285.4844 763.1875,285.1875 763.9375,284.6406 C764.5156,284.2344 764.8438,283.7813 764.8438,283.3906 C764.8438,282.9375 764.4531,282.5469 763.9844,282.5469 C763.7656,282.5469 763.5625,282.625 763.375,282.8125 C762.9219,283.2969 762.9219,283.2969 762.7344,283.3906 C762.3125,283.6563 761.625,283.7813 760.8594,283.7813 C758.8125,283.7813 757.5156,282.6875 757.5156,280.9844 L757.5156,279.8906 C757.5156,278.1094 758.7656,276.7969 760.5,276.7969 C761.0781,276.7969 761.6875,276.9531 762.1563,277.2031 C762.6406,277.4844 762.8125,277.7031 762.9063,278.1094 C762.9688,278.5156 763,278.6406 763.1406,278.7656 C763.2813,278.9063 763.5156,279.0156 763.7344,279.0156 C764,279.0156 764.2656,278.875 764.4375,278.6563 C764.5469,278.5 764.5781,278.3125 764.5781,277.8906 L764.5781,276.4688 C764.5781,276.0313 764.5625,275.9063 764.4688,275.75 C764.3125,275.4844 764.0313,275.3438 763.7344,275.3438 C763.4375,275.3438 763.2344,275.4375 763.0156,275.75 L762.8438,275.6719 Z " fill="#000000"/><text fill="#000000" font-family="sans-serif" font-size="12" lengthAdjust="spacing" textLength="105" x="774.5" y="284.1543">TargetFieldEmpty</text><line style="stroke:#A80036;stroke-width:1.5;" x1="746.5" x2="881.5" y1="296" y2="296"/><line style="stroke:#A80036;stroke-width:1.5;" x1="746.5" x2="881.5" y1="304" y2="304"/><!--MD5=[7c09b93fa82cf28f6567775df5153120]
link movevalidator to Board--><path codeLine="23" d="M926.0266,186.0347 C926.4347,186.2907 926.8567,186.5554 927.2922,186.8285 C929.0341,187.921 930.9916,189.1488 933.1392,190.4958 C941.7295,195.8837 953.3616,203.1796 966.407,211.3619 C992.4978,227.7265 1024.2415,247.637 1048.61,262.922 " fill="none" id="movevalidator-to-Board" style="stroke:#A80036;stroke-width:1.0;"/><polygon fill="#A80036" points="1052.94,265.637,1047.4416,257.4658,1048.7044,262.9799,1043.1903,264.2428,1052.94,265.637" style="stroke:#A80036;stroke-width:1.0;"/><!--MD5=[8d1e08084067605cbff0975a3ad06eb7]
link movevalidator to Move--><path codeLine="24" d="M926.3812,183.6602 C926.6656,183.7507 926.9567,183.8434 927.2545,183.9382 C927.85,184.1279 928.4723,184.3262 929.1206,184.5329 C930.4172,184.9463 931.818,185.3934 933.3182,185.8727 C936.3187,186.8314 939.7166,187.919 943.4729,189.1245 C958.4981,193.9464 979.2576,200.653 1003.2504,208.5255 C1051.236,224.2705 1112.155,244.679 1166,264 C1173.25,266.602 1180.96,269.474 1188.34,272.281 " fill="none" id="movevalidator-to-Move" style="stroke:#A80036;stroke-width:1.0;"/><polygon fill="#A80036" points="1193.4,274.21,1186.4215,267.2601,1188.7296,272.4247,1183.565,274.7327,1193.4,274.21" style="stroke:#A80036;stroke-width:1.0;"/><!--MD5=[d68f7d6eded3427924652da04f92b39d]
link movevalidator to Piece--><path codeLine="25" d="M926.2782,182.2779 C926.4512,182.3052 926.6268,182.333 926.805,182.3611 C927.5176,182.4737 928.271,182.5933 929.0643,182.7197 C935.4103,183.7311 944.3069,185.1834 955.2839,187.0627 C977.2379,190.8212 1007.5135,196.2876 1042.3495,203.3508 C1112.0215,217.477 1199.935,237.99 1276,264 C1280.32,265.476 1284.76,267.201 1289.14,269.031 " fill="none" id="movevalidator-to-Piece" style="stroke:#A80036;stroke-width:1.0;"/><polygon fill="#A80036" points="1293.85,271.051,1287.1558,263.8269,1289.2549,269.0799,1284.002,271.179,1293.85,271.051" style="stroke:#A80036;stroke-width:1.0;"/><!--MD5=[f330818b1afc3cd2c7fc04725874a94c]
link movevalidator to Player--><path codeLine="26" d="M926.1043,194.0158 C927.022,195.4897 928.0011,197.0621 929.0325,198.7187 C931.0955,202.032 933.3683,205.6823 935.78,209.5556 C945.4268,225.049 957.2955,244.111 966.844,259.446 " fill="none" id="movevalidator-to-Player" style="stroke:#A80036;stroke-width:1.0;"/><polygon fill="#A80036" points="969.59,263.857,968.2282,254.1027,966.9471,259.6126,961.4372,258.3314,969.59,263.857" style="stroke:#A80036;stroke-width:1.0;"/><!--MD5=[62d2c076f1dddd2522a2928a61971ff4]
link movevalidator to BoardCoordinates--><path codeLine="27" d="M926.2743,181.7368 C926.4175,181.7514 926.5624,181.7664 926.7089,181.7816 C927.0021,181.8119 927.302,181.8433 927.6085,181.8758 C928.2216,181.9407 928.8614,182.0099 929.527,182.0835 C930.8582,182.2307 932.2929,182.3956 933.8246,182.5798 C936.8881,182.9483 940.34,183.394 944.1296,183.9297 C959.2881,186.0723 979.8507,189.6542 1002.5779,195.4874 C1048.0323,207.1538 1102.145,227.8255 1139,264 C1146.71,271.566 1168.52,331.016 1181.32,367.1786 " fill="none" id="movevalidator-to-BoardCoordinates" style="stroke:#A80036;stroke-width:1.0;"/><polygon fill="#A80036" points="1182.98,371.9018,1183.7566,362.0836,1181.3159,367.1868,1176.2127,364.7462,1182.98,371.9018" style="stroke:#A80036;stroke-width:1.0;"/><!--MD5=[0c00c207e3f22f0e458b8f88a0a5435c]
link Board to BoardCoordinates--><path codeLine="28" d="M1109.22,312.127 C1120.75,324.077 1135.08,338.869 1148,352 C1153.17,357.2583 1158.73,362.8496 1164.07,368.2004 " fill="none" id="Board-to-BoardCoordinates" style="stroke:#A80036;stroke-width:1.0;"/><polygon fill="#A80036" points="1167.72,371.8594,1164.1962,362.6625,1164.189,368.3194,1158.5321,368.3122,1167.72,371.8594" style="stroke:#A80036;stroke-width:1.0;"/><!--MD5=[d89f7539eb6b4a17b7869ea943924333]
link BoardPrinter to BoardCoordinates--><path codeLine="29" d="M1426.11,312.001 C1413.15,325.585 1395.14,342.023 1376,352 C1342.28,369.5809 1301.4,380.0483 1266.65,386.2434 " fill="none" id="BoardPrinter-to-BoardCoordinates" style="stroke:#A80036;stroke-width:1.0;"/><polygon fill="#A80036" points="1261.56,387.1267,1271.1125,389.5246,1266.486,386.2696,1269.7411,381.6431,1261.56,387.1267" style="stroke:#A80036;stroke-width:1.0;"/><!--MD5=[d8dc67bf393c1dfe5a8283e3ddae59c3]
link GameLogic to MoveValidator--><path codeLine="30" d="M247.458,78.556 C234.041,83.183 219.938,89.247 208,97 C185.465,111.636 164.911,134.227 150.717,151.994 " fill="none" id="GameLogic-to-MoveValidator" style="stroke:#A80036;stroke-width:1.0;"/><polygon fill="#A80036" points="147.608,155.937,156.3218,151.3468,150.704,152.0109,150.04,146.3931,147.608,155.937" style="stroke:#A80036;stroke-width:1.0;"/><!--MD5=[bf2ea00233e6053ef70b120b946723b4]
link GameLogic to NoOtherJumpMovePossible--><path codeLine="31" d="M302.324,89.14 C306.425,106.964 312.114,131.69 316.487,150.693 " fill="none" id="GameLogic-to-NoOtherJumpMovePossible" style="stroke:#A80036;stroke-width:1.0;"/><polygon fill="#A80036" points="317.683,155.891,319.5626,146.2232,316.5616,151.0184,311.7664,148.0174,317.683,155.891" style="stroke:#A80036;stroke-width:1.0;"/><!--MD5=[d9ef5c0d50cf96956657702af13d0b58]
link Main to movevalidator--><path codeLine="32" d="M918,89.14 C918,93.1433 918,97.4946 918,102.0512 C918,104.3294 918,106.6589 918,109.0219 C918,110.2034 918,111.3932 918,112.5891 " fill="none" id="Main-to-movevalidator" style="stroke:#A80036;stroke-width:1.0;"/><polygon fill="#A80036" points="918,112.5891,922,103.5891,918,107.5891,914,103.5891,918,112.5891" style="stroke:#A80036;stroke-width:1.0;"/><!--MD5=[101e0738e1710600c946acda8f263b73]
link Move to BoardCoordinates--><path codeLine="33" d="M1218.41,312 C1213.12,328.003 1206.04,349.446 1200.4,366.528 " fill="none" id="Move-to-BoardCoordinates" style="stroke:#A80036;stroke-width:1.0;"/><polygon fill="#A80036" points="1198.7,371.6784,1205.3227,364.3887,1200.2693,366.9311,1197.7269,361.8777,1198.7,371.6784" style="stroke:#A80036;stroke-width:1.0;"/><!--MD5=[ff236950aff6a2fa4839e64b089fdbe1]
link WinCondition to MoveValidator--><path codeLine="34" d="M131,89.14 C131,106.964 131,131.69 131,150.693 " fill="none" id="WinCondition-to-MoveValidator" style="stroke:#A80036;stroke-width:1.0;"/><polygon fill="#A80036" points="131,155.891,135,146.891,131,150.891,127,146.891,131,155.891" style="stroke:#A80036;stroke-width:1.0;"/><!--MD5=[beae7331eabbe231c0342518b94d006a]
link MoveIsDiagonal to MoveIsForward--><!--MD5=[6899864d7ceca79a9a1c183e8e804566]
link MoveIsForward to MoveLength--><!--MD5=[d2e5f570975d31baa52f6e9bbbcd39f8]
link MoveIsDiagonal to OpponentPieceBetweenJump--><!--MD5=[a6eaa22fe2eaba7c4857a529cd915e17]
link OpponentPieceBetweenJump to StartPieceValid--><!--MD5=[dded74e190a2619037218b0bbe88dc9d]
link StartPieceValid to TargetFieldEmpty--><!--MD5=[9b33d73548242b054602a722b8cb459f]
@startuml
package exercise3{
package movevalidator {
class MoveIsDiagonal
class MoveIsForward
class MoveLength
class MoveValidator
class NoOtherJumpMovePossible
class OpponentPieceBetweenJump
class StartPieceValid
class TargetFieldEmpty
}
class Board
class BoardCoordinates
class BoardPrinter
class Console
class GameLogic
class Main
class Move
class Piece
class Player
class WinCondition
}
movevalidator - -> Board
movevalidator - -> Move
movevalidator - -> Piece
movevalidator - -> Player
movevalidator - -> BoardCoordinates
Board - -> BoardCoordinates
BoardPrinter - -> BoardCoordinates
GameLogic - -> MoveValidator
GameLogic - -> NoOtherJumpMovePossible
Main - -> movevalidator
Move - -> BoardCoordinates
WinCondition - -> MoveValidator
@enduml

PlantUML version 1.2021.12(Tue Oct 05 16:01:58 UTC 2021)
(GPL source distribution)
Java Runtime: Java(TM) SE Runtime Environment
JVM: Java HotSpot(TM) 64-Bit Server VM
Default Encoding: UTF-8
Language: en
Country: US
--></g></svg>