<?xml version="1.0" encoding="UTF-8" standalone="no"?><svg xmlns="http://www.w3.org/2000/svg" xmlns:xlink="http://www.w3.org/1999/xlink" contentScriptType="application/ecmascript" contentStyleType="text/css" height="483px" preserveAspectRatio="none" style="width:1760px;height:483px;background:#FFFFFF;" version="1.1" viewBox="0 0 1760 483" width="1760px" zoomAndPan="magnify"><defs><filter height="300%" id="foxsjv9906vc2" width="300%" x="-1" y="-1"><feGaussianBlur result="blurOut" stdDeviation="2.0"/><feColorMatrix in="blurOut" result="blurOut2" type="matrix" values="0 0 0 0 0 0 0 0 0 0 0 0 0 0 0 0 0 0 .4 0"/><feOffset dx="4.0" dy="4.0" in="blurOut2" result="blurOut3"/><feBlend in="SourceGraphic" in2="blurOut3" mode="normal"/></filter></defs><g><!--MD5=[28b67fcf98ed12ee50c06f64d60a688e]
cluster exercise3--><polygon fill="#FFFFFF" filter="url(#foxsjv9906vc2)" points="16,6,98,6,105,28.2969,1743,28.2969,1743,476,16,476,16,6" style="stroke:#000000;stroke-width:1.5;"/><line style="stroke:#000000;stroke-width:1.5;" x1="16" x2="105" y1="28.2969" y2="28.2969"/><text fill="#000000" font-family="sans-serif" font-size="14" font-weight="bold" lengthAdjust="spacing" textLength="76" x="20" y="20.9951">exercise3</text><!--MD5=[e22c8116d6f4c16f6522eab6546ffa36]
cluster movevalidator--><polygon fill="#FFFFFF" filter="url(#foxsjv9906vc2)" points="427,221,550,221,557,243.2969,1711,243.2969,1711,444,427,444,427,221" style="stroke:#000000;stroke-width:1.5;"/><line style="stroke:#000000;stroke-width:1.5;" x1="427" x2="557" y1="243.2969" y2="243.2969"/><text fill="#000000" font-family="sans-serif" font-size="14" font-weight="bold" lengthAdjust="spacing" textLength="117" x="431" y="235.9951">movevalidator</text><!--MD5=[9563755d011c5cec7ec66dc53565a59e]
class Board--><rect codeLine="12" fill="#FEFECE" filter="url(#foxsjv9906vc2)" height="48" id="Board" style="stroke:#A80036;stroke-width:1.5;" width="68" x="32" y="372"/><ellipse cx="47" cy="388" fill="#ADD1B2" rx="11" ry="11" style="stroke:#A80036;stroke-width:1.0;"/><path d="M49.3438,383.6719 C48.4063,383.2344 47.8125,383.0938 46.9375,383.0938 C44.3125,383.0938 42.3125,385.1719 42.3125,387.8906 L42.3125,389.0156 C42.3125,391.5938 44.4219,393.4844 47.3125,393.4844 C48.5313,393.4844 49.6875,393.1875 50.4375,392.6406 C51.0156,392.2344 51.3438,391.7813 51.3438,391.3906 C51.3438,390.9375 50.9531,390.5469 50.4844,390.5469 C50.2656,390.5469 50.0625,390.625 49.875,390.8125 C49.4219,391.2969 49.4219,391.2969 49.2344,391.3906 C48.8125,391.6563 48.125,391.7813 47.3594,391.7813 C45.3125,391.7813 44.0156,390.6875 44.0156,388.9844 L44.0156,387.8906 C44.0156,386.1094 45.2656,384.7969 47,384.7969 C47.5781,384.7969 48.1875,384.9531 48.6563,385.2031 C49.1406,385.4844 49.3125,385.7031 49.4063,386.1094 C49.4688,386.5156 49.5,386.6406 49.6406,386.7656 C49.7813,386.9063 50.0156,387.0156 50.2344,387.0156 C50.5,387.0156 50.7656,386.875 50.9375,386.6563 C51.0469,386.5 51.0781,386.3125 51.0781,385.8906 L51.0781,384.4688 C51.0781,384.0313 51.0625,383.9063 50.9688,383.75 C50.8125,383.4844 50.5313,383.3438 50.2344,383.3438 C49.9375,383.3438 49.7344,383.4375 49.5156,383.75 L49.3438,383.6719 Z " fill="#000000"/><text fill="#000000" font-family="sans-serif" font-size="12" lengthAdjust="spacing" textLength="36" x="61" y="392.1543">Board</text><line style="stroke:#A80036;stroke-width:1.5;" x1="33" x2="99" y1="404" y2="404"/><line style="stroke:#A80036;stroke-width:1.5;" x1="33" x2="99" y1="412" y2="412"/><!--MD5=[52eedb0dee32d5ffd86442c605b13fc4]
class BoardPrinter--><rect codeLine="13" fill="#FEFECE" filter="url(#foxsjv9906vc2)" height="48" id="BoardPrinter" style="stroke:#A80036;stroke-width:1.5;" width="106" x="106" y="149"/><ellipse cx="121" cy="165" fill="#ADD1B2" rx="11" ry="11" style="stroke:#A80036;stroke-width:1.0;"/><path d="M123.3438,160.6719 C122.4063,160.2344 121.8125,160.0938 120.9375,160.0938 C118.3125,160.0938 116.3125,162.1719 116.3125,164.8906 L116.3125,166.0156 C116.3125,168.5938 118.4219,170.4844 121.3125,170.4844 C122.5313,170.4844 123.6875,170.1875 124.4375,169.6406 C125.0156,169.2344 125.3438,168.7813 125.3438,168.3906 C125.3438,167.9375 124.9531,167.5469 124.4844,167.5469 C124.2656,167.5469 124.0625,167.625 123.875,167.8125 C123.4219,168.2969 123.4219,168.2969 123.2344,168.3906 C122.8125,168.6563 122.125,168.7813 121.3594,168.7813 C119.3125,168.7813 118.0156,167.6875 118.0156,165.9844 L118.0156,164.8906 C118.0156,163.1094 119.2656,161.7969 121,161.7969 C121.5781,161.7969 122.1875,161.9531 122.6563,162.2031 C123.1406,162.4844 123.3125,162.7031 123.4063,163.1094 C123.4688,163.5156 123.5,163.6406 123.6406,163.7656 C123.7813,163.9063 124.0156,164.0156 124.2344,164.0156 C124.5,164.0156 124.7656,163.875 124.9375,163.6563 C125.0469,163.5 125.0781,163.3125 125.0781,162.8906 L125.0781,161.4688 C125.0781,161.0313 125.0625,160.9063 124.9688,160.75 C124.8125,160.4844 124.5313,160.3438 124.2344,160.3438 C123.9375,160.3438 123.7344,160.4375 123.5156,160.75 L123.3438,160.6719 Z " fill="#000000"/><text fill="#000000" font-family="sans-serif" font-size="12" lengthAdjust="spacing" textLength="74" x="135" y="169.1543">BoardPrinter</text><line style="stroke:#A80036;stroke-width:1.5;" x1="107" x2="211" y1="181" y2="181"/><line style="stroke:#A80036;stroke-width:1.5;" x1="107" x2="211" y1="189" y2="189"/><!--MD5=[69cd7bb0186966cdb12d6f14492428f2]
class GameLogic--><rect codeLine="14" fill="#FEFECE" filter="url(#foxsjv9906vc2)" height="48" id="GameLogic" style="stroke:#A80036;stroke-width:1.5;" width="99" x="272.5" y="41"/><ellipse cx="287.5" cy="57" fill="#ADD1B2" rx="11" ry="11" style="stroke:#A80036;stroke-width:1.0;"/><path d="M289.8438,52.6719 C288.9063,52.2344 288.3125,52.0938 287.4375,52.0938 C284.8125,52.0938 282.8125,54.1719 282.8125,56.8906 L282.8125,58.0156 C282.8125,60.5938 284.9219,62.4844 287.8125,62.4844 C289.0313,62.4844 290.1875,62.1875 290.9375,61.6406 C291.5156,61.2344 291.8438,60.7813 291.8438,60.3906 C291.8438,59.9375 291.4531,59.5469 290.9844,59.5469 C290.7656,59.5469 290.5625,59.625 290.375,59.8125 C289.9219,60.2969 289.9219,60.2969 289.7344,60.3906 C289.3125,60.6563 288.625,60.7813 287.8594,60.7813 C285.8125,60.7813 284.5156,59.6875 284.5156,57.9844 L284.5156,56.8906 C284.5156,55.1094 285.7656,53.7969 287.5,53.7969 C288.0781,53.7969 288.6875,53.9531 289.1563,54.2031 C289.6406,54.4844 289.8125,54.7031 289.9063,55.1094 C289.9688,55.5156 290,55.6406 290.1406,55.7656 C290.2813,55.9063 290.5156,56.0156 290.7344,56.0156 C291,56.0156 291.2656,55.875 291.4375,55.6563 C291.5469,55.5 291.5781,55.3125 291.5781,54.8906 L291.5781,53.4688 C291.5781,53.0313 291.5625,52.9063 291.4688,52.75 C291.3125,52.4844 291.0313,52.3438 290.7344,52.3438 C290.4375,52.3438 290.2344,52.4375 290.0156,52.75 L289.8438,52.6719 Z " fill="#000000"/><text fill="#000000" font-family="sans-serif" font-size="12" lengthAdjust="spacing" textLength="67" x="301.5" y="61.1543">GameLogic</text><line style="stroke:#A80036;stroke-width:1.5;" x1="273.5" x2="370.5" y1="73" y2="73"/><line style="stroke:#A80036;stroke-width:1.5;" x1="273.5" x2="370.5" y1="81" y2="81"/><!--MD5=[1981719fa3982d92ef7fd3f06d73b3e7]
class Move--><rect codeLine="15" fill="#FEFECE" filter="url(#foxsjv9906vc2)" height="48" id="Move" style="stroke:#A80036;stroke-width:1.5;" width="65" x="135.5" y="372"/><ellipse cx="150.5" cy="388" fill="#ADD1B2" rx="11" ry="11" style="stroke:#A80036;stroke-width:1.0;"/><path d="M152.8438,383.6719 C151.9063,383.2344 151.3125,383.0938 150.4375,383.0938 C147.8125,383.0938 145.8125,385.1719 145.8125,387.8906 L145.8125,389.0156 C145.8125,391.5938 147.9219,393.4844 150.8125,393.4844 C152.0313,393.4844 153.1875,393.1875 153.9375,392.6406 C154.5156,392.2344 154.8438,391.7813 154.8438,391.3906 C154.8438,390.9375 154.4531,390.5469 153.9844,390.5469 C153.7656,390.5469 153.5625,390.625 153.375,390.8125 C152.9219,391.2969 152.9219,391.2969 152.7344,391.3906 C152.3125,391.6563 151.625,391.7813 150.8594,391.7813 C148.8125,391.7813 147.5156,390.6875 147.5156,388.9844 L147.5156,387.8906 C147.5156,386.1094 148.7656,384.7969 150.5,384.7969 C151.0781,384.7969 151.6875,384.9531 152.1563,385.2031 C152.6406,385.4844 152.8125,385.7031 152.9063,386.1094 C152.9688,386.5156 153,386.6406 153.1406,386.7656 C153.2813,386.9063 153.5156,387.0156 153.7344,387.0156 C154,387.0156 154.2656,386.875 154.4375,386.6563 C154.5469,386.5 154.5781,386.3125 154.5781,385.8906 L154.5781,384.4688 C154.5781,384.0313 154.5625,383.9063 154.4688,383.75 C154.3125,383.4844 154.0313,383.3438 153.7344,383.3438 C153.4375,383.3438 153.2344,383.4375 153.0156,383.75 L152.8438,383.6719 Z " fill="#000000"/><text fill="#000000" font-family="sans-serif" font-size="12" lengthAdjust="spacing" textLength="33" x="164.5" y="392.1543">Move</text><line style="stroke:#A80036;stroke-width:1.5;" x1="136.5" x2="199.5" y1="404" y2="404"/><line style="stroke:#A80036;stroke-width:1.5;" x1="136.5" x2="199.5" y1="412" y2="412"/><!--MD5=[e05bacf3ff4416a0580578814d41bbf6]
class Piece--><rect codeLine="16" fill="#FEFECE" filter="url(#foxsjv9906vc2)" height="48" id="Piece" style="stroke:#A80036;stroke-width:1.5;" width="64" x="236" y="372"/><ellipse cx="251" cy="388" fill="#ADD1B2" rx="11" ry="11" style="stroke:#A80036;stroke-width:1.0;"/><path d="M253.3438,383.6719 C252.4063,383.2344 251.8125,383.0938 250.9375,383.0938 C248.3125,383.0938 246.3125,385.1719 246.3125,387.8906 L246.3125,389.0156 C246.3125,391.5938 248.4219,393.4844 251.3125,393.4844 C252.5313,393.4844 253.6875,393.1875 254.4375,392.6406 C255.0156,392.2344 255.3438,391.7813 255.3438,391.3906 C255.3438,390.9375 254.9531,390.5469 254.4844,390.5469 C254.2656,390.5469 254.0625,390.625 253.875,390.8125 C253.4219,391.2969 253.4219,391.2969 253.2344,391.3906 C252.8125,391.6563 252.125,391.7813 251.3594,391.7813 C249.3125,391.7813 248.0156,390.6875 248.0156,388.9844 L248.0156,387.8906 C248.0156,386.1094 249.2656,384.7969 251,384.7969 C251.5781,384.7969 252.1875,384.9531 252.6563,385.2031 C253.1406,385.4844 253.3125,385.7031 253.4063,386.1094 C253.4688,386.5156 253.5,386.6406 253.6406,386.7656 C253.7813,386.9063 254.0156,387.0156 254.2344,387.0156 C254.5,387.0156 254.7656,386.875 254.9375,386.6563 C255.0469,386.5 255.0781,386.3125 255.0781,385.8906 L255.0781,384.4688 C255.0781,384.0313 255.0625,383.9063 254.9688,383.75 C254.8125,383.4844 254.5313,383.3438 254.2344,383.3438 C253.9375,383.3438 253.7344,383.4375 253.5156,383.75 L253.3438,383.6719 Z " fill="#000000"/><text fill="#000000" font-family="sans-serif" font-size="12" lengthAdjust="spacing" textLength="32" x="265" y="392.1543">Piece</text><line style="stroke:#A80036;stroke-width:1.5;" x1="237" x2="299" y1="404" y2="404"/><line style="stroke:#A80036;stroke-width:1.5;" x1="237" x2="299" y1="412" y2="412"/><!--MD5=[2cb47ba637a0d19583e6199456f6ad0b]
class Player--><rect codeLine="17" fill="#FEFECE" filter="url(#foxsjv9906vc2)" height="48" id="Player" style="stroke:#A80036;stroke-width:1.5;" width="68" x="335" y="372"/><ellipse cx="350" cy="388" fill="#EB937F" rx="11" ry="11" style="stroke:#A80036;stroke-width:1.0;"/><path d="M348.7969,388.875 L350.25,388.875 L350.25,388.9844 C350.25,389.3906 350.2813,389.5469 350.3594,389.7031 C350.5156,389.9531 350.7969,390.1094 351.0938,390.1094 C351.3438,390.1094 351.6094,389.9688 351.7656,389.75 C351.8906,389.5938 351.9219,389.4375 351.9219,388.9844 L351.9219,387.0625 C351.9219,386.9063 351.9219,386.8594 351.9063,386.7031 C351.8438,386.2344 351.5313,385.9219 351.0781,385.9219 C350.8281,385.9219 350.5625,386.0625 350.3906,386.2813 C350.2813,386.4531 350.25,386.6094 350.25,387.0625 L350.25,387.1875 L348.7969,387.1875 L348.7969,384.7813 L352.7813,384.7813 L352.7813,385.6406 C352.7813,386.0469 352.8125,386.2188 352.8906,386.375 C353.0625,386.625 353.3438,386.7813 353.625,386.7813 C353.8906,386.7813 354.1563,386.6406 354.3281,386.4219 C354.4375,386.25 354.4688,386.1094 354.4688,385.6406 L354.4688,383.0938 L346.8438,383.0938 C346.4063,383.0938 346.2813,383.1094 346.125,383.2031 C345.875,383.3594 345.7188,383.6563 345.7188,383.9375 C345.7188,384.2188 345.8594,384.4688 346.0781,384.6406 C346.2344,384.75 346.4219,384.7813 346.8438,384.7813 L347.0938,384.7813 L347.0938,391.2969 L346.8438,391.2969 C346.4375,391.2969 346.2813,391.3125 346.125,391.4219 C345.875,391.5938 345.7188,391.8594 345.7188,392.1563 C345.7188,392.4219 345.8594,392.6719 346.0781,392.8281 C346.2188,392.9531 346.4531,393 346.8438,393 L354.8438,393 L354.8438,390.4219 C354.8438,389.9844 354.8125,389.8438 354.7344,389.6875 C354.5625,389.4375 354.2813,389.2813 354,389.2813 C353.7344,389.2813 353.4688,389.3906 353.2969,389.6406 C353.1875,389.7969 353.1563,389.9375 353.1563,390.4219 L353.1563,391.2969 L348.7969,391.2969 L348.7969,388.875 Z " fill="#000000"/><text fill="#000000" font-family="sans-serif" font-size="12" lengthAdjust="spacing" textLength="36" x="364" y="392.1543">Player</text><line style="stroke:#A80036;stroke-width:1.5;" x1="336" x2="402" y1="404" y2="404"/><line style="stroke:#A80036;stroke-width:1.5;" x1="336" x2="402" y1="412" y2="412"/><!--MD5=[a1afa0a95a001be89659a266b6dc5aeb]
class WinCondition--><rect codeLine="18" fill="#FEFECE" filter="url(#foxsjv9906vc2)" height="48" id="WinCondition" style="stroke:#A80036;stroke-width:1.5;" width="110" x="455" y="149"/><ellipse cx="470" cy="165" fill="#ADD1B2" rx="11" ry="11" style="stroke:#A80036;stroke-width:1.0;"/><path d="M472.3438,160.6719 C471.4063,160.2344 470.8125,160.0938 469.9375,160.0938 C467.3125,160.0938 465.3125,162.1719 465.3125,164.8906 L465.3125,166.0156 C465.3125,168.5938 467.4219,170.4844 470.3125,170.4844 C471.5313,170.4844 472.6875,170.1875 473.4375,169.6406 C474.0156,169.2344 474.3438,168.7813 474.3438,168.3906 C474.3438,167.9375 473.9531,167.5469 473.4844,167.5469 C473.2656,167.5469 473.0625,167.625 472.875,167.8125 C472.4219,168.2969 472.4219,168.2969 472.2344,168.3906 C471.8125,168.6563 471.125,168.7813 470.3594,168.7813 C468.3125,168.7813 467.0156,167.6875 467.0156,165.9844 L467.0156,164.8906 C467.0156,163.1094 468.2656,161.7969 470,161.7969 C470.5781,161.7969 471.1875,161.9531 471.6563,162.2031 C472.1406,162.4844 472.3125,162.7031 472.4063,163.1094 C472.4688,163.5156 472.5,163.6406 472.6406,163.7656 C472.7813,163.9063 473.0156,164.0156 473.2344,164.0156 C473.5,164.0156 473.7656,163.875 473.9375,163.6563 C474.0469,163.5 474.0781,163.3125 474.0781,162.8906 L474.0781,161.4688 C474.0781,161.0313 474.0625,160.9063 473.9688,160.75 C473.8125,160.4844 473.5313,160.3438 473.2344,160.3438 C472.9375,160.3438 472.7344,160.4375 472.5156,160.75 L472.3438,160.6719 Z " fill="#000000"/><text fill="#000000" font-family="sans-serif" font-size="12" lengthAdjust="spacing" textLength="78" x="484" y="169.1543">WinCondition</text><line style="stroke:#A80036;stroke-width:1.5;" x1="456" x2="564" y1="181" y2="181"/><line style="stroke:#A80036;stroke-width:1.5;" x1="456" x2="564" y1="189" y2="189"/><!--MD5=[d6bdbcc18aeb9c5da5e915b0b2b9e30a]
class MoveIsDiagonal--><rect codeLine="3" fill="#FEFECE" filter="url(#foxsjv9906vc2)" height="48" id="MoveIsDiagonal" style="stroke:#A80036;stroke-width:1.5;" width="127" x="759.5" y="372"/><ellipse cx="774.5" cy="388" fill="#ADD1B2" rx="11" ry="11" style="stroke:#A80036;stroke-width:1.0;"/><path d="M776.8438,383.6719 C775.9063,383.2344 775.3125,383.0938 774.4375,383.0938 C771.8125,383.0938 769.8125,385.1719 769.8125,387.8906 L769.8125,389.0156 C769.8125,391.5938 771.9219,393.4844 774.8125,393.4844 C776.0313,393.4844 777.1875,393.1875 777.9375,392.6406 C778.5156,392.2344 778.8438,391.7813 778.8438,391.3906 C778.8438,390.9375 778.4531,390.5469 777.9844,390.5469 C777.7656,390.5469 777.5625,390.625 777.375,390.8125 C776.9219,391.2969 776.9219,391.2969 776.7344,391.3906 C776.3125,391.6563 775.625,391.7813 774.8594,391.7813 C772.8125,391.7813 771.5156,390.6875 771.5156,388.9844 L771.5156,387.8906 C771.5156,386.1094 772.7656,384.7969 774.5,384.7969 C775.0781,384.7969 775.6875,384.9531 776.1563,385.2031 C776.6406,385.4844 776.8125,385.7031 776.9063,386.1094 C776.9688,386.5156 777,386.6406 777.1406,386.7656 C777.2813,386.9063 777.5156,387.0156 777.7344,387.0156 C778,387.0156 778.2656,386.875 778.4375,386.6563 C778.5469,386.5 778.5781,386.3125 778.5781,385.8906 L778.5781,384.4688 C778.5781,384.0313 778.5625,383.9063 778.4688,383.75 C778.3125,383.4844 778.0313,383.3438 777.7344,383.3438 C777.4375,383.3438 777.2344,383.4375 777.0156,383.75 L776.8438,383.6719 Z " fill="#000000"/><text fill="#000000" font-family="sans-serif" font-size="12" lengthAdjust="spacing" textLength="95" x="788.5" y="392.1543">MoveIsDiagonal</text><line style="stroke:#A80036;stroke-width:1.5;" x1="760.5" x2="885.5" y1="404" y2="404"/><line style="stroke:#A80036;stroke-width:1.5;" x1="760.5" x2="885.5" y1="412" y2="412"/><!--MD5=[0259f0a8215eff7078b4f23e87fc63bc]
class MoveIsForward--><rect codeLine="4" fill="#FEFECE" filter="url(#foxsjv9906vc2)" height="48" id="MoveIsForward" style="stroke:#A80036;stroke-width:1.5;" width="125" x="459.5" y="372"/><ellipse cx="474.5" cy="388" fill="#ADD1B2" rx="11" ry="11" style="stroke:#A80036;stroke-width:1.0;"/><path d="M476.8438,383.6719 C475.9063,383.2344 475.3125,383.0938 474.4375,383.0938 C471.8125,383.0938 469.8125,385.1719 469.8125,387.8906 L469.8125,389.0156 C469.8125,391.5938 471.9219,393.4844 474.8125,393.4844 C476.0313,393.4844 477.1875,393.1875 477.9375,392.6406 C478.5156,392.2344 478.8438,391.7813 478.8438,391.3906 C478.8438,390.9375 478.4531,390.5469 477.9844,390.5469 C477.7656,390.5469 477.5625,390.625 477.375,390.8125 C476.9219,391.2969 476.9219,391.2969 476.7344,391.3906 C476.3125,391.6563 475.625,391.7813 474.8594,391.7813 C472.8125,391.7813 471.5156,390.6875 471.5156,388.9844 L471.5156,387.8906 C471.5156,386.1094 472.7656,384.7969 474.5,384.7969 C475.0781,384.7969 475.6875,384.9531 476.1563,385.2031 C476.6406,385.4844 476.8125,385.7031 476.9063,386.1094 C476.9688,386.5156 477,386.6406 477.1406,386.7656 C477.2813,386.9063 477.5156,387.0156 477.7344,387.0156 C478,387.0156 478.2656,386.875 478.4375,386.6563 C478.5469,386.5 478.5781,386.3125 478.5781,385.8906 L478.5781,384.4688 C478.5781,384.0313 478.5625,383.9063 478.4688,383.75 C478.3125,383.4844 478.0313,383.3438 477.7344,383.3438 C477.4375,383.3438 477.2344,383.4375 477.0156,383.75 L476.8438,383.6719 Z " fill="#000000"/><text fill="#000000" font-family="sans-serif" font-size="12" lengthAdjust="spacing" textLength="93" x="488.5" y="392.1543">MoveIsForward</text><line style="stroke:#A80036;stroke-width:1.5;" x1="460.5" x2="583.5" y1="404" y2="404"/><line style="stroke:#A80036;stroke-width:1.5;" x1="460.5" x2="583.5" y1="412" y2="412"/><!--MD5=[364ccf8958780f78aeeac0b3c6c2d700]
class MoveLength--><rect codeLine="5" fill="#FEFECE" filter="url(#foxsjv9906vc2)" height="48" id="MoveLength" style="stroke:#A80036;stroke-width:1.5;" width="105" x="619.5" y="372"/><ellipse cx="634.5" cy="388" fill="#ADD1B2" rx="11" ry="11" style="stroke:#A80036;stroke-width:1.0;"/><path d="M636.8438,383.6719 C635.9063,383.2344 635.3125,383.0938 634.4375,383.0938 C631.8125,383.0938 629.8125,385.1719 629.8125,387.8906 L629.8125,389.0156 C629.8125,391.5938 631.9219,393.4844 634.8125,393.4844 C636.0313,393.4844 637.1875,393.1875 637.9375,392.6406 C638.5156,392.2344 638.8438,391.7813 638.8438,391.3906 C638.8438,390.9375 638.4531,390.5469 637.9844,390.5469 C637.7656,390.5469 637.5625,390.625 637.375,390.8125 C636.9219,391.2969 636.9219,391.2969 636.7344,391.3906 C636.3125,391.6563 635.625,391.7813 634.8594,391.7813 C632.8125,391.7813 631.5156,390.6875 631.5156,388.9844 L631.5156,387.8906 C631.5156,386.1094 632.7656,384.7969 634.5,384.7969 C635.0781,384.7969 635.6875,384.9531 636.1563,385.2031 C636.6406,385.4844 636.8125,385.7031 636.9063,386.1094 C636.9688,386.5156 637,386.6406 637.1406,386.7656 C637.2813,386.9063 637.5156,387.0156 637.7344,387.0156 C638,387.0156 638.2656,386.875 638.4375,386.6563 C638.5469,386.5 638.5781,386.3125 638.5781,385.8906 L638.5781,384.4688 C638.5781,384.0313 638.5625,383.9063 638.4688,383.75 C638.3125,383.4844 638.0313,383.3438 637.7344,383.3438 C637.4375,383.3438 637.2344,383.4375 637.0156,383.75 L636.8438,383.6719 Z " fill="#000000"/><text fill="#000000" font-family="sans-serif" font-size="12" lengthAdjust="spacing" textLength="73" x="648.5" y="392.1543">MoveLength</text><line style="stroke:#A80036;stroke-width:1.5;" x1="620.5" x2="723.5" y1="404" y2="404"/><line style="stroke:#A80036;stroke-width:1.5;" x1="620.5" x2="723.5" y1="412" y2="412"/><!--MD5=[0e92013d96b67125c3d883bb456ddcaa]
class MoveValidator--><rect codeLine="6" fill="#FEFECE" filter="url(#foxsjv9906vc2)" height="48" id="MoveValidator" style="stroke:#A80036;stroke-width:1.5;" width="116" x="765" y="264"/><ellipse cx="780" cy="280" fill="#B4A7E5" rx="11" ry="11" style="stroke:#A80036;stroke-width:1.0;"/><path d="M780.9531,276.7813 L782.6719,276.7813 C783.0625,276.7813 783.25,276.75 783.375,276.6719 C783.6406,276.5156 783.7813,276.2344 783.7813,275.9375 C783.7813,275.6719 783.6719,275.4063 783.4375,275.2344 C783.2656,275.125 783.125,275.0938 782.6719,275.0938 L777.5313,275.0938 C777.0938,275.0938 776.9688,275.1094 776.8125,275.2031 C776.5625,275.3594 776.4063,275.6563 776.4063,275.9375 C776.4063,276.2188 776.5469,276.4688 776.7656,276.6406 C776.9219,276.75 777.1094,276.7813 777.5313,276.7813 L779.25,276.7813 L779.25,283.2969 L777.5313,283.2969 C777.0938,283.2969 776.9688,283.3125 776.8125,283.4219 C776.5625,283.5781 776.4063,283.8594 776.4063,284.1563 C776.4063,284.4063 776.5469,284.6719 776.7656,284.8281 C776.9219,284.9531 777.125,285 777.5313,285 L782.6719,285 C783.4219,285 783.7813,284.7188 783.7813,284.1563 C783.7813,283.875 783.6719,283.625 783.4375,283.4531 C783.2656,283.3281 783.125,283.2969 782.6719,283.2969 L780.9531,283.2969 L780.9531,276.7813 Z " fill="#000000"/><text fill="#000000" font-family="sans-serif" font-size="12" font-style="italic" lengthAdjust="spacing" textLength="84" x="794" y="284.1543">MoveValidator</text><line style="stroke:#A80036;stroke-width:1.5;" x1="766" x2="880" y1="296" y2="296"/><line style="stroke:#A80036;stroke-width:1.5;" x1="766" x2="880" y1="304" y2="304"/><!--MD5=[4b28f5fdca66a50faa00a02f1e4fa63f]
class NoOtherJumpMovePossible--><rect codeLine="7" fill="#FEFECE" filter="url(#foxsjv9906vc2)" height="48" id="NoOtherJumpMovePossible" style="stroke:#A80036;stroke-width:1.5;" width="195" x="1491.5" y="372"/><ellipse cx="1506.5" cy="388" fill="#ADD1B2" rx="11" ry="11" style="stroke:#A80036;stroke-width:1.0;"/><path d="M1508.8438,383.6719 C1507.9063,383.2344 1507.3125,383.0938 1506.4375,383.0938 C1503.8125,383.0938 1501.8125,385.1719 1501.8125,387.8906 L1501.8125,389.0156 C1501.8125,391.5938 1503.9219,393.4844 1506.8125,393.4844 C1508.0313,393.4844 1509.1875,393.1875 1509.9375,392.6406 C1510.5156,392.2344 1510.8438,391.7813 1510.8438,391.3906 C1510.8438,390.9375 1510.4531,390.5469 1509.9844,390.5469 C1509.7656,390.5469 1509.5625,390.625 1509.375,390.8125 C1508.9219,391.2969 1508.9219,391.2969 1508.7344,391.3906 C1508.3125,391.6563 1507.625,391.7813 1506.8594,391.7813 C1504.8125,391.7813 1503.5156,390.6875 1503.5156,388.9844 L1503.5156,387.8906 C1503.5156,386.1094 1504.7656,384.7969 1506.5,384.7969 C1507.0781,384.7969 1507.6875,384.9531 1508.1563,385.2031 C1508.6406,385.4844 1508.8125,385.7031 1508.9063,386.1094 C1508.9688,386.5156 1509,386.6406 1509.1406,386.7656 C1509.2813,386.9063 1509.5156,387.0156 1509.7344,387.0156 C1510,387.0156 1510.2656,386.875 1510.4375,386.6563 C1510.5469,386.5 1510.5781,386.3125 1510.5781,385.8906 L1510.5781,384.4688 C1510.5781,384.0313 1510.5625,383.9063 1510.4688,383.75 C1510.3125,383.4844 1510.0313,383.3438 1509.7344,383.3438 C1509.4375,383.3438 1509.2344,383.4375 1509.0156,383.75 L1508.8438,383.6719 Z " fill="#000000"/><text fill="#000000" font-family="sans-serif" font-size="12" lengthAdjust="spacing" textLength="163" x="1520.5" y="392.1543">NoOtherJumpMovePossible</text><line style="stroke:#A80036;stroke-width:1.5;" x1="1492.5" x2="1685.5" y1="404" y2="404"/><line style="stroke:#A80036;stroke-width:1.5;" x1="1492.5" x2="1685.5" y1="412" y2="412"/><!--MD5=[144a57071119a3d13e26b3f4424e8101]
class OpponentPieceBetweenJump--><rect codeLine="8" fill="#FEFECE" filter="url(#foxsjv9906vc2)" height="48" id="OpponentPieceBetweenJump" style="stroke:#A80036;stroke-width:1.5;" width="207" x="921.5" y="372"/><ellipse cx="936.5" cy="388" fill="#ADD1B2" rx="11" ry="11" style="stroke:#A80036;stroke-width:1.0;"/><path d="M938.8438,383.6719 C937.9063,383.2344 937.3125,383.0938 936.4375,383.0938 C933.8125,383.0938 931.8125,385.1719 931.8125,387.8906 L931.8125,389.0156 C931.8125,391.5938 933.9219,393.4844 936.8125,393.4844 C938.0313,393.4844 939.1875,393.1875 939.9375,392.6406 C940.5156,392.2344 940.8438,391.7813 940.8438,391.3906 C940.8438,390.9375 940.4531,390.5469 939.9844,390.5469 C939.7656,390.5469 939.5625,390.625 939.375,390.8125 C938.9219,391.2969 938.9219,391.2969 938.7344,391.3906 C938.3125,391.6563 937.625,391.7813 936.8594,391.7813 C934.8125,391.7813 933.5156,390.6875 933.5156,388.9844 L933.5156,387.8906 C933.5156,386.1094 934.7656,384.7969 936.5,384.7969 C937.0781,384.7969 937.6875,384.9531 938.1563,385.2031 C938.6406,385.4844 938.8125,385.7031 938.9063,386.1094 C938.9688,386.5156 939,386.6406 939.1406,386.7656 C939.2813,386.9063 939.5156,387.0156 939.7344,387.0156 C940,387.0156 940.2656,386.875 940.4375,386.6563 C940.5469,386.5 940.5781,386.3125 940.5781,385.8906 L940.5781,384.4688 C940.5781,384.0313 940.5625,383.9063 940.4688,383.75 C940.3125,383.4844 940.0313,383.3438 939.7344,383.3438 C939.4375,383.3438 939.2344,383.4375 939.0156,383.75 L938.8438,383.6719 Z " fill="#000000"/><text fill="#000000" font-family="sans-serif" font-size="12" lengthAdjust="spacing" textLength="175" x="950.5" y="392.1543">OpponentPieceBetweenJump</text><line style="stroke:#A80036;stroke-width:1.5;" x1="922.5" x2="1127.5" y1="404" y2="404"/><line style="stroke:#A80036;stroke-width:1.5;" x1="922.5" x2="1127.5" y1="412" y2="412"/><!--MD5=[d9e999e06b20071fb8d06cb4ed94fff3]
class StartPieceValid--><rect codeLine="9" fill="#FEFECE" filter="url(#foxsjv9906vc2)" height="48" id="StartPieceValid" style="stroke:#A80036;stroke-width:1.5;" width="121" x="1163.5" y="372"/><ellipse cx="1178.5" cy="388" fill="#ADD1B2" rx="11" ry="11" style="stroke:#A80036;stroke-width:1.0;"/><path d="M1180.8438,383.6719 C1179.9063,383.2344 1179.3125,383.0938 1178.4375,383.0938 C1175.8125,383.0938 1173.8125,385.1719 1173.8125,387.8906 L1173.8125,389.0156 C1173.8125,391.5938 1175.9219,393.4844 1178.8125,393.4844 C1180.0313,393.4844 1181.1875,393.1875 1181.9375,392.6406 C1182.5156,392.2344 1182.8438,391.7813 1182.8438,391.3906 C1182.8438,390.9375 1182.4531,390.5469 1181.9844,390.5469 C1181.7656,390.5469 1181.5625,390.625 1181.375,390.8125 C1180.9219,391.2969 1180.9219,391.2969 1180.7344,391.3906 C1180.3125,391.6563 1179.625,391.7813 1178.8594,391.7813 C1176.8125,391.7813 1175.5156,390.6875 1175.5156,388.9844 L1175.5156,387.8906 C1175.5156,386.1094 1176.7656,384.7969 1178.5,384.7969 C1179.0781,384.7969 1179.6875,384.9531 1180.1563,385.2031 C1180.6406,385.4844 1180.8125,385.7031 1180.9063,386.1094 C1180.9688,386.5156 1181,386.6406 1181.1406,386.7656 C1181.2813,386.9063 1181.5156,387.0156 1181.7344,387.0156 C1182,387.0156 1182.2656,386.875 1182.4375,386.6563 C1182.5469,386.5 1182.5781,386.3125 1182.5781,385.8906 L1182.5781,384.4688 C1182.5781,384.0313 1182.5625,383.9063 1182.4688,383.75 C1182.3125,383.4844 1182.0313,383.3438 1181.7344,383.3438 C1181.4375,383.3438 1181.2344,383.4375 1181.0156,383.75 L1180.8438,383.6719 Z " fill="#000000"/><text fill="#000000" font-family="sans-serif" font-size="12" lengthAdjust="spacing" textLength="89" x="1192.5" y="392.1543">StartPieceValid</text><line style="stroke:#A80036;stroke-width:1.5;" x1="1164.5" x2="1283.5" y1="404" y2="404"/><line style="stroke:#A80036;stroke-width:1.5;" x1="1164.5" x2="1283.5" y1="412" y2="412"/><!--MD5=[4759e6c7226a5465ab4896ebeaa6b5f9]
class TargetFieldEmpty--><rect codeLine="10" fill="#FEFECE" filter="url(#foxsjv9906vc2)" height="48" id="TargetFieldEmpty" style="stroke:#A80036;stroke-width:1.5;" width="137" x="1319.5" y="372"/><ellipse cx="1334.5" cy="388" fill="#ADD1B2" rx="11" ry="11" style="stroke:#A80036;stroke-width:1.0;"/><path d="M1336.8438,383.6719 C1335.9063,383.2344 1335.3125,383.0938 1334.4375,383.0938 C1331.8125,383.0938 1329.8125,385.1719 1329.8125,387.8906 L1329.8125,389.0156 C1329.8125,391.5938 1331.9219,393.4844 1334.8125,393.4844 C1336.0313,393.4844 1337.1875,393.1875 1337.9375,392.6406 C1338.5156,392.2344 1338.8438,391.7813 1338.8438,391.3906 C1338.8438,390.9375 1338.4531,390.5469 1337.9844,390.5469 C1337.7656,390.5469 1337.5625,390.625 1337.375,390.8125 C1336.9219,391.2969 1336.9219,391.2969 1336.7344,391.3906 C1336.3125,391.6563 1335.625,391.7813 1334.8594,391.7813 C1332.8125,391.7813 1331.5156,390.6875 1331.5156,388.9844 L1331.5156,387.8906 C1331.5156,386.1094 1332.7656,384.7969 1334.5,384.7969 C1335.0781,384.7969 1335.6875,384.9531 1336.1563,385.2031 C1336.6406,385.4844 1336.8125,385.7031 1336.9063,386.1094 C1336.9688,386.5156 1337,386.6406 1337.1406,386.7656 C1337.2813,386.9063 1337.5156,387.0156 1337.7344,387.0156 C1338,387.0156 1338.2656,386.875 1338.4375,386.6563 C1338.5469,386.5 1338.5781,386.3125 1338.5781,385.8906 L1338.5781,384.4688 C1338.5781,384.0313 1338.5625,383.9063 1338.4688,383.75 C1338.3125,383.4844 1338.0313,383.3438 1337.7344,383.3438 C1337.4375,383.3438 1337.2344,383.4375 1337.0156,383.75 L1336.8438,383.6719 Z " fill="#000000"/><text fill="#000000" font-family="sans-serif" font-size="12" lengthAdjust="spacing" textLength="105" x="1348.5" y="392.1543">TargetFieldEmpty</text><line style="stroke:#A80036;stroke-width:1.5;" x1="1320.5" x2="1455.5" y1="404" y2="404"/><line style="stroke:#A80036;stroke-width:1.5;" x1="1320.5" x2="1455.5" y1="412" y2="412"/><!--MD5=[7c09b93fa82cf28f6567775df5153120]
link movevalidator to Board--><path codeLine="20" d="M426.3606,316.6013 C424.819,318.0909 423.2822,319.5366 421.7499,320.9397 C418.6852,323.746 415.6385,326.3817 412.6073,328.8564 C406.545,333.8058 400.5449,338.111 394.5882,341.8475 C382.6748,349.3207 370.9347,354.5195 359.2167,358.049 C335.7808,365.1081 312.4332,365.4901 287.9636,364.0359 C239.0245,361.1273 185.5975,350.8735 118,372 C113.71,373.341 109.301,374.932 104.951,376.643 " fill="none" id="movevalidator-to-Board" style="stroke:#A80036;stroke-width:1.0;stroke-dasharray:7.0,7.0;"/><polygon fill="#A80036" points="100.263,378.539,110.1062,378.8728,104.8983,376.6643,107.1067,371.4564,100.263,378.539" style="stroke:#A80036;stroke-width:1.0;"/><!--MD5=[8d1e08084067605cbff0975a3ad06eb7]
link movevalidator to Move--><path codeLine="21" d="M426.3844,316.9385 C425.8734,317.4658 425.3631,317.9861 424.8533,318.4994 C422.8143,320.5528 420.7845,322.4951 418.7627,324.3324 C414.719,328.0072 410.7067,331.2622 406.714,334.1465 C398.7285,339.9152 390.8214,344.2013 382.8977,347.3974 C367.0504,353.7895 351.1369,355.8215 334.3985,356.634 C300.9218,358.259 264.1455,355.006 218,372 C213.786,373.552 209.434,375.309 205.136,377.144 " fill="none" id="movevalidator-to-Move" style="stroke:#A80036;stroke-width:1.0;stroke-dasharray:7.0,7.0;"/><polygon fill="#A80036" points="200.504,379.16,210.3525,379.2388,205.0892,377.166,207.1621,371.9026,200.504,379.16" style="stroke:#A80036;stroke-width:1.0;"/><!--MD5=[d68f7d6eded3427924652da04f92b39d]
link movevalidator to Piece--><path codeLine="22" d="M426.7837,315.1869 C426.6322,315.2831 426.477,315.3809 426.3183,315.4803 C423.7788,317.0704 420.325,319.0607 416.1506,321.3623 C407.8017,325.9656 396.5701,331.8141 384.0051,338.1959 C358.8753,350.9595 328.412,365.8565 305.01,377.192 " fill="none" id="movevalidator-to-Piece" style="stroke:#A80036;stroke-width:1.0;stroke-dasharray:7.0,7.0;"/><polygon fill="#A80036" points="300.292,379.476,310.1356,379.1545,304.7923,377.2973,306.6496,371.954,300.292,379.476" style="stroke:#A80036;stroke-width:1.0;"/><!--MD5=[f330818b1afc3cd2c7fc04725874a94c]
link movevalidator to Player--><path codeLine="23" d="M426.9639,320.5652 C426.803,320.8807 426.6409,321.196 426.4776,321.511 C426.1511,322.1411 425.8199,322.7701 425.4844,323.398 C424.8133,324.6537 424.1247,325.9048 423.4205,327.1502 C420.6038,332.1317 417.5372,337.0219 414.3421,341.7523 C407.952,351.213 401.048,360.0345 394.601,367.669 " fill="none" id="movevalidator-to-Player" style="stroke:#A80036;stroke-width:1.0;stroke-dasharray:7.0,7.0;"/><polygon fill="#A80036" points="391.019,371.846,399.9146,367.6189,394.2743,368.0508,393.8423,362.4105,391.019,371.846" style="stroke:#A80036;stroke-width:1.0;"/><!--MD5=[b6ed2dd2b28666cbf8305d53e989b3a7]
link GameLogic to BoardPrinter--><path codeLine="25" d="M286.631,89 C260.768,105.819 225.663,128.649 198.816,146.107 " fill="none" id="GameLogic-to-BoardPrinter" style="stroke:#A80036;stroke-width:1.0;stroke-dasharray:7.0,7.0;"/><polygon fill="#A80036" points="194.581,148.862,204.3066,147.3088,198.7726,146.1362,199.9453,140.6022,194.581,148.862" style="stroke:#A80036;stroke-width:1.0;"/><!--MD5=[c0eb98f33f8b57ea5427aa98fe57597c]
link GameLogic to Board--><path codeLine="26" d="M272.321,68.544 C217.735,74.233 131.979,92.283 88,149 C38.2109,213.21 50.0761,317.147 59.6017,366.818 " fill="none" id="GameLogic-to-Board" style="stroke:#A80036;stroke-width:1.0;stroke-dasharray:7.0,7.0;"/><polygon fill="#A80036" points="60.5722,371.74,62.7557,362.1362,59.605,366.8344,54.9068,363.6837,60.5722,371.74" style="stroke:#A80036;stroke-width:1.0;"/><!--MD5=[bdd1b004d9035d2d15dacc689970778c]
link GameLogic to WinCondition--><path codeLine="27" d="M362.793,89 C392.746,105.889 433.446,128.837 464.459,146.323 " fill="none" id="GameLogic-to-WinCondition" style="stroke:#A80036;stroke-width:1.0;stroke-dasharray:7.0,7.0;"/><polygon fill="#A80036" points="468.962,148.862,463.0877,140.9568,464.6069,146.4058,459.1578,147.925,468.962,148.862" style="stroke:#A80036;stroke-width:1.0;"/><!--MD5=[cecdcf20db0b8b0d56ebcf541fd5d92a]
link GameLogic to Move--><path codeLine="28" d="M311.171,89.135 C283.613,148.008 210.899,303.353 181.06,367.099 " fill="none" id="GameLogic-to-Move" style="stroke:#A80036;stroke-width:1.0;stroke-dasharray:7.0,7.0;"/><polygon fill="#A80036" points="178.817,371.891,186.2538,365.434,180.9357,367.3621,179.0076,362.044,178.817,371.891" style="stroke:#A80036;stroke-width:1.0;"/><!--MD5=[c63dede8dc85746c3a996abcaed78df6]
link GameLogic to Piece--><path codeLine="29" d="M318.203,89.135 C308.559,147.89 283.145,302.731 272.643,366.714 " fill="none" id="GameLogic-to-Piece" style="stroke:#A80036;stroke-width:1.0;stroke-dasharray:7.0,7.0;"/><polygon fill="#A80036" points="271.793,371.891,277.1981,363.6578,272.6029,366.957,269.3037,362.3619,271.793,371.891" style="stroke:#A80036;stroke-width:1.0;"/><!--MD5=[f0e04f6b30d339d5599b25dc81f30d45]
link GameLogic to Player--><path codeLine="30" d="M325.305,89.135 C333.699,147.89 355.819,302.731 364.959,366.714 " fill="none" id="GameLogic-to-Player" style="stroke:#A80036;stroke-width:1.0;stroke-dasharray:7.0,7.0;"/><polygon fill="#A80036" points="365.699,371.891,368.386,362.4158,364.9919,366.9413,360.4664,363.5471,365.699,371.891" style="stroke:#A80036;stroke-width:1.0;"/><!--MD5=[d8dc67bf393c1dfe5a8283e3ddae59c3]
link GameLogic to MoveValidator--><path codeLine="31" d="M371.796,71.76 C458.077,83.786 637.918,118.052 761,205 C780.889,219.05 797.188,241.415 808.075,259.242 " fill="none" id="GameLogic-to-MoveValidator" style="stroke:#A80036;stroke-width:1.0;stroke-dasharray:7.0,7.0;"/><polygon fill="#A80036" points="810.726,263.669,809.5346,253.8925,808.1575,259.3791,802.6708,258.002,810.726,263.669" style="stroke:#A80036;stroke-width:1.0;"/><!--MD5=[bf2ea00233e6053ef70b120b946723b4]
link GameLogic to NoOtherJumpMovePossible--><path codeLine="32" d="M371.53,75.57 C445.508,90.095 589.113,119.185 710,149 C1005.85,221.967 1353.18,324.109 1507.74,370.431 " fill="none" id="GameLogic-to-NoOtherJumpMovePossible" style="stroke:#A80036;stroke-width:1.0;stroke-dasharray:7.0,7.0;"/><polygon fill="#A80036" points="1512.7,371.92,1505.2362,365.4942,1507.9125,370.4779,1502.9288,373.1542,1512.7,371.92" style="stroke:#A80036;stroke-width:1.0;"/><!--MD5=[daa85a92f4ecb3821a5880037972dbec]
link BoardPrinter to Board--><path codeLine="34" d="M149.223,197.233 C131.99,238.186 96.28,323.044 77.7417,367.098 " fill="none" id="BoardPrinter-to-Board" style="stroke:#A80036;stroke-width:1.0;stroke-dasharray:7.0,7.0;"/><polygon fill="#A80036" points="75.7854,371.747,82.9639,365.0039,77.7253,367.1387,75.5906,361.9001,75.7854,371.747" style="stroke:#A80036;stroke-width:1.0;"/><!--MD5=[ff236950aff6a2fa4839e64b089fdbe1]
link WinCondition to MoveValidator--><path codeLine="36" d="M565.12,182.983 C594.928,187.624 632.415,193.114 666,197 C687.045,199.435 742.445,194.774 761,205 C782.903,217.071 799.403,240.495 809.854,259.228 " fill="none" id="WinCondition-to-MoveValidator" style="stroke:#A80036;stroke-width:1.0;stroke-dasharray:7.0,7.0;"/><polygon fill="#A80036" points="812.38,263.879,811.6012,254.061,809.9944,259.4848,804.5705,257.878,812.38,263.879" style="stroke:#A80036;stroke-width:1.0;"/><!--MD5=[5576137e12a2bc1da099202dd193c025]
reverse link MoveValidator to NoOtherJumpMovePossible--><path codeLine="38" d="M901.103,315.59 C1145.18,369.618 1220.53,333.833 1474,372 C1479.64,372.849 1485.42,373.787 1491.24,374.785 " fill="none" id="MoveValidator-backto-NoOtherJumpMovePossible" style="stroke:#A80036;stroke-width:1.0;stroke-dasharray:7.0,7.0;"/><polygon fill="none" points="899.24,322.345,881.286,311.091,902.34,308.693,899.24,322.345" style="stroke:#A80036;stroke-width:1.0;"/><!--MD5=[4428c6f81dc7c72417d97ea9d1aca052]
reverse link MoveValidator to MoveIsDiagonal--><path codeLine="39" d="M823,332.024 C823,345.579 823,360.038 823,371.678 " fill="none" id="MoveValidator-backto-MoveIsDiagonal" style="stroke:#A80036;stroke-width:1.0;stroke-dasharray:7.0,7.0;"/><polygon fill="none" points="816,332,823,312,830,332,816,332" style="stroke:#A80036;stroke-width:1.0;"/><!--MD5=[6c5d9f32bbf9e82ab8f6e2030d01c340]
reverse link MoveValidator to MoveIsForward--><path codeLine="40" d="M745.787,317.434 C687.828,338.097 628.007,358.779 584.526,373.687 " fill="none" id="MoveValidator-backto-MoveIsForward" style="stroke:#A80036;stroke-width:1.0;stroke-dasharray:7.0,7.0;"/><polygon fill="none" points="743.741,310.731,764.93,310.584,748.457,323.913,743.741,310.731" style="stroke:#A80036;stroke-width:1.0;"/><!--MD5=[14b714cf95d93183f4f9bdfeb35a8b92]
reverse link MoveValidator to MoveLength--><path codeLine="41" d="M773.837,323.512 C751.27,339.354 725.114,357.714 704.961,371.862 " fill="none" id="MoveValidator-backto-MoveLength" style="stroke:#A80036;stroke-width:1.0;stroke-dasharray:7.0,7.0;"/><polygon fill="none" points="769.844,317.762,790.235,312,777.888,329.221,769.844,317.762" style="stroke:#A80036;stroke-width:1.0;"/><!--MD5=[706005cae0f63d11191a4c421d5eabd1]
reverse link MoveValidator to OpponentPieceBetweenJump--><path codeLine="42" d="M884.802,321.431 C915.854,337.725 952.757,357.09 980.906,371.862 " fill="none" id="MoveValidator-backto-OpponentPieceBetweenJump" style="stroke:#A80036;stroke-width:1.0;stroke-dasharray:7.0,7.0;"/><polygon fill="none" points="881.288,327.492,866.831,312,887.793,315.095,881.288,327.492" style="stroke:#A80036;stroke-width:1.0;"/><!--MD5=[fb178d7d42f52c51bfc66298a2f12751]
reverse link MoveValidator to StartPieceValid--><path codeLine="43" d="M900.264,316.412 C1002.91,345.729 1037.39,343.53 1146,372 C1151.6,373.468 1157.41,375.055 1163.21,376.687 " fill="none" id="MoveValidator-backto-StartPieceValid" style="stroke:#A80036;stroke-width:1.0;stroke-dasharray:7.0,7.0;"/><polygon fill="none" points="898.236,323.113,881.007,310.777,902.168,309.676,898.236,323.113" style="stroke:#A80036;stroke-width:1.0;"/><!--MD5=[14f4b997b399ca38ba4a0009f20dbf05]
reverse link MoveValidator to TargetFieldEmpty--><path codeLine="44" d="M900.866,315.859 C1070.4,356.52 1125.2,335.771 1302,372 C1307.6,373.148 1313.38,374.444 1319.17,375.823 " fill="none" id="MoveValidator-backto-TargetFieldEmpty" style="stroke:#A80036;stroke-width:1.0;stroke-dasharray:7.0,7.0;"/><polygon fill="none" points="899.038,322.618,881.303,311.021,902.399,309.027,899.038,322.618" style="stroke:#A80036;stroke-width:1.0;"/><!--MD5=[5fd92e7edfc2951b3235de2eddca872a]
@startuml
package exercise3{
package movevalidator {
class MoveIsDiagonal
class MoveIsForward
class MoveLength
interface MoveValidator
class NoOtherJumpMovePossible
class OpponentPieceBetweenJump
class StartPieceValid
class TargetFieldEmpty
}
class Board
class BoardPrinter
class GameLogic
class Move
class Piece
enum Player
class WinCondition
}
movevalidator ..> Board
movevalidator ..> Move
movevalidator ..> Piece
movevalidator ..> Player

GameLogic ..> BoardPrinter
GameLogic ..> Board
GameLogic ..> WinCondition
GameLogic ..> Move
GameLogic ..> Piece
GameLogic ..> Player
GameLogic ..> MoveValidator
GameLogic ..> NoOtherJumpMovePossible

BoardPrinter ..> Board

WinCondition ..> MoveValidator

MoveValidator <|.. NoOtherJumpMovePossible
MoveValidator <|.. MoveIsDiagonal
MoveValidator <|.. MoveIsForward
MoveValidator <|.. MoveLength
MoveValidator <|.. OpponentPieceBetweenJump
MoveValidator <|.. StartPieceValid
MoveValidator <|.. TargetFieldEmpty
@enduml

PlantUML version 1.2021.12(Tue Oct 05 16:01:58 UTC 2021)
(GPL source distribution)
Java Runtime: Java(TM) SE Runtime Environment
JVM: Java HotSpot(TM) 64-Bit Server VM
Default Encoding: UTF-8
Language: en
Country: US
--></g></svg>